<svg xmlns="http://www.w3.org/2000/svg" viewBox="0 0 853 844"><defs><style>.cls-1,.cls-11,.cls-13,.cls-2,.cls-4,.cls-5,.cls-6,.cls-8{fill:none;stroke-miterlimit:10;}.cls-1{stroke:#c69c6d;}.cls-1,.cls-11{stroke-width:2px;}.cls-13,.cls-2{stroke:#f2f2f2;}.cls-2,.cls-4,.cls-5,.cls-6,.cls-8{stroke-width:8px;}.cls-2{stroke-dasharray:12;}.cls-3{fill:#ff931e;}.cls-4,.cls-5{stroke:#39b54a;}.cls-5{stroke-dasharray:12.09 12.09;}.cls-6{stroke:#29abe2;}.cls-7{fill:#29abe2;}.cls-8{stroke:#a67c52;}.cls-9{fill:#a67c52;}.cls-10{fill:#fff;}.cls-11{stroke:#d9e021;}.cls-12{font-size:60px;font-family:MyriadPro-Regular, Myriad Pro;}.cls-12,.cls-14{fill:#f2f2f2;}.cls-13{stroke-width:3px;}.cls-15{letter-spacing:0em;}</style></defs><g id="Layer_2" data-name="Layer 2"><g id="Layer_1-2" data-name="Layer 1"><line class="cls-1" x1="91" y1="256" x2="760" y2="256"/><line class="cls-1" x1="106.5" y1="292.5" x2="744.5" y2="292.5"/><line class="cls-1" x1="132" y1="329" x2="719" y2="329"/><line class="cls-1" x1="132" y1="365.5" x2="719" y2="365.5"/><line class="cls-1" x1="150" y1="402" x2="701" y2="402"/><line class="cls-1" x1="150" y1="438.5" x2="701" y2="438.5"/><line class="cls-1" x1="187" y1="475" x2="664" y2="475"/><line class="cls-1" x1="187" y1="511.5" x2="664" y2="511.5"/><line class="cls-1" x1="187" y1="548" x2="664" y2="548"/><line class="cls-1" x1="187" y1="584.5" x2="664" y2="584.5"/><line class="cls-1" x1="187" y1="621" x2="664" y2="621"/><line class="cls-1" x1="187" y1="657.5" x2="664" y2="657.5"/><line class="cls-2" x1="84" y1="231" x2="769" y2="231"/><line class="cls-2" x1="196" y1="681" x2="664" y2="681"/><line class="cls-2" x1="152" y1="368" x2="701" y2="368"/><line class="cls-2" x1="196" y1="818" x2="664" y2="818"/><rect class="cls-3" x="165" y="413" width="523" height="20"/><path class="cls-4" d="M657,844q0-3,0-6"/><path class="cls-5" d="M657.07,825.9c2.73-344.31,83.06-623.16,184-643.69"/><path class="cls-4" d="M847,181.3a59.91,59.91,0,0,1,6-.3"/><path class="cls-4" d="M196,844q0-3,0-6"/><path class="cls-5" d="M195.93,825.9C193.2,481.59,112.87,202.74,12,182.21"/><path class="cls-4" d="M6,181.3a59.91,59.91,0,0,0-6-.3"/><line class="cls-6" x1="223" y1="652" x2="223" y2="713.03"/><path class="cls-7" d="M223,742c-5.06-13.63-13.69-30.54-22.83-41L223,709.23,245.82,701C236.68,711.46,228.05,728.37,223,742Z"/><line class="cls-6" x1="323" y1="652" x2="323" y2="713.03"/><path class="cls-7" d="M323,742c-5.06-13.63-13.69-30.54-22.83-41L323,709.23,345.82,701C336.68,711.46,328.05,728.37,323,742Z"/><line class="cls-6" x1="423" y1="652" x2="423" y2="713.03"/><path class="cls-7" d="M423,742c-5.06-13.63-13.69-30.54-22.83-41L423,709.23,445.82,701C436.68,711.46,428.05,728.37,423,742Z"/><line class="cls-6" x1="523" y1="652" x2="523" y2="713.03"/><path class="cls-7" d="M523,742c-5.06-13.63-13.69-30.54-22.83-41L523,709.23,545.82,701C536.68,711.46,528.05,728.37,523,742Z"/><line class="cls-6" x1="623" y1="652" x2="623" y2="713.03"/><path class="cls-7" d="M623,742c-5.06-13.63-13.69-30.54-22.83-41L623,709.23,645.82,701C636.68,711.46,628.05,728.37,623,742Z"/><line class="cls-8" x1="223" y1="198" x2="223" y2="259.03"/><path class="cls-9" d="M223,288c-5.06-13.63-13.69-30.54-22.83-41L223,255.23,245.82,247C236.68,257.46,228.05,274.37,223,288Z"/><line class="cls-8" x1="126" y1="198" x2="126" y2="259.03"/><path class="cls-9" d="M126,288c-5.06-13.63-13.69-30.54-22.83-41L126,255.23,148.82,247C139.68,257.46,131.05,274.37,126,288Z"/><line class="cls-8" x1="323" y1="198" x2="323" y2="259.03"/><path class="cls-9" d="M323,288c-5.06-13.63-13.69-30.54-22.83-41L323,255.23,345.82,247C336.68,257.46,328.05,274.37,323,288Z"/><line class="cls-8" x1="423" y1="198" x2="423" y2="259.03"/><path class="cls-9" d="M423,288c-5.06-13.63-13.69-30.54-22.83-41L423,255.23,445.82,247C436.68,257.46,428.05,274.37,423,288Z"/><line class="cls-8" x1="523" y1="198" x2="523" y2="259.03"/><path class="cls-9" d="M523,288c-5.06-13.63-13.69-30.54-22.83-41L523,255.23,545.82,247C536.68,257.46,528.05,274.37,523,288Z"/><line class="cls-8" x1="623" y1="198" x2="623" y2="259.03"/><path class="cls-9" d="M623,288c-5.06-13.63-13.69-30.54-22.83-41L623,255.23,645.82,247C636.68,257.46,628.05,274.37,623,288Z"/><line class="cls-8" x1="719" y1="198" x2="719" y2="259.03"/><path class="cls-9" d="M719,288c-5.06-13.63-13.69-30.54-22.83-41L719,255.23,741.82,247C732.68,257.46,724.05,274.37,719,288Z"/><rect class="cls-10" x="47" width="178" height="110" rx="12"/><rect class="cls-10" x="318.5" width="178" height="110" rx="12"/><rect class="cls-10" x="590" width="178" height="110" rx="12"/><line class="cls-11" x1="187.5" y1="371.5" x2="196.5" y2="818.5"/><line class="cls-11" x1="214.5" y1="371.5" x2="223.5" y2="818.5"/><line class="cls-11" x1="241.5" y1="371.5" x2="250.5" y2="818.5"/><line class="cls-11" x1="268.5" y1="371.5" x2="277.5" y2="818.5"/><line class="cls-11" x1="295.5" y1="371.5" x2="304.5" y2="818.5"/><line class="cls-11" x1="322.5" y1="371.5" x2="331.5" y2="818.5"/><line class="cls-11" x1="349.5" y1="371.5" x2="358.5" y2="818.5"/><line class="cls-11" x1="376.5" y1="371.5" x2="385.5" y2="818.5"/><line class="cls-11" x1="403.5" y1="371.5" x2="412.5" y2="818.5"/><line class="cls-11" x1="430.5" y1="371.5" x2="439.5" y2="818.5"/><line class="cls-11" x1="457.5" y1="371.5" x2="466.5" y2="818.5"/><line class="cls-11" x1="484.5" y1="371.5" x2="493.5" y2="818.5"/><line class="cls-11" x1="511.5" y1="371.5" x2="520.5" y2="818.5"/><line class="cls-11" x1="538.5" y1="371.5" x2="547.5" y2="818.5"/><line class="cls-11" x1="565.5" y1="371.5" x2="574.5" y2="818.5"/><line class="cls-11" x1="592.5" y1="371.5" x2="601.5" y2="818.5"/><line class="cls-11" x1="619.5" y1="371.5" x2="628.5" y2="818.5"/><line class="cls-11" x1="646.5" y1="371.5" x2="655.5" y2="818.5"/><line class="cls-11" x1="614.5" y1="14.5" x2="614.5" y2="97.5"/><line class="cls-11" x1="635.5" y1="15" x2="635.5" y2="98"/><line class="cls-11" x1="656.5" y1="15.5" x2="656.5" y2="98.5"/><line class="cls-11" x1="677.5" y1="16" x2="677.5" y2="99"/><line class="cls-11" x1="698.5" y1="16.5" x2="698.5" y2="99.5"/><line class="cls-11" x1="719.5" y1="17" x2="719.5" y2="100"/><line class="cls-11" x1="740.5" y1="17.5" x2="740.5" y2="100.5"/><line class="cls-11" x1="339.5" y1="13.5" x2="339.5" y2="97.5"/><line class="cls-11" x1="365.5" y1="13.5" x2="365.5" y2="97.5"/><line class="cls-11" x1="391.5" y1="13.5" x2="391.5" y2="97.5"/><line class="cls-11" x1="417.5" y1="13.5" x2="417.5" y2="97.5"/><line class="cls-11" x1="443.5" y1="13.5" x2="443.5" y2="97.5"/><line class="cls-11" x1="469.5" y1="13.5" x2="469.5" y2="97.5"/><line class="cls-1" x1="68" y1="29.5" x2="203.5" y2="29.5"/><line class="cls-1" x1="68" y1="55.5" x2="203.5" y2="55.5"/><line class="cls-1" x1="68" y1="81.5" x2="203.5" y2="81.5"/><line class="cls-1" x1="340" y1="29.5" x2="475.5" y2="29.5"/><line class="cls-1" x1="340" y1="55.5" x2="475.5" y2="55.5"/><line class="cls-1" x1="340" y1="81.5" x2="475.5" y2="81.5"/><text class="cls-12" transform="translate(12.19 72.54)">1</text><text class="cls-12" transform="translate(16 322.54)">Vx</text><text class="cls-12" transform="translate(285.19 72.54)">2</text><text class="cls-12" transform="translate(553.19 72.54)">3</text><line class="cls-13" x1="84" y1="261.11" x2="84" y2="347.89"/><path class="cls-14" d="M84,243c-3.16,8.52-8.55,19.09-14.27,25.64L84,263.48l14.26,5.16C92.55,262.09,87.16,251.52,84,243Z"/><path class="cls-14" d="M84,366c-3.16-8.52-8.55-19.09-14.27-25.64L84,345.52l14.26-5.16C92.55,346.91,87.16,357.48,84,366Z"/><text class="cls-12" transform="translate(16.5 760.54)"><tspan class="cls-15">V</tspan><tspan x="33.24" y="0">y</tspan></text><line class="cls-13" x1="84.5" y1="699.11" x2="84.5" y2="809.39"/><path class="cls-14" d="M84.5,681c-3.16,8.52-8.55,19.09-14.27,25.64l14.27-5.16,14.26,5.16C93.05,700.09,87.66,689.52,84.5,681Z"/><path class="cls-14" d="M84.5,827.5C81.34,819,76,808.41,70.23,801.86L84.5,807l14.26-5.16C93.05,808.41,87.66,819,84.5,827.5Z"/></g></g></svg>