<svg id="Layer_1" data-name="Layer 1" xmlns="http://www.w3.org/2000/svg" viewBox="0 0 405.96 177.7"><defs><style>.cls-1{fill:#fff;}.cls-1,.cls-11{stroke:#231f20;stroke-miterlimit:10;}.cls-2,.cls-6{font-size:7px;}.cls-12,.cls-2,.cls-6{fill:#231f20;font-family:MyriadPro-Regular, Myriad Pro;}.cls-3,.cls-6{letter-spacing:-0.01em;}.cls-4{letter-spacing:0em;}.cls-5{letter-spacing:-0.01em;}.cls-7{letter-spacing:0.02em;}.cls-8{letter-spacing:-0.01em;}.cls-9{letter-spacing:0em;}.cls-10{letter-spacing:0em;}.cls-11{fill:none;}.cls-12{font-size:12px;}.cls-13{letter-spacing:-0.01em;}.cls-14{letter-spacing:0em;}.cls-15{letter-spacing:-0.01em;}</style></defs><g id="tda4vm_platform"><rect id="Core_A72_box_2" class="cls-1" x="23.62" y="38.83" width="45.18" height="45.18"/><text class="cls-2" transform="translate(37.78 62.73)"><tspan class="cls-3">C</tspan><tspan class="cls-4" x="3.98" y="0">o</tspan><tspan class="cls-5" x="7.83" y="0">r</tspan><tspan x="10.04" y="0">e A72</tspan></text><rect id="Core_A72_box_1" class="cls-1" x="83.77" y="38.83" width="45.18" height="45.18"/><text class="cls-2" transform="translate(97.94 62.73)"><tspan class="cls-3">C</tspan><tspan class="cls-4" x="3.98" y="0">o</tspan><tspan class="cls-5" x="7.83" y="0">r</tspan><tspan x="10.04" y="0">e A72</tspan></text><rect id="DSP_C66x_box" class="cls-1" x="143.93" y="38.83" width="45.18" height="45.18"/><text class="cls-2" transform="translate(157.68 62.73)">DSP C66x</text><rect id="DSP_C7x_box" class="cls-1" x="204.09" y="38.83" width="45.18" height="45.18"/><text class="cls-2" transform="translate(218.98 62.73)">DSP C7x</text><rect id="Cortex_M_box" class="cls-1" x="23.62" y="97.74" width="45.18" height="45.18"/><text class="cls-6" transform="translate(37.81 121.63)">C<tspan class="cls-4" x="3.98" y="0">o</tspan><tspan class="cls-7" x="7.83" y="0">r</tspan><tspan class="cls-8" x="10.28" y="0">t</tspan><tspan class="cls-9" x="12.56" y="0">e</tspan><tspan class="cls-10" x="16.04" y="0">x M</tspan></text><rect id="TDA4VM_main_box" class="cls-11" x="6.34" y="27.87" width="261.75" height="130.24" rx="13.95"/><text class="cls-12" transform="translate(100.05 19.87)">T<tspan class="cls-13" x="5.96" y="0">D</tspan><tspan x="13.79" y="0">A4VM</tspan></text></g><g id="arduino-platform"><rect id="one_core_box" class="cls-1" x="340.29" y="38.83" width="45.18" height="45.18"/><text class="cls-2" transform="translate(351.46 62.73)">One <tspan class="cls-3" x="13.7" y="0">C</tspan><tspan class="cls-4" x="17.68" y="0">o</tspan><tspan class="cls-5" x="21.52" y="0">r</tspan><tspan x="23.74" y="0">e</tspan></text><text class="cls-12" transform="translate(343.07 19.87)"><tspan class="cls-14">A</tspan><tspan class="cls-15" x="7.31" y="0">r</tspan><tspan x="11.11" y="0">duino</tspan></text></g></svg>