<svg id="Layer_1" data-name="Layer 1" xmlns="http://www.w3.org/2000/svg" viewBox="0 0 1000 668.32"><defs><style>.cls-1{fill:#ffedd4;}.cls-1,.cls-10{stroke:#d97706;}.cls-1,.cls-10,.cls-11,.cls-12,.cls-13,.cls-14,.cls-17,.cls-20,.cls-23,.cls-9{stroke-width:2px;}.cls-16,.cls-18,.cls-19,.cls-2,.cls-21,.cls-22,.cls-25,.cls-8{isolation:isolate;}.cls-3{fill:#fff;}.cls-4{fill:#ff6b6b;stroke:#e53e3e;stroke-width:3px;}.cls-5{fill:#e2e8f0;stroke:#94a3b8;}.cls-6{fill:#475569;}.cls-23,.cls-7{fill:none;}.cls-7{stroke:#64748b;}.cls-8{font-size:10px;fill:#64748b;}.cls-22,.cls-25,.cls-8{font-family:ArialMT, Arial;}.cls-14,.cls-9{fill:#3b82f6;stroke:#1d4ed8;}.cls-10{fill:#f59e0b;}.cls-11,.cls-18{fill:#10b981;}.cls-11{stroke:#059669;}.cls-12{fill:#8b5cf6;stroke:#7c3aed;}.cls-13{fill:#6b7280;stroke:#4b5563;}.cls-14{stroke-dasharray:5 5;}.cls-15,.cls-22{fill:#374151;}.cls-16{font-size:21.95px;}.cls-16,.cls-21,.cls-25{fill:#dc2626;}.cls-16,.cls-21,.cls-26{font-family:Arial-BoldMT, Arial;}.cls-16,.cls-18,.cls-21,.cls-26{font-weight:700;}.cls-17{fill:#1f2937;stroke:#374151;}.cls-18,.cls-21,.cls-25{font-size:16.08px;}.cls-18{font-family:CourierNewPS-BoldMT, Courier New;}.cls-19,.cls-22{font-size:13.78px;}.cls-19{fill:#e5e7eb;font-family:CourierNewPSMT, Courier New;}.cls-20{fill:#fef2f2;stroke:#fca5a5;}.cls-23{stroke:#dc2626;stroke-miterlimit:10;}.cls-24{letter-spacing:-0.06em;}.cls-26{letter-spacing:0em;}</style></defs><rect class="cls-1" x="34.45" y="64.23" width="947.49" height="166.21" rx="11.87"/><g class="cls-2"><path class="cls-3" d="M279.7,34.41l3.37-.33a4.18,4.18,0,0,0,1.24,2.5,3.74,3.74,0,0,0,2.51.8,3.89,3.89,0,0,0,2.53-.71A2.12,2.12,0,0,0,290.2,35a1.57,1.57,0,0,0-.36-1,2.88,2.88,0,0,0-1.25-.74c-.4-.14-1.33-.39-2.77-.75a9.46,9.46,0,0,1-3.92-1.7,4.52,4.52,0,0,1-.84-5.91,4.69,4.69,0,0,1,2.15-1.75,8.74,8.74,0,0,1,3.38-.59A7.22,7.22,0,0,1,291.46,24a5,5,0,0,1,1.72,3.78l-3.47.15a3,3,0,0,0-1-1.9,3.48,3.48,0,0,0-2.2-.58,4,4,0,0,0-2.36.62,1.25,1.25,0,0,0-.55,1.07,1.33,1.33,0,0,0,.51,1,9.1,9.1,0,0,0,3.19,1.15,17,17,0,0,1,3.74,1.23,4.8,4.8,0,0,1,1.9,1.75,5.39,5.39,0,0,1-.13,5.5,5,5,0,0,1-2.32,1.92,9.72,9.72,0,0,1-3.74.62,7.45,7.45,0,0,1-5-1.5A6.56,6.56,0,0,1,279.7,34.41Z"/><path class="cls-3" d="M296.56,25.87V22.82h3.3v3.05Zm0,14.13V27.55h3.3V40Z"/><path class="cls-3" d="M314.55,40h-3.29V33.65a9.88,9.88,0,0,0-.21-2.61,1.84,1.84,0,0,0-.69-.92,2,2,0,0,0-1.14-.33,2.69,2.69,0,0,0-1.54.47,2.39,2.39,0,0,0-.93,1.24,10.7,10.7,0,0,0-.25,2.86V40h-3.29V27.55h3.06v1.83a5,5,0,0,1,4.1-2.11,4.81,4.81,0,0,1,2,.4,3.22,3.22,0,0,1,1.36,1,3.59,3.59,0,0,1,.65,1.38,10.4,10.4,0,0,1,.18,2.22Z"/><path class="cls-3" d="M317.59,40.82l3.76.46a1.26,1.26,0,0,0,.43.9,2.52,2.52,0,0,0,1.48.35,3.79,3.79,0,0,0,1.93-.39,1.56,1.56,0,0,0,.66-.83A5,5,0,0,0,326,39.8V38a4.45,4.45,0,0,1-3.73,2,4.6,4.6,0,0,1-4-2.12,7.26,7.26,0,0,1-1.15-4.17,6.82,6.82,0,0,1,1.51-4.78,4.83,4.83,0,0,1,3.74-1.66,4.57,4.57,0,0,1,3.81,2V27.55h3.08V38.72a11.29,11.29,0,0,1-.36,3.3,4.11,4.11,0,0,1-1,1.71,4.65,4.65,0,0,1-1.75,1,9.39,9.39,0,0,1-2.77.35c-2.11,0-3.61-.36-4.49-1.08a3.43,3.43,0,0,1-1.33-2.75C317.57,41.11,317.58,41,317.59,40.82Zm2.94-7.3a4.49,4.49,0,0,0,.76,2.9,2.41,2.41,0,0,0,1.9.92,2.63,2.63,0,0,0,2-.94,4.14,4.14,0,0,0,.83-2.8,4.37,4.37,0,0,0-.8-2.87,2.54,2.54,0,0,0-2-.94,2.47,2.47,0,0,0-2,.92A4.34,4.34,0,0,0,320.53,33.52Z"/><path class="cls-3" d="M332.55,40V22.82h3.29V40Z"/><path class="cls-3" d="M346.43,36l3.28.55a5.4,5.4,0,0,1-2,2.75,5.87,5.87,0,0,1-3.42.94,5.57,5.57,0,0,1-4.8-2.12,7.12,7.12,0,0,1-1.23-4.29A6.84,6.84,0,0,1,339.88,29,5.31,5.31,0,0,1,344,27.27a5.51,5.51,0,0,1,4.39,1.84q1.61,1.83,1.53,5.62h-8.25a3.38,3.38,0,0,0,.8,2.28,2.5,2.5,0,0,0,1.9.81,2,2,0,0,0,1.3-.42A2.64,2.64,0,0,0,346.43,36Zm.18-3.33a3.18,3.18,0,0,0-.73-2.17,2.37,2.37,0,0,0-3.5,0,3,3,0,0,0-.69,2.13Z"/><path class="cls-3" d="M370.25,33.68l3.36,1.07A7.53,7.53,0,0,1,371,38.93a7.33,7.33,0,0,1-4.56,1.36A7.43,7.43,0,0,1,360.85,38a9,9,0,0,1-2.2-6.4,9.41,9.41,0,0,1,2.21-6.66,7.61,7.61,0,0,1,5.83-2.37,7.15,7.15,0,0,1,5.12,1.86,6.77,6.77,0,0,1,1.76,3.16l-3.44.83a3.55,3.55,0,0,0-1.27-2.11,3.62,3.62,0,0,0-2.35-.78,3.94,3.94,0,0,0-3.1,1.37,6.76,6.76,0,0,0-1.19,4.44c0,2.18.39,3.72,1.17,4.65a3.83,3.83,0,0,0,3.05,1.38,3.46,3.46,0,0,0,2.38-.88A5.16,5.16,0,0,0,370.25,33.68Z"/><path class="cls-3" d="M375.8,33.6a6.7,6.7,0,0,1,.81-3.17,5.58,5.58,0,0,1,2.29-2.35,6.82,6.82,0,0,1,3.31-.81,6.18,6.18,0,0,1,4.63,1.84,6.31,6.31,0,0,1,1.81,4.63,6.42,6.42,0,0,1-1.82,4.68,6.17,6.17,0,0,1-4.59,1.86,7.34,7.34,0,0,1-3.27-.77,5.34,5.34,0,0,1-2.36-2.27A7.56,7.56,0,0,1,375.8,33.6Zm3.38.18a4.08,4.08,0,0,0,.88,2.83,2.86,2.86,0,0,0,4.33,0,4.18,4.18,0,0,0,.87-2.86,4.13,4.13,0,0,0-.87-2.81,2.88,2.88,0,0,0-4.33,0A4.11,4.11,0,0,0,379.18,33.78Z"/><path class="cls-3" d="M394.38,40h-3.29V27.55h3.05v1.77a5.5,5.5,0,0,1,1.42-1.65,2.62,2.62,0,0,1,1.42-.4,4.24,4.24,0,0,1,2.17.62l-1,2.88a2.9,2.9,0,0,0-1.55-.54,1.79,1.79,0,0,0-1.17.38,2.63,2.63,0,0,0-.76,1.37,20.06,20.06,0,0,0-.27,4.18Z"/><path class="cls-3" d="M407.77,36l3.28.55a5.38,5.38,0,0,1-2,2.75,5.87,5.87,0,0,1-3.42.94,5.57,5.57,0,0,1-4.8-2.12,7.12,7.12,0,0,1-1.23-4.29A6.84,6.84,0,0,1,401.22,29a5.33,5.33,0,0,1,4.09-1.76,5.54,5.54,0,0,1,4.39,1.84q1.6,1.83,1.53,5.62H403a3.33,3.33,0,0,0,.8,2.28,2.5,2.5,0,0,0,1.9.81,2,2,0,0,0,1.3-.42A2.63,2.63,0,0,0,407.77,36Zm.19-3.33a3.13,3.13,0,0,0-.74-2.17,2.36,2.36,0,0,0-3.49,0,3,3,0,0,0-.69,2.13Z"/><path class="cls-3" d="M419.73,34.41l3.37-.33a4.12,4.12,0,0,0,1.24,2.5,3.74,3.74,0,0,0,2.51.8,3.89,3.89,0,0,0,2.53-.71,2.15,2.15,0,0,0,.85-1.66,1.57,1.57,0,0,0-.36-1,2.94,2.94,0,0,0-1.25-.74c-.41-.14-1.33-.39-2.78-.75a9.41,9.41,0,0,1-3.91-1.7,4.52,4.52,0,0,1-.84-5.91,4.64,4.64,0,0,1,2.15-1.75,8.74,8.74,0,0,1,3.38-.59A7.24,7.24,0,0,1,431.49,24a5,5,0,0,1,1.71,3.78l-3.47.15a2.9,2.9,0,0,0-1-1.9,3.48,3.48,0,0,0-2.2-.58,4,4,0,0,0-2.37.62,1.27,1.27,0,0,0-.55,1.07,1.34,1.34,0,0,0,.52,1,9.1,9.1,0,0,0,3.19,1.15,17.39,17.39,0,0,1,3.74,1.23,4.87,4.87,0,0,1,1.9,1.75,5.39,5.39,0,0,1-.13,5.5,5,5,0,0,1-2.33,1.92,9.66,9.66,0,0,1-3.73.62,7.48,7.48,0,0,1-5-1.5A6.56,6.56,0,0,1,419.73,34.41Z"/><path class="cls-3" d="M443.8,36l3.28.55a5.4,5.4,0,0,1-2,2.75,5.87,5.87,0,0,1-3.42.94,5.57,5.57,0,0,1-4.8-2.12,7.12,7.12,0,0,1-1.23-4.29A6.84,6.84,0,0,1,437.25,29a5.31,5.31,0,0,1,4.09-1.76,5.5,5.5,0,0,1,4.38,1.84q1.61,1.83,1.53,5.62H439a3.38,3.38,0,0,0,.8,2.28,2.5,2.5,0,0,0,1.9.81,2,2,0,0,0,1.3-.42A2.64,2.64,0,0,0,443.8,36Zm.18-3.33a3.18,3.18,0,0,0-.73-2.17,2.26,2.26,0,0,0-1.71-.75,2.29,2.29,0,0,0-1.79.79,3.05,3.05,0,0,0-.69,2.13Z"/><path class="cls-3" d="M458.07,44.73V38.48a4.59,4.59,0,0,1-1.61,1.31,4.62,4.62,0,0,1-5.56-1.1,7.44,7.44,0,0,1-1.62-5A6.74,6.74,0,0,1,450.8,29a4.85,4.85,0,0,1,3.77-1.69,4.26,4.26,0,0,1,2.15.53,5,5,0,0,1,1.61,1.59V27.55h3V44.73Zm.11-11.11a4.36,4.36,0,0,0-.78-2.84,2.44,2.44,0,0,0-1.95-.93,2.51,2.51,0,0,0-2,.95,4.59,4.59,0,0,0-.81,3,4.5,4.5,0,0,0,.78,3,2.39,2.39,0,0,0,1.91.91,2.53,2.53,0,0,0,2-1A4.63,4.63,0,0,0,458.18,33.62Z"/><path class="cls-3" d="M472.79,40V38.14A4.87,4.87,0,0,1,471,39.71a5.05,5.05,0,0,1-2.34.57,4.57,4.57,0,0,1-2.25-.55A3.28,3.28,0,0,1,465,38.18a7,7,0,0,1-.44-2.75V27.55h3.29v5.72a16,16,0,0,0,.18,3.22,1.77,1.77,0,0,0,.66.94,2,2,0,0,0,1.22.34,2.55,2.55,0,0,0,1.51-.46,2.37,2.37,0,0,0,.92-1.15,13.6,13.6,0,0,0,.24-3.36V27.55h3.3V40Z"/><path class="cls-3" d="M486.46,36l3.29.55a5.46,5.46,0,0,1-2,2.75,5.87,5.87,0,0,1-3.42.94,5.57,5.57,0,0,1-4.8-2.12,7.12,7.12,0,0,1-1.23-4.29A6.88,6.88,0,0,1,479.91,29,5.34,5.34,0,0,1,484,27.27a5.51,5.51,0,0,1,4.39,1.84q1.61,1.83,1.53,5.62h-8.25a3.38,3.38,0,0,0,.8,2.28,2.5,2.5,0,0,0,1.9.81,2,2,0,0,0,1.3-.42A2.56,2.56,0,0,0,486.46,36Zm.19-3.33a3.13,3.13,0,0,0-.74-2.17,2.23,2.23,0,0,0-1.71-.75,2.27,2.27,0,0,0-1.78.79,3,3,0,0,0-.69,2.13Z"/><path class="cls-3" d="M503.93,40h-3.3V33.65a9.88,9.88,0,0,0-.21-2.61,1.88,1.88,0,0,0-.68-.92,2,2,0,0,0-1.15-.33,2.64,2.64,0,0,0-1.53.47,2.34,2.34,0,0,0-.93,1.24,10.7,10.7,0,0,0-.25,2.86V40h-3.3V27.55h3.06v1.83a5,5,0,0,1,4.1-2.11,4.78,4.78,0,0,1,2,.4,3.26,3.26,0,0,1,1.37,1,3.57,3.57,0,0,1,.64,1.38,9.68,9.68,0,0,1,.19,2.22Z"/><path class="cls-3" d="M513,27.55v2.63h-2.25v5a11,11,0,0,0,.07,1.77.72.72,0,0,0,.29.42.93.93,0,0,0,.56.16,4.06,4.06,0,0,0,1.32-.32l.28,2.56a6.48,6.48,0,0,1-2.6.49A4.07,4.07,0,0,1,509,40a2.29,2.29,0,0,1-1.05-.77,3.06,3.06,0,0,1-.47-1.28,16.39,16.39,0,0,1-.1-2.32V30.18h-1.51V27.55h1.51V25.08l3.3-1.92v4.39Z"/><path class="cls-3" d="M515.26,25.87V22.82h3.29v3.05Zm0,14.13V27.55h3.29V40Z"/><path class="cls-3" d="M524.39,31.35l-3-.54a4.63,4.63,0,0,1,1.73-2.67,6.34,6.34,0,0,1,3.66-.87,8,8,0,0,1,3.28.52,3.3,3.3,0,0,1,1.52,1.33,6.83,6.83,0,0,1,.44,2.95l0,3.84a12.93,12.93,0,0,0,.16,2.42,7.15,7.15,0,0,0,.59,1.67h-3.26c-.08-.22-.19-.54-.31-1l-.12-.39a5.78,5.78,0,0,1-1.8,1.23,5.25,5.25,0,0,1-2,.41,4.24,4.24,0,0,1-3-1,3.48,3.48,0,0,1-1.11-2.64,3.59,3.59,0,0,1,.5-1.88A3.32,3.32,0,0,1,523,33.46a10.84,10.84,0,0,1,2.62-.77,17.89,17.89,0,0,0,3.2-.81v-.33a1.68,1.68,0,0,0-.47-1.35,2.79,2.79,0,0,0-1.77-.41,2.37,2.37,0,0,0-1.37.35A2.41,2.41,0,0,0,524.39,31.35Zm4.4,2.67c-.42.14-1.09.31-2,.51a5.84,5.84,0,0,0-1.79.57,1.38,1.38,0,0,0-.65,1.16,1.61,1.61,0,0,0,.52,1.2,1.81,1.81,0,0,0,1.31.5,2.86,2.86,0,0,0,1.7-.58,2.07,2.07,0,0,0,.78-1.09,6.37,6.37,0,0,0,.13-1.61Z"/><path class="cls-3" d="M535.27,40V22.82h3.3V40Z"/><path class="cls-3" d="M552.5,40V25.73h-5.1V22.82h13.65v2.91H556V40Z"/><path class="cls-3" d="M564,31.35l-3-.54a4.69,4.69,0,0,1,1.74-2.67,6.3,6.3,0,0,1,3.65-.87,8,8,0,0,1,3.28.52,3.25,3.25,0,0,1,1.52,1.33,6.83,6.83,0,0,1,.44,2.95l0,3.84a13.87,13.87,0,0,0,.16,2.42A7.64,7.64,0,0,0,572.3,40h-3.25c-.09-.22-.19-.54-.32-1a2.36,2.36,0,0,0-.12-.39,5.78,5.78,0,0,1-1.8,1.23,5.25,5.25,0,0,1-2,.41,4.27,4.27,0,0,1-3-1,3.48,3.48,0,0,1-1.11-2.64,3.59,3.59,0,0,1,.5-1.88,3.28,3.28,0,0,1,1.42-1.26,10.7,10.7,0,0,1,2.62-.77,18.14,18.14,0,0,0,3.2-.81v-.33a1.71,1.71,0,0,0-.47-1.35,2.83,2.83,0,0,0-1.77-.41,2.33,2.33,0,0,0-1.37.35A2.35,2.35,0,0,0,564,31.35ZM568.36,34c-.43.14-1.09.31-2,.51a5.84,5.84,0,0,0-1.79.57,1.38,1.38,0,0,0-.65,1.16,1.65,1.65,0,0,0,.52,1.2,1.81,1.81,0,0,0,1.31.5,2.84,2.84,0,0,0,1.7-.58,2.14,2.14,0,0,0,.79-1.09,6.9,6.9,0,0,0,.13-1.61Z"/><path class="cls-3" d="M573.68,36.45,577,36a2.39,2.39,0,0,0,.86,1.45,2.83,2.83,0,0,0,1.8.5,3.2,3.2,0,0,0,1.92-.47,1,1,0,0,0,.44-.88.86.86,0,0,0-.24-.62,2.65,2.65,0,0,0-1.1-.43,17.6,17.6,0,0,1-5-1.61,3.19,3.19,0,0,1-1.48-2.8,3.45,3.45,0,0,1,1.28-2.71,5.93,5.93,0,0,1,4-1.11,6.88,6.88,0,0,1,3.8.84,4.2,4.2,0,0,1,1.71,2.46l-3.11.57A1.92,1.92,0,0,0,581,30a2.75,2.75,0,0,0-1.59-.39,3.57,3.57,0,0,0-1.86.36.8.8,0,0,0-.38.67.72.72,0,0,0,.33.6,12.3,12.3,0,0,0,3.08.93,9,9,0,0,1,3.67,1.46,3,3,0,0,1,1,2.45,3.77,3.77,0,0,1-1.43,2.94,6.32,6.32,0,0,1-4.23,1.23,6.9,6.9,0,0,1-4-1A4.73,4.73,0,0,1,573.68,36.45Z"/><path class="cls-3" d="M588.07,40V22.82h3.29v9.12l3.85-4.39h4.06L595,32.1l4.55,7.9H596l-3.13-5.59L591.36,36v4Z"/><path class="cls-3" d="M608.22,40V22.82H621v2.91h-9.27v3.81h8.63v2.89h-8.63v4.68h9.6V40Z"/><path class="cls-3" d="M622.62,40l4.49-6.41-4.3-6h4L629,31l2.32-3.43h3.86L631,33.45,635.61,40h-4L629,36.14,626.48,40Z"/><path class="cls-3" d="M644.76,36l3.28.55a5.34,5.34,0,0,1-2,2.75,5.83,5.83,0,0,1-3.41.94,5.58,5.58,0,0,1-4.81-2.12,7.12,7.12,0,0,1-1.23-4.29A6.84,6.84,0,0,1,638.21,29a5.33,5.33,0,0,1,4.09-1.76,5.5,5.5,0,0,1,4.38,1.84c1.07,1.22,1.59,3.09,1.54,5.62H640a3.33,3.33,0,0,0,.8,2.28,2.48,2.48,0,0,0,1.89.81,2,2,0,0,0,1.3-.42A2.57,2.57,0,0,0,644.76,36Zm.19-3.33a3.13,3.13,0,0,0-.74-2.17,2.36,2.36,0,0,0-3.49,0,3,3,0,0,0-.69,2.13Z"/><path class="cls-3" d="M661.75,31.23l-3.24.59a2.31,2.31,0,0,0-.75-1.46,2.21,2.21,0,0,0-1.5-.5,2.5,2.5,0,0,0-2,.85,4.42,4.42,0,0,0-.73,2.84,5,5,0,0,0,.75,3.13,2.43,2.43,0,0,0,2,.92,2.21,2.21,0,0,0,1.54-.54,3.13,3.13,0,0,0,.84-1.83l3.24.55A5.68,5.68,0,0,1,660,39.14a6,6,0,0,1-3.83,1.14,5.68,5.68,0,0,1-4.35-1.72,6.69,6.69,0,0,1-1.62-4.77A6.7,6.7,0,0,1,651.8,29a5.82,5.82,0,0,1,4.41-1.72,6,6,0,0,1,3.62,1A5.44,5.44,0,0,1,661.75,31.23Z"/><path class="cls-3" d="M672.44,40V38.14a4.87,4.87,0,0,1-1.79,1.57,5,5,0,0,1-2.33.57,4.52,4.52,0,0,1-2.25-.55,3.25,3.25,0,0,1-1.45-1.55,7,7,0,0,1-.44-2.75V27.55h3.29v5.72a16,16,0,0,0,.18,3.22,1.84,1.84,0,0,0,.67.94,2,2,0,0,0,1.22.34,2.59,2.59,0,0,0,1.51-.46,2.35,2.35,0,0,0,.91-1.15,13.4,13.4,0,0,0,.25-3.36V27.55h3.29V40Z"/><path class="cls-3" d="M684.62,27.55v2.63h-2.25v5a13.37,13.37,0,0,0,.06,1.77.72.72,0,0,0,.29.42,1,1,0,0,0,.56.16,4,4,0,0,0,1.33-.32l.28,2.56a6.55,6.55,0,0,1-2.6.49,4.13,4.13,0,0,1-1.61-.3,2.29,2.29,0,0,1-1-.77,3.06,3.06,0,0,1-.46-1.28,15.89,15.89,0,0,1-.11-2.32V30.18h-1.51V27.55h1.51V25.08l3.31-1.92v4.39Z"/><path class="cls-3" d="M686.9,25.87V22.82h3.3v3.05Zm0,14.13V27.55h3.3V40Z"/><path class="cls-3" d="M692.81,33.6a6.7,6.7,0,0,1,.81-3.17,5.53,5.53,0,0,1,2.29-2.35,6.79,6.79,0,0,1,3.31-.81,6.21,6.21,0,0,1,4.63,1.84,6.34,6.34,0,0,1,1.8,4.63,6.42,6.42,0,0,1-1.82,4.68,6.14,6.14,0,0,1-4.59,1.86,7.27,7.27,0,0,1-3.26-.77,5.29,5.29,0,0,1-2.36-2.27A7.56,7.56,0,0,1,692.81,33.6Zm3.37.18a4.13,4.13,0,0,0,.88,2.83,2.79,2.79,0,0,0,2.17,1,2.76,2.76,0,0,0,2.16-1,4.18,4.18,0,0,0,.88-2.86,4.13,4.13,0,0,0-.88-2.81,2.78,2.78,0,0,0-2.16-1,2.82,2.82,0,0,0-2.17,1A4.16,4.16,0,0,0,696.18,33.78Z"/><path class="cls-3" d="M719.55,40h-3.29V33.65a9.88,9.88,0,0,0-.21-2.61,1.84,1.84,0,0,0-.69-.92,2,2,0,0,0-1.14-.33,2.69,2.69,0,0,0-1.54.47,2.39,2.39,0,0,0-.93,1.24,10.7,10.7,0,0,0-.25,2.86V40h-3.29V27.55h3.06v1.83a5,5,0,0,1,4.1-2.11,4.81,4.81,0,0,1,2,.4,3.22,3.22,0,0,1,1.36,1,3.59,3.59,0,0,1,.65,1.38,10.4,10.4,0,0,1,.18,2.22Z"/></g><g id="arduino"><rect class="cls-4" x="50" y="80" width="200" height="120" rx="8"/><g class="cls-2"><path class="cls-3" d="M113.06,110h-2.52l-1-2.6H105L104,110h-2.45L106,98.55h2.44Zm-4.26-4.53-1.58-4.25-1.54,4.25Z"/><path class="cls-3" d="M116.37,110h-2.19v-8.3h2v1.18a3.66,3.66,0,0,1,1-1.1,1.67,1.67,0,0,1,1-.26,2.72,2.72,0,0,1,1.44.41l-.68,1.91a1.91,1.91,0,0,0-1-.36,1.2,1.2,0,0,0-.78.26,1.73,1.73,0,0,0-.51.92,13.27,13.27,0,0,0-.18,2.78Z"/><path class="cls-3" d="M128.11,110h-2v-1.22a3.34,3.34,0,0,1-1.2,1.06,3.12,3.12,0,0,1-1.4.35A3.19,3.19,0,0,1,121,109a4.69,4.69,0,0,1-1-3.22,4.59,4.59,0,0,1,1-3.21,3.22,3.22,0,0,1,2.5-1.09,3.11,3.11,0,0,1,2.41,1.15V98.55h2.2Zm-5.86-4.33a3.83,3.83,0,0,0,.36,1.92,1.66,1.66,0,0,0,1.49.86,1.63,1.63,0,0,0,1.29-.64,3,3,0,0,0,.53-1.93,3.23,3.23,0,0,0-.52-2.06,1.7,1.7,0,0,0-2.63,0A2.8,2.8,0,0,0,122.25,105.67Z"/><path class="cls-3" d="M135.73,110v-1.24a3.16,3.16,0,0,1-1.19,1,3.28,3.28,0,0,1-1.56.39,3,3,0,0,1-1.5-.37,2.18,2.18,0,0,1-1-1,4.58,4.58,0,0,1-.3-1.84V101.7h2.2v3.82a10.63,10.63,0,0,0,.12,2.14,1.23,1.23,0,0,0,.44.63,1.36,1.36,0,0,0,.81.23,1.77,1.77,0,0,0,1-.31,1.56,1.56,0,0,0,.61-.77,8.91,8.91,0,0,0,.16-2.24v-3.5h2.2V110Z"/><path class="cls-3" d="M140,100.58v-2h2.2v2Zm0,9.42v-8.3h2.2V110Z"/><path class="cls-3" d="M152,110h-2.2v-4.23a6.7,6.7,0,0,0-.14-1.74,1.21,1.21,0,0,0-.46-.62,1.33,1.33,0,0,0-.76-.21,1.73,1.73,0,0,0-1,.31,1.51,1.51,0,0,0-.62.83,6.77,6.77,0,0,0-.17,1.9V110h-2.2v-8.3h2v1.22a3.33,3.33,0,0,1,2.74-1.4,3.18,3.18,0,0,1,1.32.26,2,2,0,0,1,.91.67,2.29,2.29,0,0,1,.43.92,6.71,6.71,0,0,1,.13,1.47Z"/><path class="cls-3" d="M153.75,105.73a4.45,4.45,0,0,1,.54-2.11,3.68,3.68,0,0,1,1.53-1.57,4.63,4.63,0,0,1,2.21-.53,4.11,4.11,0,0,1,3.08,1.22,4.18,4.18,0,0,1,1.21,3.09A4.29,4.29,0,0,1,161.1,109a4.13,4.13,0,0,1-3.06,1.24,4.72,4.72,0,0,1-2.17-.52,3.55,3.55,0,0,1-1.58-1.51A5,5,0,0,1,153.75,105.73Zm2.25.12a2.76,2.76,0,0,0,.59,1.89,1.91,1.91,0,0,0,2.89,0,2.82,2.82,0,0,0,.58-1.9,2.78,2.78,0,0,0-.58-1.88,1.91,1.91,0,0,0-2.89,0A2.76,2.76,0,0,0,156,105.85Z"/><path class="cls-3" d="M168.48,98.55h2.31v6.2a12.25,12.25,0,0,0,.09,1.91,1.82,1.82,0,0,0,.71,1.13,2.94,2.94,0,0,0,3,0,1.62,1.62,0,0,0,.6-1,12.67,12.67,0,0,0,.1-2V98.55h2.31v6a16.15,16.15,0,0,1-.18,2.92,3.26,3.26,0,0,1-.7,1.43,3.44,3.44,0,0,1-1.34.94,6,6,0,0,1-2.21.35,6.34,6.34,0,0,1-2.48-.38,3.48,3.48,0,0,1-1.34-1,3.08,3.08,0,0,1-.65-1.27,13.83,13.83,0,0,1-.23-2.9Z"/><path class="cls-3" d="M187.58,110h-2.19v-4.23a6.7,6.7,0,0,0-.14-1.74,1.27,1.27,0,0,0-.46-.62,1.35,1.35,0,0,0-.76-.21,1.78,1.78,0,0,0-1,.31,1.56,1.56,0,0,0-.62.83,7.18,7.18,0,0,0-.17,1.9V110H180v-8.3h2v1.22a3.3,3.3,0,0,1,2.73-1.4,3.19,3.19,0,0,1,1.33.26,2.09,2.09,0,0,1,.91.67,2.29,2.29,0,0,1,.43.92,6.83,6.83,0,0,1,.12,1.47Z"/><path class="cls-3" d="M189.3,105.73a4.45,4.45,0,0,1,.54-2.11,3.68,3.68,0,0,1,1.53-1.57,4.62,4.62,0,0,1,2.2-.53,4.12,4.12,0,0,1,3.09,1.22,4.21,4.21,0,0,1,1.2,3.09,4.28,4.28,0,0,1-1.21,3.12,4.13,4.13,0,0,1-3.06,1.24,4.76,4.76,0,0,1-2.18-.52,3.53,3.53,0,0,1-1.57-1.51A5,5,0,0,1,189.3,105.73Zm2.25.12a2.76,2.76,0,0,0,.59,1.89,1.9,1.9,0,0,0,2.88,0,2.77,2.77,0,0,0,.59-1.9A2.73,2.73,0,0,0,195,104a1.9,1.9,0,0,0-2.88,0A2.76,2.76,0,0,0,191.55,105.85Z"/></g><g class="cls-2"><path class="cls-3" d="M107.7,130l3.84-10H113l4.1,10h-1.51l-1.16-3h-4.2l-1.1,3Zm2.89-4.12H114l-1-2.77c-.32-.84-.56-1.54-.71-2.08a13.79,13.79,0,0,1-.54,1.92Z"/><path class="cls-3" d="M119.65,130v-8.84h-3.31V120h8v1.18H121V130Z"/><path class="cls-3" d="M125.49,130v-7.26h1.1v1a2.59,2.59,0,0,1,.91-.86,2.52,2.52,0,0,1,1.29-.32,2.39,2.39,0,0,1,1.32.33,1.76,1.76,0,0,1,.73.94,2.6,2.6,0,0,1,2.24-1.27,2.27,2.27,0,0,1,1.67.59,2.61,2.61,0,0,1,.58,1.85v5H134.1v-4.57a3.39,3.39,0,0,0-.12-1.07,1,1,0,0,0-.43-.52,1.39,1.39,0,0,0-.74-.2,1.72,1.72,0,0,0-1.27.51,2.24,2.24,0,0,0-.51,1.63V130H129.8v-4.72a2.11,2.11,0,0,0-.3-1.23,1.15,1.15,0,0,0-1-.41,1.71,1.71,0,0,0-1,.28,1.51,1.51,0,0,0-.64.8,4.5,4.5,0,0,0-.2,1.51V130Z"/><path class="cls-3" d="M142.12,127.66l1.27.16a3.12,3.12,0,0,1-1.11,1.73,3.36,3.36,0,0,1-2.08.61,3.32,3.32,0,0,1-2.53-1,3.83,3.83,0,0,1-.93-2.75,4,4,0,0,1,.95-2.84,3.15,3.15,0,0,1,2.44-1,3.1,3.1,0,0,1,2.38,1,3.91,3.91,0,0,1,.92,2.79v.32H138a2.82,2.82,0,0,0,.68,1.84,2,2,0,0,0,1.52.63,1.91,1.91,0,0,0,1.15-.35A2.41,2.41,0,0,0,142.12,127.66Zm-4-2h4.06a2.44,2.44,0,0,0-.47-1.37,1.89,1.89,0,0,0-1.52-.71,2,2,0,0,0-1.43.57A2.24,2.24,0,0,0,138.08,125.67Z"/><path class="cls-3" d="M144.71,130.6l1.2.18a1.14,1.14,0,0,0,.42.81,2.09,2.09,0,0,0,1.25.34,2.26,2.26,0,0,0,1.32-.34,1.64,1.64,0,0,0,.62-1,7,7,0,0,0,.09-1.58,2.52,2.52,0,0,1-2,.95,2.73,2.73,0,0,1-2.31-1.08,4.13,4.13,0,0,1-.82-2.59,4.87,4.87,0,0,1,.37-1.92,3.09,3.09,0,0,1,1.09-1.36,3,3,0,0,1,1.68-.47,2.59,2.59,0,0,1,2.12,1v-.88h1.13V129a6,6,0,0,1-.34,2.4,2.61,2.61,0,0,1-1.09,1.12,3.86,3.86,0,0,1-1.85.41,3.5,3.5,0,0,1-2.1-.59A2,2,0,0,1,144.71,130.6Zm1-4.36a3.16,3.16,0,0,0,.57,2.09,1.88,1.88,0,0,0,2.84,0,3.08,3.08,0,0,0,.58-2.05,2.94,2.94,0,0,0-.6-2,1.81,1.81,0,0,0-1.42-.68,1.78,1.78,0,0,0-1.39.67A2.94,2.94,0,0,0,145.73,126.24Z"/><path class="cls-3" d="M157.46,129.1a4.26,4.26,0,0,1-1.31.82,3.85,3.85,0,0,1-1.36.24,2.64,2.64,0,0,1-1.84-.58,1.92,1.92,0,0,1-.64-1.49,2,2,0,0,1,.24-1,2,2,0,0,1,.64-.71,3.08,3.08,0,0,1,.88-.4,10.14,10.14,0,0,1,1.09-.18,10.82,10.82,0,0,0,2.2-.43c0-.17,0-.27,0-.32A1.38,1.38,0,0,0,157,124a2.05,2.05,0,0,0-1.4-.42,2.23,2.23,0,0,0-1.29.31,1.86,1.86,0,0,0-.61,1.08l-1.2-.17a3.06,3.06,0,0,1,.54-1.25,2.38,2.38,0,0,1,1.09-.73,4.83,4.83,0,0,1,1.64-.25,4.49,4.49,0,0,1,1.51.21,2,2,0,0,1,.86.56,1.93,1.93,0,0,1,.38.83,7.16,7.16,0,0,1,.06,1.14V127a17.82,17.82,0,0,0,.08,2.17,2.84,2.84,0,0,0,.31.87h-1.28A2.58,2.58,0,0,1,157.46,129.1Zm-.1-2.74a9.45,9.45,0,0,1-2,.46,4.43,4.43,0,0,0-1.07.25,1,1,0,0,0-.49.4,1.06,1.06,0,0,0-.17.58,1,1,0,0,0,.37.82,1.6,1.6,0,0,0,1.09.33,2.52,2.52,0,0,0,1.27-.31,1.9,1.9,0,0,0,.81-.85,3,3,0,0,0,.2-1.23Z"/><path class="cls-3" d="M160.18,127.35l1.23-.16a2.71,2.71,0,0,0,.72,1.51,1.76,1.76,0,0,0,1.24.46,2,2,0,0,0,1.46-.6,2,2,0,0,0,.6-1.49,1.88,1.88,0,0,0-.55-1.4,1.91,1.91,0,0,0-1.41-.55,3.67,3.67,0,0,0-.87.14l.14-1.08h.2a2.56,2.56,0,0,0,1.41-.41,1.41,1.41,0,0,0,.63-1.27,1.49,1.49,0,0,0-.46-1.12,1.64,1.64,0,0,0-1.18-.44,1.69,1.69,0,0,0-1.2.45,2.3,2.3,0,0,0-.61,1.35l-1.23-.21a3.15,3.15,0,0,1,1-1.92,3,3,0,0,1,2-.68,3.2,3.2,0,0,1,1.51.35,2.48,2.48,0,0,1,1.06,1,2.53,2.53,0,0,1,.37,1.29,2.12,2.12,0,0,1-.35,1.18,2.4,2.4,0,0,1-1,.85,2.35,2.35,0,0,1,1.39.85,2.64,2.64,0,0,1,.49,1.62,3,3,0,0,1-1,2.23,3.4,3.4,0,0,1-2.42.91,3.12,3.12,0,0,1-2.19-.79A3,3,0,0,1,160.18,127.35Z"/><path class="cls-3" d="M174.42,128.82V130H167.8a2.2,2.2,0,0,1,.14-.85,4.53,4.53,0,0,1,.81-1.34,13.75,13.75,0,0,1,1.61-1.52,13.48,13.48,0,0,0,2.21-2.12,2.54,2.54,0,0,0,.57-1.48,1.63,1.63,0,0,0-.52-1.23,1.86,1.86,0,0,0-1.36-.5,1.92,1.92,0,0,0-1.43.53,2.06,2.06,0,0,0-.54,1.48l-1.26-.13a3.09,3.09,0,0,1,1-2.16,3.28,3.28,0,0,1,2.27-.74,3.15,3.15,0,0,1,2.29.8,2.61,2.61,0,0,1,.84,2,2.91,2.91,0,0,1-.25,1.18,4.31,4.31,0,0,1-.82,1.23,21.76,21.76,0,0,1-1.89,1.76c-.74.62-1.21,1-1.42,1.26a3.47,3.47,0,0,0-.52.67Z"/><path class="cls-3" d="M177.63,124.57a2.38,2.38,0,0,1-1.13-.8,2.1,2.1,0,0,1-.37-1.25,2.42,2.42,0,0,1,.79-1.84,3.32,3.32,0,0,1,4.2,0,2.49,2.49,0,0,1,.8,1.86,2,2,0,0,1-.37,1.21,2.32,2.32,0,0,1-1.11.8,2.55,2.55,0,0,1,1.89,2.57,2.89,2.89,0,0,1-.91,2.16,3.3,3.3,0,0,1-2.39.87,3.26,3.26,0,0,1-2.39-.88,2.89,2.89,0,0,1-.91-2.19,2.66,2.66,0,0,1,.49-1.64A2.42,2.42,0,0,1,177.63,124.57Zm-.64,2.54a2.2,2.2,0,0,0,.25,1,1.75,1.75,0,0,0,.74.76,2.17,2.17,0,0,0,1.06.27,2,2,0,0,0,1.46-.57,2.12,2.12,0,0,0,0-2.91,2,2,0,0,0-1.48-.58,1.95,1.95,0,0,0-2,2Zm.4-4.63a1.54,1.54,0,0,0,.46,1.16,1.77,1.77,0,0,0,2.35,0,1.51,1.51,0,0,0,.46-1.1,1.55,1.55,0,0,0-.47-1.14A1.58,1.58,0,0,0,179,121a1.61,1.61,0,0,0-1.17.45A1.44,1.44,0,0,0,177.39,122.48Z"/><path class="cls-3" d="M184,130V120h3.78a9.67,9.67,0,0,1,1.52.09,3.15,3.15,0,0,1,1.24.47,2.42,2.42,0,0,1,.8,1,3.23,3.23,0,0,1-.51,3.53,3.9,3.9,0,0,1-2.94.89h-2.57V130Zm1.32-5.26h2.59a2.75,2.75,0,0,0,1.83-.48,1.68,1.68,0,0,0,.54-1.34,1.84,1.84,0,0,0-.32-1.08,1.48,1.48,0,0,0-.84-.59,5.51,5.51,0,0,0-1.23-.09h-2.57Z"/></g><g class="cls-2"><path class="cls-3" d="M80.89,146.78l1.25-.11a2.71,2.71,0,0,0,.41,1.23,2.15,2.15,0,0,0,1,.78,3.78,3.78,0,0,0,1.54.3,3.73,3.73,0,0,0,1.34-.22,1.9,1.9,0,0,0,.86-.62,1.43,1.43,0,0,0,.28-.86,1.28,1.28,0,0,0-.27-.82,2,2,0,0,0-.9-.6c-.27-.1-.87-.26-1.79-.48a9.32,9.32,0,0,1-1.93-.63,2.67,2.67,0,0,1-1.07-.93,2.33,2.33,0,0,1-.35-1.25,2.52,2.52,0,0,1,.43-1.42,2.7,2.7,0,0,1,1.26-1,4.71,4.71,0,0,1,1.84-.34,5,5,0,0,1,2,.36,2.87,2.87,0,0,1,1.31,1.05,3,3,0,0,1,.49,1.58l-1.27.1a2.08,2.08,0,0,0-.69-1.44,3.56,3.56,0,0,0-3.5,0,1.31,1.31,0,0,0-.55,1.06,1.14,1.14,0,0,0,.39.89,5.22,5.22,0,0,0,2,.71,14.14,14.14,0,0,1,2.21.64,3.06,3.06,0,0,1,1.3,1,2.57,2.57,0,0,1,.41,1.43,2.7,2.7,0,0,1-.46,1.51,3,3,0,0,1-1.31,1.1,4.62,4.62,0,0,1-1.93.39,5.64,5.64,0,0,1-2.28-.4,3.13,3.13,0,0,1-1.44-1.19A3.29,3.29,0,0,1,80.89,146.78Z"/><path class="cls-3" d="M90.52,141.39V140h1.23v1.41Zm0,8.61v-7.26h1.23V150Z"/><path class="cls-3" d="M93.63,150v-7.26h1.1v1a2.62,2.62,0,0,1,2.32-1.19,3,3,0,0,1,1.2.23,2,2,0,0,1,.83.62,2.4,2.4,0,0,1,.38.91,7.72,7.72,0,0,1,.07,1.2V150H98.3v-4.42a3.17,3.17,0,0,0-.15-1.12,1.09,1.09,0,0,0-.51-.59,1.59,1.59,0,0,0-.85-.23,2,2,0,0,0-1.36.5,2.48,2.48,0,0,0-.57,1.9v4Z"/><path class="cls-3" d="M101.19,150.6l1.19.18a1.14,1.14,0,0,0,.42.81,2.11,2.11,0,0,0,1.25.34,2.26,2.26,0,0,0,1.32-.34,1.7,1.7,0,0,0,.63-1,8.56,8.56,0,0,0,.09-1.58,2.55,2.55,0,0,1-2,.95,2.75,2.75,0,0,1-2.32-1.08,4.19,4.19,0,0,1-.82-2.59,4.87,4.87,0,0,1,.38-1.92,3,3,0,0,1,1.09-1.36,3,3,0,0,1,1.68-.47,2.6,2.6,0,0,1,2.12,1v-.88h1.13V149a6,6,0,0,1-.34,2.4,2.58,2.58,0,0,1-1.1,1.12,3.82,3.82,0,0,1-1.84.41,3.46,3.46,0,0,1-2.1-.59A2,2,0,0,1,101.19,150.6Zm1-4.36a3.22,3.22,0,0,0,.56,2.09,1.89,1.89,0,0,0,2.85,0,3.08,3.08,0,0,0,.57-2.05,3,3,0,0,0-.59-2,1.83,1.83,0,0,0-1.42-.68,1.8,1.8,0,0,0-1.4.67A3,3,0,0,0,102.21,146.24Z"/><path class="cls-3" d="M109.17,150V140h1.23v10Z"/><path class="cls-3" d="M117.28,147.66l1.27.16a3.12,3.12,0,0,1-1.11,1.73,3.38,3.38,0,0,1-2.08.61,3.32,3.32,0,0,1-2.53-1,3.83,3.83,0,0,1-.93-2.75,4,4,0,0,1,.94-2.84,3.18,3.18,0,0,1,2.45-1,3.12,3.12,0,0,1,2.38,1,4,4,0,0,1,.92,2.79v.32h-5.42a2.82,2.82,0,0,0,.68,1.84,2,2,0,0,0,1.52.63,1.91,1.91,0,0,0,1.15-.35A2.41,2.41,0,0,0,117.28,147.66Zm-4-2h4.05a2.44,2.44,0,0,0-.46-1.37,1.9,1.9,0,0,0-1.53-.71,1.94,1.94,0,0,0-1.42.57A2.19,2.19,0,0,0,113.24,145.67Z"/><path class="cls-3" d="M131.29,146.49l1.33.33a4.47,4.47,0,0,1-1.5,2.49,4.15,4.15,0,0,1-2.65.86,4.78,4.78,0,0,1-2.64-.66,4.15,4.15,0,0,1-1.54-1.91,6.87,6.87,0,0,1-.53-2.69,5.91,5.91,0,0,1,.6-2.73,4.15,4.15,0,0,1,1.7-1.77,5,5,0,0,1,2.43-.6,4.11,4.11,0,0,1,2.53.76,4,4,0,0,1,1.43,2.16l-1.31.3a3.07,3.07,0,0,0-1-1.59,2.72,2.72,0,0,0-1.67-.5,3.24,3.24,0,0,0-1.93.56,3,3,0,0,0-1.09,1.48,6.54,6.54,0,0,0,.06,4.16,2.71,2.71,0,0,0,1.16,1.42,3.19,3.19,0,0,0,1.7.48,2.87,2.87,0,0,0,1.89-.65A3.29,3.29,0,0,0,131.29,146.49Z"/><path class="cls-3" d="M133.64,146.37a3.75,3.75,0,0,1,1.12-3,3.34,3.34,0,0,1,2.28-.8,3.23,3.23,0,0,1,2.45,1,3.73,3.73,0,0,1,.95,2.71,4.78,4.78,0,0,1-.42,2.2,3,3,0,0,1-1.22,1.25,3.54,3.54,0,0,1-1.76.44,3.25,3.25,0,0,1-2.46-1A3.89,3.89,0,0,1,133.64,146.37Zm1.26,0a3.12,3.12,0,0,0,.61,2.09,2,2,0,0,0,3.06,0,3.22,3.22,0,0,0,.61-2.13,3,3,0,0,0-.62-2,1.94,1.94,0,0,0-1.52-.7,2,2,0,0,0-1.53.7A3.09,3.09,0,0,0,134.9,146.37Z"/><path class="cls-3" d="M141.87,150v-7.26H143v1.1a3.09,3.09,0,0,1,.78-1,1.39,1.39,0,0,1,.79-.24,2.43,2.43,0,0,1,1.26.39l-.42,1.14a1.82,1.82,0,0,0-.9-.26,1.21,1.21,0,0,0-.73.24,1.42,1.42,0,0,0-.46.67,5.06,5.06,0,0,0-.2,1.44V150Z"/><path class="cls-3" d="M151.51,147.66l1.28.16a3.18,3.18,0,0,1-1.12,1.73,3.34,3.34,0,0,1-2.08.61,3.28,3.28,0,0,1-2.52-1,3.84,3.84,0,0,1-.94-2.75,4,4,0,0,1,1-2.84,3.16,3.16,0,0,1,2.44-1,3.09,3.09,0,0,1,2.38,1,3.92,3.92,0,0,1,.93,2.79c0,.07,0,.18,0,.32h-5.41a2.82,2.82,0,0,0,.67,1.84,2,2,0,0,0,1.52.63,1.94,1.94,0,0,0,1.16-.35A2.4,2.4,0,0,0,151.51,147.66Zm-4-2h4.06a2.44,2.44,0,0,0-.47-1.37,1.89,1.89,0,0,0-1.52-.71,2,2,0,0,0-1.43.57A2.28,2.28,0,0,0,147.47,145.67Z"/><path class="cls-3" d="M165.23,148.89a3.67,3.67,0,0,1-1,.82,2.22,2.22,0,0,1-1.1.31,2.31,2.31,0,0,1-1.19-.35,2.62,2.62,0,0,1-.93-1.1,3.63,3.63,0,0,1-.36-1.62,4.81,4.81,0,0,1,.56-2.18,4.17,4.17,0,0,1,1.38-1.63,2.89,2.89,0,0,1,1.61-.55,2.21,2.21,0,0,1,1.13.31,2.65,2.65,0,0,1,.93.95l.24-1.06h1.22l-1,4.59c-.13.63-.2,1-.2,1.05a.43.43,0,0,0,.14.32.48.48,0,0,0,.34.14,1.82,1.82,0,0,0,.95-.42A3.78,3.78,0,0,0,169.2,147a4.12,4.12,0,0,0-1.87-5.61,5.49,5.49,0,0,0-2.56-.6,5.8,5.8,0,0,0-2.92.75,5,5,0,0,0-2,2.15,6.32,6.32,0,0,0-.73,3,5.47,5.47,0,0,0,.73,2.89,4.31,4.31,0,0,0,2.1,1.79,7.93,7.93,0,0,0,3,.57,6.68,6.68,0,0,0,3-.6,4.71,4.71,0,0,0,1.82-1.46H171a4.75,4.75,0,0,1-1.19,1.46,6.4,6.4,0,0,1-2,1.18A8.11,8.11,0,0,1,165,153a9.62,9.62,0,0,1-2.8-.39,5.81,5.81,0,0,1-2.18-1.18,5.24,5.24,0,0,1-1.36-1.8,6.83,6.83,0,0,1-.57-2.79,7.5,7.5,0,0,1,.68-3.17,6.37,6.37,0,0,1,2.37-2.84,6.7,6.7,0,0,1,3.72-1,6.62,6.62,0,0,1,3,.7,5.06,5.06,0,0,1,2.13,2.07,5.21,5.21,0,0,1-.74,6.09,3.63,3.63,0,0,1-2.72,1.38,1.66,1.66,0,0,1-.76-.15,1,1,0,0,1-.43-.41A1.78,1.78,0,0,1,165.23,148.89Zm-3.3-1.86a2.16,2.16,0,0,0,.44,1.46,1.32,1.32,0,0,0,1,.52,1.72,1.72,0,0,0,.8-.23,2.67,2.67,0,0,0,.81-.68,3.65,3.65,0,0,0,.64-1.14,4.29,4.29,0,0,0,.24-1.4,2.06,2.06,0,0,0-.46-1.44,1.46,1.46,0,0,0-1.12-.51,1.64,1.64,0,0,0-.83.22,2.71,2.71,0,0,0-.74.71,4,4,0,0,0-.59,1.2A4.55,4.55,0,0,0,161.93,147Z"/><path class="cls-3" d="M180.61,150h-1.23v-7.84a6.59,6.59,0,0,1-1.16.85,8,8,0,0,1-1.3.63v-1.19a7.41,7.41,0,0,0,1.81-1.17,4.65,4.65,0,0,0,1.09-1.34h.79Z"/><path class="cls-3" d="M190.15,142.43l-1.22.1a2.24,2.24,0,0,0-.47-1.05,1.59,1.59,0,0,0-1.23-.53,1.69,1.69,0,0,0-1,.33,2.82,2.82,0,0,0-.92,1.23,6.42,6.42,0,0,0-.34,2.32,2.78,2.78,0,0,1,1.08-1,2.93,2.93,0,0,1,1.35-.33,2.78,2.78,0,0,1,2.09.9,3.27,3.27,0,0,1,.87,2.35,3.85,3.85,0,0,1-.41,1.75,2.94,2.94,0,0,1-1.12,1.24,3,3,0,0,1-1.61.43,3.18,3.18,0,0,1-2.51-1.13,5.75,5.75,0,0,1-1-3.73,6.7,6.7,0,0,1,1.07-4.22,3.09,3.09,0,0,1,2.53-1.15,2.85,2.85,0,0,1,1.94.66A2.81,2.81,0,0,1,190.15,142.43Zm-5,4.32a2.86,2.86,0,0,0,.27,1.22,2.06,2.06,0,0,0,.75.89,1.92,1.92,0,0,0,1,.3,1.73,1.73,0,0,0,1.34-.63,2.5,2.5,0,0,0,.56-1.71,2.32,2.32,0,0,0-.55-1.64,1.86,1.86,0,0,0-1.4-.59,1.91,1.91,0,0,0-1.41.59A2.16,2.16,0,0,0,185.13,146.75Z"/><path class="cls-3" d="M192,150V140h2l2.37,7.09c.22.67.38,1.16.48,1.49.11-.37.29-.9.53-1.61l2.4-7h1.78v10H200.3v-8.39L197.38,150h-1.19l-2.9-8.53V150Z"/><path class="cls-3" d="M203.75,150V140h1.33v4.11h5.21V140h1.33v10h-1.33v-4.72h-5.21V150Z"/><path class="cls-3" d="M213,150v-1l4.62-5.3c-.53,0-1,0-1.39,0h-3v-1h5.93v.81l-3.93,4.61-.76.84c.56,0,1.07-.06,1.56-.06h3.35V150Z"/></g><g class="cls-2"><path class="cls-3" d="M97.57,175.82a4.64,4.64,0,0,1,1.15-3.35,3.88,3.88,0,0,1,3-1.21,4.11,4.11,0,0,1,2.15.57,3.7,3.7,0,0,1,1.45,1.58,5.09,5.09,0,0,1,.51,2.31,5,5,0,0,1-.53,2.33,3.62,3.62,0,0,1-1.5,1.57,4.29,4.29,0,0,1-2.08.53,4.08,4.08,0,0,1-2.17-.59,3.74,3.74,0,0,1-1.45-1.6A4.8,4.8,0,0,1,97.57,175.82Zm1.17,0a3.44,3.44,0,0,0,.84,2.45,2.91,2.91,0,0,0,4.2,0,3.6,3.6,0,0,0,.83-2.56,4.33,4.33,0,0,0-.35-1.83,2.68,2.68,0,0,0-1-1.21,2.76,2.76,0,0,0-1.53-.43,2.88,2.88,0,0,0-2.08.83A3.68,3.68,0,0,0,98.74,175.83Z"/><path class="cls-3" d="M107.24,180v-8.59h1.16l4.52,6.74v-6.74H114V180h-1.17l-4.51-6.75V180Z"/><path class="cls-3" d="M115.94,180v-8.59h6.21v1h-5.07v2.63h4.75v1h-4.75V179h5.27v1Z"/><path class="cls-3" d="M127.25,180v-8.59h3.24a8.46,8.46,0,0,1,1.31.08,2.67,2.67,0,0,1,1.06.4,2.1,2.1,0,0,1,.69.83,2.71,2.71,0,0,1,.26,1.17,2.64,2.64,0,0,1-.7,1.86,3.35,3.35,0,0,1-2.52.76h-2.2V180Zm1.14-4.51h2.22a2.33,2.33,0,0,0,1.57-.41,1.47,1.47,0,0,0,.46-1.15,1.54,1.54,0,0,0-.27-.92,1.27,1.27,0,0,0-.72-.51,4.86,4.86,0,0,0-1.06-.08h-2.2Z"/><path class="cls-3" d="M135.28,180v-8.59h3.8a5.2,5.2,0,0,1,1.75.23,2,2,0,0,1,1,.82,2.5,2.5,0,0,1,.35,1.29,2.12,2.12,0,0,1-.59,1.54,3,3,0,0,1-1.83.8,3.33,3.33,0,0,1,.69.43,6.14,6.14,0,0,1,.94,1.14l1.5,2.34h-1.43l-1.14-1.79c-.33-.51-.61-.91-.82-1.18a2.52,2.52,0,0,0-.58-.57,1.6,1.6,0,0,0-.52-.23,3.21,3.21,0,0,0-.63,0h-1.32V180Zm1.13-4.8h2.45a3.53,3.53,0,0,0,1.21-.16,1.27,1.27,0,0,0,.67-.52,1.39,1.39,0,0,0,.23-.77,1.3,1.3,0,0,0-.44-1,2.09,2.09,0,0,0-1.4-.39h-2.72Z"/><path class="cls-3" d="M143.58,175.82a4.64,4.64,0,0,1,1.15-3.35,3.88,3.88,0,0,1,3-1.21,4.14,4.14,0,0,1,2.15.57,3.7,3.7,0,0,1,1.45,1.58,5.09,5.09,0,0,1,.5,2.31,5,5,0,0,1-.52,2.33,3.67,3.67,0,0,1-1.5,1.57,4.29,4.29,0,0,1-2.08.53,4.06,4.06,0,0,1-2.17-.59,3.74,3.74,0,0,1-1.45-1.6A4.8,4.8,0,0,1,143.58,175.82Zm1.17,0a3.48,3.48,0,0,0,.83,2.45,2.92,2.92,0,0,0,4.21,0,3.65,3.65,0,0,0,.83-2.56,4.49,4.49,0,0,0-.35-1.83,2.75,2.75,0,0,0-1-1.21,2.81,2.81,0,0,0-1.53-.43,2.88,2.88,0,0,0-2.08.83A3.68,3.68,0,0,0,144.75,175.83Z"/><path class="cls-3" d="M159.39,177l1.13.29a3.77,3.77,0,0,1-1.28,2.13,3.56,3.56,0,0,1-2.27.74,4,4,0,0,1-2.26-.57,3.58,3.58,0,0,1-1.33-1.64,5.86,5.86,0,0,1-.45-2.3,5.11,5.11,0,0,1,.51-2.34,3.52,3.52,0,0,1,1.46-1.52,4.34,4.34,0,0,1,2.08-.52,3.5,3.5,0,0,1,2.17.66,3.39,3.39,0,0,1,1.23,1.85l-1.12.26a2.67,2.67,0,0,0-.87-1.37,2.33,2.33,0,0,0-1.43-.42,2.73,2.73,0,0,0-1.65.47,2.48,2.48,0,0,0-.94,1.28,5.08,5.08,0,0,0-.27,1.64,5.32,5.32,0,0,0,.32,1.92,2.37,2.37,0,0,0,1,1.22,2.79,2.79,0,0,0,1.46.4,2.43,2.43,0,0,0,1.62-.55A2.82,2.82,0,0,0,159.39,177Z"/><path class="cls-3" d="M162,180v-8.59h6.21v1h-5.08v2.63h4.76v1h-4.76V179h5.28v1Z"/><path class="cls-3" d="M169.54,177.24l1.07-.09a2.25,2.25,0,0,0,.36,1,1.87,1.87,0,0,0,.86.67,3.27,3.27,0,0,0,1.32.26,3.15,3.15,0,0,0,1.15-.2,1.56,1.56,0,0,0,.74-.53,1.23,1.23,0,0,0,.24-.73,1.1,1.1,0,0,0-.23-.71,1.75,1.75,0,0,0-.77-.5c-.24-.09-.74-.23-1.53-.42a7.56,7.56,0,0,1-1.66-.54,2.28,2.28,0,0,1-.92-.8,2,2,0,0,1-.3-1.07,2.13,2.13,0,0,1,.37-1.21,2.18,2.18,0,0,1,1.08-.86,4,4,0,0,1,1.57-.3,4.43,4.43,0,0,1,1.69.31,2.48,2.48,0,0,1,1.12.91,2.62,2.62,0,0,1,.42,1.35l-1.09.08a1.8,1.8,0,0,0-.59-1.23,2.31,2.31,0,0,0-1.5-.41,2.4,2.4,0,0,0-1.5.37,1.14,1.14,0,0,0-.48.91,1,1,0,0,0,.34.77,4.55,4.55,0,0,0,1.71.61,10.72,10.72,0,0,1,1.9.55,2.64,2.64,0,0,1,1.11.87,2.13,2.13,0,0,1,.36,1.22,2.38,2.38,0,0,1-.39,1.3,2.7,2.7,0,0,1-1.13.94,4,4,0,0,1-1.66.34,5,5,0,0,1-1.95-.34,2.73,2.73,0,0,1-1.24-1A2.91,2.91,0,0,1,169.54,177.24Z"/><path class="cls-3" d="M177.54,177.24l1.08-.09a2.37,2.37,0,0,0,.35,1,2,2,0,0,0,.87.67,3.26,3.26,0,0,0,1.31.26,3.11,3.11,0,0,0,1.15-.2,1.56,1.56,0,0,0,.74-.53,1.17,1.17,0,0,0,.25-.73,1.11,1.11,0,0,0-.24-.71,1.64,1.64,0,0,0-.77-.5,15,15,0,0,0-1.53-.42,7.76,7.76,0,0,1-1.66-.54,2.35,2.35,0,0,1-.92-.8,2,2,0,0,1-.3-1.07,2.21,2.21,0,0,1,.37-1.21,2.28,2.28,0,0,1,1.08-.86,4,4,0,0,1,1.58-.3,4.41,4.41,0,0,1,1.68.31,2.43,2.43,0,0,1,1.12.91,2.53,2.53,0,0,1,.42,1.35l-1.08.08a1.77,1.77,0,0,0-.6-1.23,2.31,2.31,0,0,0-1.5-.41,2.42,2.42,0,0,0-1.5.37,1.16,1.16,0,0,0-.47.91,1,1,0,0,0,.33.77,4.55,4.55,0,0,0,1.72.61,11.29,11.29,0,0,1,1.9.55,2.64,2.64,0,0,1,1.11.87,2.21,2.21,0,0,1,.35,1.22,2.38,2.38,0,0,1-.39,1.3,2.64,2.64,0,0,1-1.13.94,4,4,0,0,1-1.65.34,5.1,5.1,0,0,1-2-.34,2.76,2.76,0,0,1-1.23-1A2.92,2.92,0,0,1,177.54,177.24Z"/><path class="cls-3" d="M185.59,175.82a4.64,4.64,0,0,1,1.15-3.35,3.88,3.88,0,0,1,3-1.21,4.11,4.11,0,0,1,2.15.57,3.7,3.7,0,0,1,1.45,1.58,5.09,5.09,0,0,1,.5,2.31,5,5,0,0,1-.52,2.33,3.62,3.62,0,0,1-1.5,1.57,4.29,4.29,0,0,1-2.08.53,4.08,4.08,0,0,1-2.17-.59,3.74,3.74,0,0,1-1.45-1.6A4.8,4.8,0,0,1,185.59,175.82Zm1.17,0a3.44,3.44,0,0,0,.84,2.45,2.91,2.91,0,0,0,4.2,0,3.6,3.6,0,0,0,.83-2.56,4.49,4.49,0,0,0-.35-1.83,2.68,2.68,0,0,0-1-1.21,2.76,2.76,0,0,0-1.53-.43,2.88,2.88,0,0,0-2.08.83A3.68,3.68,0,0,0,186.76,175.83Z"/><path class="cls-3" d="M195.29,180v-8.59h3.81a5.17,5.17,0,0,1,1.74.23,2,2,0,0,1,1,.82,2.41,2.41,0,0,1,.35,1.29,2.12,2.12,0,0,1-.59,1.54,3,3,0,0,1-1.83.8,3.08,3.08,0,0,1,.69.43,5.77,5.77,0,0,1,.94,1.14l1.5,2.34h-1.43l-1.14-1.79c-.33-.51-.6-.91-.82-1.18a2.34,2.34,0,0,0-.58-.57,1.64,1.64,0,0,0-.51-.23,3.26,3.26,0,0,0-.64,0h-1.32V180Zm1.13-4.8h2.45a3.64,3.64,0,0,0,1.22-.16,1.28,1.28,0,0,0,.66-.52,1.32,1.32,0,0,0,.23-.77,1.3,1.3,0,0,0-.44-1,2.07,2.07,0,0,0-1.4-.39h-2.72Z"/></g></g><rect class="cls-5" x="300" y="120" width="650" height="60" rx="4"/><g class="cls-2"><path class="cls-6" d="M321,115V105h7.43v1.69H323v2.23h5v1.68h-5v2.73h5.6V115Z"/><path class="cls-6" d="M329.42,115l2.62-3.74-2.51-3.52h2.34l1.29,2,1.35-2h2.26l-2.46,3.44L337,115h-2.35l-1.48-2.25L331.67,115Z"/><path class="cls-6" d="M342.33,112.69l1.92.32a3.14,3.14,0,0,1-1.17,1.6,3.38,3.38,0,0,1-2,.55,3.25,3.25,0,0,1-2.8-1.23,4.17,4.17,0,0,1-.72-2.51,4,4,0,0,1,.94-2.82,3.12,3.12,0,0,1,2.39-1,3.18,3.18,0,0,1,2.55,1.07,4.67,4.67,0,0,1,.9,3.27h-4.81a1.94,1.94,0,0,0,.46,1.33,1.46,1.46,0,0,0,1.11.48,1.16,1.16,0,0,0,.76-.25A1.51,1.51,0,0,0,342.33,112.69Zm.11-1.94a1.8,1.8,0,0,0-.43-1.27,1.3,1.3,0,0,0-1-.43,1.36,1.36,0,0,0-1,.45,1.82,1.82,0,0,0-.4,1.25Z"/><path class="cls-6" d="M352.25,109.89l-1.9.34a1.41,1.41,0,0,0-.43-.86,1.33,1.33,0,0,0-.88-.28,1.45,1.45,0,0,0-1.15.49,2.59,2.59,0,0,0-.42,1.66,3,3,0,0,0,.43,1.83,1.44,1.44,0,0,0,1.17.53,1.27,1.27,0,0,0,.89-.31,1.88,1.88,0,0,0,.49-1.07l1.89.32a3.28,3.28,0,0,1-1.13,2,3.48,3.48,0,0,1-2.23.66,3.32,3.32,0,0,1-2.54-1,4.57,4.57,0,0,1,0-5.58,3.36,3.36,0,0,1,2.57-1,3.5,3.5,0,0,1,2.11.57A3.19,3.19,0,0,1,352.25,109.89Z"/><path class="cls-6" d="M358.48,115v-1.09a2.72,2.72,0,0,1-1,.92,3,3,0,0,1-1.37.33,2.62,2.62,0,0,1-1.31-.32,1.83,1.83,0,0,1-.84-.9,4.09,4.09,0,0,1-.26-1.61v-4.59h1.92v3.34a9.09,9.09,0,0,0,.11,1.87,1,1,0,0,0,.38.55,1.24,1.24,0,0,0,.71.2,1.53,1.53,0,0,0,.89-.27,1.37,1.37,0,0,0,.53-.67,8.18,8.18,0,0,0,.14-2v-3.06h1.92V115Z"/><path class="cls-6" d="M365.58,107.74v1.53h-1.31v2.93a6.33,6.33,0,0,0,0,1,.42.42,0,0,0,.17.25.57.57,0,0,0,.32.09,2.58,2.58,0,0,0,.78-.18l.16,1.49a3.85,3.85,0,0,1-1.52.28,2.3,2.3,0,0,1-.93-.17,1.45,1.45,0,0,1-.62-.45,1.84,1.84,0,0,1-.27-.75,9.44,9.44,0,0,1-.06-1.35v-3.17h-.88v-1.53h.88V106.3l1.93-1.12v2.56Z"/><path class="cls-6" d="M366.92,106.76V105h1.92v1.78Zm0,8.24v-7.26h1.92V115Z"/><path class="cls-6" d="M370.36,111.27a3.94,3.94,0,0,1,.47-1.85,3.22,3.22,0,0,1,1.34-1.37,3.91,3.91,0,0,1,1.93-.47,3.59,3.59,0,0,1,2.7,1.07,3.69,3.69,0,0,1,1.05,2.7,3.72,3.72,0,0,1-1.06,2.73,3.6,3.6,0,0,1-2.68,1.08,4.21,4.21,0,0,1-1.9-.45,3.14,3.14,0,0,1-1.38-1.32A4.46,4.46,0,0,1,370.36,111.27Zm2,.1a2.4,2.4,0,0,0,.51,1.65,1.67,1.67,0,0,0,2.53,0,2.92,2.92,0,0,0,0-3.3,1.67,1.67,0,0,0-2.53,0A2.4,2.4,0,0,0,372.33,111.37Z"/><path class="cls-6" d="M386,115H384v-3.71a5.88,5.88,0,0,0-.12-1.52,1.07,1.07,0,0,0-1.07-.72,1.59,1.59,0,0,0-.9.27,1.39,1.39,0,0,0-.54.72,6.16,6.16,0,0,0-.15,1.67V115h-1.92v-7.26h1.79v1.07a3,3,0,0,1,3.55-1,2,2,0,0,1,.8.59,2.14,2.14,0,0,1,.37.81,6,6,0,0,1,.11,1.29Z"/><path class="cls-6" d="M394.07,115v-8.33h-3V105h8v1.69h-3V115Z"/><path class="cls-6" d="M400.1,106.76V105H402v1.78Zm0,8.24v-7.26H402V115Z"/><path class="cls-6" d="M403.84,107.74h1.77v1a2.86,2.86,0,0,1,2.27-1.15,2.49,2.49,0,0,1,1.21.28,2.2,2.2,0,0,1,.84.87,3.3,3.3,0,0,1,1-.87,2.53,2.53,0,0,1,1.18-.28,2.63,2.63,0,0,1,1.36.32,2.06,2.06,0,0,1,.82.95,4.23,4.23,0,0,1,.2,1.51V115H412.6v-4.15a3.09,3.09,0,0,0-.2-1.39.9.9,0,0,0-.82-.41,1.34,1.34,0,0,0-.76.24,1.42,1.42,0,0,0-.51.72,5,5,0,0,0-.16,1.5V115h-1.92v-4a5.57,5.57,0,0,0-.1-1.37.9.9,0,0,0-.32-.45,1,1,0,0,0-.58-.15,1.37,1.37,0,0,0-.8.24,1.22,1.22,0,0,0-.51.69,4.81,4.81,0,0,0-.16,1.49V115h-1.92Z"/><path class="cls-6" d="M420.64,112.69l1.91.32a3.07,3.07,0,0,1-1.16,1.6,3.42,3.42,0,0,1-2,.55,3.26,3.26,0,0,1-2.8-1.23,4.17,4.17,0,0,1-.72-2.51,4,4,0,0,1,.95-2.82,3.1,3.1,0,0,1,2.38-1,3.2,3.2,0,0,1,2.56,1.07,4.77,4.77,0,0,1,.9,3.27h-4.82a2,2,0,0,0,.47,1.33,1.43,1.43,0,0,0,1.11.48,1.11,1.11,0,0,0,.75-.25A1.52,1.52,0,0,0,420.64,112.69Zm.11-1.94a1.9,1.9,0,0,0-.43-1.27,1.4,1.4,0,0,0-2,0,1.77,1.77,0,0,0-.4,1.25Z"/><path class="cls-6" d="M424.22,115V105h1.92v10Z"/><path class="cls-6" d="M428.11,106.76V105H430v1.78Zm0,8.24v-7.26H430V115Z"/><path class="cls-6" d="M438.6,115h-1.92v-3.71a5.88,5.88,0,0,0-.12-1.52,1.08,1.08,0,0,0-.4-.53,1.13,1.13,0,0,0-.67-.19,1.53,1.53,0,0,0-.89.27,1.35,1.35,0,0,0-.55.72,6.75,6.75,0,0,0-.14,1.67V115H432v-7.26h1.78v1.07a2.9,2.9,0,0,1,2.39-1.23,3,3,0,0,1,1.17.22,2,2,0,0,1,.79.59,2.16,2.16,0,0,1,.38.81,6.09,6.09,0,0,1,.1,1.29Z"/><path class="cls-6" d="M444.76,112.69l1.91.32a3.09,3.09,0,0,1-1.17,1.6,3.38,3.38,0,0,1-2,.55,3.25,3.25,0,0,1-2.8-1.23,4.17,4.17,0,0,1-.72-2.51,4,4,0,0,1,.94-2.82,3.12,3.12,0,0,1,2.39-1,3.22,3.22,0,0,1,2.56,1.07,4.72,4.72,0,0,1,.89,3.27H442a1.94,1.94,0,0,0,.46,1.33,1.46,1.46,0,0,0,1.11.48,1.14,1.14,0,0,0,.76-.25A1.52,1.52,0,0,0,444.76,112.69Zm.11-1.94a1.85,1.85,0,0,0-.44-1.27,1.3,1.3,0,0,0-1-.43,1.34,1.34,0,0,0-1,.45,1.78,1.78,0,0,0-.41,1.25Z"/><path class="cls-6" d="M455.41,118h-1.32a14,14,0,0,1-1.59-3.28,11,11,0,0,1-.55-3.3,10.38,10.38,0,0,1,.68-3.74,13.07,13.07,0,0,1,1.49-2.82h1.31a20.48,20.48,0,0,0-1.28,3.52,12.8,12.8,0,0,0-.36,3.08,13.12,13.12,0,0,0,.21,2.3,15.15,15.15,0,0,0,.57,2.23Q454.81,116.65,455.41,118Z"/><path class="cls-6" d="M456.39,111.74l2-.19a2.41,2.41,0,0,0,.72,1.45,2.18,2.18,0,0,0,1.47.47,2.22,2.22,0,0,0,1.47-.42,1.21,1.21,0,0,0,.5-1,.92.92,0,0,0-.21-.61,1.69,1.69,0,0,0-.73-.43c-.24-.08-.78-.23-1.62-.44a5.44,5.44,0,0,1-2.28-1,2.61,2.61,0,0,1-.49-3.45,2.69,2.69,0,0,1,1.25-1,4.85,4.85,0,0,1,2-.35,4.24,4.24,0,0,1,2.84.82,2.92,2.92,0,0,1,1,2.21l-2,.09a1.73,1.73,0,0,0-.56-1.11,2.06,2.06,0,0,0-1.28-.34,2.31,2.31,0,0,0-1.38.36.73.73,0,0,0-.32.63.79.79,0,0,0,.3.61,5.48,5.48,0,0,0,1.86.67,9.61,9.61,0,0,1,2.18.72,2.78,2.78,0,0,1,1.11,1,3,3,0,0,1,.4,1.6,2.92,2.92,0,0,1-.48,1.61,2.81,2.81,0,0,1-1.35,1.12,5.58,5.58,0,0,1-2.18.37,4.37,4.37,0,0,1-2.92-.88A3.82,3.82,0,0,1,456.39,111.74Z"/><path class="cls-6" d="M470.43,112.69l1.92.32a3.14,3.14,0,0,1-1.17,1.6,3.41,3.41,0,0,1-2,.55,3.28,3.28,0,0,1-2.81-1.23,4.23,4.23,0,0,1-.71-2.51,4,4,0,0,1,.94-2.82,3.11,3.11,0,0,1,2.39-1,3.18,3.18,0,0,1,2.55,1.07,4.67,4.67,0,0,1,.9,3.27h-4.81a1.89,1.89,0,0,0,.46,1.33,1.46,1.46,0,0,0,1.11.48,1.16,1.16,0,0,0,.76-.25A1.51,1.51,0,0,0,470.43,112.69Zm.11-1.94a1.85,1.85,0,0,0-.43-1.27,1.32,1.32,0,0,0-1-.43,1.36,1.36,0,0,0-1,.45,1.82,1.82,0,0,0-.4,1.25Z"/><path class="cls-6" d="M478.76,117.76v-3.65a2.82,2.82,0,0,1-.94.77,2.63,2.63,0,0,1-1.21.28,2.59,2.59,0,0,1-2-.93,4.36,4.36,0,0,1-.94-2.94,3.92,3.92,0,0,1,.89-2.73,2.81,2.81,0,0,1,2.19-1,2.5,2.5,0,0,1,1.26.3,3.07,3.07,0,0,1,.94.93v-1.07h1.77v10Zm.06-6.48a2.53,2.53,0,0,0-.46-1.66,1.42,1.42,0,0,0-1.13-.54,1.46,1.46,0,0,0-1.17.55,2.72,2.72,0,0,0-.47,1.76,2.68,2.68,0,0,0,.45,1.73,1.43,1.43,0,0,0,1.12.53,1.47,1.47,0,0,0,1.16-.6A2.69,2.69,0,0,0,478.82,111.28Z"/><path class="cls-6" d="M487.34,115v-1.09a2.72,2.72,0,0,1-1,.92,2.94,2.94,0,0,1-1.36.33,2.63,2.63,0,0,1-1.32-.32,1.93,1.93,0,0,1-.84-.9,4.09,4.09,0,0,1-.26-1.61v-4.59h1.93v3.34a9.42,9.42,0,0,0,.1,1.87,1,1,0,0,0,.39.55,1.19,1.19,0,0,0,.71.2,1.5,1.5,0,0,0,.88-.27,1.32,1.32,0,0,0,.53-.67,7.48,7.48,0,0,0,.15-2v-3.06h1.92V115Z"/><path class="cls-6" d="M495.32,112.69l1.92.32a3.14,3.14,0,0,1-1.17,1.6,3.41,3.41,0,0,1-2,.55,3.27,3.27,0,0,1-2.81-1.23,4.23,4.23,0,0,1-.71-2.51,4,4,0,0,1,.94-2.82,3.11,3.11,0,0,1,2.39-1,3.18,3.18,0,0,1,2.55,1.07,4.67,4.67,0,0,1,.9,3.27h-4.81a1.89,1.89,0,0,0,.46,1.33,1.46,1.46,0,0,0,1.11.48,1.16,1.16,0,0,0,.76-.25A1.51,1.51,0,0,0,495.32,112.69Zm.11-1.94a1.85,1.85,0,0,0-.43-1.27,1.32,1.32,0,0,0-1-.43,1.36,1.36,0,0,0-1,.45,1.82,1.82,0,0,0-.4,1.25Z"/><path class="cls-6" d="M505.51,115h-1.92v-3.71a5.72,5.72,0,0,0-.13-1.52,1,1,0,0,0-.4-.53,1.09,1.09,0,0,0-.66-.19,1.56,1.56,0,0,0-.9.27,1.39,1.39,0,0,0-.54.72,6.16,6.16,0,0,0-.15,1.67V115h-1.92v-7.26h1.78v1.07a3,3,0,0,1,3.56-1,2.09,2.09,0,0,1,.8.59,2.14,2.14,0,0,1,.37.81,6,6,0,0,1,.11,1.29Z"/><path class="cls-6" d="M510.78,107.74v1.53h-1.31v2.93a6.33,6.33,0,0,0,0,1,.42.42,0,0,0,.17.25.57.57,0,0,0,.32.09,2.58,2.58,0,0,0,.78-.18l.16,1.49a3.85,3.85,0,0,1-1.52.28,2.33,2.33,0,0,1-.93-.17,1.41,1.41,0,0,1-.61-.45,1.84,1.84,0,0,1-.27-.75,7.74,7.74,0,0,1-.07-1.35v-3.17h-.88v-1.53h.88V106.3l1.93-1.12v2.56Z"/><path class="cls-6" d="M512.12,106.76V105H514v1.78Zm0,8.24v-7.26H514V115Z"/><path class="cls-6" d="M517.44,110l-1.74-.32a2.7,2.7,0,0,1,1-1.56,3.76,3.76,0,0,1,2.13-.5,4.68,4.68,0,0,1,1.92.3,1.88,1.88,0,0,1,.88.77,4,4,0,0,1,.26,1.72l0,2.24A8.13,8.13,0,0,0,522,114a4.1,4.1,0,0,0,.35,1h-1.9c0-.13-.12-.32-.19-.57a1.13,1.13,0,0,0-.07-.22,3.31,3.31,0,0,1-1,.71,3,3,0,0,1-1.2.24,2.49,2.49,0,0,1-1.76-.6,2,2,0,0,1-.65-1.54,2.12,2.12,0,0,1,.29-1.1,2,2,0,0,1,.83-.74,6.49,6.49,0,0,1,1.53-.45,9.41,9.41,0,0,0,1.86-.47v-.19a1,1,0,0,0-.27-.79,1.63,1.63,0,0,0-1-.23,1.34,1.34,0,0,0-.8.2A1.4,1.4,0,0,0,517.44,110Zm2.57,1.55a10.34,10.34,0,0,1-1.17.3,3.36,3.36,0,0,0-1,.33.82.82,0,0,0-.38.68,1,1,0,0,0,.3.7,1.08,1.08,0,0,0,.77.29,1.65,1.65,0,0,0,1-.34,1.2,1.2,0,0,0,.46-.64,3.8,3.8,0,0,0,.07-.93Z"/><path class="cls-6" d="M523.79,115V105h1.92v10Z"/><path class="cls-6" d="M531.35,112.33v-1.92h3.78v1.92Z"/><path class="cls-6" d="M540.16,115V105h2l4.1,6.69V105h1.88v10h-2l-4-6.54V115Z"/><path class="cls-6" d="M549.79,111.27a3.94,3.94,0,0,1,.47-1.85,3.22,3.22,0,0,1,1.34-1.37,3.89,3.89,0,0,1,1.93-.47,3.59,3.59,0,0,1,2.7,1.07,3.69,3.69,0,0,1,1,2.7,3.72,3.72,0,0,1-1.06,2.73,3.6,3.6,0,0,1-2.68,1.08,4.21,4.21,0,0,1-1.9-.45,3.14,3.14,0,0,1-1.38-1.32A4.46,4.46,0,0,1,549.79,111.27Zm2,.1a2.4,2.4,0,0,0,.51,1.65,1.62,1.62,0,0,0,1.27.58,1.6,1.6,0,0,0,1.26-.58,2.92,2.92,0,0,0,0-3.3,1.6,1.6,0,0,0-1.26-.58,1.62,1.62,0,0,0-1.27.58A2.4,2.4,0,0,0,551.76,111.37Z"/><path class="cls-6" d="M562.69,115V105h3.25a11.71,11.71,0,0,1,2.4.15,2.65,2.65,0,0,1,1.45,1,3.14,3.14,0,0,1,.58,2,3.29,3.29,0,0,1-.34,1.55,2.76,2.76,0,0,1-.85,1,2.91,2.91,0,0,1-1,.48,12.13,12.13,0,0,1-2.1.14h-1.32V115Zm2-8.33v2.85h1.11a5.36,5.36,0,0,0,1.6-.16,1.29,1.29,0,0,0,.63-.49,1.33,1.33,0,0,0,.23-.78,1.29,1.29,0,0,0-.32-.9,1.4,1.4,0,0,0-.81-.45,10.65,10.65,0,0,0-1.46-.07Z"/><path class="cls-6" d="M573.45,110l-1.74-.32a2.7,2.7,0,0,1,1-1.56,3.76,3.76,0,0,1,2.13-.5,4.59,4.59,0,0,1,1.91.3,1.91,1.91,0,0,1,.89.77,4,4,0,0,1,.26,1.72l0,2.24A8.13,8.13,0,0,0,578,114a4,4,0,0,0,.34,1h-1.9q-.07-.19-.18-.57c0-.11-.06-.19-.07-.22a3.31,3.31,0,0,1-1,.71,3.06,3.06,0,0,1-1.2.24,2.5,2.5,0,0,1-1.77-.6,2,2,0,0,1-.64-1.54,2.12,2.12,0,0,1,.29-1.1,2,2,0,0,1,.82-.74,6.8,6.8,0,0,1,1.53-.45,9.56,9.56,0,0,0,1.87-.47v-.19a1,1,0,0,0-.27-.79,1.66,1.66,0,0,0-1-.23,1.36,1.36,0,0,0-.8.2A1.39,1.39,0,0,0,573.45,110Zm2.57,1.55a11.66,11.66,0,0,1-1.17.3,3.56,3.56,0,0,0-1.05.33.81.81,0,0,0-.37.68,1,1,0,0,0,.3.7,1.08,1.08,0,0,0,.77.29,1.67,1.67,0,0,0,1-.34,1.19,1.19,0,0,0,.45-.64,3.65,3.65,0,0,0,.08-.93Z"/><path class="cls-6" d="M581.64,115h-1.92v-7.26h1.78v1a3.09,3.09,0,0,1,.83-1,1.46,1.46,0,0,1,.83-.23,2.44,2.44,0,0,1,1.26.36l-.59,1.67a1.71,1.71,0,0,0-.91-.31,1,1,0,0,0-.68.22,1.54,1.54,0,0,0-.44.8,11.28,11.28,0,0,0-.16,2.44Z"/><path class="cls-6" d="M586.68,110l-1.74-.32a2.74,2.74,0,0,1,1-1.56,3.76,3.76,0,0,1,2.13-.5,4.68,4.68,0,0,1,1.92.3,1.88,1.88,0,0,1,.88.77,4,4,0,0,1,.26,1.72l0,2.24a8.13,8.13,0,0,0,.09,1.42,4.1,4.1,0,0,0,.35,1h-1.9c0-.13-.12-.32-.19-.57a1.13,1.13,0,0,0-.07-.22,3.2,3.2,0,0,1-1,.71,3,3,0,0,1-1.19.24,2.5,2.5,0,0,1-1.77-.6,2.16,2.16,0,0,1-.35-2.64,1.9,1.9,0,0,1,.82-.74,6.49,6.49,0,0,1,1.53-.45,9.21,9.21,0,0,0,1.86-.47v-.19a1,1,0,0,0-.27-.79,1.63,1.63,0,0,0-1-.23,1.34,1.34,0,0,0-.8.2A1.4,1.4,0,0,0,586.68,110Zm2.57,1.55a10.34,10.34,0,0,1-1.17.3,3.36,3.36,0,0,0-1,.33.82.82,0,0,0-.38.68,1,1,0,0,0,.3.7,1.08,1.08,0,0,0,.77.29,1.63,1.63,0,0,0,1-.34,1.2,1.2,0,0,0,.46-.64,3.8,3.8,0,0,0,.07-.93Z"/><path class="cls-6" d="M593,115V105H595v10Z"/><path class="cls-6" d="M596.92,115V105h1.92v10Z"/><path class="cls-6" d="M605,112.69l1.91.32a3.07,3.07,0,0,1-1.16,1.6,3.42,3.42,0,0,1-2,.55,3.26,3.26,0,0,1-2.8-1.23,4.17,4.17,0,0,1-.72-2.51,4,4,0,0,1,1-2.82,3.1,3.1,0,0,1,2.38-1,3.22,3.22,0,0,1,2.56,1.07,4.72,4.72,0,0,1,.89,3.27h-4.81a2,2,0,0,0,.47,1.33,1.43,1.43,0,0,0,1.1.48,1.14,1.14,0,0,0,.76-.25A1.52,1.52,0,0,0,605,112.69Zm.11-1.94a1.9,1.9,0,0,0-.43-1.27,1.4,1.4,0,0,0-2,0,1.77,1.77,0,0,0-.4,1.25Z"/><path class="cls-6" d="M608.6,115V105h1.92v10Z"/><path class="cls-6" d="M612.49,106.76V105h1.92v1.78Zm0,8.24v-7.26h1.92V115Z"/><path class="cls-6" d="M615.7,112.93l1.93-.3a1.43,1.43,0,0,0,.5.86,1.7,1.7,0,0,0,1,.29,1.83,1.83,0,0,0,1.12-.28.6.6,0,0,0,.26-.51.49.49,0,0,0-.14-.36,1.48,1.48,0,0,0-.64-.25,10.67,10.67,0,0,1-2.95-.94,1.88,1.88,0,0,1-.86-1.64,2,2,0,0,1,.74-1.58,3.48,3.48,0,0,1,2.31-.64,4.06,4.06,0,0,1,2.22.48,2.51,2.51,0,0,1,1,1.44l-1.81.33a1.14,1.14,0,0,0-.45-.65,1.58,1.58,0,0,0-.92-.22,2.11,2.11,0,0,0-1.09.21.47.47,0,0,0-.22.39.45.45,0,0,0,.19.35,7.72,7.72,0,0,0,1.8.54,5.24,5.24,0,0,1,2.14.85,1.78,1.78,0,0,1,.6,1.43,2.18,2.18,0,0,1-.83,1.72,3.75,3.75,0,0,1-2.47.71,4.07,4.07,0,0,1-2.35-.6A2.79,2.79,0,0,1,615.7,112.93Z"/><path class="cls-6" d="M624,107.74h1.77v1a2.85,2.85,0,0,1,2.26-1.15,2.43,2.43,0,0,1,1.21.28,2.16,2.16,0,0,1,.85.87,3.19,3.19,0,0,1,1-.87,2.53,2.53,0,0,1,1.18-.28,2.6,2.6,0,0,1,1.35.32,2,2,0,0,1,.83.95,4.23,4.23,0,0,1,.2,1.51V115h-1.92v-4.15a3.09,3.09,0,0,0-.2-1.39.9.9,0,0,0-.82-.41,1.34,1.34,0,0,0-.76.24,1.37,1.37,0,0,0-.51.72,5,5,0,0,0-.16,1.5V115h-1.92v-4a5.57,5.57,0,0,0-.1-1.37.9.9,0,0,0-.32-.45,1,1,0,0,0-.58-.15,1.37,1.37,0,0,0-.8.24,1.22,1.22,0,0,0-.51.69,4.81,4.81,0,0,0-.16,1.49V115H624Z"/><path class="cls-6" d="M636.08,118c.38-.82.64-1.44.8-1.87a12,12,0,0,0,.43-1.5,14.86,14.86,0,0,0,.29-1.61,11.46,11.46,0,0,0,.1-1.56,13.33,13.33,0,0,0-.35-3.08,20.48,20.48,0,0,0-1.28-3.52h1.3a12.57,12.57,0,0,1,1.6,3.11,10,10,0,0,1,.58,3.35,11.2,11.2,0,0,1-.46,3.06,13,13,0,0,1-1.68,3.62Z"/></g><line class="cls-7" x1="320" y1="185" x2="320" y2="195"/><text class="cls-8" transform="translate(310.55 210)">0ms</text><line class="cls-7" x1="470" y1="185" x2="470" y2="195"/><text class="cls-8" transform="translate(457.77 210)">50ms</text><line class="cls-7" x1="620" y1="185" x2="620" y2="195"/><text class="cls-8" transform="translate(604.99 210)">100ms</text><line class="cls-7" x1="770" y1="185" x2="770" y2="195"/><text class="cls-8" transform="translate(754.99 210)">150ms</text><line class="cls-7" x1="920" y1="185" x2="920" y2="195"/><text class="cls-8" transform="translate(904.99 210)">200ms</text><g id="sensor_reeading"><rect class="cls-9" x="303.4" y="130" width="80" height="40" rx="4"/><g class="cls-2"><path class="cls-3" d="M326.81,142.67l1.41-.14a1.66,1.66,0,0,0,.51,1,1.53,1.53,0,0,0,1,.34,1.58,1.58,0,0,0,1.05-.3.88.88,0,0,0,.36-.69.64.64,0,0,0-.15-.43,1.25,1.25,0,0,0-.52-.31c-.17-.06-.56-.17-1.16-.31a4,4,0,0,1-1.63-.71,1.88,1.88,0,0,1-.66-1.44,1.83,1.83,0,0,1,.31-1,1.94,1.94,0,0,1,.89-.72,3.52,3.52,0,0,1,1.41-.25,3,3,0,0,1,2,.59,2.12,2.12,0,0,1,.72,1.58L331,140a1.17,1.17,0,0,0-.4-.79,1.45,1.45,0,0,0-.91-.24,1.69,1.69,0,0,0-1,.25.55.55,0,0,0-.23.45.53.53,0,0,0,.22.43,3.49,3.49,0,0,0,1.32.48,6.79,6.79,0,0,1,1.56.52,1.92,1.92,0,0,1,.79.73,2,2,0,0,1,.29,1.14,2.1,2.1,0,0,1-1.31,2,4.1,4.1,0,0,1-1.56.26,3.08,3.08,0,0,1-2.08-.63A2.7,2.7,0,0,1,326.81,142.67Z"/><path class="cls-3" d="M336.84,143.35l1.37.23a2.26,2.26,0,0,1-.84,1.14,2.38,2.38,0,0,1-1.42.4,2.32,2.32,0,0,1-2-.89,3,3,0,0,1-.51-1.78,2.85,2.85,0,0,1,.67-2,2.21,2.21,0,0,1,1.7-.73,2.3,2.3,0,0,1,1.83.76,3.36,3.36,0,0,1,.64,2.34h-3.44a1.38,1.38,0,0,0,.33.95,1.05,1.05,0,0,0,.8.34.89.89,0,0,0,.54-.17A1.2,1.2,0,0,0,336.84,143.35Zm.08-1.39a1.29,1.29,0,0,0-.31-.9.93.93,0,0,0-.71-.31,1,1,0,0,0-.75.32,1.27,1.27,0,0,0-.28.89Z"/><path class="cls-3" d="M344.11,145h-1.37v-2.65a3.92,3.92,0,0,0-.09-1.08.71.71,0,0,0-.28-.39.82.82,0,0,0-.48-.13,1.12,1.12,0,0,0-.64.19,1,1,0,0,0-.38.52,4.37,4.37,0,0,0-.11,1.19V145h-1.37v-5.19h1.27v.77a2.07,2.07,0,0,1,1.71-.88,2,2,0,0,1,.83.16,1.42,1.42,0,0,1,.57.42,1.5,1.5,0,0,1,.27.57,4.5,4.5,0,0,1,.07.93Z"/><path class="cls-3" d="M345,143.52l1.38-.21a1,1,0,0,0,.36.61,1.19,1.19,0,0,0,.75.21,1.37,1.37,0,0,0,.8-.2.43.43,0,0,0,.18-.37.32.32,0,0,0-.1-.25,1.07,1.07,0,0,0-.46-.19,7.37,7.37,0,0,1-2.1-.66,1.34,1.34,0,0,1-.62-1.17,1.42,1.42,0,0,1,.54-1.13,2.45,2.45,0,0,1,1.65-.46A2.9,2.9,0,0,1,349,140a1.84,1.84,0,0,1,.71,1l-1.29.24a.83.83,0,0,0-.32-.47,1.19,1.19,0,0,0-.66-.16,1.53,1.53,0,0,0-.78.15.35.35,0,0,0-.15.28.3.3,0,0,0,.13.25,5.57,5.57,0,0,0,1.29.39,3.75,3.75,0,0,1,1.53.61,1.28,1.28,0,0,1,.43,1,1.56,1.56,0,0,1-.6,1.22,2.59,2.59,0,0,1-1.76.52,2.94,2.94,0,0,1-1.68-.43A2,2,0,0,1,345,143.52Z"/><path class="cls-3" d="M350.75,142.33a2.76,2.76,0,0,1,.34-1.32,2.3,2.3,0,0,1,1-1,2.87,2.87,0,0,1,1.38-.33,2.58,2.58,0,0,1,1.93.76,2.87,2.87,0,0,1,0,3.88,2.54,2.54,0,0,1-1.91.78,3,3,0,0,1-1.36-.33,2.13,2.13,0,0,1-1-.94A3.08,3.08,0,0,1,350.75,142.33Zm1.41.08a1.73,1.73,0,0,0,.36,1.18,1.2,1.2,0,0,0,1.81,0,1.75,1.75,0,0,0,.36-1.19,1.71,1.71,0,0,0-.36-1.17,1.2,1.2,0,0,0-1.81,0A1.72,1.72,0,0,0,352.16,142.41Z"/><path class="cls-3" d="M358.49,145h-1.37v-5.19h1.27v.74a2.28,2.28,0,0,1,.59-.69,1.07,1.07,0,0,1,.59-.16,1.68,1.68,0,0,1,.91.26l-.43,1.19a1.17,1.17,0,0,0-.64-.22.74.74,0,0,0-.49.16,1.08,1.08,0,0,0-.32.57,8.81,8.81,0,0,0-.11,1.74Z"/></g><g class="cls-2"><path class="cls-3" d="M325.56,158v-7.16h3.17a4.18,4.18,0,0,1,1.46.2,1.49,1.49,0,0,1,.79.68,2,2,0,0,1,.3,1.07,1.81,1.81,0,0,1-.49,1.29,2.47,2.47,0,0,1-1.52.66,2.35,2.35,0,0,1,.57.36,4.77,4.77,0,0,1,.78,1l1.25,1.95h-1.19l-.95-1.49c-.28-.43-.5-.76-.68-1a2.29,2.29,0,0,0-.48-.47,1.4,1.4,0,0,0-.44-.19,2.15,2.15,0,0,0-.52,0h-1.1V158Zm.95-4h2a3.08,3.08,0,0,0,1-.13,1.16,1.16,0,0,0,.56-.43,1.23,1.23,0,0,0,.19-.65,1.09,1.09,0,0,0-.37-.83,1.74,1.74,0,0,0-1.17-.33h-2.26Z"/><path class="cls-3" d="M336.2,156.33l.91.11a2.27,2.27,0,0,1-.79,1.24,2.44,2.44,0,0,1-1.49.44,2.38,2.38,0,0,1-1.8-.7,2.74,2.74,0,0,1-.67-2,2.86,2.86,0,0,1,.68-2,2.26,2.26,0,0,1,1.74-.72,2.18,2.18,0,0,1,1.7.71,2.8,2.8,0,0,1,.66,2v.23h-3.87a2,2,0,0,0,.48,1.31,1.45,1.45,0,0,0,1.09.45,1.33,1.33,0,0,0,.82-.25A1.65,1.65,0,0,0,336.2,156.33Zm-2.88-1.42h2.89a1.7,1.7,0,0,0-.33-1,1.43,1.43,0,0,0-2.1-.1A1.58,1.58,0,0,0,333.32,154.91Z"/><path class="cls-3" d="M341.6,157.36a3.44,3.44,0,0,1-.94.59,2.78,2.78,0,0,1-1,.17,1.86,1.86,0,0,1-1.31-.42,1.36,1.36,0,0,1-.46-1.07,1.47,1.47,0,0,1,.17-.69,1.51,1.51,0,0,1,.46-.51,2,2,0,0,1,.63-.29A6.85,6.85,0,0,1,340,155a7.64,7.64,0,0,0,1.57-.3v-.23a1,1,0,0,0-.25-.76,1.46,1.46,0,0,0-1-.3,1.56,1.56,0,0,0-.91.22,1.3,1.3,0,0,0-.44.77l-.86-.12a2.21,2.21,0,0,1,.39-.89,1.64,1.64,0,0,1,.77-.52,3.53,3.53,0,0,1,1.18-.18,3.26,3.26,0,0,1,1.08.15,1.51,1.51,0,0,1,.61.4,1.29,1.29,0,0,1,.27.59,4.74,4.74,0,0,1,.05.82v1.17a12.5,12.5,0,0,0,.05,1.55,2.09,2.09,0,0,0,.22.62h-.91A1.77,1.77,0,0,1,341.6,157.36Zm-.07-2a6.45,6.45,0,0,1-1.44.33,3,3,0,0,0-.77.18.73.73,0,0,0-.34.28.79.79,0,0,0-.12.42.72.72,0,0,0,.26.58,1.14,1.14,0,0,0,.78.24,1.87,1.87,0,0,0,.9-.22,1.39,1.39,0,0,0,.59-.61,2.2,2.2,0,0,0,.14-.88Z"/><path class="cls-3" d="M347.14,158v-.65a1.62,1.62,0,0,1-1.45.77,2.11,2.11,0,0,1-1.14-.34,2.3,2.3,0,0,1-.8-1,3.32,3.32,0,0,1-.29-1.41,3.73,3.73,0,0,1,.26-1.41,2,2,0,0,1,.78-1,2.09,2.09,0,0,1,1.15-.33,1.76,1.76,0,0,1,.84.19,1.86,1.86,0,0,1,.59.52v-2.57H348V158Zm-2.78-2.59a2.25,2.25,0,0,0,.42,1.49,1.26,1.26,0,0,0,1,.49,1.21,1.21,0,0,0,1-.47,2.14,2.14,0,0,0,.41-1.43,2.48,2.48,0,0,0-.41-1.57,1.28,1.28,0,0,0-1-.5,1.22,1.22,0,0,0-1,.48A2.33,2.33,0,0,0,344.36,155.41Z"/><path class="cls-3" d="M349.34,151.85v-1h.88v1Zm0,6.15v-5.19h.88V158Z"/><path class="cls-3" d="M351.56,158v-5.19h.79v.74a1.86,1.86,0,0,1,1.65-.85,2,2,0,0,1,.86.17,1.24,1.24,0,0,1,.59.44,1.83,1.83,0,0,1,.28.65,5.52,5.52,0,0,1,0,.85V158h-.87v-3.15a2.34,2.34,0,0,0-.11-.81.81.81,0,0,0-.36-.42,1.11,1.11,0,0,0-.61-.16,1.4,1.4,0,0,0-1,.36,1.74,1.74,0,0,0-.41,1.35V158Z"/><path class="cls-3" d="M357,158.43l.86.13a.79.79,0,0,0,.29.57,1.44,1.44,0,0,0,.9.25,1.52,1.52,0,0,0,.94-.25,1.21,1.21,0,0,0,.45-.68,5.66,5.66,0,0,0,.06-1.13A1.8,1.8,0,0,1,359,158a2,2,0,0,1-1.66-.77,3,3,0,0,1-.58-1.85,3.59,3.59,0,0,1,.26-1.37,2.16,2.16,0,0,1,.78-1,2.09,2.09,0,0,1,1.2-.34,1.86,1.86,0,0,1,1.52.74v-.63h.81v4.49a4.28,4.28,0,0,1-.25,1.71,1.82,1.82,0,0,1-.78.8,2.68,2.68,0,0,1-1.32.29,2.54,2.54,0,0,1-1.5-.41A1.43,1.43,0,0,1,357,158.43Zm.73-3.12a2.23,2.23,0,0,0,.4,1.49,1.27,1.27,0,0,0,1,.47,1.32,1.32,0,0,0,1-.46,2.21,2.21,0,0,0,.41-1.47,2.07,2.07,0,0,0-.43-1.43,1.31,1.31,0,0,0-1-.49,1.25,1.25,0,0,0-1,.48A2.14,2.14,0,0,0,357.69,155.31Z"/></g></g><g id="data_processing"><path class="cls-10" d="M416.24,130H508.7c1.82,0,3.3,1.79,3.3,4v32c0,2.21-1.48,4-3.3,4H416.24c-1.83,0-3.3-1.79-3.3-4V134C412.94,131.79,414.41,130,416.24,130Z"/><g class="cls-2"><path class="cls-3" d="M426.54,137.84h2.64a5.13,5.13,0,0,1,1.36.14,2.33,2.33,0,0,1,1.08.66,3.12,3.12,0,0,1,.69,1.16,5.43,5.43,0,0,1,.23,1.69,4.56,4.56,0,0,1-.22,1.52,3.19,3.19,0,0,1-.76,1.27,2.69,2.69,0,0,1-1,.57,4.44,4.44,0,0,1-1.28.15h-2.72Zm1.45,1.21v4.74h1.07a4.51,4.51,0,0,0,.88-.06,1.34,1.34,0,0,0,.58-.3,1.49,1.49,0,0,0,.38-.69,4.57,4.57,0,0,0,.15-1.31,4.21,4.21,0,0,0-.15-1.28,1.61,1.61,0,0,0-.41-.69,1.38,1.38,0,0,0-.67-.34,7,7,0,0,0-1.18-.07Z"/><path class="cls-3" d="M434.78,141.4l-1.24-.23a1.94,1.94,0,0,1,.72-1.11,2.64,2.64,0,0,1,1.52-.36,3.38,3.38,0,0,1,1.37.21,1.35,1.35,0,0,1,.63.56,2.66,2.66,0,0,1,.19,1.22l0,1.61a4.88,4.88,0,0,0,.07,1,2.77,2.77,0,0,0,.24.7h-1.35c0-.09-.08-.23-.14-.41l0-.16a2.64,2.64,0,0,1-.76.52,2.19,2.19,0,0,1-.85.17,1.77,1.77,0,0,1-1.26-.44,1.43,1.43,0,0,1-.46-1.1,1.47,1.47,0,0,1,.21-.78,1.35,1.35,0,0,1,.58-.53,4.78,4.78,0,0,1,1.1-.32,8,8,0,0,0,1.33-.33v-.14a.7.7,0,0,0-.2-.56,1.1,1.1,0,0,0-.73-.17,1,1,0,0,0-.58.14A1.13,1.13,0,0,0,434.78,141.4Zm1.84,1.11a8.34,8.34,0,0,1-.84.21,2.29,2.29,0,0,0-.74.24.58.58,0,0,0-.27.48.69.69,0,0,0,.21.5.77.77,0,0,0,.55.21,1.21,1.21,0,0,0,.71-.24.9.9,0,0,0,.32-.46,2.45,2.45,0,0,0,.06-.67Z"/><path class="cls-3" d="M441.7,139.81v1.1h-.94V143a4.69,4.69,0,0,0,0,.74.23.23,0,0,0,.12.17.35.35,0,0,0,.23.07,1.67,1.67,0,0,0,.55-.13l.12,1.06a2.67,2.67,0,0,1-1.08.21,1.57,1.57,0,0,1-.67-.13,1,1,0,0,1-.44-.32,1.22,1.22,0,0,1-.19-.53,6.37,6.37,0,0,1-.05-1v-2.26h-.63v-1.1h.63v-1l1.38-.8v1.83Z"/><path class="cls-3" d="M443.67,141.4l-1.24-.23a1.94,1.94,0,0,1,.72-1.11,2.66,2.66,0,0,1,1.53-.36,3.35,3.35,0,0,1,1.36.21,1.35,1.35,0,0,1,.63.56,2.66,2.66,0,0,1,.19,1.22l0,1.61a5.74,5.74,0,0,0,.07,1,2.83,2.83,0,0,0,.25.7H445.8a3.41,3.41,0,0,1-.13-.41c0-.08,0-.13-.05-.16a2.74,2.74,0,0,1-.75.52,2.27,2.27,0,0,1-.86.17,1.77,1.77,0,0,1-1.26-.44,1.43,1.43,0,0,1-.46-1.1,1.47,1.47,0,0,1,.21-.78,1.32,1.32,0,0,1,.59-.53,4.53,4.53,0,0,1,1.09-.32,8,8,0,0,0,1.33-.33v-.14a.67.67,0,0,0-.2-.56,1.1,1.1,0,0,0-.73-.17.92.92,0,0,0-.57.14A1.06,1.06,0,0,0,443.67,141.4Zm1.84,1.11a8,8,0,0,1-.83.21,2.38,2.38,0,0,0-.75.24.58.58,0,0,0-.27.48.69.69,0,0,0,.21.5.77.77,0,0,0,.55.21,1.21,1.21,0,0,0,.71-.24.92.92,0,0,0,.33-.46,3.14,3.14,0,0,0,.05-.67Z"/><path class="cls-3" d="M451,145v-7.16h2.32A8.5,8.5,0,0,1,455,138a1.9,1.9,0,0,1,1,.7,2.25,2.25,0,0,1,.41,1.39,2.34,2.34,0,0,1-.24,1.11,1.94,1.94,0,0,1-.61.71,2.14,2.14,0,0,1-.74.34,8.23,8.23,0,0,1-1.5.1h-.95V145Zm1.44-5.95v2h.79a3.64,3.64,0,0,0,1.15-.11.92.92,0,0,0,.45-.35,1,1,0,0,0,.16-.56.88.88,0,0,0-.23-.64,1,1,0,0,0-.58-.32,7.25,7.25,0,0,0-1,0Z"/><path class="cls-3" d="M459,145H457.6v-5.19h1.27v.74a2.28,2.28,0,0,1,.59-.69,1.1,1.1,0,0,1,.6-.16,1.67,1.67,0,0,1,.9.26l-.43,1.19a1.17,1.17,0,0,0-.64-.22.76.76,0,0,0-.49.16,1,1,0,0,0-.31.57,7.86,7.86,0,0,0-.12,1.74Z"/><path class="cls-3" d="M461.23,142.33a2.88,2.88,0,0,1,.34-1.32,2.3,2.3,0,0,1,.95-1,2.93,2.93,0,0,1,1.38-.33,2.58,2.58,0,0,1,1.93.76,2.64,2.64,0,0,1,.75,1.93,2.67,2.67,0,0,1-.75,2,2.58,2.58,0,0,1-1.92.78,3,3,0,0,1-1.36-.33,2.13,2.13,0,0,1-1-.94A3.19,3.19,0,0,1,461.23,142.33Zm1.41.08a1.69,1.69,0,0,0,.37,1.18,1.19,1.19,0,0,0,1.8,0,1.75,1.75,0,0,0,.36-1.19,1.71,1.71,0,0,0-.36-1.17,1.19,1.19,0,0,0-1.8,0A1.67,1.67,0,0,0,462.64,142.41Z"/><path class="cls-3" d="M472.18,141.35l-1.35.24a1,1,0,0,0-.31-.61.92.92,0,0,0-.63-.2,1,1,0,0,0-.82.35,1.84,1.84,0,0,0-.3,1.18,2.1,2.1,0,0,0,.31,1.31,1,1,0,0,0,.83.38,1,1,0,0,0,.64-.22,1.35,1.35,0,0,0,.35-.77l1.35.23a2.36,2.36,0,0,1-.81,1.4,2.45,2.45,0,0,1-1.59.48,2.38,2.38,0,0,1-1.82-.72,3.31,3.31,0,0,1,0-4,2.84,2.84,0,0,1,3.35-.3A2.23,2.23,0,0,1,472.18,141.35Z"/><path class="cls-3" d="M476.22,143.35l1.37.23a2.24,2.24,0,0,1-.83,1.14,2.41,2.41,0,0,1-1.43.4,2.33,2.33,0,0,1-2-.89,3,3,0,0,1-.51-1.78,2.85,2.85,0,0,1,.67-2,2.22,2.22,0,0,1,1.71-.73,2.28,2.28,0,0,1,1.82.76,3.36,3.36,0,0,1,.64,2.34h-3.43a1.38,1.38,0,0,0,.33.95,1,1,0,0,0,.79.34.89.89,0,0,0,.54-.17A1.06,1.06,0,0,0,476.22,143.35Zm.08-1.39a1.29,1.29,0,0,0-.31-.9.92.92,0,0,0-.71-.31,1,1,0,0,0-.74.32,1.27,1.27,0,0,0-.29.89Z"/><path class="cls-3" d="M478.3,143.52l1.38-.21a1,1,0,0,0,.35.61,1.19,1.19,0,0,0,.75.21,1.32,1.32,0,0,0,.8-.2.42.42,0,0,0,.19-.37.36.36,0,0,0-.1-.25,1.07,1.07,0,0,0-.46-.19,7.48,7.48,0,0,1-2.11-.66,1.33,1.33,0,0,1-.61-1.17,1.44,1.44,0,0,1,.53-1.13,2.48,2.48,0,0,1,1.65-.46,2.87,2.87,0,0,1,1.58.34,1.81,1.81,0,0,1,.72,1l-1.3.24a.82.82,0,0,0-.31-.47,1.24,1.24,0,0,0-.66-.16,1.51,1.51,0,0,0-.78.15.36.36,0,0,0-.16.28.31.31,0,0,0,.14.25,5.24,5.24,0,0,0,1.28.39,3.75,3.75,0,0,1,1.53.61,1.25,1.25,0,0,1,.43,1,1.58,1.58,0,0,1-.59,1.22,2.62,2.62,0,0,1-1.77.52,2.93,2.93,0,0,1-1.67-.43A2,2,0,0,1,478.3,143.52Z"/><path class="cls-3" d="M483.86,143.52l1.38-.21a1,1,0,0,0,.35.61,1.21,1.21,0,0,0,.76.21,1.37,1.37,0,0,0,.8-.2.43.43,0,0,0,.18-.37.36.36,0,0,0-.1-.25,1.07,1.07,0,0,0-.46-.19,7.25,7.25,0,0,1-2.1-.66,1.34,1.34,0,0,1-.62-1.17,1.44,1.44,0,0,1,.53-1.13,2.48,2.48,0,0,1,1.65-.46,2.87,2.87,0,0,1,1.58.34,1.81,1.81,0,0,1,.72,1l-1.3.24a.82.82,0,0,0-.31-.47,1.24,1.24,0,0,0-.66-.16,1.53,1.53,0,0,0-.78.15.36.36,0,0,0-.16.28.31.31,0,0,0,.14.25,5.24,5.24,0,0,0,1.28.39,3.75,3.75,0,0,1,1.53.61,1.25,1.25,0,0,1,.43,1,1.58,1.58,0,0,1-.59,1.22,2.61,2.61,0,0,1-1.76.52,2.94,2.94,0,0,1-1.68-.43A2,2,0,0,1,483.86,143.52Z"/><path class="cls-3" d="M489.9,139.11v-1.27h1.38v1.27Zm0,5.89v-5.19h1.38V145Z"/><path class="cls-3" d="M497.4,145H496v-2.65a3.92,3.92,0,0,0-.09-1.08.72.72,0,0,0-.29-.39.81.81,0,0,0-.47-.13,1.1,1.1,0,0,0-.64.19,1,1,0,0,0-.39.52,4.49,4.49,0,0,0-.1,1.19V145h-1.38v-5.19H494v.77a2.14,2.14,0,0,1,2.54-.72,1.42,1.42,0,0,1,.57.42,1.64,1.64,0,0,1,.26.57,4.38,4.38,0,0,1,.08.93Z"/><path class="cls-3" d="M498.66,145.34l1.57.19a.59.59,0,0,0,.18.38,1,1,0,0,0,.62.14,1.55,1.55,0,0,0,.8-.16.69.69,0,0,0,.28-.34,2.26,2.26,0,0,0,.06-.63v-.76a1.86,1.86,0,0,1-1.55.84,1.91,1.91,0,0,1-1.66-.88,3,3,0,0,1-.48-1.74,2.83,2.83,0,0,1,.63-2,2,2,0,0,1,1.56-.69,1.91,1.91,0,0,1,1.59.84v-.73h1.28v4.66a4.66,4.66,0,0,1-.15,1.37,1.7,1.7,0,0,1-.42.71,1.91,1.91,0,0,1-.73.41,3.83,3.83,0,0,1-1.16.14,3,3,0,0,1-1.87-.45,1.4,1.4,0,0,1-.55-1.14Zm1.23-3a1.9,1.9,0,0,0,.32,1.21,1,1,0,0,0,.79.38,1.1,1.1,0,0,0,.85-.39,1.72,1.72,0,0,0,.35-1.17,1.82,1.82,0,0,0-.34-1.19,1.05,1.05,0,0,0-.84-.39,1,1,0,0,0-.81.38A1.83,1.83,0,0,0,499.89,142.3Z"/></g><g class="cls-2"><path class="cls-3" d="M422.05,160.1a8.38,8.38,0,0,1-1.23-2.14,6.68,6.68,0,0,1-.13-4.78,9.44,9.44,0,0,1,1.36-2.46h.63a13.94,13.94,0,0,0-.78,1.45,7.53,7.53,0,0,0-.47,1.41,8.09,8.09,0,0,0-.21,1.83,8.82,8.82,0,0,0,1.46,4.69Z"/><path class="cls-3" d="M428.92,155.49l.95.24a3.18,3.18,0,0,1-1.08,1.78,2.92,2.92,0,0,1-1.89.61,3.42,3.42,0,0,1-1.88-.47,2.94,2.94,0,0,1-1.1-1.36,4.77,4.77,0,0,1-.38-1.92,4.25,4.25,0,0,1,.42-2,2.94,2.94,0,0,1,1.22-1.27,3.56,3.56,0,0,1,1.74-.43,2.9,2.9,0,0,1,1.8.55,2.78,2.78,0,0,1,1,1.53l-.93.22a2.16,2.16,0,0,0-.72-1.13,1.91,1.91,0,0,0-1.19-.36,2.28,2.28,0,0,0-1.38.4,2,2,0,0,0-.78,1.06,4.24,4.24,0,0,0-.23,1.37,4.36,4.36,0,0,0,.27,1.6,2,2,0,0,0,.83,1,2.26,2.26,0,0,0,1.21.34,2,2,0,0,0,1.35-.46A2.32,2.32,0,0,0,428.92,155.49Z"/><path class="cls-3" d="M430.59,155.41a2.71,2.71,0,0,1,.8-2.14,2.44,2.44,0,0,1,1.63-.57,2.31,2.31,0,0,1,1.75.7,2.63,2.63,0,0,1,.68,1.93,3.44,3.44,0,0,1-.3,1.58,2.13,2.13,0,0,1-.87.89,2.56,2.56,0,0,1-1.26.32,2.36,2.36,0,0,1-1.76-.7A2.83,2.83,0,0,1,430.59,155.41Zm.91,0a2.21,2.21,0,0,0,.43,1.49,1.4,1.4,0,0,0,1.09.49,1.38,1.38,0,0,0,1.09-.49,2.28,2.28,0,0,0,.44-1.52,2.16,2.16,0,0,0-.44-1.46,1.39,1.39,0,0,0-1.09-.5,1.4,1.4,0,0,0-1.09.5A2.19,2.19,0,0,0,431.5,155.41Z"/><path class="cls-3" d="M436.48,158v-5.19h.79v.73a1.81,1.81,0,0,1,.65-.61,1.77,1.77,0,0,1,.92-.23,1.74,1.74,0,0,1,1,.24,1.35,1.35,0,0,1,.52.67,1.85,1.85,0,0,1,1.6-.91,1.57,1.57,0,0,1,1.18.42,1.84,1.84,0,0,1,.42,1.32V158h-.88v-3.27a2.38,2.38,0,0,0-.08-.76.79.79,0,0,0-.31-.37,1,1,0,0,0-.53-.14,1.24,1.24,0,0,0-.91.36,1.62,1.62,0,0,0-.36,1.17v3h-.88v-3.37a1.52,1.52,0,0,0-.21-.88.82.82,0,0,0-.7-.29,1.28,1.28,0,0,0-.69.19,1.12,1.12,0,0,0-.46.58,3.32,3.32,0,0,0-.14,1.08V158Z"/><path class="cls-3" d="M444.81,160v-7.18h.8v.68a2,2,0,0,1,.64-.6,1.8,1.8,0,0,1,.87-.19,2,2,0,0,1,1.17.34,2.17,2.17,0,0,1,.77,1,3.59,3.59,0,0,1,.25,1.37,3.44,3.44,0,0,1-.28,1.43,2.17,2.17,0,0,1-.83,1,2.2,2.2,0,0,1-1.15.34,1.62,1.62,0,0,1-.79-.19,1.75,1.75,0,0,1-.57-.47V160Zm.8-4.55a2.27,2.27,0,0,0,.4,1.48,1.23,1.23,0,0,0,1,.47,1.27,1.27,0,0,0,1-.49,2.34,2.34,0,0,0,.42-1.54,2.29,2.29,0,0,0-.41-1.48,1.23,1.23,0,0,0-1-.49,1.26,1.26,0,0,0-1,.52A2.34,2.34,0,0,0,445.61,155.44Z"/><path class="cls-3" d="M450.35,158v-7.16h.88V158Z"/><path class="cls-3" d="M456.15,156.33l.9.11a2.27,2.27,0,0,1-.79,1.24,2.42,2.42,0,0,1-1.49.44,2.38,2.38,0,0,1-1.8-.7,2.74,2.74,0,0,1-.67-2,2.86,2.86,0,0,1,.68-2,2.28,2.28,0,0,1,1.74-.72,2.18,2.18,0,0,1,1.7.71,2.8,2.8,0,0,1,.66,2v.23h-3.87a2,2,0,0,0,.48,1.31,1.45,1.45,0,0,0,1.09.45,1.31,1.31,0,0,0,.82-.25A1.73,1.73,0,0,0,456.15,156.33Zm-2.89-1.42h2.89a1.7,1.7,0,0,0-.33-1,1.43,1.43,0,0,0-2.1-.1A1.58,1.58,0,0,0,453.26,154.91Z"/><path class="cls-3" d="M457.57,158l1.9-2.7-1.76-2.49h1.1l.8,1.22c.15.23.27.43.36.58l.39-.57.88-1.23h1.05l-1.79,2.45,1.92,2.74h-1.07l-1.07-1.61L460,156,458.64,158Z"/><path class="cls-3" d="M464.71,158l2.75-7.16h1l2.93,7.16h-1.08l-.84-2.17h-3l-.78,2.17Zm2.06-2.94h2.43l-.75-2c-.22-.6-.39-1.1-.5-1.49a8.5,8.5,0,0,1-.39,1.37Z"/><path class="cls-3" d="M472,158v-7.16h.88V158Z"/><path class="cls-3" d="M474.11,158.43l.86.13a.76.76,0,0,0,.3.57,1.39,1.39,0,0,0,.89.25,1.5,1.5,0,0,0,.94-.25,1.21,1.21,0,0,0,.45-.68,5,5,0,0,0,.06-1.13,1.8,1.8,0,0,1-1.43.68,2,2,0,0,1-1.66-.77,3,3,0,0,1-.58-1.85,3.42,3.42,0,0,1,.27-1.37,2.16,2.16,0,0,1,.78-1,2.08,2.08,0,0,1,1.19-.34,1.85,1.85,0,0,1,1.52.74v-.63h.81v4.49a4.11,4.11,0,0,1-.25,1.71,1.72,1.72,0,0,1-.78.8,2.66,2.66,0,0,1-1.32.29,2.53,2.53,0,0,1-1.49-.41A1.41,1.41,0,0,1,474.11,158.43Zm.73-3.12a2.23,2.23,0,0,0,.41,1.49,1.26,1.26,0,0,0,1,.47,1.3,1.3,0,0,0,1-.46,2.21,2.21,0,0,0,.41-1.47,2.12,2.12,0,0,0-.42-1.43,1.35,1.35,0,0,0-1-.49,1.27,1.27,0,0,0-1,.48A2.14,2.14,0,0,0,474.84,155.31Z"/><path class="cls-3" d="M479.51,155.41a2.71,2.71,0,0,1,.8-2.14,2.44,2.44,0,0,1,1.63-.57,2.32,2.32,0,0,1,1.75.7,2.67,2.67,0,0,1,.68,1.93,3.44,3.44,0,0,1-.3,1.58,2.1,2.1,0,0,1-.88.89,2.55,2.55,0,0,1-1.25.32,2.35,2.35,0,0,1-1.76-.7A2.79,2.79,0,0,1,479.51,155.41Zm.9,0a2.21,2.21,0,0,0,.44,1.49,1.46,1.46,0,0,0,2.18,0,2.28,2.28,0,0,0,.43-1.52,2.16,2.16,0,0,0-.43-1.46,1.4,1.4,0,0,0-1.09-.5,1.39,1.39,0,0,0-1.09.5A2.19,2.19,0,0,0,480.41,155.41Z"/><path class="cls-3" d="M485.39,158v-5.19h.79v.79a2.16,2.16,0,0,1,.56-.73,1,1,0,0,1,.56-.17,1.72,1.72,0,0,1,.91.28l-.31.82a1.21,1.21,0,0,0-.64-.19.81.81,0,0,0-.52.17.94.94,0,0,0-.33.48,3.66,3.66,0,0,0-.14,1V158Z"/><path class="cls-3" d="M488.73,151.85v-1h.88v1Zm0,6.15v-5.19h.88V158Z"/><path class="cls-3" d="M492.87,157.21l.13.78a3.47,3.47,0,0,1-.67.08,1.51,1.51,0,0,1-.74-.15.84.84,0,0,1-.37-.4,3.2,3.2,0,0,1-.11-1v-3h-.64v-.69h.64v-1.28L492,151v1.81h.89v.69H492v3a1.49,1.49,0,0,0,0,.48.35.35,0,0,0,.15.17.51.51,0,0,0,.3.07A2.13,2.13,0,0,0,492.87,157.21Z"/><path class="cls-3" d="M493.73,158v-7.16h.88v2.57a1.93,1.93,0,0,1,1.55-.71,2.11,2.11,0,0,1,1,.22,1.42,1.42,0,0,1,.61.63,3,3,0,0,1,.18,1.16V158h-.88v-3.29a1.38,1.38,0,0,0-.28-1,1.06,1.06,0,0,0-.81-.3,1.41,1.41,0,0,0-.74.21,1.09,1.09,0,0,0-.49.55,2.68,2.68,0,0,0-.14.95V158Z"/><path class="cls-3" d="M499.29,158v-5.19h.79v.73a1.81,1.81,0,0,1,.65-.61,1.75,1.75,0,0,1,.92-.23,1.68,1.68,0,0,1,.94.24,1.25,1.25,0,0,1,.52.67,1.86,1.86,0,0,1,1.6-.91,1.6,1.6,0,0,1,1.19.42,1.84,1.84,0,0,1,.42,1.32V158h-.88v-3.27a2.72,2.72,0,0,0-.08-.76.79.79,0,0,0-.31-.37,1,1,0,0,0-.53-.14,1.23,1.23,0,0,0-.91.36,1.62,1.62,0,0,0-.36,1.17v3h-.88v-3.37a1.52,1.52,0,0,0-.21-.88.84.84,0,0,0-.71-.29,1.27,1.27,0,0,0-.68.19,1.08,1.08,0,0,0-.46.58,3.32,3.32,0,0,0-.14,1.08V158Z"/><path class="cls-3" d="M508.2,160.1h-.63a8.82,8.82,0,0,0,1.46-4.69,8,8,0,0,0-.21-1.82,7.53,7.53,0,0,0-.47-1.41c-.13-.29-.39-.78-.78-1.46h.63a9.39,9.39,0,0,1,1.35,2.46,6.68,6.68,0,0,1-.13,4.78A8.67,8.67,0,0,1,508.2,160.1Z"/></g></g><g id="wireless"><rect class="cls-11" x="540" y="130" width="90" height="40" rx="4"/><g class="cls-2"><path class="cls-3" d="M566.22,145l-1.71-7.16H566l1.08,4.92,1.31-4.92h1.72l1.25,5,1.1-5h1.46L572.17,145h-1.54l-1.42-5.35L567.79,145Z"/><path class="cls-3" d="M574.55,139.11v-1.27h1.37v1.27Zm0,5.89v-5.19h1.37V145Z"/><path class="cls-3" d="M578.64,145h-1.37v-5.19h1.27v.74a2.15,2.15,0,0,1,.59-.69,1.07,1.07,0,0,1,.59-.16,1.65,1.65,0,0,1,.9.26l-.42,1.19a1.2,1.2,0,0,0-.64-.22.72.72,0,0,0-.49.16,1,1,0,0,0-.32.57,8.81,8.81,0,0,0-.11,1.74Z"/><path class="cls-3" d="M584.22,143.35l1.37.23a2.26,2.26,0,0,1-.84,1.14,2.38,2.38,0,0,1-1.42.4,2.32,2.32,0,0,1-2-.89,3,3,0,0,1-.51-1.78,2.85,2.85,0,0,1,.67-2,2.21,2.21,0,0,1,1.7-.73,2.31,2.31,0,0,1,1.83.76,3.41,3.41,0,0,1,.64,2.34h-3.44a1.38,1.38,0,0,0,.33.95,1,1,0,0,0,.79.34.9.9,0,0,0,.55-.17A1.2,1.2,0,0,0,584.22,143.35Zm.08-1.39a1.33,1.33,0,0,0-.31-.9.93.93,0,0,0-.71-.31,1,1,0,0,0-.75.32,1.27,1.27,0,0,0-.28.89Z"/><path class="cls-3" d="M586.78,145v-7.16h1.37V145Z"/><path class="cls-3" d="M592.56,143.35l1.37.23a2.26,2.26,0,0,1-.84,1.14,2.38,2.38,0,0,1-1.42.4,2.32,2.32,0,0,1-2-.89,3,3,0,0,1-.51-1.78,2.85,2.85,0,0,1,.67-2,2.21,2.21,0,0,1,1.7-.73,2.31,2.31,0,0,1,1.83.76,3.41,3.41,0,0,1,.64,2.34h-3.44a1.38,1.38,0,0,0,.33.95,1,1,0,0,0,.79.34.9.9,0,0,0,.55-.17A1.2,1.2,0,0,0,592.56,143.35Zm.08-1.39a1.33,1.33,0,0,0-.31-.9.93.93,0,0,0-.71-.31,1,1,0,0,0-.75.32,1.27,1.27,0,0,0-.28.89Z"/><path class="cls-3" d="M594.63,143.52l1.38-.21a1,1,0,0,0,.36.61,1.19,1.19,0,0,0,.75.21,1.37,1.37,0,0,0,.8-.2.43.43,0,0,0,.18-.37.32.32,0,0,0-.1-.25,1.07,1.07,0,0,0-.46-.19,7.49,7.49,0,0,1-2.1-.66,1.34,1.34,0,0,1-.62-1.17,1.42,1.42,0,0,1,.54-1.13,2.45,2.45,0,0,1,1.65-.46,2.9,2.9,0,0,1,1.58.34,1.84,1.84,0,0,1,.71,1l-1.29.24a.83.83,0,0,0-.32-.47,1.19,1.19,0,0,0-.66-.16,1.53,1.53,0,0,0-.78.15.35.35,0,0,0-.15.28.29.29,0,0,0,.14.25,5.24,5.24,0,0,0,1.28.39,3.75,3.75,0,0,1,1.53.61,1.28,1.28,0,0,1,.43,1,1.56,1.56,0,0,1-.6,1.22,2.59,2.59,0,0,1-1.76.52,2.94,2.94,0,0,1-1.68-.43A2,2,0,0,1,594.63,143.52Z"/><path class="cls-3" d="M600.2,143.52l1.37-.21a1,1,0,0,0,.36.61,1.19,1.19,0,0,0,.75.21,1.35,1.35,0,0,0,.8-.2.43.43,0,0,0,.18-.37.32.32,0,0,0-.1-.25,1,1,0,0,0-.45-.19,7.48,7.48,0,0,1-2.11-.66,1.33,1.33,0,0,1-.61-1.17,1.41,1.41,0,0,1,.53-1.13,2.45,2.45,0,0,1,1.65-.46,2.9,2.9,0,0,1,1.58.34,1.79,1.79,0,0,1,.71,1l-1.29.24a.83.83,0,0,0-.32-.47,1.19,1.19,0,0,0-.66-.16,1.46,1.46,0,0,0-.77.15.33.33,0,0,0-.16.28.31.31,0,0,0,.14.25,5.24,5.24,0,0,0,1.28.39,3.75,3.75,0,0,1,1.53.61,1.25,1.25,0,0,1,.43,1,1.56,1.56,0,0,1-.6,1.22,2.57,2.57,0,0,1-1.76.52,3,3,0,0,1-1.68-.43A2,2,0,0,1,600.2,143.52Z"/></g><g class="cls-2"><path class="cls-3" d="M556.14,155.49l1,.24a3.23,3.23,0,0,1-1.07,1.78,3,3,0,0,1-1.89.61,3.46,3.46,0,0,1-1.89-.47,2.94,2.94,0,0,1-1.1-1.36,4.94,4.94,0,0,1-.38-1.92,4.13,4.13,0,0,1,.43-2,2.92,2.92,0,0,1,1.21-1.27,3.56,3.56,0,0,1,1.74-.43,2.91,2.91,0,0,1,1.81.55,2.78,2.78,0,0,1,1,1.53L556,153a2.17,2.17,0,0,0-.73-1.13,1.89,1.89,0,0,0-1.19-.36,2.28,2.28,0,0,0-1.38.4A2,2,0,0,0,552,153a4.23,4.23,0,0,0-.22,1.37A4.59,4.59,0,0,0,552,156a2,2,0,0,0,.83,1,2.29,2.29,0,0,0,1.22.34,2,2,0,0,0,1.35-.46A2.37,2.37,0,0,0,556.14,155.49Z"/><path class="cls-3" d="M557.82,155.41a2.68,2.68,0,0,1,.8-2.14,2.42,2.42,0,0,1,1.63-.57,2.34,2.34,0,0,1,1.75.7,2.67,2.67,0,0,1,.68,1.93,3.44,3.44,0,0,1-.3,1.58,2.16,2.16,0,0,1-.88.89,2.55,2.55,0,0,1-1.25.32,2.35,2.35,0,0,1-1.76-.7A2.79,2.79,0,0,1,557.82,155.41Zm.9,0a2.21,2.21,0,0,0,.44,1.49,1.46,1.46,0,0,0,2.18,0,2.28,2.28,0,0,0,.43-1.52,2.16,2.16,0,0,0-.43-1.46,1.42,1.42,0,0,0-1.09-.5,1.39,1.39,0,0,0-1.09.5A2.19,2.19,0,0,0,558.72,155.41Z"/><path class="cls-3" d="M563.71,158v-5.19h.78v.73a1.81,1.81,0,0,1,.65-.61,1.77,1.77,0,0,1,.92-.23,1.72,1.72,0,0,1,1,.24,1.3,1.3,0,0,1,.52.67,1.85,1.85,0,0,1,1.6-.91,1.61,1.61,0,0,1,1.19.42,1.88,1.88,0,0,1,.41,1.32V158h-.87v-3.27a2.32,2.32,0,0,0-.09-.76.73.73,0,0,0-.31-.37,1,1,0,0,0-.52-.14,1.23,1.23,0,0,0-.91.36,1.62,1.62,0,0,0-.36,1.17v3h-.88v-3.37a1.52,1.52,0,0,0-.22-.88.81.81,0,0,0-.7-.29,1.28,1.28,0,0,0-.69.19,1.06,1.06,0,0,0-.45.58,3,3,0,0,0-.15,1.08V158Z"/><path class="cls-3" d="M572,158v-5.19h.78v.73a1.81,1.81,0,0,1,.65-.61,1.77,1.77,0,0,1,.92-.23,1.72,1.72,0,0,1,1,.24,1.3,1.3,0,0,1,.52.67,1.85,1.85,0,0,1,1.6-.91,1.61,1.61,0,0,1,1.19.42,1.88,1.88,0,0,1,.41,1.32V158h-.87v-3.27a2.32,2.32,0,0,0-.09-.76.73.73,0,0,0-.31-.37,1,1,0,0,0-.52-.14,1.23,1.23,0,0,0-.91.36A1.62,1.62,0,0,0,576,155v3h-.88v-3.37a1.52,1.52,0,0,0-.22-.88.81.81,0,0,0-.7-.29,1.28,1.28,0,0,0-.69.19,1.06,1.06,0,0,0-.45.58,3.06,3.06,0,0,0-.14,1.08V158Z"/><path class="cls-3" d="M583.76,158v-.76a1.9,1.9,0,0,1-1.64.88,2.07,2.07,0,0,1-.86-.18,1.45,1.45,0,0,1-.59-.44,1.66,1.66,0,0,1-.27-.65,5.27,5.27,0,0,1,0-.82v-3.22h.88v2.88a4.87,4.87,0,0,0,0,.93.87.87,0,0,0,.35.54,1.1,1.1,0,0,0,.66.2,1.5,1.5,0,0,0,.75-.2,1.18,1.18,0,0,0,.49-.55,3,3,0,0,0,.14-1v-2.78h.88V158Z"/><path class="cls-3" d="M585.93,158v-5.19h.79v.74a1.86,1.86,0,0,1,1.65-.85,2,2,0,0,1,.86.17,1.3,1.3,0,0,1,.59.44,1.66,1.66,0,0,1,.27.65,5.17,5.17,0,0,1,0,.85V158h-.88v-3.15a2.38,2.38,0,0,0-.1-.81.86.86,0,0,0-.36-.42,1.15,1.15,0,0,0-.62-.16,1.44,1.44,0,0,0-1,.36,1.74,1.74,0,0,0-.4,1.35V158Z"/><path class="cls-3" d="M591.49,151.85v-1h.88v1Zm0,6.15v-5.19h.88V158Z"/><path class="cls-3" d="M597.09,156.1l.87.11a2.19,2.19,0,0,1-.73,1.4,2.09,2.09,0,0,1-1.43.51,2.24,2.24,0,0,1-1.71-.7,2.82,2.82,0,0,1-.65-2,3.71,3.71,0,0,1,.28-1.47,2,2,0,0,1,.85-1,2.51,2.51,0,0,1,1.24-.31,2.18,2.18,0,0,1,1.38.42,2,2,0,0,1,.69,1.22l-.86.13a1.41,1.41,0,0,0-.43-.79,1.16,1.16,0,0,0-.75-.26,1.37,1.37,0,0,0-1.08.48,2.22,2.22,0,0,0-.41,1.5,2.31,2.31,0,0,0,.4,1.52,1.27,1.27,0,0,0,1,.47,1.25,1.25,0,0,0,.87-.31A1.57,1.57,0,0,0,597.09,156.1Z"/><path class="cls-3" d="M602.09,157.36a3.17,3.17,0,0,1-.94.59,2.77,2.77,0,0,1-1,.17,1.9,1.9,0,0,1-1.32-.42,1.4,1.4,0,0,1-.46-1.07,1.37,1.37,0,0,1,.18-.69,1.39,1.39,0,0,1,.45-.51,2.26,2.26,0,0,1,.63-.29,7.75,7.75,0,0,1,.78-.13,7.49,7.49,0,0,0,1.57-.3c0-.12,0-.2,0-.23a1,1,0,0,0-.25-.76,1.48,1.48,0,0,0-1-.3,1.6,1.6,0,0,0-.92.22,1.36,1.36,0,0,0-.44.77l-.86-.12a2.21,2.21,0,0,1,.39-.89,1.73,1.73,0,0,1,.78-.52,3.47,3.47,0,0,1,1.17-.18,3.18,3.18,0,0,1,1.08.15,1.44,1.44,0,0,1,.61.4,1.41,1.41,0,0,1,.28.59,5.07,5.07,0,0,1,0,.82v1.17a11.75,11.75,0,0,0,.06,1.55,1.85,1.85,0,0,0,.22.62h-.92A2,2,0,0,1,602.09,157.36Zm-.07-2a6.48,6.48,0,0,1-1.43.33,2.89,2.89,0,0,0-.77.18.76.76,0,0,0-.35.28.79.79,0,0,0-.12.42.73.73,0,0,0,.27.58,1.1,1.1,0,0,0,.78.24,1.9,1.9,0,0,0,.9-.22,1.37,1.37,0,0,0,.58-.61,2.2,2.2,0,0,0,.14-.88Z"/><path class="cls-3" d="M606.19,157.21l.13.78a3.47,3.47,0,0,1-.67.08,1.54,1.54,0,0,1-.74-.15.89.89,0,0,1-.37-.4,3.2,3.2,0,0,1-.11-1v-3h-.64v-.69h.64v-1.28l.88-.53v1.81h.88v.69h-.88v3a1.6,1.6,0,0,0,0,.48.37.37,0,0,0,.16.17.51.51,0,0,0,.3.07A2.12,2.12,0,0,0,606.19,157.21Z"/><path class="cls-3" d="M607.06,151.85v-1h.87v1Zm0,6.15v-5.19h.87V158Z"/><path class="cls-3" d="M609,155.41a2.68,2.68,0,0,1,.8-2.14,2.42,2.42,0,0,1,1.63-.57,2.3,2.3,0,0,1,1.74.7,2.63,2.63,0,0,1,.68,1.93,3.44,3.44,0,0,1-.3,1.58,2.13,2.13,0,0,1-.87.89,2.55,2.55,0,0,1-1.25.32,2.33,2.33,0,0,1-1.76-.7A2.79,2.79,0,0,1,609,155.41Zm.9,0a2.21,2.21,0,0,0,.43,1.49,1.47,1.47,0,0,0,2.19,0,2.28,2.28,0,0,0,.43-1.52,2.16,2.16,0,0,0-.44-1.46,1.38,1.38,0,0,0-1.08-.5,1.41,1.41,0,0,0-1.1.5A2.19,2.19,0,0,0,609.85,155.41Z"/><path class="cls-3" d="M614.83,158v-5.19h.79v.74a1.89,1.89,0,0,1,1.66-.85,2,2,0,0,1,.86.17,1.3,1.3,0,0,1,.59.44,1.66,1.66,0,0,1,.27.65,5.17,5.17,0,0,1,0,.85V158h-.88v-3.15a2.67,2.67,0,0,0-.1-.81.83.83,0,0,0-.37-.42,1.11,1.11,0,0,0-.61-.16,1.4,1.4,0,0,0-1,.36,1.74,1.74,0,0,0-.41,1.35V158Z"/></g></g><g id="Display"><rect class="cls-12" x="654.25" y="130" width="80" height="40" rx="4"/><g class="cls-2"><path class="cls-3" d="M677.19,137.84h2.64a5.18,5.18,0,0,1,1.36.14,2.33,2.33,0,0,1,1.08.66,3,3,0,0,1,.68,1.16,5.13,5.13,0,0,1,.24,1.69A4.56,4.56,0,0,1,683,143a3.21,3.21,0,0,1-.77,1.27,2.65,2.65,0,0,1-1,.57,4.44,4.44,0,0,1-1.28.15h-2.72Zm1.44,1.21v4.74h1.08a4.51,4.51,0,0,0,.88-.06,1.4,1.4,0,0,0,.58-.3,1.58,1.58,0,0,0,.38-.69,5,5,0,0,0,.14-1.31,4.62,4.62,0,0,0-.14-1.28,1.71,1.71,0,0,0-.41-.69,1.38,1.38,0,0,0-.67-.34,7.1,7.1,0,0,0-1.19-.07Z"/><path class="cls-3" d="M684.4,139.11v-1.27h1.38v1.27Zm0,5.89v-5.19h1.38V145Z"/><path class="cls-3" d="M686.7,143.52l1.38-.21a1,1,0,0,0,.35.61,1.19,1.19,0,0,0,.75.21,1.32,1.32,0,0,0,.8-.2.42.42,0,0,0,.19-.37.36.36,0,0,0-.1-.25,1.07,1.07,0,0,0-.46-.19,7.48,7.48,0,0,1-2.11-.66,1.33,1.33,0,0,1-.61-1.17,1.44,1.44,0,0,1,.53-1.13,2.48,2.48,0,0,1,1.65-.46,2.87,2.87,0,0,1,1.58.34,1.81,1.81,0,0,1,.72,1l-1.3.24a.82.82,0,0,0-.31-.47,1.24,1.24,0,0,0-.66-.16,1.51,1.51,0,0,0-.78.15.36.36,0,0,0-.16.28.31.31,0,0,0,.14.25,5.24,5.24,0,0,0,1.28.39,3.75,3.75,0,0,1,1.53.61,1.25,1.25,0,0,1,.43,1,1.58,1.58,0,0,1-.59,1.22,2.62,2.62,0,0,1-1.77.52,2.93,2.93,0,0,1-1.67-.43A2,2,0,0,1,686.7,143.52Z"/><path class="cls-3" d="M692.71,139.81H694v.77a2,2,0,0,1,.68-.64,1.85,1.85,0,0,1,.94-.24,2,2,0,0,1,1.53.71,2.86,2.86,0,0,1,.63,2,3,3,0,0,1-.63,2,2,2,0,0,1-1.54.72,1.79,1.79,0,0,1-.78-.17,2.62,2.62,0,0,1-.73-.59V147h-1.37Zm1.35,2.51a2,2,0,0,0,.35,1.29,1.05,1.05,0,0,0,.84.42,1,1,0,0,0,.8-.39,2,2,0,0,0,.32-1.25,1.84,1.84,0,0,0-.33-1.21,1,1,0,0,0-.81-.4,1.07,1.07,0,0,0-.84.39A1.73,1.73,0,0,0,694.06,142.32Z"/><path class="cls-3" d="M698.85,145v-7.16h1.37V145Z"/><path class="cls-3" d="M702.66,141.4l-1.25-.23a1.94,1.94,0,0,1,.72-1.11,2.66,2.66,0,0,1,1.53-.36,3.35,3.35,0,0,1,1.36.21,1.43,1.43,0,0,1,.64.56,2.84,2.84,0,0,1,.18,1.22l0,1.61a5.74,5.74,0,0,0,.07,1,2.83,2.83,0,0,0,.25.7h-1.36a3.41,3.41,0,0,1-.13-.41c0-.08,0-.13,0-.16a2.6,2.6,0,0,1-.75.52,2.27,2.27,0,0,1-.86.17,1.77,1.77,0,0,1-1.26-.44,1.43,1.43,0,0,1-.46-1.1,1.47,1.47,0,0,1,.21-.78,1.32,1.32,0,0,1,.59-.53,4.53,4.53,0,0,1,1.09-.32,8,8,0,0,0,1.33-.33v-.14a.7.7,0,0,0-.19-.56,1.13,1.13,0,0,0-.74-.17.92.92,0,0,0-.57.14A1,1,0,0,0,702.66,141.4Zm1.83,1.11a7.36,7.36,0,0,1-.83.21,2.48,2.48,0,0,0-.75.24.58.58,0,0,0-.27.48.66.66,0,0,0,.22.5.73.73,0,0,0,.54.21,1.19,1.19,0,0,0,.71-.24.87.87,0,0,0,.33-.46,3.14,3.14,0,0,0,0-.67Z"/><path class="cls-3" d="M706.54,139.81H708l1.24,3.69,1.21-3.69h1.43l-1.84,5-.32.91a3.62,3.62,0,0,1-.35.69,1.54,1.54,0,0,1-.37.39,1.6,1.6,0,0,1-.53.23,2.5,2.5,0,0,1-.7.08A3.3,3.3,0,0,1,707,147l-.12-1.07a3.09,3.09,0,0,0,.58.06.84.84,0,0,0,.7-.28,2,2,0,0,0,.36-.72Z"/></g><g class="cls-2"><path class="cls-3" d="M683.6,150.84h.94V155a4.93,4.93,0,0,1-.24,1.71,2.08,2.08,0,0,1-.88,1,3.08,3.08,0,0,1-1.67.4,3.46,3.46,0,0,1-1.65-.34,2,2,0,0,1-.91-1,4.59,4.59,0,0,1-.28-1.79v-4.14h1V155a4.26,4.26,0,0,0,.17,1.38,1.37,1.37,0,0,0,.6.68,2.06,2.06,0,0,0,1,.24,1.94,1.94,0,0,0,1.49-.48,2.69,2.69,0,0,0,.45-1.82Z"/><path class="cls-3" d="M686,160v-7.18h.8v.68a2,2,0,0,1,.64-.6,1.76,1.76,0,0,1,.86-.19,2,2,0,0,1,1.17.34,2.1,2.1,0,0,1,.77,1,3.59,3.59,0,0,1,.26,1.37,3.45,3.45,0,0,1-.29,1.43,2.11,2.11,0,0,1-.83,1,2.16,2.16,0,0,1-1.14.34,1.59,1.59,0,0,1-.79-.19,1.75,1.75,0,0,1-.57-.47V160Zm.79-4.55a2.27,2.27,0,0,0,.41,1.48,1.23,1.23,0,0,0,1,.47,1.25,1.25,0,0,0,1-.49,2.34,2.34,0,0,0,.42-1.54,2.23,2.23,0,0,0-.41-1.48,1.21,1.21,0,0,0-1-.49,1.25,1.25,0,0,0-1,.52A2.35,2.35,0,0,0,686.8,155.44Z"/><path class="cls-3" d="M694.93,158v-.65a1.61,1.61,0,0,1-1.45.77,2.11,2.11,0,0,1-1.14-.34,2.3,2.3,0,0,1-.8-1,3.32,3.32,0,0,1-.29-1.41,3.73,3.73,0,0,1,.26-1.41,2,2,0,0,1,.78-1,2.09,2.09,0,0,1,1.15-.33,1.74,1.74,0,0,1,.84.19,2,2,0,0,1,.6.52v-2.57h.87V158Zm-2.77-2.59a2.19,2.19,0,0,0,.42,1.49,1.26,1.26,0,0,0,1,.49,1.2,1.2,0,0,0,1-.47,2.14,2.14,0,0,0,.41-1.43,2.48,2.48,0,0,0-.41-1.57,1.28,1.28,0,0,0-1-.5,1.22,1.22,0,0,0-1,.48A2.39,2.39,0,0,0,692.16,155.41Z"/><path class="cls-3" d="M700.51,157.36a3.17,3.17,0,0,1-.94.59,2.77,2.77,0,0,1-1,.17,1.9,1.9,0,0,1-1.32-.42,1.4,1.4,0,0,1-.46-1.07,1.37,1.37,0,0,1,.18-.69,1.39,1.39,0,0,1,.45-.51,2.26,2.26,0,0,1,.63-.29,7.75,7.75,0,0,1,.78-.13,7.49,7.49,0,0,0,1.57-.3c0-.12,0-.2,0-.23a1,1,0,0,0-.25-.76,1.48,1.48,0,0,0-1-.3,1.6,1.6,0,0,0-.92.22,1.36,1.36,0,0,0-.44.77l-.86-.12a2.21,2.21,0,0,1,.39-.89,1.73,1.73,0,0,1,.78-.52,3.47,3.47,0,0,1,1.17-.18,3.22,3.22,0,0,1,1.08.15,1.44,1.44,0,0,1,.61.4,1.41,1.41,0,0,1,.28.59,5.07,5.07,0,0,1,0,.82v1.17a11.75,11.75,0,0,0,.06,1.55,1.85,1.85,0,0,0,.22.62h-.92A2,2,0,0,1,700.51,157.36Zm-.07-2a6.48,6.48,0,0,1-1.43.33,2.89,2.89,0,0,0-.77.18.76.76,0,0,0-.35.28.79.79,0,0,0-.12.42.73.73,0,0,0,.27.58,1.1,1.1,0,0,0,.78.24,1.9,1.9,0,0,0,.9-.22,1.37,1.37,0,0,0,.58-.61,2.2,2.2,0,0,0,.14-.88Z"/><path class="cls-3" d="M704.61,157.21l.13.78a3.47,3.47,0,0,1-.67.08,1.54,1.54,0,0,1-.74-.15.89.89,0,0,1-.37-.4,3.2,3.2,0,0,1-.11-1v-3h-.64v-.69h.64v-1.28l.88-.53v1.81h.88v.69h-.88v3a1.6,1.6,0,0,0,0,.48.37.37,0,0,0,.16.17.51.51,0,0,0,.3.07A2.12,2.12,0,0,0,704.61,157.21Z"/><path class="cls-3" d="M709,156.33l.91.11a2.23,2.23,0,0,1-.8,1.24,2.39,2.39,0,0,1-1.48.44,2.42,2.42,0,0,1-1.81-.7,2.78,2.78,0,0,1-.66-2,2.86,2.86,0,0,1,.67-2,2.28,2.28,0,0,1,1.75-.72,2.2,2.2,0,0,1,1.7.71,2.8,2.8,0,0,1,.66,2,2.2,2.2,0,0,1,0,.23h-3.86a2,2,0,0,0,.48,1.31,1.44,1.44,0,0,0,1.08.45,1.34,1.34,0,0,0,.83-.25A1.65,1.65,0,0,0,709,156.33Zm-2.89-1.42H709a1.77,1.77,0,0,0-.33-1,1.36,1.36,0,0,0-1.09-.51,1.38,1.38,0,0,0-1,.41A1.63,1.63,0,0,0,706.13,154.91Z"/></g></g><g id="Idle_wait"><rect class="cls-13" x="758.5" y="130" width="70" height="40" rx="4"/><g class="cls-2"><path class="cls-3" d="M785.57,145v-7.16H787V145Z"/><path class="cls-3" d="M793.14,145h-1.28v-.76a2.2,2.2,0,0,1-.74.66,1.95,1.95,0,0,1-2.41-.5,3,3,0,0,1-.63-2,2.88,2.88,0,0,1,.62-2,2,2,0,0,1,1.56-.68,2,2,0,0,1,1.51.72v-2.58h1.37Zm-3.66-2.71a2.33,2.33,0,0,0,.23,1.21,1,1,0,0,0,.92.53,1,1,0,0,0,.81-.4,1.87,1.87,0,0,0,.33-1.2,2.07,2.07,0,0,0-.32-1.29,1.07,1.07,0,0,0-1.64,0A1.76,1.76,0,0,0,789.48,142.29Z"/><path class="cls-3" d="M794.49,145v-7.16h1.37V145Z"/><path class="cls-3" d="M800.27,143.35l1.37.23a2.24,2.24,0,0,1-.83,1.14,2.41,2.41,0,0,1-1.43.4,2.32,2.32,0,0,1-2-.89,3,3,0,0,1-.51-1.78,2.85,2.85,0,0,1,.67-2,2.22,2.22,0,0,1,1.71-.73,2.28,2.28,0,0,1,1.82.76,3.36,3.36,0,0,1,.64,2.34h-3.43a1.38,1.38,0,0,0,.33.95,1,1,0,0,0,.79.34.89.89,0,0,0,.54-.17A1.06,1.06,0,0,0,800.27,143.35Zm.08-1.39a1.29,1.29,0,0,0-.31-.9.92.92,0,0,0-.71-.31,1,1,0,0,0-.74.32,1.27,1.27,0,0,0-.29.89Z"/></g><g class="cls-2"><path class="cls-3" d="M785.71,158l-1.9-7.16h1l1.09,4.69c.12.5.22,1,.3,1.47.18-.77.29-1.21.32-1.32l1.37-4.84H789l1,3.62a18.36,18.36,0,0,1,.56,2.54q.13-.67.36-1.56l1.12-4.6h1l-2,7.16h-.91l-1.51-5.45c-.13-.46-.2-.74-.23-.84-.07.33-.14.6-.21.84L786.67,158Z"/><path class="cls-3" d="M796.8,157.36a3.44,3.44,0,0,1-.94.59,2.87,2.87,0,0,1-1,.17,1.9,1.9,0,0,1-1.32-.42,1.4,1.4,0,0,1-.46-1.07,1.37,1.37,0,0,1,.18-.69,1.39,1.39,0,0,1,.45-.51,2.26,2.26,0,0,1,.63-.29,7.55,7.55,0,0,1,.79-.13,7.37,7.37,0,0,0,1.56-.3c0-.12,0-.2,0-.23a1,1,0,0,0-.25-.76,1.48,1.48,0,0,0-1-.3,1.6,1.6,0,0,0-.92.22,1.41,1.41,0,0,0-.44.77l-.85-.12a2.07,2.07,0,0,1,.38-.89,1.73,1.73,0,0,1,.78-.52,3.51,3.51,0,0,1,1.17-.18,3.18,3.18,0,0,1,1.08.15,1.44,1.44,0,0,1,.61.4,1.3,1.3,0,0,1,.28.59,5.07,5.07,0,0,1,0,.82v1.17a11.75,11.75,0,0,0,.06,1.55,2.09,2.09,0,0,0,.22.62H797A1.77,1.77,0,0,1,796.8,157.36Zm-.08-2a6.34,6.34,0,0,1-1.43.33,3,3,0,0,0-.77.18.81.81,0,0,0-.35.28.79.79,0,0,0-.12.42.73.73,0,0,0,.27.58,1.12,1.12,0,0,0,.78.24,1.87,1.87,0,0,0,.9-.22,1.37,1.37,0,0,0,.58-.61,2,2,0,0,0,.14-.88Z"/><path class="cls-3" d="M799,151.85v-1h.88v1Zm0,6.15v-5.19h.88V158Z"/><path class="cls-3" d="M803.11,157.21l.13.78a3.46,3.46,0,0,1-.66.08,1.56,1.56,0,0,1-.75-.15,1,1,0,0,1-.37-.4,3.29,3.29,0,0,1-.1-1v-3h-.65v-.69h.65v-1.28l.87-.53v1.81h.88v.69h-.88v3a1.49,1.49,0,0,0,0,.48.35.35,0,0,0,.15.17.51.51,0,0,0,.3.07A2,2,0,0,0,803.11,157.21Z"/></g></g><g id="Next_cycle"><rect class="cls-14" x="860" y="130" width="80" height="40" rx="4"/><g class="cls-2"><path class="cls-3" d="M889.9,145v-7.16h1.41l2.93,4.78v-4.78h1.34V145h-1.45l-2.88-4.67V145Z"/><path class="cls-3" d="M900.11,143.35l1.36.23a2.19,2.19,0,0,1-.83,1.14,2.38,2.38,0,0,1-1.42.4,2.34,2.34,0,0,1-2-.89,3,3,0,0,1-.51-1.78,2.85,2.85,0,0,1,.68-2,2.18,2.18,0,0,1,1.7-.73,2.31,2.31,0,0,1,1.83.76,3.41,3.41,0,0,1,.63,2.34h-3.43a1.38,1.38,0,0,0,.33.95,1,1,0,0,0,.79.34.85.85,0,0,0,.54-.17A1.13,1.13,0,0,0,900.11,143.35Zm.07-1.39a1.33,1.33,0,0,0-.3-.9,1,1,0,0,0-.72-.31,1,1,0,0,0-.74.32,1.27,1.27,0,0,0-.29.89Z"/><path class="cls-3" d="M902,145l1.88-2.67-1.8-2.52h1.68l.92,1.43,1-1.43h1.61l-1.75,2.46,1.91,2.73h-1.68l-1.05-1.61L903.61,145Z"/><path class="cls-3" d="M910.6,139.81v1.1h-.93V143a5.43,5.43,0,0,0,0,.74.3.3,0,0,0,.12.17.4.4,0,0,0,.24.07,1.73,1.73,0,0,0,.55-.13l.11,1.06a2.6,2.6,0,0,1-1.08.21A1.6,1.6,0,0,1,909,145a.92.92,0,0,1-.43-.32,1.22,1.22,0,0,1-.2-.53,6.85,6.85,0,0,1,0-1v-2.26h-.63v-1.1h.63v-1l1.38-.8v1.83Z"/></g><g class="cls-2"><path class="cls-3" d="M889.21,155.49l.95.24a3.18,3.18,0,0,1-1.08,1.78,2.92,2.92,0,0,1-1.89.61,3.42,3.42,0,0,1-1.88-.47,2.94,2.94,0,0,1-1.1-1.36,4.77,4.77,0,0,1-.38-1.92,4.13,4.13,0,0,1,.43-2,2.92,2.92,0,0,1,1.21-1.27,3.56,3.56,0,0,1,1.74-.43,2.88,2.88,0,0,1,1.8.55,2.78,2.78,0,0,1,1,1.53l-.93.22a2.1,2.1,0,0,0-.72-1.13,1.91,1.91,0,0,0-1.19-.36,2.28,2.28,0,0,0-1.38.4A2,2,0,0,0,885,153a4.24,4.24,0,0,0-.23,1.37,4.36,4.36,0,0,0,.27,1.6,2,2,0,0,0,.83,1,2.26,2.26,0,0,0,1.21.34,2,2,0,0,0,1.35-.46A2.32,2.32,0,0,0,889.21,155.49Z"/><path class="cls-3" d="M891.17,160l-.1-.83a2.13,2.13,0,0,0,.51.08.94.94,0,0,0,.47-.1.72.72,0,0,0,.28-.27,3.66,3.66,0,0,0,.27-.66s0-.12.08-.21l-2-5.2h.95l1.08,3c.14.38.26.78.38,1.2a11.51,11.51,0,0,1,.36-1.18l1.1-3h.88l-2,5.28a9.13,9.13,0,0,1-.49,1.17,1.76,1.76,0,0,1-.54.64,1.22,1.22,0,0,1-.72.2A1.8,1.8,0,0,1,891.17,160Z"/><path class="cls-3" d="M899.59,156.1l.87.11a2.19,2.19,0,0,1-.73,1.4,2.09,2.09,0,0,1-1.43.51,2.24,2.24,0,0,1-1.71-.7,2.82,2.82,0,0,1-.65-2,3.71,3.71,0,0,1,.28-1.47,2,2,0,0,1,.85-1,2.51,2.51,0,0,1,1.24-.31,2.18,2.18,0,0,1,1.38.42,2,2,0,0,1,.69,1.22l-.86.13a1.41,1.41,0,0,0-.43-.79,1.16,1.16,0,0,0-.75-.26,1.37,1.37,0,0,0-1.08.48,2.22,2.22,0,0,0-.41,1.5,2.31,2.31,0,0,0,.4,1.52,1.27,1.27,0,0,0,1,.47,1.25,1.25,0,0,0,.87-.31A1.57,1.57,0,0,0,899.59,156.1Z"/><path class="cls-3" d="M901.19,158v-7.16h.88V158Z"/><path class="cls-3" d="M907,156.33l.91.11a2.23,2.23,0,0,1-.8,1.24,2.68,2.68,0,0,1-3.28-.26,2.74,2.74,0,0,1-.67-2,2.86,2.86,0,0,1,.67-2,2.3,2.3,0,0,1,1.75-.72,2.2,2.2,0,0,1,1.7.71,2.8,2.8,0,0,1,.66,2v.23h-3.87a2,2,0,0,0,.48,1.31,1.45,1.45,0,0,0,1.09.45,1.33,1.33,0,0,0,.82-.25A1.65,1.65,0,0,0,907,156.33Zm-2.88-1.42H907a1.77,1.77,0,0,0-.33-1,1.34,1.34,0,0,0-1.09-.51,1.38,1.38,0,0,0-1,.41A1.62,1.62,0,0,0,904.1,154.91Z"/><path class="cls-3" d="M909.24,158v-1h1v1Z"/><path class="cls-3" d="M912,158v-1h1v1Z"/><path class="cls-3" d="M914.8,158v-1h1v1Z"/></g></g><polygon class="cls-15" points="387 143 407 150 387 157 387 143"/><polygon class="cls-15" points="257.6 136.06 297.43 150 257.6 163.94 257.6 136.06"/><polygon class="cls-15" points="517 143 537 150 517 157 517 143"/><polygon class="cls-15" points="634.25 143 654.25 150 634.25 157 634.25 143"/><polygon class="cls-15" points="738.27 143 758.27 150 738.27 157 738.27 143"/><polygon class="cls-15" points="836.53 143 856.53 150 836.53 157 836.53 143"/><text class="cls-16" transform="translate(61.95 256.86)">Problems with Sequential Execution:</text><g id="code"><path class="cls-17" d="M49.19,462.61H972.75c5.07,0,9.19,5.76,9.19,12.86V642.72c0,7.11-4.12,12.87-9.19,12.87H49.19c-5.08,0-9.19-5.76-9.19-12.87V475.47C40,468.37,44.11,462.61,49.19,462.61Z"/><text class="cls-18" transform="translate(62.97 491.32)">// Typical Arduino Sequential Code</text><text class="cls-19" transform="translate(62.97 514.3)">void loop() {</text><text class="cls-19" transform="translate(85.95 537.27)">read_sensors(); // 20ms - blocks everything</text><text class="cls-19" transform="translate(85.95 560.24)">process_data(); // 60ms - long computation blocks wireless</text><text class="cls-19" transform="translate(85.95 583.22)">handle_wireless(); // 30ms - might miss time-critical data</text><text class="cls-19" transform="translate(85.95 606.19)">update_display(); // 20ms</text><text class="cls-19" transform="translate(62.97 629.17)">} // Total: 130ms per cycle = 7.7Hz update rate</text></g><g id="blocking"><rect class="cls-20" x="40" y="278.81" width="459.48" height="68.92" rx="9.19"/><text class="cls-21" transform="translate(70.73 307.53)"><tspan xml:space="preserve">  Blocking Operations</tspan></text><text class="cls-22" transform="translate(62.97 330.5)">Long processing tasks block all other operations</text><rect class="cls-23" x="64.12" y="296.69" width="10.13" height="10.13"/></g><g id="poor"><rect class="cls-20" x="40" y="370.71" width="459.48" height="68.92" rx="9.19"/><text class="cls-21" transform="translate(70.73 399.43)"><tspan xml:space="preserve">  Poor Real-time Performance</tspan></text><text class="cls-22" transform="translate(62.97 422.4)">Critical tasks can be delayed by non-critical ones</text><rect class="cls-23" x="64.51" y="389.24" width="10.13" height="10.13"/></g><g id="no_parallesim"><rect class="cls-20" x="522.46" y="278.81" width="459.48" height="68.92" rx="9.19"/><text class="cls-21" transform="translate(553.81 307.53)"><tspan xml:space="preserve">  No </tspan><tspan class="cls-24" x="34.84" y="0">T</tspan><tspan x="43.78" y="0">rue Parallelism</tspan></text><text class="cls-22" transform="translate(545.43 330.5)">Cannot handle multiple tasks simultaneously</text><rect class="cls-23" x="545.41" y="296.69" width="10.13" height="10.13"/></g><g id="difficult"><rect class="cls-20" x="522.46" y="370.71" width="459.48" height="68.92" rx="9.19"/><text class="cls-25" transform="translate(553.81 399.43)"><tspan xml:space="preserve">  </tspan><tspan class="cls-26" x="8.94" y="0">Difficult Code Organization</tspan></text><text class="cls-22" transform="translate(545.43 422.4)">All functionality mixed together in one main loop</text><rect class="cls-23" x="545.8" y="389.24" width="10.13" height="10.13"/></g></svg>