<svg id="Layer_1" data-name="Layer 1" xmlns="http://www.w3.org/2000/svg" viewBox="0 0 1083.81 822.88"><defs><style>.cls-1,.cls-10,.cls-11,.cls-13,.cls-20,.cls-21,.cls-23,.cls-24,.cls-25,.cls-26,.cls-27,.cls-28,.cls-29,.cls-30,.cls-4,.cls-7{isolation:isolate;}.cls-10,.cls-11,.cls-2,.cls-21,.cls-24,.cls-27,.cls-29,.cls-4{fill:#fff;}.cls-3{fill:#2d2d44;stroke:#4a4a6a;}.cls-3,.cls-6{stroke-width:2px;}.cls-4{font-size:18px;}.cls-10,.cls-13,.cls-20,.cls-23,.cls-24,.cls-25,.cls-29,.cls-4{font-family:Arial-BoldMT, Arial;font-weight:700;}.cls-5{letter-spacing:-0.02em;}.cls-6{fill:none;stroke:#666;}.cls-13,.cls-7{font-size:12px;}.cls-30,.cls-7{fill:#aaa;}.cls-11,.cls-21,.cls-26,.cls-27,.cls-30,.cls-7{font-family:ArialMT, Arial;}.cls-8{letter-spacing:-0.07em;}.cls-9{fill:#4caf50;}.cls-10,.cls-21,.cls-23,.cls-25,.cls-26{font-size:14px;}.cls-11{font-size:11px;}.cls-12,.cls-13,.cls-28{fill:#f44;}.cls-14,.cls-26{fill:#ff9800;}.cls-15{letter-spacing:-0.06em;}.cls-16{fill:#2196f3;}.cls-17{letter-spacing:-0.01em;}.cls-18{fill:#9c27b0;}.cls-19{letter-spacing:-0.04em;}.cls-20,.cls-24{font-size:16px;}.cls-20,.cls-25{fill:#ffeb3b;}.cls-22{letter-spacing:-0.11em;}.cls-23{fill:#ff6b6b;}.cls-27,.cls-29,.cls-30{font-size:10px;}.cls-28{opacity:0.7;}</style></defs><g class="cls-1"><path class="cls-2" d="M181.18,72.91h-4.4L175,68.35h-8l-1.66,4.56h-4.29l7.81-20h4.28ZM173.73,65,171,57.54,168.26,65Z"/><path class="cls-2" d="M187,72.91h-3.84V58.39h3.57v2.06a6.38,6.38,0,0,1,1.64-1.93,3,3,0,0,1,1.66-.46,4.89,4.89,0,0,1,2.53.72l-1.19,3.35a3.32,3.32,0,0,0-1.8-.63,2.13,2.13,0,0,0-1.37.45,3,3,0,0,0-.88,1.61,23,23,0,0,0-.32,4.86Z"/><path class="cls-2" d="M207.51,72.91H204V70.77a6,6,0,0,1-2.1,1.86,5.47,5.47,0,0,1-2.44.61,5.55,5.55,0,0,1-4.29-2,8.21,8.21,0,0,1-1.78-5.63A8.14,8.14,0,0,1,195.07,60a5.67,5.67,0,0,1,4.39-1.92,5.42,5.42,0,0,1,4.21,2V52.86h3.84Zm-10.25-7.58a6.68,6.68,0,0,0,.64,3.37,2.91,2.91,0,0,0,2.6,1.5,2.85,2.85,0,0,0,2.26-1.13,5.19,5.19,0,0,0,.93-3.37,5.62,5.62,0,0,0-.91-3.6,3,3,0,0,0-4.6,0A4.91,4.91,0,0,0,197.26,65.33Z"/><path class="cls-2" d="M220.86,72.91V70.73a5.64,5.64,0,0,1-2.09,1.84,5.91,5.91,0,0,1-2.72.67,5.34,5.34,0,0,1-2.63-.65,3.85,3.85,0,0,1-1.68-1.8,8,8,0,0,1-.52-3.22V58.39h3.84v6.67a18.64,18.64,0,0,0,.21,3.75,2,2,0,0,0,.78,1.1,2.41,2.41,0,0,0,1.42.4,3,3,0,0,0,1.76-.54,2.76,2.76,0,0,0,1.07-1.34,15.76,15.76,0,0,0,.28-3.92V58.39h3.85V72.91Z"/><path class="cls-2" d="M228.41,56.42V52.86h3.84v3.56Zm0,16.49V58.39h3.84V72.91Z"/><path class="cls-2" d="M249.39,72.91h-3.84V65.5a11.2,11.2,0,0,0-.25-3,2.12,2.12,0,0,0-.8-1.07,2.31,2.31,0,0,0-1.33-.38,3.06,3.06,0,0,0-1.79.55A2.74,2.74,0,0,0,240.29,63a12.94,12.94,0,0,0-.29,3.34v6.58h-3.84V58.39h3.57v2.13a5.8,5.8,0,0,1,4.78-2.46,5.65,5.65,0,0,1,2.32.46,3.77,3.77,0,0,1,1.6,1.17,4.18,4.18,0,0,1,.75,1.61,12.06,12.06,0,0,1,.21,2.58Z"/><path class="cls-2" d="M252.4,65.44a7.82,7.82,0,0,1,.94-3.7A6.44,6.44,0,0,1,256,59a7.91,7.91,0,0,1,3.86-.94,7.26,7.26,0,0,1,5.4,2.14,7.41,7.41,0,0,1,2.1,5.41,7.52,7.52,0,0,1-2.12,5.46,7.21,7.21,0,0,1-5.35,2.17,8.45,8.45,0,0,1-3.81-.91,6.19,6.19,0,0,1-2.76-2.64A8.81,8.81,0,0,1,252.4,65.44Zm3.94.21a4.84,4.84,0,0,0,1,3.31,3.28,3.28,0,0,0,2.53,1.14A3.25,3.25,0,0,0,262.41,69a4.89,4.89,0,0,0,1-3.34,4.77,4.77,0,0,0-1-3.28,3.23,3.23,0,0,0-2.52-1.15,3.26,3.26,0,0,0-2.53,1.15A4.82,4.82,0,0,0,256.34,65.65Z"/><path class="cls-2" d="M277.17,66.39l3.94-.39a4.84,4.84,0,0,0,1.44,2.91,4.37,4.37,0,0,0,2.94.93,4.5,4.5,0,0,0,2.94-.82,2.47,2.47,0,0,0,1-1.94,1.88,1.88,0,0,0-.41-1.21,3.44,3.44,0,0,0-1.46-.87q-.71-.24-3.24-.87a11.12,11.12,0,0,1-4.57-2,5.23,5.23,0,0,1-1.84-4,5.14,5.14,0,0,1,.87-2.86,5.34,5.34,0,0,1,2.5-2,9.92,9.92,0,0,1,3.94-.7q3.78,0,5.68,1.66a5.86,5.86,0,0,1,2,4.41l-4,.18a3.42,3.42,0,0,0-1.12-2.22,4.07,4.07,0,0,0-2.56-.68,4.57,4.57,0,0,0-2.76.73,1.45,1.45,0,0,0-.64,1.24,1.56,1.56,0,0,0,.6,1.22,10.71,10.71,0,0,0,3.72,1.34,19.35,19.35,0,0,1,4.37,1.44,5.66,5.66,0,0,1,2.21,2,6.3,6.3,0,0,1-.16,6.42,5.78,5.78,0,0,1-2.7,2.23,11.34,11.34,0,0,1-4.37.73,8.66,8.66,0,0,1-5.83-1.75A7.69,7.69,0,0,1,277.17,66.39Z"/><path class="cls-2" d="M296.85,56.42V52.86h3.84v3.56Zm0,16.49V58.39h3.84V72.91Z"/><path class="cls-2" d="M317.83,72.91H314V65.5a11.8,11.8,0,0,0-.24-3,2.24,2.24,0,0,0-.8-1.07,2.35,2.35,0,0,0-1.34-.38,3.06,3.06,0,0,0-1.79.55A2.74,2.74,0,0,0,308.73,63a12.94,12.94,0,0,0-.29,3.34v6.58H304.6V58.39h3.57v2.13A5.8,5.8,0,0,1,313,58.06a5.73,5.73,0,0,1,2.33.46,3.8,3.8,0,0,1,1.59,1.17,4.18,4.18,0,0,1,.75,1.61,12.06,12.06,0,0,1,.21,2.58Z"/><path class="cls-2" d="M321.37,73.86l4.39.54a1.5,1.5,0,0,0,.51,1,2.9,2.9,0,0,0,1.72.41,4.5,4.5,0,0,0,2.26-.45,1.89,1.89,0,0,0,.76-1,5.8,5.8,0,0,0,.18-1.77V70.56a5.22,5.22,0,0,1-4.35,2.35,5.35,5.35,0,0,1-4.63-2.48,8.33,8.33,0,0,1-1.34-4.86A8,8,0,0,1,322.62,60,5.67,5.67,0,0,1,327,58.06a5.34,5.34,0,0,1,4.45,2.36v-2H335v13a13.11,13.11,0,0,1-.42,3.84,4.68,4.68,0,0,1-1.19,2,5.14,5.14,0,0,1-2,1.14,11,11,0,0,1-3.24.41q-3.69,0-5.23-1.27a4,4,0,0,1-1.55-3.2C321.36,74.2,321.36,74.05,321.37,73.86Zm3.44-8.51a5.22,5.22,0,0,0,.89,3.38,2.75,2.75,0,0,0,2.21,1.07,3,3,0,0,0,2.38-1.1,4.77,4.77,0,0,0,1-3.26,5.09,5.09,0,0,0-.93-3.35A2.94,2.94,0,0,0,328,61a2.86,2.86,0,0,0-2.28,1.07A5,5,0,0,0,324.81,65.35Z"/><path class="cls-2" d="M338.83,72.91v-20h3.84v20Z"/><path class="cls-2" d="M355,68.29l3.83.64a6.26,6.26,0,0,1-2.33,3.2,6.81,6.81,0,0,1-4,1.11,6.49,6.49,0,0,1-5.6-2.48,8.29,8.29,0,0,1-1.44-5,8,8,0,0,1,1.89-5.66,6.22,6.22,0,0,1,4.77-2,6.43,6.43,0,0,1,5.11,2.14q1.88,2.14,1.79,6.55h-9.62a3.91,3.91,0,0,0,.93,2.66,2.88,2.88,0,0,0,2.21,1,2.35,2.35,0,0,0,1.52-.49A3,3,0,0,0,355,68.29Zm.22-3.89a3.73,3.73,0,0,0-.86-2.53,2.64,2.64,0,0,0-2-.87,2.67,2.67,0,0,0-2.08.91,3.6,3.6,0,0,0-.8,2.49Z"/><path class="cls-2" d="M382.82,65.54l3.92,1.24a8.82,8.82,0,0,1-3,4.88,9.45,9.45,0,0,1-11.89-1.14,10.45,10.45,0,0,1-2.57-7.46q0-5,2.58-7.77a8.9,8.9,0,0,1,6.8-2.77,8.33,8.33,0,0,1,6,2.18,7.8,7.8,0,0,1,2.05,3.69l-4,1A4.13,4.13,0,0,0,378.45,56a4.54,4.54,0,0,0-3.61,1.6c-.93,1.07-1.39,2.79-1.39,5.18s.46,4.34,1.37,5.42a4.44,4.44,0,0,0,3.55,1.61,4,4,0,0,0,2.78-1A6,6,0,0,0,382.82,65.54Z"/><path class="cls-2" d="M389.3,65.44a7.82,7.82,0,0,1,.94-3.7A6.48,6.48,0,0,1,392.91,59a7.91,7.91,0,0,1,3.86-.94,7.22,7.22,0,0,1,5.4,2.14,7.38,7.38,0,0,1,2.11,5.41,7.49,7.49,0,0,1-2.13,5.46,7.19,7.19,0,0,1-5.35,2.17,8.48,8.48,0,0,1-3.81-.91,6.21,6.21,0,0,1-2.75-2.64A8.81,8.81,0,0,1,389.3,65.44Zm3.93.21a4.84,4.84,0,0,0,1,3.31,3.37,3.37,0,0,0,5.05,0,4.89,4.89,0,0,0,1-3.34,4.77,4.77,0,0,0-1-3.28,3.35,3.35,0,0,0-5.05,0A4.82,4.82,0,0,0,393.23,65.65Z"/><path class="cls-2" d="M411,72.91h-3.85V58.39h3.57v2.06a6.25,6.25,0,0,1,1.65-1.93,3,3,0,0,1,1.66-.46,4.89,4.89,0,0,1,2.53.72l-1.19,3.35a3.38,3.38,0,0,0-1.8-.63,2.11,2.11,0,0,0-1.37.45,2.94,2.94,0,0,0-.88,1.61,22.34,22.34,0,0,0-.32,4.86Z"/><path class="cls-2" d="M426.59,68.29l3.83.64a6.26,6.26,0,0,1-2.33,3.2,6.81,6.81,0,0,1-4,1.11,6.49,6.49,0,0,1-5.6-2.48,8.29,8.29,0,0,1-1.44-5A8,8,0,0,1,419,60.1a6.22,6.22,0,0,1,4.77-2,6.42,6.42,0,0,1,5.11,2.14q1.88,2.14,1.8,6.55H421a3.91,3.91,0,0,0,.93,2.66,2.88,2.88,0,0,0,2.22,1,2.32,2.32,0,0,0,1.51-.49A3,3,0,0,0,426.59,68.29Zm.22-3.89a3.69,3.69,0,0,0-.86-2.53,2.77,2.77,0,0,0-4.07,0,3.56,3.56,0,0,0-.81,2.49Z"/><path class="cls-2" d="M434.5,62.23V58.39h3.84v3.84Zm0,10.68V69.07h3.84v3.84Z"/><path class="cls-2" d="M450.9,52.86h8a23.38,23.38,0,0,1,3.55.2,5.09,5.09,0,0,1,3.63,2.5,4.56,4.56,0,0,1,.62,2.35,4.77,4.77,0,0,1-2.82,4.35,5.3,5.3,0,0,1,2.82,1.81,4.89,4.89,0,0,1,1,3,5.92,5.92,0,0,1-.64,2.66,5.3,5.3,0,0,1-1.73,2.06,5.84,5.84,0,0,1-2.72,1c-.67.07-2.3.12-4.88.14H450.9ZM455,56.2v4.63h2.65q2.37,0,2.94-.06a2.68,2.68,0,0,0,1.63-.72,2.12,2.12,0,0,0,.6-1.57,2.21,2.21,0,0,0-.51-1.51,2.32,2.32,0,0,0-1.53-.7c-.4-.05-1.55-.07-3.46-.07Zm0,8v5.36h3.74a18.81,18.81,0,0,0,2.78-.12,2.54,2.54,0,0,0,1.47-.8,2.47,2.47,0,0,0,.57-1.71,2.63,2.63,0,0,0-.44-1.53,2.42,2.42,0,0,0-1.27-.91,13.68,13.68,0,0,0-3.58-.29Z"/><path class="cls-2" d="M471.08,72.91v-20h3.84v20Z"/><path class="cls-2" d="M478,65.44a7.84,7.84,0,0,1,.95-3.7A6.37,6.37,0,0,1,481.59,59a7.91,7.91,0,0,1,3.86-.94,7.22,7.22,0,0,1,5.4,2.14,8,8,0,0,1,0,10.87,7.21,7.21,0,0,1-5.35,2.17,8.48,8.48,0,0,1-3.81-.91,6.11,6.11,0,0,1-2.75-2.64A8.81,8.81,0,0,1,478,65.44Zm3.94.21a4.84,4.84,0,0,0,1,3.31A3.38,3.38,0,0,0,488,69a4.89,4.89,0,0,0,1-3.34,4.77,4.77,0,0,0-1-3.28,3.36,3.36,0,0,0-5.06,0A4.82,4.82,0,0,0,481.91,65.65Z"/><path class="cls-2" d="M508.62,62.68l-3.78.68a2.81,2.81,0,0,0-.87-1.71,2.64,2.64,0,0,0-1.76-.57,2.87,2.87,0,0,0-2.29,1,5.09,5.09,0,0,0-.85,3.32,5.87,5.87,0,0,0,.87,3.65,2.83,2.83,0,0,0,2.33,1.06,2.57,2.57,0,0,0,1.79-.62,3.75,3.75,0,0,0,1-2.14l3.78.65a6.73,6.73,0,0,1-2.26,3.92,7,7,0,0,1-4.47,1.33,6.64,6.64,0,0,1-5.08-2,7.82,7.82,0,0,1-1.89-5.57,7.8,7.8,0,0,1,1.9-5.6,6.76,6.76,0,0,1,5.14-2,7,7,0,0,1,4.22,1.14A6.3,6.3,0,0,1,508.62,62.68Z"/><path class="cls-2" d="M511.4,72.91v-20h3.84V63.5l4.5-5.11h4.73l-5,5.3,5.32,9.22h-4.15L517,66.39l-1.79,1.87v4.65Z"/><path class="cls-2" d="M527.11,56.42V52.86H531v3.56Zm0,16.49V58.39H531V72.91Z"/><path class="cls-2" d="M548.09,72.91h-3.84V65.5a11.8,11.8,0,0,0-.24-3,2.18,2.18,0,0,0-.8-1.07,2.35,2.35,0,0,0-1.34-.38,3.06,3.06,0,0,0-1.79.55A2.67,2.67,0,0,0,539,63a12.37,12.37,0,0,0-.3,3.34v6.58h-3.84V58.39h3.57v2.13a5.81,5.81,0,0,1,4.78-2.46,5.7,5.7,0,0,1,2.33.46,3.8,3.8,0,0,1,1.59,1.17,4.18,4.18,0,0,1,.75,1.61,12.06,12.06,0,0,1,.21,2.58Z"/><path class="cls-2" d="M551.64,73.86l4.38.54a1.54,1.54,0,0,0,.51,1,2.9,2.9,0,0,0,1.72.41,4.48,4.48,0,0,0,2.26-.45,1.84,1.84,0,0,0,.76-1,5.8,5.8,0,0,0,.18-1.77V70.56a5.22,5.22,0,0,1-4.35,2.35,5.35,5.35,0,0,1-4.63-2.48,8.41,8.41,0,0,1-1.34-4.86A8,8,0,0,1,552.89,60a5.64,5.64,0,0,1,4.36-1.93,5.34,5.34,0,0,1,4.45,2.36v-2h3.59v13a13.11,13.11,0,0,1-.42,3.84,4.68,4.68,0,0,1-1.19,2,5.14,5.14,0,0,1-2,1.14,10.92,10.92,0,0,1-3.24.41q-3.69,0-5.23-1.27a4,4,0,0,1-1.55-3.2C551.62,74.2,551.63,74.05,551.64,73.86Zm3.43-8.51a5.28,5.28,0,0,0,.89,3.38,2.77,2.77,0,0,0,2.21,1.07,3,3,0,0,0,2.38-1.1,4.77,4.77,0,0,0,1-3.26,5.09,5.09,0,0,0-.93-3.35A2.94,2.94,0,0,0,558.24,61,2.86,2.86,0,0,0,556,62.07,5.1,5.1,0,0,0,555.07,65.35Z"/><path class="cls-2" d="M579.75,62.82l-3.49-.63a5.46,5.46,0,0,1,2-3.12,7.46,7.46,0,0,1,4.27-1,9.14,9.14,0,0,1,3.83.61,3.89,3.89,0,0,1,1.77,1.54,8,8,0,0,1,.51,3.44l0,4.49A16,16,0,0,0,588.8,71a9,9,0,0,0,.69,2h-3.8c-.1-.26-.22-.64-.37-1.14-.06-.23-.11-.38-.13-.45a7,7,0,0,1-2.11,1.44,6,6,0,0,1-2.39.48A5,5,0,0,1,577.15,72a4.05,4.05,0,0,1-1.29-3.08,4.13,4.13,0,0,1,.59-2.19,3.83,3.83,0,0,1,1.65-1.48,12.61,12.61,0,0,1,3-.89,21.39,21.39,0,0,0,3.74-.95v-.38a2,2,0,0,0-.55-1.58,3.32,3.32,0,0,0-2.07-.47,2.28,2.28,0,0,0-2.52,1.82Zm5.14,3.11a23.93,23.93,0,0,1-2.34.59,6.92,6.92,0,0,0-2.09.67,1.63,1.63,0,0,0-.76,1.36,1.86,1.86,0,0,0,.61,1.39,2.1,2.1,0,0,0,1.53.59,3.31,3.31,0,0,0,2-.69,2.44,2.44,0,0,0,.92-1.27,7.59,7.59,0,0,0,.15-1.87Z"/><path class="cls-2" d="M605.65,72.91h-3.84V65.5a11.8,11.8,0,0,0-.24-3,2.24,2.24,0,0,0-.8-1.07,2.35,2.35,0,0,0-1.34-.38,3.06,3.06,0,0,0-1.79.55A2.74,2.74,0,0,0,596.55,63a12.94,12.94,0,0,0-.29,3.34v6.58h-3.84V58.39H596v2.13a5.8,5.8,0,0,1,4.78-2.46,5.73,5.73,0,0,1,2.33.46,3.8,3.8,0,0,1,1.59,1.17,4.18,4.18,0,0,1,.75,1.61,12.06,12.06,0,0,1,.21,2.58Z"/><path class="cls-2" d="M622.87,72.91H619.3V70.77a5.78,5.78,0,0,1-2.1,1.86,5.47,5.47,0,0,1-2.44.61,5.55,5.55,0,0,1-4.29-2,8.21,8.21,0,0,1-1.78-5.63A8.14,8.14,0,0,1,610.42,60a5.67,5.67,0,0,1,4.39-1.92,5.41,5.41,0,0,1,4.21,2V52.86h3.85Zm-10.26-7.58a6.79,6.79,0,0,0,.64,3.37,2.92,2.92,0,0,0,2.6,1.5,2.84,2.84,0,0,0,2.26-1.13A5.19,5.19,0,0,0,619,65.7a5.69,5.69,0,0,0-.9-3.6,2.89,2.89,0,0,0-2.31-1.1,2.85,2.85,0,0,0-2.29,1.09A4.86,4.86,0,0,0,612.61,65.33Z"/><path class="cls-2" d="M634.46,72.91v-20H641a23.66,23.66,0,0,1,4.82.3,5.27,5.27,0,0,1,2.88,2,6.17,6.17,0,0,1,1.16,3.9,6.49,6.49,0,0,1-.67,3.1,5.43,5.43,0,0,1-1.7,2,6,6,0,0,1-2.1,1,23.06,23.06,0,0,1-4.19.29h-2.64v7.56Zm4-16.66v5.69h2.21a10.49,10.49,0,0,0,3.2-.31,2.62,2.62,0,0,0,1.72-2.55,2.58,2.58,0,0,0-.64-1.8,2.83,2.83,0,0,0-1.63-.89,19.38,19.38,0,0,0-2.91-.14Z"/><path class="cls-2" d="M661.52,68.29l3.82.64a6.2,6.2,0,0,1-2.33,3.2,6.79,6.79,0,0,1-4,1.11,6.5,6.5,0,0,1-5.61-2.48,8.35,8.35,0,0,1-1.43-5,8.07,8.07,0,0,1,1.88-5.66,6.23,6.23,0,0,1,4.78-2,6.43,6.43,0,0,1,5.11,2.14c1.25,1.43,1.84,3.61,1.79,6.55h-9.63a3.91,3.91,0,0,0,.93,2.66,2.91,2.91,0,0,0,2.22,1,2.35,2.35,0,0,0,1.52-.49A3,3,0,0,0,661.52,68.29Zm.22-3.89a3.69,3.69,0,0,0-.87-2.53,2.62,2.62,0,0,0-2-.87,2.67,2.67,0,0,0-2.08.91A3.56,3.56,0,0,0,656,64.4Z"/><path class="cls-2" d="M672.36,72.91h-3.84V58.39h3.56v2.06a6.52,6.52,0,0,1,1.65-1.93,3,3,0,0,1,1.66-.46,4.89,4.89,0,0,1,2.53.72l-1.19,3.35a3.35,3.35,0,0,0-1.8-.63,2.13,2.13,0,0,0-1.37.45,3,3,0,0,0-.88,1.61,23,23,0,0,0-.32,4.86Z"/><path class="cls-2" d="M677.9,58.39H680v-1.1a7.23,7.23,0,0,1,.39-2.73,3.12,3.12,0,0,1,1.43-1.47,5.5,5.5,0,0,1,2.65-.57,11,11,0,0,1,3.21.49l-.52,2.68a7.89,7.89,0,0,0-1.76-.21,1.61,1.61,0,0,0-1.2.38,2.27,2.27,0,0,0-.36,1.5v1h2.87v3h-2.87v11.5H680V61.41H677.9Z"/><path class="cls-2" d="M688,65.44a7.84,7.84,0,0,1,1-3.7A6.42,6.42,0,0,1,691.63,59a7.91,7.91,0,0,1,3.86-.94,7.22,7.22,0,0,1,5.4,2.14,8,8,0,0,1,0,10.87,7.21,7.21,0,0,1-5.35,2.17,8.48,8.48,0,0,1-3.81-.91A6.11,6.11,0,0,1,689,69.69,8.81,8.81,0,0,1,688,65.44Zm3.94.21A4.79,4.79,0,0,0,693,69a3.37,3.37,0,0,0,5,0,4.89,4.89,0,0,0,1-3.34,4.77,4.77,0,0,0-1-3.28,3.35,3.35,0,0,0-5,0A4.77,4.77,0,0,0,692,65.65Z"/><path class="cls-2" d="M709.68,72.91h-3.84V58.39h3.57v2.06a6.25,6.25,0,0,1,1.65-1.93,3,3,0,0,1,1.66-.46,4.91,4.91,0,0,1,2.53.72l-1.19,3.35a3.38,3.38,0,0,0-1.81-.63,2.08,2.08,0,0,0-1.36.45,3,3,0,0,0-.89,1.61,23,23,0,0,0-.32,4.86Z"/><path class="cls-2" d="M716.61,58.39h3.55v2a5.68,5.68,0,0,1,4.52-2.31,4.89,4.89,0,0,1,2.42.57,4.54,4.54,0,0,1,1.68,1.74,6.91,6.91,0,0,1,2.07-1.74,5,5,0,0,1,2.36-.57,5.3,5.3,0,0,1,2.71.65,3.93,3.93,0,0,1,1.65,1.91,8.11,8.11,0,0,1,.4,3v9.29h-3.84v-8.3a6.09,6.09,0,0,0-.4-2.79,1.8,1.8,0,0,0-1.64-.82,2.62,2.62,0,0,0-1.52.49,2.76,2.76,0,0,0-1,1.44,10.38,10.38,0,0,0-.32,3v7h-3.84V65a11.46,11.46,0,0,0-.2-2.73,1.76,1.76,0,0,0-.64-.92,2,2,0,0,0-1.17-.3,2.81,2.81,0,0,0-1.6.48,2.68,2.68,0,0,0-1,1.38,10.49,10.49,0,0,0-.3,3v7.06h-3.85Z"/><path class="cls-2" d="M744.67,62.82l-3.49-.63a5.42,5.42,0,0,1,2-3.12,7.4,7.4,0,0,1,4.26-1,9.11,9.11,0,0,1,3.83.61,3.79,3.79,0,0,1,1.77,1.54,8,8,0,0,1,.51,3.44l0,4.49a14.88,14.88,0,0,0,.19,2.82,8,8,0,0,0,.69,2h-3.8c-.1-.26-.23-.64-.37-1.14-.07-.23-.11-.38-.14-.45A7,7,0,0,1,748,72.76a6,6,0,0,1-2.39.48A5,5,0,0,1,742.08,72a4.05,4.05,0,0,1-1.29-3.08,4.12,4.12,0,0,1,.58-2.19A3.94,3.94,0,0,1,743,65.27a12.86,12.86,0,0,1,3.06-.89,21.21,21.21,0,0,0,3.73-.95v-.38a2,2,0,0,0-.55-1.58A3.29,3.29,0,0,0,747.2,61a2.72,2.72,0,0,0-1.6.4A2.84,2.84,0,0,0,744.67,62.82Zm5.14,3.11a22.48,22.48,0,0,1-2.34.59,7.14,7.14,0,0,0-2.09.67,1.62,1.62,0,0,0-.75,1.36,1.89,1.89,0,0,0,.6,1.39,2.1,2.1,0,0,0,1.53.59,3.31,3.31,0,0,0,2-.69,2.39,2.39,0,0,0,.92-1.27,7.59,7.59,0,0,0,.15-1.87Z"/><path class="cls-2" d="M770.58,72.91h-3.84V65.5a11.64,11.64,0,0,0-.25-3,2.12,2.12,0,0,0-.8-1.07,2.31,2.31,0,0,0-1.33-.38,3,3,0,0,0-1.79.55A2.69,2.69,0,0,0,761.48,63a12.37,12.37,0,0,0-.3,3.34v6.58h-3.84V58.39h3.57v2.13a5.82,5.82,0,0,1,4.79-2.46,5.69,5.69,0,0,1,2.32.46,3.8,3.8,0,0,1,1.59,1.17,4.35,4.35,0,0,1,.76,1.61,12.06,12.06,0,0,1,.21,2.58Z"/><path class="cls-2" d="M787.13,62.68l-3.78.68a2.81,2.81,0,0,0-.87-1.71,2.64,2.64,0,0,0-1.76-.57,2.87,2.87,0,0,0-2.29,1,5.09,5.09,0,0,0-.85,3.32,5.87,5.87,0,0,0,.87,3.65,2.83,2.83,0,0,0,2.33,1.06,2.57,2.57,0,0,0,1.79-.62,3.75,3.75,0,0,0,1-2.14l3.78.65a6.73,6.73,0,0,1-2.26,3.92,7,7,0,0,1-4.47,1.33,6.64,6.64,0,0,1-5.08-2,7.82,7.82,0,0,1-1.89-5.57,7.8,7.8,0,0,1,1.9-5.6,6.76,6.76,0,0,1,5.14-2,7,7,0,0,1,4.21,1.14A6.25,6.25,0,0,1,787.13,62.68Z"/><path class="cls-2" d="M798.45,68.29l3.83.64a6.26,6.26,0,0,1-2.33,3.2,6.79,6.79,0,0,1-4,1.11,6.5,6.5,0,0,1-5.61-2.48,8.29,8.29,0,0,1-1.44-5,8,8,0,0,1,1.89-5.66,6.22,6.22,0,0,1,4.77-2,6.45,6.45,0,0,1,5.12,2.14c1.25,1.43,1.84,3.61,1.79,6.55h-9.63a3.91,3.91,0,0,0,.93,2.66,2.88,2.88,0,0,0,2.22,1,2.32,2.32,0,0,0,1.51-.49A3,3,0,0,0,798.45,68.29Zm.22-3.89a3.64,3.64,0,0,0-.86-2.53,2.77,2.77,0,0,0-4.07,0,3.56,3.56,0,0,0-.81,2.49Z"/><path class="cls-2" d="M813.3,72.91v-20h4.05v20Z"/><path class="cls-2" d="M820.89,58.39h3.54v2A5.71,5.71,0,0,1,829,58.06a4.92,4.92,0,0,1,2.42.57,4.54,4.54,0,0,1,1.68,1.74,6.88,6.88,0,0,1,2.06-1.74,5.12,5.12,0,0,1,2.37-.57,5.27,5.27,0,0,1,2.7.65,4,4,0,0,1,1.66,1.91,8.33,8.33,0,0,1,.4,3v9.29H838.4v-8.3a6.27,6.27,0,0,0-.39-2.79,1.83,1.83,0,0,0-1.64-.82,2.6,2.6,0,0,0-1.52.49,2.78,2.78,0,0,0-1,1.44,10.45,10.45,0,0,0-.31,3v7h-3.84V65a10.76,10.76,0,0,0-.21-2.73,1.75,1.75,0,0,0-.63-.92,2,2,0,0,0-1.17-.3,2.77,2.77,0,0,0-1.6.48,2.58,2.58,0,0,0-1,1.38,10.06,10.06,0,0,0-.31,3v7.06h-3.84Z"/><path class="cls-2" d="M846,58.39h3.59v2.13a5.36,5.36,0,0,1,1.88-1.78,5.3,5.3,0,0,1,2.64-.68,5.52,5.52,0,0,1,4.29,2,8,8,0,0,1,1.77,5.53,8.25,8.25,0,0,1-1.78,5.65,5.55,5.55,0,0,1-4.31,2,4.88,4.88,0,0,1-2.18-.48,7.46,7.46,0,0,1-2.05-1.64v7.31H846Zm3.8,7a5.59,5.59,0,0,0,1,3.62,3,3,0,0,0,2.36,1.17,2.77,2.77,0,0,0,2.23-1.08,5.54,5.54,0,0,0,.89-3.52,5.26,5.26,0,0,0-.92-3.39A2.83,2.83,0,0,0,853,61.09a3,3,0,0,0-2.34,1.09A4.85,4.85,0,0,0,849.76,65.4Z"/><path class="cls-2" d="M866.05,62.82l-3.49-.63a5.46,5.46,0,0,1,2-3.12,7.46,7.46,0,0,1,4.27-1,9.14,9.14,0,0,1,3.83.61,3.79,3.79,0,0,1,1.77,1.54,8,8,0,0,1,.51,3.44l0,4.49a14.88,14.88,0,0,0,.19,2.82,8,8,0,0,0,.69,2H872a10.29,10.29,0,0,1-.37-1.14c-.07-.23-.11-.38-.14-.45a7,7,0,0,1-2.11,1.44,6,6,0,0,1-2.39.48A5,5,0,0,1,863.46,72a4.05,4.05,0,0,1-1.29-3.08,4.12,4.12,0,0,1,.58-2.19,3.83,3.83,0,0,1,1.65-1.48,12.71,12.71,0,0,1,3.06-.89,21.21,21.21,0,0,0,3.73-.95v-.38a2,2,0,0,0-.55-1.58,3.29,3.29,0,0,0-2.06-.47,2.72,2.72,0,0,0-1.6.4A2.77,2.77,0,0,0,866.05,62.82Zm5.14,3.11a22.48,22.48,0,0,1-2.34.59,7,7,0,0,0-2.09.67,1.62,1.62,0,0,0-.75,1.36,1.89,1.89,0,0,0,.6,1.39,2.1,2.1,0,0,0,1.53.59,3.31,3.31,0,0,0,2-.69,2.39,2.39,0,0,0,.92-1.27,7.59,7.59,0,0,0,.15-1.87Z"/><path class="cls-2" d="M891.41,62.68l-3.79.68a2.76,2.76,0,0,0-.87-1.71,2.61,2.61,0,0,0-1.75-.57,2.87,2.87,0,0,0-2.29,1,5.09,5.09,0,0,0-.86,3.32,5.87,5.87,0,0,0,.87,3.65,2.85,2.85,0,0,0,2.33,1.06,2.55,2.55,0,0,0,1.79-.62,3.69,3.69,0,0,0,1-2.14l3.77.65a6.63,6.63,0,0,1-2.26,3.92,7,7,0,0,1-4.47,1.33,6.67,6.67,0,0,1-5.08-2,7.82,7.82,0,0,1-1.89-5.57,7.85,7.85,0,0,1,1.9-5.6,6.77,6.77,0,0,1,5.14-2,7,7,0,0,1,4.22,1.14A6.36,6.36,0,0,1,891.41,62.68Z"/><path class="cls-2" d="M901,58.39v3.06h-2.63V67.3a14.06,14.06,0,0,0,.08,2.07.84.84,0,0,0,.34.49,1.08,1.08,0,0,0,.65.19,4.89,4.89,0,0,0,1.55-.37l.32,3a7.65,7.65,0,0,1-3,.58,4.83,4.83,0,0,1-1.87-.35,2.79,2.79,0,0,1-1.23-.91,3.52,3.52,0,0,1-.54-1.49,19.16,19.16,0,0,1-.12-2.71V61.45h-1.76V58.39h1.76V55.5l3.85-2.24v5.13Z"/></g><rect class="cls-3" x="31.35" y="122.91" width="1000" height="200" rx="10"/><text class="cls-4" transform="translate(292.46 152.91)">Execution <tspan class="cls-5" x="91.02" y="0">T</tspan><tspan x="101.69" y="0">imeline - Single Core Sequential Processing</tspan></text><line class="cls-6" x1="81.35" y1="292.91" x2="981.35" y2="292.91"/><text class="cls-7" transform="translate(70.02 312.91)">0ms</text><text class="cls-7" transform="translate(246.68 312.91)">20ms</text><text class="cls-7" transform="translate(606.68 312.91)">80ms</text><text class="cls-7" transform="translate(783.79 312.91)"><tspan class="cls-8">1</tspan><tspan x="5.78" y="0">10ms</tspan></text><text class="cls-7" transform="translate(963.34 312.91)">130ms</text><rect class="cls-9" x="81.35" y="232.91" width="180" height="50" rx="5"/><text class="cls-10" transform="translate(118.06 257.91)">Sensor Reading</text><text class="cls-11" transform="translate(157.9 272.91)">20ms</text><path class="cls-12" d="M254.35,248.91v18l27-9Z"/><text class="cls-13" transform="translate(246.02 222.91)">BLOCKS</text><rect class="cls-14" x="281.35" y="232.91" width="340" height="50" rx="5"/><text class="cls-10" transform="translate(396.5 257.91)">Data Processing</text><text class="cls-11" transform="translate(396.33 272.91)">60ms - Long<tspan class="cls-15" x="61.14" y="0"> </tspan><tspan x="63.59" y="0">Algorithm</tspan></text><path class="cls-12" d="M614.35,248.91v18l27-9Z"/><text class="cls-13" transform="translate(606.02 222.91)">BLOCKS</text><rect class="cls-16" x="641.35" y="232.91" width="160" height="50" rx="5"/><text class="cls-10" transform="translate(668.9 257.91)"><tspan class="cls-17">W</tspan><tspan x="13.09" y="0">ireless Comm</tspan></text><text class="cls-11" transform="translate(707.9 272.91)">30ms</text><path class="cls-12" d="M794.35,248.91v18l27-9Z"/><text class="cls-13" transform="translate(786.02 222.91)">BLOCKS</text><rect class="cls-18" x="821.35" y="232.91" width="160" height="50" rx="5"/><text class="cls-10" transform="translate(850.78 257.91)">Display Update</text><text class="cls-11" transform="translate(887.9 272.91)">20ms</text><path class="cls-3" d="M41.35,372.91h980c5.53,0,10,5,10,11.16V640.75c0,6.16-4.47,11.16-10,11.16h-980c-5.52,0-10-5-10-11.16V384.07C31.35,377.9,35.83,372.91,41.35,372.91Z"/><text class="cls-4" transform="translate(405.63 402.91)">Performance Impact<tspan class="cls-19" x="173.07" y="0"> </tspan><tspan x="177.4" y="0">Analysis</tspan></text><text class="cls-20" transform="translate(81.35 442.91)">The Math:</text><text class="cls-21" transform="translate(81.35 462.91)"><tspan class="cls-22">T</tspan><tspan x="7" y="0">otal Cycle</tspan><tspan class="cls-5" x="68.47" y="0"> </tspan><tspan class="cls-19" x="72.11" y="0">T</tspan><tspan x="80.14" y="0">ime = 20ms + 60ms + 30ms + 20ms = 130ms</tspan></text><text class="cls-21" transform="translate(81.35 482.91)">Update Rate = 1000ms ÷ 130ms = 7.69 Hz ≈ 7.7 Hz</text><text class="cls-23" transform="translate(81.35 502.91)">Problem: <tspan class="cls-8" x="64.57" y="0">T</tspan><tspan x="72.08" y="0">asks wait in line - no parallelism!</tspan></text><text class="cls-24" transform="translate(81.35 522.91)">Performance Comparison:</text><rect class="cls-12" x="81.35" y="532.91" width="150" height="35" rx="5"/><text class="cls-24" transform="translate(133.23 554.91)">7.7 Hz</text><text class="cls-23" transform="translate(241.35 549.91)">Current (Sequential)</text><rect class="cls-9" x="431.35" y="532.91" width="150" height="35" rx="5"/><text class="cls-24" transform="translate(480.78 554.91)">50+ Hz</text><text class="cls-24" transform="translate(591.35 549.91)"><tspan class="cls-8">T</tspan><tspan x="8.59" y="0">arget (Parallel)</tspan></text><text class="cls-25" transform="translate(734.38 549.91)">6.5x Performance Gap!</text><text class="cls-24" transform="translate(81.35 592.91)">Why CPU is &quot;Busy&quot; but Inefficient:</text><text class="cls-26" transform="translate(81.35 612.91)">• 60ms data processing blocks 3 sensor readings (20ms, 40ms, 60ms)</text><text class="cls-26" transform="translate(81.35 632.91)">• Critical tasks delayed by non-critical tasks</text><rect class="cls-3" x="31.35" y="672.91" width="1000" height="120" rx="10"/><text class="cls-4" transform="translate(369.47 702.91)">Blocking Effect: Missed Critical <tspan class="cls-8" x="274.06" y="0">T</tspan><tspan x="283.72" y="0">asks</tspan></text><text class="cls-23" transform="translate(81.35 737.91)">Sensor readings needed every 20ms:</text><rect class="cls-9" x="81.35" y="742.91" width="40" height="20" rx="2"/><text class="cls-27" transform="translate(94.13 756.91)">OK</text><rect class="cls-28" x="161.35" y="742.91" width="40" height="20" rx="2"/><text class="cls-27" transform="translate(178.02 756.91)">X</text><rect class="cls-28" x="241.35" y="742.91" width="40" height="20" rx="2"/><text class="cls-27" transform="translate(258.02 756.91)">X</text><rect class="cls-28" x="321.35" y="742.91" width="40" height="20" rx="2"/><text class="cls-27" transform="translate(338.02 756.91)">X</text><rect class="cls-9" x="401.35" y="742.91" width="40" height="20" rx="2"/><text class="cls-27" transform="translate(414.13 756.91)">OK</text><path class="cls-14" d="M166.42,708.91H372.79a2.48,2.48,0,0,1,2.65,2.26V723.6a2.48,2.48,0,0,1-2.65,2.26H166.42a2.48,2.48,0,0,1-2.65-2.26V711.17A2.48,2.48,0,0,1,166.42,708.91Z"/><text class="cls-29" transform="translate(166.52 720.91)">60ms Data Processing BLOCKS Everything</text><text class="cls-30" transform="translate(91.91 777.91)">0ms</text><text class="cls-30" transform="translate(169.13 777.91)">20ms</text><text class="cls-30" transform="translate(249.13 777.91)">40ms</text><text class="cls-30" transform="translate(329.13 777.91)">60ms</text><text class="cls-30" transform="translate(409.13 777.91)">80ms</text><text class="cls-23" transform="translate(531.35 756.91)">Result: 3 missed readings = Poor real-time performance!</text></svg>