<svg id="Layer_1" data-name="Layer 1" xmlns="http://www.w3.org/2000/svg" viewBox="0 0 1008 612"><defs><style>.cls-1{fill:#fff;}.cls-1,.cls-11{stroke:#231f20;stroke-miterlimit:10;}.cls-2,.cls-6{font-size:7px;}.cls-12,.cls-2,.cls-6{fill:#231f20;font-family:MyriadPro-Regular, Myriad Pro;}.cls-3,.cls-6{letter-spacing:-0.01em;}.cls-4{letter-spacing:0em;}.cls-5{letter-spacing:-0.01em;}.cls-7{letter-spacing:0.02em;}.cls-8{letter-spacing:-0.01em;}.cls-9{letter-spacing:0em;}.cls-10{letter-spacing:0em;}.cls-11{fill:none;}.cls-12{font-size:12px;}.cls-13{letter-spacing:-0.01em;}.cls-14{letter-spacing:0em;}.cls-15{letter-spacing:-0.01em;}</style></defs><g id="tda4vm_platform"><rect id="Core_A72_box_2" class="cls-1" x="89.64" y="112.13" width="45.18" height="45.18"/><text class="cls-2" transform="translate(103.8 136.03)"><tspan class="cls-3">C</tspan><tspan class="cls-4" x="3.98" y="0">o</tspan><tspan class="cls-5" x="7.83" y="0">r</tspan><tspan x="10.04" y="0">e A72</tspan></text><rect id="Core_A72_box_1" class="cls-1" x="149.79" y="112.13" width="45.18" height="45.18"/><text class="cls-2" transform="translate(163.96 136.03)"><tspan class="cls-3">C</tspan><tspan class="cls-4" x="3.98" y="0">o</tspan><tspan class="cls-5" x="7.83" y="0">r</tspan><tspan x="10.04" y="0">e A72</tspan></text><rect id="DSP_C66x_box" class="cls-1" x="209.95" y="112.13" width="45.18" height="45.18"/><text class="cls-2" transform="translate(223.7 136.03)">DSP C66x</text><rect id="DSP_C7x_box" class="cls-1" x="270.11" y="112.13" width="45.18" height="45.18"/><text class="cls-2" transform="translate(285 136.03)">DSP C7x</text><rect id="Cortex_M_box" class="cls-1" x="89.64" y="171.03" width="45.18" height="45.18"/><text class="cls-6" transform="translate(103.83 194.93)">C<tspan class="cls-4" x="3.98" y="0">o</tspan><tspan class="cls-7" x="7.83" y="0">r</tspan><tspan class="cls-8" x="10.28" y="0">t</tspan><tspan class="cls-9" x="12.56" y="0">e</tspan><tspan class="cls-10" x="16.04" y="0">x M</tspan></text><rect id="TDA4VM_main_box" class="cls-11" x="72.36" y="101.17" width="261.75" height="130.24" rx="13.95"/><text class="cls-12" transform="translate(166.07 93.17)">T<tspan class="cls-13" x="5.96" y="0">D</tspan><tspan x="13.79" y="0">A4VM</tspan></text></g><g id="arduino-platform"><rect id="one_core_box" class="cls-1" x="406.32" y="112.13" width="45.18" height="45.18"/><text class="cls-2" transform="translate(417.48 136.03)">One <tspan class="cls-3" x="13.7" y="0">C</tspan><tspan class="cls-4" x="17.68" y="0">o</tspan><tspan class="cls-5" x="21.52" y="0">r</tspan><tspan x="23.74" y="0">e</tspan></text><text class="cls-12" transform="translate(409.09 93.17)"><tspan class="cls-14">A</tspan><tspan class="cls-15" x="7.31" y="0">r</tspan><tspan x="11.11" y="0">duino</tspan></text></g></svg>