<svg id="b3c2f5ac-5dc2-4e0c-883f-0257e0dbd4cd" data-name="Layer 1" xmlns="http://www.w3.org/2000/svg" viewBox="0 0 1939.26 464.68"><g style="isolation:isolate"><path d="M414.41,48.66V20h5.79V31.27h11.34V20h5.79V48.66h-5.79V36.13H420.2V48.66Z" style="fill:#fff"/><path d="M455.31,42.05l5.47.92a9,9,0,0,1-3.33,4.59,9.87,9.87,0,0,1-5.7,1.57c-3.61,0-6.29-1.18-8-3.54a11.89,11.89,0,0,1-2.05-7.16q0-5.16,2.69-8.08a8.9,8.9,0,0,1,6.83-2.93,9.2,9.2,0,0,1,7.31,3.06q2.69,3.06,2.57,9.38H447.31a5.53,5.53,0,0,0,1.33,3.8A4.13,4.13,0,0,0,451.81,45a3.36,3.36,0,0,0,2.17-.7A4.41,4.41,0,0,0,455.31,42.05Zm.31-5.55a5.32,5.32,0,0,0-1.23-3.63,4,4,0,0,0-5.83.07,5,5,0,0,0-1.15,3.56Z" style="fill:#fff"/><path d="M475.08,27.89v4.38h-3.76v8.37a20.8,20.8,0,0,0,.11,3,1.15,1.15,0,0,0,.49.7,1.55,1.55,0,0,0,.93.27,7.13,7.13,0,0,0,2.21-.52l.47,4.26a10.9,10.9,0,0,1-4.34.82,6.88,6.88,0,0,1-2.68-.5,3.84,3.84,0,0,1-1.75-1.29A5.07,5.07,0,0,1,466,45.2a28.12,28.12,0,0,1-.17-3.87V32.27h-2.52V27.89h2.52V23.77l5.51-3.21v7.33Z" style="fill:#fff"/><path d="M490.92,42.05l5.47.92a9,9,0,0,1-3.33,4.59,9.87,9.87,0,0,1-5.7,1.57c-3.61,0-6.29-1.18-8-3.54a11.89,11.89,0,0,1-2-7.16q0-5.16,2.7-8.08a8.87,8.87,0,0,1,6.82-2.93,9.2,9.2,0,0,1,7.31,3.06q2.69,3.06,2.57,9.38H482.92a5.53,5.53,0,0,0,1.33,3.8A4.15,4.15,0,0,0,487.42,45a3.36,3.36,0,0,0,2.17-.7A4.41,4.41,0,0,0,490.92,42.05Zm.31-5.55A5.32,5.32,0,0,0,490,32.87a4,4,0,0,0-5.83.07A5,5,0,0,0,483,36.5Z" style="fill:#fff"/><path d="M506.43,48.66h-5.5V27.89H506v2.95a8.77,8.77,0,0,1,2.35-2.75,4.29,4.29,0,0,1,2.38-.67,7,7,0,0,1,3.61,1l-1.7,4.79a4.79,4.79,0,0,0-2.58-.9,3,3,0,0,0-2,.64,4.33,4.33,0,0,0-1.27,2.29,33.38,33.38,0,0,0-.45,7Z" style="fill:#fff"/><path d="M515.48,38a11.25,11.25,0,0,1,1.35-5.3,9.24,9.24,0,0,1,3.82-3.91,11.35,11.35,0,0,1,5.53-1.35,10.37,10.37,0,0,1,7.72,3.06,10.57,10.57,0,0,1,3,7.74,10.69,10.69,0,0,1-3,7.81,10.25,10.25,0,0,1-7.65,3.1,12.07,12.07,0,0,1-5.45-1.29,8.81,8.81,0,0,1-3.94-3.79A12.58,12.58,0,0,1,515.48,38Zm5.63.3A6.87,6.87,0,0,0,522.58,43a4.8,4.8,0,0,0,7.23,0,7,7,0,0,0,1.45-4.77,6.87,6.87,0,0,0-1.45-4.7,4.8,4.8,0,0,0-7.23,0A6.9,6.9,0,0,0,521.11,38.28Z" style="fill:#fff"/><path d="M540.71,50l6.28.76a2.14,2.14,0,0,0,.72,1.51,4.13,4.13,0,0,0,2.46.58,6.41,6.41,0,0,0,3.23-.64,2.7,2.7,0,0,0,1.1-1.39,8.73,8.73,0,0,0,.25-2.52v-3a7.44,7.44,0,0,1-6.22,3.36,7.66,7.66,0,0,1-6.63-3.54,12,12,0,0,1-1.92-7q0-5.22,2.52-8a8.09,8.09,0,0,1,6.25-2.76,7.61,7.61,0,0,1,6.35,3.39V27.89h5.15V46.53a18.64,18.64,0,0,1-.61,5.49,6.83,6.83,0,0,1-1.7,2.86A7.54,7.54,0,0,1,555,56.5a15.4,15.4,0,0,1-4.62.59q-5.28,0-7.49-1.81a5.66,5.66,0,0,1-2.21-4.59C540.69,50.51,540.7,50.29,540.71,50Zm4.91-12.18a7.47,7.47,0,0,0,1.28,4.84,4,4,0,0,0,3.16,1.53,4.37,4.37,0,0,0,3.4-1.57A6.91,6.91,0,0,0,554.85,38a7.3,7.3,0,0,0-1.33-4.79,4.24,4.24,0,0,0-3.37-1.56,4.05,4.05,0,0,0-3.25,1.53A7.19,7.19,0,0,0,545.62,37.85Z" style="fill:#fff"/><path d="M577.71,42.05l5.47.92a9,9,0,0,1-3.33,4.59,9.87,9.87,0,0,1-5.7,1.57c-3.61,0-6.29-1.18-8-3.54a11.89,11.89,0,0,1-2-7.16q0-5.16,2.7-8.08a8.88,8.88,0,0,1,6.82-2.93,9.24,9.24,0,0,1,7.32,3.06q2.67,3.06,2.56,9.38H569.71a5.53,5.53,0,0,0,1.33,3.8A4.15,4.15,0,0,0,574.21,45a3.36,3.36,0,0,0,2.17-.7A4.41,4.41,0,0,0,577.71,42.05ZM578,36.5a5.32,5.32,0,0,0-1.23-3.63,4,4,0,0,0-5.83.07,5,5,0,0,0-1.15,3.56Z" style="fill:#fff"/><path d="M606.85,48.66h-5.5V38.06a16.63,16.63,0,0,0-.35-4.35,3.15,3.15,0,0,0-1.14-1.54,3.33,3.33,0,0,0-1.91-.54,4.4,4.4,0,0,0-2.56.78,3.92,3.92,0,0,0-1.56,2.07,17.92,17.92,0,0,0-.42,4.77v9.41h-5.49V27.89H593v3.05a8.33,8.33,0,0,1,6.85-3.52,8.17,8.17,0,0,1,3.32.66,5.56,5.56,0,0,1,2.28,1.67,6.12,6.12,0,0,1,1.07,2.31,16.55,16.55,0,0,1,.31,3.69Z" style="fill:#fff"/><path d="M624.45,42.05l5.47.92a9,9,0,0,1-3.33,4.59,9.87,9.87,0,0,1-5.7,1.57c-3.61,0-6.29-1.18-8-3.54a11.89,11.89,0,0,1-2-7.16q0-5.16,2.69-8.08a8.9,8.9,0,0,1,6.83-2.93,9.2,9.2,0,0,1,7.31,3.06q2.69,3.06,2.57,9.38H616.45a5.53,5.53,0,0,0,1.33,3.8A4.13,4.13,0,0,0,621,45a3.36,3.36,0,0,0,2.17-.7A4.41,4.41,0,0,0,624.45,42.05Zm.31-5.55a5.32,5.32,0,0,0-1.23-3.63,4,4,0,0,0-5.83.07,5,5,0,0,0-1.15,3.56Z" style="fill:#fff"/><path d="M633.42,38a11.25,11.25,0,0,1,1.35-5.3,9.26,9.26,0,0,1,3.83-3.91,11.34,11.34,0,0,1,5.52-1.35,10.39,10.39,0,0,1,7.73,3.06,10.61,10.61,0,0,1,3,7.74,10.73,10.73,0,0,1-3,7.81,10.27,10.27,0,0,1-7.66,3.1,12.1,12.1,0,0,1-5.45-1.29,8.86,8.86,0,0,1-3.94-3.79A12.58,12.58,0,0,1,633.42,38Zm5.64.3A6.87,6.87,0,0,0,640.52,43a4.69,4.69,0,0,0,3.62,1.64A4.64,4.64,0,0,0,647.75,43a7,7,0,0,0,1.46-4.77,6.87,6.87,0,0,0-1.46-4.7,4.64,4.64,0,0,0-3.61-1.64,4.69,4.69,0,0,0-3.62,1.64A6.9,6.9,0,0,0,639.06,38.28Z" style="fill:#fff"/><path d="M672.83,48.66V45.55a8,8,0,0,1-3,2.62,8.39,8.39,0,0,1-3.9,1,7.67,7.67,0,0,1-3.76-.92,5.36,5.36,0,0,1-2.4-2.58A11.44,11.44,0,0,1,659,41V27.89h5.5v9.54a26.7,26.7,0,0,0,.3,5.37A2.92,2.92,0,0,0,666,44.37a3.41,3.41,0,0,0,2,.57,4.27,4.27,0,0,0,2.52-.77A3.91,3.91,0,0,0,672,42.26a22.52,22.52,0,0,0,.41-5.61V27.89h5.49V48.66Z" style="fill:#fff"/><path d="M681.69,42.73l5.51-.84a4.08,4.08,0,0,0,1.43,2.44,4.85,4.85,0,0,0,3,.83,5.47,5.47,0,0,0,3.21-.78,1.76,1.76,0,0,0,.72-1.47,1.46,1.46,0,0,0-.39-1,4.37,4.37,0,0,0-1.84-.72q-6.65-1.47-8.43-2.68a5.35,5.35,0,0,1-2.46-4.67,5.77,5.77,0,0,1,2.13-4.54c1.42-1.22,3.63-1.84,6.61-1.84s5,.46,6.34,1.39a7.12,7.12,0,0,1,2.85,4.11l-5.18,1A3.19,3.19,0,0,0,693.94,32a4.61,4.61,0,0,0-2.65-.65,6,6,0,0,0-3.11.61,1.3,1.3,0,0,0-.63,1.11,1.23,1.23,0,0,0,.55,1c.5.37,2.21.88,5.14,1.55s5,1.48,6.13,2.44a5.11,5.11,0,0,1,1.72,4.09,6.29,6.29,0,0,1-2.39,4.91q-2.38,2.06-7.06,2.05a11.57,11.57,0,0,1-6.72-1.72A7.94,7.94,0,0,1,681.69,42.73Z" style="fill:#fff"/><path d="M735.41,38.12,741,39.9a12.59,12.59,0,0,1-4.29,7,13.51,13.51,0,0,1-17-1.62q-3.68-3.9-3.67-10.67,0-7.16,3.69-11.12a12.69,12.69,0,0,1,9.72-4A11.94,11.94,0,0,1,738,22.61a11.37,11.37,0,0,1,2.93,5.28l-5.73,1.37a5.92,5.92,0,0,0-6-4.81A6.49,6.49,0,0,0,724,26.74q-2,2.28-2,7.41c0,3.62.66,6.21,2,7.74a6.34,6.34,0,0,0,5.08,2.31,5.77,5.77,0,0,0,4-1.47A8.45,8.45,0,0,0,735.41,38.12Z" style="fill:#fff"/><path d="M744.68,38a11.25,11.25,0,0,1,1.35-5.3,9.24,9.24,0,0,1,3.82-3.91,11.35,11.35,0,0,1,5.53-1.35,10.37,10.37,0,0,1,7.72,3.06,10.57,10.57,0,0,1,3,7.74,10.69,10.69,0,0,1-3,7.81,10.27,10.27,0,0,1-7.65,3.1A12.07,12.07,0,0,1,750,47.84,8.81,8.81,0,0,1,746,44.05,12.58,12.58,0,0,1,744.68,38Zm5.63.3A6.87,6.87,0,0,0,751.78,43,4.79,4.79,0,0,0,759,43a7,7,0,0,0,1.46-4.77,6.87,6.87,0,0,0-1.46-4.7,4.79,4.79,0,0,0-7.22,0A6.9,6.9,0,0,0,750.31,38.28Z" style="fill:#fff"/><path d="M770,27.89h5.07v2.84a8.13,8.13,0,0,1,6.47-3.31,7,7,0,0,1,3.46.82,6.36,6.36,0,0,1,2.41,2.49,9.66,9.66,0,0,1,3-2.49,7.37,7.37,0,0,1,3.39-.82,7.54,7.54,0,0,1,3.87.93A5.71,5.71,0,0,1,800,31.08a11.78,11.78,0,0,1,.57,4.3V48.66h-5.49V36.79q0-3.09-.57-4a2.61,2.61,0,0,0-2.35-1.17,3.74,3.74,0,0,0-2.17.7,3.92,3.92,0,0,0-1.47,2.06,14.89,14.89,0,0,0-.45,4.3v10h-5.49V37.28a16.1,16.1,0,0,0-.29-3.91,2.48,2.48,0,0,0-.91-1.31,2.86,2.86,0,0,0-1.68-.43,4,4,0,0,0-2.28.68,3.76,3.76,0,0,0-1.46,2,14.75,14.75,0,0,0-.44,4.28V48.66H770Z" style="fill:#fff"/><path d="M805.87,27.89H811v3.05a7.75,7.75,0,0,1,2.7-2.54,7.47,7.47,0,0,1,3.78-1,7.92,7.92,0,0,1,6.14,2.84q2.52,2.83,2.52,7.9c0,3.47-.85,6.16-2.54,8.09a7.94,7.94,0,0,1-6.16,2.88,7.07,7.07,0,0,1-3.12-.68,10.45,10.45,0,0,1-2.94-2.35V56.56h-5.5Zm5.44,10a8.06,8.06,0,0,0,1.38,5.18,4.28,4.28,0,0,0,3.39,1.67,4,4,0,0,0,3.19-1.54c.84-1,1.27-2.7,1.27-5a7.51,7.51,0,0,0-1.31-4.85A4.06,4.06,0,0,0,816,31.76a4.2,4.2,0,0,0-3.34,1.56A6.88,6.88,0,0,0,811.31,37.92Z" style="fill:#fff"/><path d="M844.16,48.66V45.55a8,8,0,0,1-3,2.62,8.33,8.33,0,0,1-3.9,1,7.67,7.67,0,0,1-3.76-.92,5.36,5.36,0,0,1-2.4-2.58,11.44,11.44,0,0,1-.75-4.6V27.89h5.5v9.54a26.7,26.7,0,0,0,.3,5.37,2.92,2.92,0,0,0,1.11,1.57,3.41,3.41,0,0,0,2,.57,4.27,4.27,0,0,0,2.52-.77,3.91,3.91,0,0,0,1.53-1.91,22.52,22.52,0,0,0,.41-5.61V27.89h5.49V48.66Z" style="fill:#fff"/><path d="M864.48,27.89v4.38h-3.76v8.37a20.8,20.8,0,0,0,.11,3,1.2,1.2,0,0,0,.49.7,1.57,1.57,0,0,0,.93.27,7.07,7.07,0,0,0,2.21-.52l.47,4.26a10.9,10.9,0,0,1-4.34.82,6.92,6.92,0,0,1-2.68-.5,3.84,3.84,0,0,1-1.75-1.29,5.07,5.07,0,0,1-.77-2.14,26.05,26.05,0,0,1-.18-3.87V32.27h-2.52V27.89h2.52V23.77l5.51-3.21v7.33Z" style="fill:#fff"/><path d="M868.29,25.08V20h5.5v5.09Zm0,23.58V27.89h5.5V48.66Z" style="fill:#fff"/><path d="M898.31,48.66h-5.49V38.06a16,16,0,0,0-.36-4.35,3,3,0,0,0-1.14-1.54,3.3,3.3,0,0,0-1.91-.54,4.42,4.42,0,0,0-2.56.78,4,4,0,0,0-1.55,2.07,17.92,17.92,0,0,0-.42,4.77v9.41h-5.5V27.89h5.11v3.05a8.5,8.5,0,0,1,10.17-2.86,5.45,5.45,0,0,1,2.27,1.67A6,6,0,0,1,898,32.06a17.29,17.29,0,0,1,.3,3.69Z" style="fill:#fff"/><path d="M903.38,50l6.27.76a2.19,2.19,0,0,0,.73,1.51,4.13,4.13,0,0,0,2.46.58,6.41,6.41,0,0,0,3.23-.64,2.64,2.64,0,0,0,1.09-1.39,8.29,8.29,0,0,0,.26-2.52v-3a7.44,7.44,0,0,1-6.22,3.36,7.66,7.66,0,0,1-6.63-3.54,12,12,0,0,1-1.92-7q0-5.22,2.52-8a8.09,8.09,0,0,1,6.25-2.76,7.61,7.61,0,0,1,6.35,3.39V27.89h5.14V46.53a18.7,18.7,0,0,1-.6,5.49,6.83,6.83,0,0,1-1.7,2.86,7.54,7.54,0,0,1-2.93,1.62,15.4,15.4,0,0,1-4.62.59q-5.28,0-7.49-1.81a5.66,5.66,0,0,1-2.21-4.59C903.36,50.51,903.36,50.29,903.38,50Zm4.91-12.18a7.47,7.47,0,0,0,1.28,4.84,4,4,0,0,0,3.15,1.53,4.37,4.37,0,0,0,3.41-1.57A6.91,6.91,0,0,0,917.52,38a7.3,7.3,0,0,0-1.33-4.79,4.24,4.24,0,0,0-3.37-1.56,4.05,4.05,0,0,0-3.25,1.53A7.19,7.19,0,0,0,908.29,37.85Z" style="fill:#fff"/><path d="M929.41,33.39v-5.5h5.49v5.5Zm0,15.27V43.17h5.49v5.49Z" style="fill:#fff"/><path d="M971.2,38.12l5.61,1.78a12.59,12.59,0,0,1-4.29,7,13.51,13.51,0,0,1-17-1.62q-3.68-3.9-3.67-10.67,0-7.16,3.69-11.12a12.69,12.69,0,0,1,9.72-4,11.94,11.94,0,0,1,8.55,3.11,11.37,11.37,0,0,1,2.93,5.28L971,29.26a5.92,5.92,0,0,0-6-4.81,6.49,6.49,0,0,0-5.17,2.29q-2,2.28-2,7.41c0,3.62.65,6.21,2,7.74a6.34,6.34,0,0,0,5.08,2.31,5.79,5.79,0,0,0,4-1.47A8.45,8.45,0,0,0,971.2,38.12Z" style="fill:#fff"/><path d="M987.21,20V30.53a8.22,8.22,0,0,1,9.78-2.4,5.62,5.62,0,0,1,2.3,1.8,6.58,6.58,0,0,1,1.06,2.42,22.57,22.57,0,0,1,.28,4.13V48.66h-5.5v-11a16.27,16.27,0,0,0-.31-4.15,2.81,2.81,0,0,0-1.1-1.4,3.61,3.61,0,0,0-2-.51,4.55,4.55,0,0,0-2.44.66,3.83,3.83,0,0,0-1.58,2,12,12,0,0,0-.5,4v10.4h-5.49V20Z" style="fill:#fff"/><path d="M1006.2,25.08V20h5.5v5.09Zm0,23.58V27.89h5.5V48.66Z" style="fill:#fff"/><path d="M1017.17,27.89h5.13v3.05a7.59,7.59,0,0,1,2.7-2.54,7.44,7.44,0,0,1,3.77-1,7.92,7.92,0,0,1,6.14,2.84q2.52,2.83,2.52,7.9c0,3.47-.84,6.16-2.54,8.09a7.92,7.92,0,0,1-6.16,2.88,7.07,7.07,0,0,1-3.12-.68,10.59,10.59,0,0,1-2.94-2.35V56.56h-5.5Zm5.44,10c0,2.34.46,4.06,1.39,5.18a4.24,4.24,0,0,0,3.38,1.67,4,4,0,0,0,3.19-1.54q1.28-1.53,1.27-5a7.51,7.51,0,0,0-1.31-4.85,4,4,0,0,0-3.24-1.59,4.22,4.22,0,0,0-3.35,1.56A6.88,6.88,0,0,0,1022.61,37.92Z" style="fill:#fff"/><path d="M1077.33,48.66H1071l-2.5-6.51h-11.46l-2.37,6.51h-6.14L1059.73,20h6.12Zm-10.66-11.34-4-10.64-3.87,10.64Z" style="fill:#fff"/><path d="M1085.62,48.66h-5.5V27.89h5.11v2.95a8.77,8.77,0,0,1,2.36-2.75,4.26,4.26,0,0,1,2.37-.67,7,7,0,0,1,3.62,1l-1.7,4.79a4.84,4.84,0,0,0-2.58-.9,3,3,0,0,0-2,.64,4.39,4.39,0,0,0-1.26,2.29,32.44,32.44,0,0,0-.46,7Z" style="fill:#fff"/><path d="M1114.06,34l-5.42,1a3.92,3.92,0,0,0-1.24-2.44,3.77,3.77,0,0,0-2.52-.83,4.12,4.12,0,0,0-3.27,1.42c-.82,1-1.22,2.53-1.22,4.74q0,3.7,1.24,5.23a4.09,4.09,0,0,0,3.33,1.52,3.71,3.71,0,0,0,2.56-.89,5.28,5.28,0,0,0,1.41-3.06l5.4.92a9.55,9.55,0,0,1-3.23,5.61,10,10,0,0,1-6.39,1.9,9.51,9.51,0,0,1-7.27-2.88c-1.8-1.91-2.71-4.56-2.71-8s.91-6.1,2.72-8a9.67,9.67,0,0,1,7.36-2.87,10.09,10.09,0,0,1,6,1.63A9.12,9.12,0,0,1,1114.06,34Z" style="fill:#fff"/><path d="M1123.7,20V30.53a8.22,8.22,0,0,1,9.78-2.4,5.59,5.59,0,0,1,2.29,1.8,6.42,6.42,0,0,1,1.06,2.42,21.69,21.69,0,0,1,.28,4.13V48.66h-5.49v-11a16.1,16.1,0,0,0-.32-4.15,2.71,2.71,0,0,0-1.1-1.4,3.61,3.61,0,0,0-2-.51,4.58,4.58,0,0,0-2.44.66,3.82,3.82,0,0,0-1.57,2,11.74,11.74,0,0,0-.5,4v10.4h-5.5V20Z" style="fill:#fff"/><path d="M1142.69,25.08V20h5.49v5.09Zm0,23.58V27.89h5.49V48.66Z" style="fill:#fff"/><path d="M1163.34,27.89v4.38h-3.76v8.37a20.8,20.8,0,0,0,.11,3,1.15,1.15,0,0,0,.49.7,1.55,1.55,0,0,0,.93.27,7.13,7.13,0,0,0,2.21-.52l.47,4.26a10.9,10.9,0,0,1-4.34.82,6.88,6.88,0,0,1-2.68-.5,3.84,3.84,0,0,1-1.75-1.29,5.07,5.07,0,0,1-.78-2.14,28.12,28.12,0,0,1-.17-3.87V32.27h-2.53V27.89h2.53V23.77l5.51-3.21v7.33Z" style="fill:#fff"/><path d="M1179.18,42.05l5.47.92a9,9,0,0,1-3.33,4.59,9.87,9.87,0,0,1-5.7,1.57c-3.61,0-6.29-1.18-8-3.54a11.89,11.89,0,0,1-2-7.16q0-5.16,2.7-8.08a8.87,8.87,0,0,1,6.82-2.93,9.2,9.2,0,0,1,7.31,3.06q2.68,3.06,2.57,9.38h-13.77a5.53,5.53,0,0,0,1.33,3.8,4.15,4.15,0,0,0,3.17,1.36,3.36,3.36,0,0,0,2.17-.7A4.41,4.41,0,0,0,1179.18,42.05Zm.31-5.55a5.32,5.32,0,0,0-1.23-3.63,4,4,0,0,0-5.83.07,5,5,0,0,0-1.15,3.56Z" style="fill:#fff"/><path d="M1207.53,34l-5.41,1a4,4,0,0,0-1.24-2.44,3.77,3.77,0,0,0-2.52-.83,4.1,4.1,0,0,0-3.27,1.42c-.82,1-1.22,2.53-1.22,4.74q0,3.7,1.24,5.23a4.08,4.08,0,0,0,3.33,1.52,3.71,3.71,0,0,0,2.56-.89,5.28,5.28,0,0,0,1.41-3.06l5.4.92a9.55,9.55,0,0,1-3.23,5.61,10,10,0,0,1-6.39,1.9,9.51,9.51,0,0,1-7.27-2.88c-1.8-1.91-2.71-4.56-2.71-8s.91-6.1,2.72-8a9.65,9.65,0,0,1,7.35-2.87,10.13,10.13,0,0,1,6,1.63A9.05,9.05,0,0,1,1207.53,34Z" style="fill:#fff"/><path d="M1221.22,27.89v4.38h-3.75v8.37a19.24,19.24,0,0,0,.11,3,1.15,1.15,0,0,0,.49.7,1.54,1.54,0,0,0,.92.27,7.07,7.07,0,0,0,2.21-.52l.47,4.26a10.84,10.84,0,0,1-4.34.82,7,7,0,0,1-2.68-.5,3.9,3.9,0,0,1-1.75-1.29,5.07,5.07,0,0,1-.77-2.14,26.05,26.05,0,0,1-.18-3.87V32.27h-2.52V27.89H1212V23.77l5.52-3.21v7.33Z" style="fill:#fff"/><path d="M1238.71,48.66V45.55a8,8,0,0,1-3,2.62,8.33,8.33,0,0,1-3.9,1,7.66,7.66,0,0,1-3.75-.92,5.43,5.43,0,0,1-2.41-2.58,11.64,11.64,0,0,1-.74-4.6V27.89h5.5v9.54a26.7,26.7,0,0,0,.3,5.37,3,3,0,0,0,1.1,1.57,3.46,3.46,0,0,0,2,.57,4.29,4.29,0,0,0,2.52-.77,4,4,0,0,0,1.53-1.91,22.52,22.52,0,0,0,.41-5.61V27.89h5.49V48.66Z" style="fill:#fff"/><path d="M1254.76,48.66h-5.49V27.89h5.1v2.95a8.77,8.77,0,0,1,2.36-2.75,4.26,4.26,0,0,1,2.37-.67,7,7,0,0,1,3.62,1l-1.7,4.79a4.84,4.84,0,0,0-2.58-.9,3,3,0,0,0-2,.64,4.39,4.39,0,0,0-1.26,2.29,33.14,33.14,0,0,0-.46,7Z" style="fill:#fff"/><path d="M1277.11,42.05l5.48.92a9,9,0,0,1-3.33,4.59,9.87,9.87,0,0,1-5.7,1.57q-5.43,0-8-3.54a11.9,11.9,0,0,1-2.06-7.16q0-5.16,2.7-8.08a8.9,8.9,0,0,1,6.83-2.93,9.2,9.2,0,0,1,7.31,3.06q2.68,3.06,2.56,9.38h-13.76a5.53,5.53,0,0,0,1.33,3.8,4.13,4.13,0,0,0,3.16,1.36,3.39,3.39,0,0,0,2.18-.7A4.41,4.41,0,0,0,1277.11,42.05Zm.32-5.55a5.32,5.32,0,0,0-1.23-3.63,4,4,0,0,0-5.83.07,5.09,5.09,0,0,0-1.16,3.56Z" style="fill:#fff"/><path d="M1316.87,38.12l5.62,1.78a12.65,12.65,0,0,1-4.3,7,13.5,13.5,0,0,1-17-1.62q-3.68-3.9-3.68-10.67,0-7.16,3.7-11.12a12.66,12.66,0,0,1,9.72-4,11.93,11.93,0,0,1,8.54,3.11,11.38,11.38,0,0,1,2.94,5.28l-5.73,1.37a5.92,5.92,0,0,0-6-4.81,6.52,6.52,0,0,0-5.17,2.29q-2,2.28-2,7.41c0,3.62.65,6.21,2,7.74a6.36,6.36,0,0,0,5.09,2.31,5.79,5.79,0,0,0,4-1.47A8.5,8.5,0,0,0,1316.87,38.12Z" style="fill:#fff"/><path d="M1326.14,38a11.25,11.25,0,0,1,1.35-5.3,9.26,9.26,0,0,1,3.83-3.91,11.31,11.31,0,0,1,5.52-1.35,10.35,10.35,0,0,1,7.72,3.06,10.58,10.58,0,0,1,3,7.74,10.73,10.73,0,0,1-3,7.81,10.27,10.27,0,0,1-7.66,3.1,12.1,12.1,0,0,1-5.45-1.29,8.86,8.86,0,0,1-3.94-3.79A12.58,12.58,0,0,1,1326.14,38Zm5.63.3a6.87,6.87,0,0,0,1.47,4.73,4.8,4.8,0,0,0,7.23,0,7,7,0,0,0,1.45-4.77,6.87,6.87,0,0,0-1.45-4.7,4.8,4.8,0,0,0-7.23,0A6.9,6.9,0,0,0,1331.77,38.28Z" style="fill:#fff"/><path d="M1351.47,27.89h5.06v2.84a8.13,8.13,0,0,1,6.47-3.31,7.09,7.09,0,0,1,3.47.82,6.34,6.34,0,0,1,2.4,2.49,9.58,9.58,0,0,1,3-2.49,7.3,7.3,0,0,1,3.38-.82,7.54,7.54,0,0,1,3.87.93,5.73,5.73,0,0,1,2.37,2.73,12.05,12.05,0,0,1,.56,4.3V48.66h-5.49V36.79q0-3.09-.57-4a2.61,2.61,0,0,0-2.35-1.17,3.74,3.74,0,0,0-2.17.7,4,4,0,0,0-1.46,2.06,14.89,14.89,0,0,0-.45,4.3v10H1364V37.28a16.1,16.1,0,0,0-.29-3.91,2.48,2.48,0,0,0-.91-1.31,2.85,2.85,0,0,0-1.67-.43,4.05,4.05,0,0,0-2.29.68,3.81,3.81,0,0,0-1.46,2,14.75,14.75,0,0,0-.44,4.28V48.66h-5.49Z" style="fill:#fff"/><path d="M1387.33,27.89h5.13v3.05a7.59,7.59,0,0,1,2.7-2.54,7.44,7.44,0,0,1,3.77-1,7.92,7.92,0,0,1,6.14,2.84q2.52,2.83,2.52,7.9c0,3.47-.84,6.16-2.54,8.09a7.92,7.92,0,0,1-6.16,2.88,7.07,7.07,0,0,1-3.12-.68,10.59,10.59,0,0,1-2.94-2.35V56.56h-5.5Zm5.44,10c0,2.34.46,4.06,1.39,5.18a4.24,4.24,0,0,0,3.38,1.67,4,4,0,0,0,3.19-1.54q1.27-1.53,1.27-5a7.51,7.51,0,0,0-1.31-4.85,4.05,4.05,0,0,0-3.25-1.59,4.21,4.21,0,0,0-3.34,1.56A6.88,6.88,0,0,0,1392.77,37.92Z" style="fill:#fff"/><path d="M1416.06,34.23l-5-.9a7.69,7.69,0,0,1,2.89-4.46q2.05-1.46,6.1-1.45a13.18,13.18,0,0,1,5.48.87,5.47,5.47,0,0,1,2.53,2.21,11.37,11.37,0,0,1,.73,4.92l-.06,6.42a21.67,21.67,0,0,0,.27,4,11.55,11.55,0,0,0,1,2.79h-5.43c-.15-.36-.32-.91-.53-1.62-.09-.33-.16-.54-.2-.65a9.92,9.92,0,0,1-3,2.06,8.73,8.73,0,0,1-3.42.68,7.06,7.06,0,0,1-5.05-1.74,5.76,5.76,0,0,1-1.85-4.4,5.93,5.93,0,0,1,.84-3.14,5.44,5.44,0,0,1,2.36-2.11,17.89,17.89,0,0,1,4.37-1.28,30.83,30.83,0,0,0,5.34-1.35v-.55a2.85,2.85,0,0,0-.79-2.26,4.67,4.67,0,0,0-3-.67,4,4,0,0,0-2.29.57A4,4,0,0,0,1416.06,34.23Zm7.36,4.46c-.71.23-1.82.51-3.35.84a9.62,9.62,0,0,0-3,1,2.27,2.27,0,0,0-1.08,1.93,2.72,2.72,0,0,0,.86,2,3,3,0,0,0,2.19.84,4.79,4.79,0,0,0,2.84-1,3.48,3.48,0,0,0,1.31-1.82,11,11,0,0,0,.22-2.68Z" style="fill:#fff"/><path d="M1439.49,48.66H1434V27.89h5.11v2.95a8.77,8.77,0,0,1,2.36-2.75,4.24,4.24,0,0,1,2.37-.67,7,7,0,0,1,3.62,1l-1.7,4.79a4.84,4.84,0,0,0-2.58-.9,3,3,0,0,0-2,.64,4.39,4.39,0,0,0-1.26,2.29,32.44,32.44,0,0,0-.46,7Z" style="fill:#fff"/><path d="M1449.82,25.08V20h5.49v5.09Zm0,23.58V27.89h5.49V48.66Z" style="fill:#fff"/><path d="M1459,42.73l5.51-.84a4.08,4.08,0,0,0,1.43,2.44,4.85,4.85,0,0,0,3,.83,5.47,5.47,0,0,0,3.21-.78,1.76,1.76,0,0,0,.72-1.47,1.46,1.46,0,0,0-.39-1,4.37,4.37,0,0,0-1.84-.72q-6.65-1.47-8.43-2.68a5.35,5.35,0,0,1-2.46-4.67,5.77,5.77,0,0,1,2.13-4.54c1.42-1.22,3.63-1.84,6.61-1.84s5,.46,6.34,1.39a7.12,7.12,0,0,1,2.85,4.11l-5.18,1a3.19,3.19,0,0,0-1.26-1.86,4.61,4.61,0,0,0-2.65-.65,6,6,0,0,0-3.11.61,1.3,1.3,0,0,0-.63,1.11,1.23,1.23,0,0,0,.55,1c.5.37,2.21.88,5.13,1.55s5,1.48,6.14,2.44a5.11,5.11,0,0,1,1.72,4.09,6.29,6.29,0,0,1-2.39,4.91q-2.38,2.06-7.06,2.05a11.57,11.57,0,0,1-6.72-1.72A7.94,7.94,0,0,1,1459,42.73Z" style="fill:#fff"/><path d="M1482,38a11.25,11.25,0,0,1,1.35-5.3,9.24,9.24,0,0,1,3.82-3.91,11.34,11.34,0,0,1,5.52-1.35,10.37,10.37,0,0,1,7.73,3.06,10.57,10.57,0,0,1,3,7.74,10.69,10.69,0,0,1-3,7.81,10.27,10.27,0,0,1-7.66,3.1,12,12,0,0,1-5.44-1.29,8.81,8.81,0,0,1-3.94-3.79A12.58,12.58,0,0,1,1482,38Zm5.63.3A6.92,6.92,0,0,0,1489,43a4.69,4.69,0,0,0,3.62,1.64,4.64,4.64,0,0,0,3.61-1.64,7,7,0,0,0,1.46-4.77,6.87,6.87,0,0,0-1.46-4.7,4.64,4.64,0,0,0-3.61-1.64,4.69,4.69,0,0,0-3.62,1.64A7,7,0,0,0,1487.58,38.28Z" style="fill:#fff"/><path d="M1526.57,48.66h-5.49V38.06a16.63,16.63,0,0,0-.35-4.35,3.11,3.11,0,0,0-1.15-1.54,3.29,3.29,0,0,0-1.9-.54,4.43,4.43,0,0,0-2.57.78,4,4,0,0,0-1.55,2.07,17.92,17.92,0,0,0-.42,4.77v9.41h-5.5V27.89h5.11v3.05a8.5,8.5,0,0,1,10.17-2.86,5.56,5.56,0,0,1,2.28,1.67,6.12,6.12,0,0,1,1.07,2.31,17.29,17.29,0,0,1,.3,3.69Z" style="fill:#fff"/></g><g id="b100248b-6067-4096-a78e-da4547f2385b" data-name="NXP"><rect x="1370.89" y="98.72" width="538.19" height="350.45" rx="12.52" style="fill:#2d2d44;stroke:#4a4a6a;stroke-width:2px"/><text transform="translate(1537.95 136.27)" style="isolation:isolate;font-size:25.031909942626953px;fill:#fff;font-family:Arial-BoldMT, Arial;font-weight:700">NX<tspan x="34.77" y="0" style="letter-spacing:-0.018062882078767564em">P</tspan><tspan x="51.02" y="0" xml:space="preserve" style="letter-spacing:-0.00003901270427379603em"> i.MX RT</tspan><tspan x="149.75" y="0" style="letter-spacing:-0.0551639638431476em">1</tspan><tspan x="162.29" y="0" style="letter-spacing:-0.00003901270427379603em">170</tspan></text><text transform="translate(1535.15 161.3)" style="isolation:isolate;font-size:17.522336959838867px;fill:#aaa;font-family:ArialMT, Arial">Dual-Core Real-<tspan x="126.59" y="0" style="letter-spacing:-0.037062069060106236em">T</tspan><tspan x="136.65" y="0">ime MCU</tspan></text><path d="M1402.18,186.34h475.6c3.46,0,6.26,3.12,6.26,7V430.64c0,3.85-2.8,7-6.26,7h-475.6c-3.46,0-6.26-3.13-6.26-7V193.32C1395.92,189.46,1398.72,186.34,1402.18,186.34Z" style="fill:none;stroke:#666;stroke-width:2px"/><rect x="1420.95" y="211.37" width="187.74" height="75.1" rx="6.26" style="fill:#00bcd4;stroke:#00838f;stroke-width:2px"/><text transform="translate(1458.91 242.66)" style="isolation:isolate;font-size:15.019145965576172px;fill:#fff;font-family:Arial-BoldMT, Arial;font-weight:700">ARM Cortex-M7</text><text transform="translate(1497.09 261.43)" style="isolation:isolate;font-size:12.515954971313477px;fill:#fff;font-family:ArialMT, Arial">1 GHz</text><text transform="translate(1469.25 280.21)" style="isolation:isolate;font-size:12.515954971313477px;fill:#fff;font-family:ArialMT, Arial">Main<tspan x="27.13" y="0" style="letter-spacing:-0.0551639638431476em"> </tspan><tspan x="29.92" y="0">Application</tspan></text><rect x="1646.24" y="211.37" width="187.74" height="75.1" rx="6.26" style="fill:#f44336;stroke:#c62828;stroke-width:2px"/><text transform="translate(1684.2 242.66)" style="isolation:isolate;font-size:15.019145965576172px;fill:#fff;font-family:Arial-BoldMT, Arial;font-weight:700">ARM Cortex-M4</text><text transform="translate(1715.07 261.43)" style="isolation:isolate;font-size:12.515954971313477px;fill:#fff;font-family:ArialMT, Arial">400 MHz</text><text transform="translate(1693.86 280.21)" style="isolation:isolate;font-size:12.515954971313477px;fill:#fff;font-family:ArialMT, Arial">Real-<tspan x="29.91" y="0" style="letter-spacing:-0.03714009446865382em">T</tspan><tspan x="37.09" y="0">ime</tspan><tspan x="57.26" y="0" style="letter-spacing:-0.018101894783041358em"> </tspan><tspan x="60.51" y="0" style="letter-spacing:-0.11087410554612834em">T</tspan><tspan x="66.77" y="0">asks</tspan></text><line x1="1608.69" y1="248.91" x2="1646.24" y2="248.91" style="fill:none;stroke:#ffeb3b;stroke-width:3px"/><text transform="translate(1617.73 242.66)" style="isolation:isolate;font-size:12.515954971313477px;fill:#ffeb3b;font-family:Arial-BoldMT, Arial;font-weight:700">MU</text><rect x="1471.01" y="305.24" width="337.93" height="31.29" rx="3.75" style="fill:#3d2d44;stroke:#6a4a6a"/><text transform="translate(1544.34 324.01)" style="isolation:isolate;font-size:12.515954971313477px;fill:#ffeb3b;font-family:Arial-BoldMT, Arial;font-weight:700">Shared Memory and Peripherals</text><text transform="translate(1408.43 367.82)" style="isolation:isolate;font-size:15.019145965576172px;fill:#ffeb3b;font-family:Arial-BoldMT, Arial;font-weight:700">M7 (Main Core):</text><text transform="translate(1408.43 386.59)" style="isolation:isolate;font-size:13.767550468444824px;fill:#fff;font-family:ArialMT, Arial">• Graphics and UI</text><text transform="translate(1408.43 405.36)" style="isolation:isolate;font-size:13.767550468444824px;fill:#fff;font-family:ArialMT, Arial">• Complex algorithms</text><text transform="translate(1408.43 424.14)" style="isolation:isolate;font-size:13.767550468444824px;fill:#fff;font-family:ArialMT, Arial">• Communication</text><text transform="translate(1658.75 367.82)" style="isolation:isolate;font-size:15.019145965576172px;fill:#ffeb3b;font-family:Arial-BoldMT, Arial;font-weight:700">M4 (Real-<tspan x="66.76" y="0" style="letter-spacing:-0.018010865139735835em">T</tspan><tspan x="75.67" y="0">ime):</tspan></text><text transform="translate(1658.75 386.59)" style="isolation:isolate;font-size:13.767550468444824px;fill:#fff;font-family:ArialMT, Arial">• Motor control</text><text transform="translate(1658.75 405.36)" style="isolation:isolate;font-size:13.767550468444824px;fill:#fff;font-family:ArialMT, Arial">•<tspan x="4.82" y="0" style="letter-spacing:-0.018087708345123615em"> </tspan><tspan x="8.4" y="0" style="letter-spacing:-0.037168467344489316em">T</tspan><tspan x="16.29" y="0">ime-critical I/O</tspan></text><text transform="translate(1658.75 424.14)" style="isolation:isolate;font-size:13.767550468444824px;fill:#fff;font-family:ArialMT, Arial">• Safety functions</text></g><g id="fac2d3cd-6f61-4b13-b80c-390e8f9cce43" data-name="TI"><path d="M708,98.72h622.54a12.76,12.76,0,0,1,13,12.52V436.65a12.75,12.75,0,0,1-13,12.52H708a12.75,12.75,0,0,1-13-12.52V111.24A12.76,12.76,0,0,1,708,98.72Z" style="fill:#2d2d44;stroke:#4a4a6a;stroke-width:2px"/><text transform="translate(843.32 136.27)" style="isolation:isolate;font-size:25.031909942626953px;fill:#fff;font-family:Arial-BoldMT, Arial;font-weight:700"><tspan style="letter-spacing:-0.07420216352876007em">T</tspan><tspan x="13.43" y="0">exas Instruments TDA4VM</tspan></text><text transform="translate(845.43 161.3)" style="isolation:isolate;font-size:17.522336959838867px;fill:#aaa;font-family:ArialMT, Arial">Automotive<tspan x="87.65" y="0" style="letter-spacing:-0.05517511033008297em"> </tspan><tspan x="91.56" y="0">AI and </tspan><tspan x="147.08" y="0" style="letter-spacing:-0.01805730883529988em">V</tspan><tspan x="158.45" y="0">ision Processing SoC</tspan></text><path d="M726.71,186.34h598.62a6.46,6.46,0,0,1,6.65,6.25V405.36a6.46,6.46,0,0,1-6.65,6.26H726.71a6.46,6.46,0,0,1-6.65-6.26V192.59A6.46,6.46,0,0,1,726.71,186.34Z" style="fill:none;stroke:#666;stroke-width:2px"/><rect x="745.09" y="211.37" width="125.16" height="62.58" rx="3.75" style="fill:#9c27b0;stroke:#6a1b9a;stroke-width:2px"/><text transform="translate(793.89 236.4)" style="isolation:isolate;font-size:15.019145965576172px;fill:#fff;font-family:Arial-BoldMT, Arial;font-weight:700">A72</text><text transform="translate(774.62 255.17)" style="isolation:isolate;font-size:12.515954971313477px;fill:#fff;font-family:ArialMT, Arial">2GHz Quad</text><rect x="895.28" y="211.37" width="100.13" height="62.58" rx="3.75" style="fill:#ff9800;stroke:#e65100;stroke-width:2px"/><text transform="translate(909.87 236.4)" style="isolation:isolate;font-size:15.019145965576172px;fill:#fff;font-family:Arial-BoldMT, Arial;font-weight:700">C66x DS<tspan x="60.94" y="0" style="letter-spacing:-0.018075886313525497em">P</tspan></text><text transform="translate(920.65 255.17)" style="isolation:isolate;font-size:12.515954971313477px;fill:#fff;font-family:ArialMT, Arial">1.35GHz</text><rect x="1020.44" y="211.37" width="100.13" height="62.58" rx="3.75" style="fill:#ff9800;stroke:#e65100;stroke-width:2px"/><text transform="translate(1039.2 236.4)" style="isolation:isolate;font-size:15.019145965576172px;fill:#fff;font-family:Arial-BoldMT, Arial;font-weight:700">C7x DS<tspan x="52.59" y="0" style="letter-spacing:-0.018075886313525497em">P</tspan></text><text transform="translate(1054.16 255.17)" style="isolation:isolate;font-size:12.515954971313477px;fill:#fff;font-family:ArialMT, Arial">AI/M<tspan x="25.73" y="0" style="letter-spacing:-0.03714009446865382em">L</tspan></text><rect x="1145.6" y="211.37" width="100.13" height="62.58" rx="3.75" style="fill:#f44336;stroke:#c62828;stroke-width:2px"/><text transform="translate(1180.64 236.4)" style="isolation:isolate;font-size:15.019145965576172px;fill:#fff;font-family:Arial-BoldMT, Arial;font-weight:700">M4F</text><text transform="translate(1168.89 255.17)" style="isolation:isolate;font-size:12.515954971313477px;fill:#fff;font-family:ArialMT, Arial">Real-time</text><line x1="745.09" y1="298.98" x2="1245.73" y2="298.98" style="fill:none;stroke:#ffeb3b;stroke-width:3px"/><text transform="translate(907.79 317.75)" style="isolation:isolate;font-size:12.515954971313477px;fill:#ffeb3b;font-family:Arial-BoldMT, Arial;font-weight:700">High-Speed Interconnect Bus</text><text transform="translate(732.57 349.04)" style="isolation:isolate;font-size:13.767550468444824px;fill:#fff;font-family:ArialMT, Arial">A72: OS,<tspan x="55.86" y="0" style="letter-spacing:-0.05518524350002421em"> </tspan><tspan x="58.93" y="0">Applications</tspan></text><text transform="translate(882.76 349.04)" style="isolation:isolate;font-size:13.767550468444824px;fill:#fff;font-family:ArialMT, Arial">C66x: Signal Processing</text><text transform="translate(1045.47 349.04)" style="isolation:isolate;font-size:13.767550468444824px;fill:#fff;font-family:ArialMT, Arial">C7x:<tspan x="28.31" y="0" style="letter-spacing:-0.05518524350002421em"> </tspan><tspan x="31.37" y="0">AI/M</tspan><tspan x="59.67" y="0" style="letter-spacing:-0.03709753515490059em">L</tspan><tspan x="66.82" y="0" xml:space="preserve"> Inference</tspan></text><text transform="translate(1195.66 349.04)" style="isolation:isolate;font-size:13.767550468444824px;fill:#fff;font-family:ArialMT, Arial">M4: Safet<tspan x="58.92" y="0" style="letter-spacing:-0.07419507030980119em">y</tspan><tspan x="64.78" y="0">, Real-time</tspan></text><text transform="translate(732.57 374.08)" style="isolation:isolate;font-size:13.767550468444824px;fill:#4caf50;font-family:Arial-BoldMT, Arial;font-weight:700">Use Cases:<tspan x="74.24" y="0" style="letter-spacing:-0.03709753515490059em"> </tspan><tspan x="77.55" y="0">ADAS,</tspan><tspan x="120.39" y="0" style="letter-spacing:-0.037168467344489316em"> </tspan><tspan x="123.7" y="0">Autonomous Driving, Industrial </tspan><tspan x="333.27" y="0" style="letter-spacing:-0.018087708345123615em">V</tspan><tspan x="342.21" y="0">ision</tspan></text><text transform="translate(732.57 392.85)" style="isolation:isolate;font-size:13.767550468444824px;fill:#4caf50;font-family:Arial-BoldMT, Arial;font-weight:700">Performance: 8 <tspan x="104.06" y="0" style="letter-spacing:-0.018087708345123615em">T</tspan><tspan x="112.22" y="0" style="letter-spacing:-0.00007093218958872007em">OPS</tspan><tspan x="141.3" y="0" style="letter-spacing:-0.03709753515490059em"> </tspan><tspan x="144.61" y="0">AI, 1000+ GOPS DS</tspan><tspan x="271.26" y="0" style="letter-spacing:-0.018087708345123615em">P</tspan></text></g><g id="b30fea3f-9ba3-4375-bab4-a4cb899f3b21" data-name="NRF"><rect x="31.68" y="98.72" width="600.77" height="350.45" rx="12.52" style="fill:#2d2d44;stroke:#4a4a6a;stroke-width:2px"/><text transform="translate(140.8 136.27)" style="isolation:isolate;font-size:25.031909942626953px;fill:#fff;font-family:Arial-BoldMT, Arial;font-weight:700">Nordic Semiconductor NRF5340</text><text transform="translate(220.05 161.3)" style="isolation:isolate;font-size:17.522336959838867px;fill:#aaa;font-family:ArialMT, Arial">Dual-Core Bluetooth LE SoC</text><rect x="56.71" y="186.34" width="550.7" height="225.29" rx="6.26" style="fill:none;stroke:#666;stroke-width:2px"/><rect x="81.74" y="211.37" width="225.29" height="87.61" rx="6.26" style="fill:#4caf50;stroke:#2e7d32;stroke-width:2px"/><text transform="translate(134.31 242.66)" style="isolation:isolate;font-size:15.019145965576172px;fill:#fff;font-family:Arial-BoldMT, Arial;font-weight:700">Application Core</text><text transform="translate(146.05 261.43)" style="isolation:isolate;font-size:12.515954971313477px;fill:#fff;font-family:ArialMT, Arial">ARM Cortex-M33</text><text transform="translate(131.44 280.21)" style="isolation:isolate;font-size:12.515954971313477px;fill:#fff;font-family:ArialMT, Arial">128 MHz, 512KB RAM</text><rect x="357.09" y="211.37" width="225.29" height="87.61" rx="6.26" style="fill:#2196f3;stroke:#1565c0;stroke-width:2px"/><text transform="translate(420.92 242.66)" style="isolation:isolate;font-size:15.019145965576172px;fill:#fff;font-family:Arial-BoldMT, Arial;font-weight:700">Network Core</text><text transform="translate(421.4 261.43)" style="isolation:isolate;font-size:12.515954971313477px;fill:#fff;font-family:ArialMT, Arial">ARM Cortex-M33</text><text transform="translate(413.75 280.21)" style="isolation:isolate;font-size:12.515954971313477px;fill:#fff;font-family:ArialMT, Arial">64 MHz, 64KB RAM</text><line x1="307.03" y1="255.17" x2="357.09" y2="255.17" style="fill:none;stroke:#ffeb3b;stroke-width:3px"/><text transform="translate(321.63 248.92)" style="isolation:isolate;font-size:12.515954971313477px;fill:#ffeb3b;font-family:Arial-BoldMT, Arial;font-weight:700">IPC</text><text transform="translate(69.23 336.53)" style="isolation:isolate;font-size:15.019145965576172px;fill:#ffeb3b;font-family:Arial-BoldMT, Arial;font-weight:700">Application Core:</text><text transform="translate(69.23 355.3)" style="isolation:isolate;font-size:13.767550468444824px;fill:#fff;font-family:ArialMT, Arial">• Main application logic</text><text transform="translate(69.23 374.08)" style="isolation:isolate;font-size:13.767550468444824px;fill:#fff;font-family:ArialMT, Arial">• User interface</text><text transform="translate(69.23 392.85)" style="isolation:isolate;font-size:13.767550468444824px;fill:#fff;font-family:ArialMT, Arial">• Sensor processing</text><text transform="translate(344.58 336.53)" style="isolation:isolate;font-size:15.019145965576172px;fill:#ffeb3b;font-family:Arial-BoldMT, Arial;font-weight:700">Network Core:</text><text transform="translate(344.58 355.3)" style="isolation:isolate;font-size:13.767550468444824px;fill:#fff;font-family:ArialMT, Arial">• Bluetooth LE protocol</text><text transform="translate(344.58 374.08)" style="isolation:isolate;font-size:13.767550468444824px;fill:#fff;font-family:ArialMT, Arial">• Radio management</text><text transform="translate(344.58 392.85)" style="isolation:isolate;font-size:13.767550468444824px;fill:#fff;font-family:ArialMT, Arial">• Network stack</text></g></svg>