<svg id="fb173c43-8830-44c1-983d-f326ecf2da4d" data-name="Layer 1" xmlns="http://www.w3.org/2000/svg" viewBox="0 0 1380.68 810.38"><g style="isolation:isolate"><path d="M429.32,40.81,423.85,17.9h4.74L432,33.64l4.19-15.74h5.5l4,16,3.52-16h4.66l-5.57,22.91h-4.9l-4.57-17.13-4.54,17.13Z" style="fill:#fff"/><path d="M460.62,17.9v8.42a6.59,6.59,0,0,1,7.81-1.92,4.56,4.56,0,0,1,1.84,1.44,5.19,5.19,0,0,1,.84,1.94,17.27,17.27,0,0,1,.23,3.29v9.74H467V32a13.29,13.29,0,0,0-.25-3.31,2.18,2.18,0,0,0-.89-1.12,2.88,2.88,0,0,0-1.58-.41,3.65,3.65,0,0,0-2,.53,3,3,0,0,0-1.26,1.6,9.49,9.49,0,0,0-.4,3.17v8.31h-4.39V17.9Z" style="fill:#fff"/><path d="M479.07,29.28l-4-.72A6.15,6.15,0,0,1,477.4,25a8.47,8.47,0,0,1,4.88-1.16,10.58,10.58,0,0,1,4.37.69,4.4,4.4,0,0,1,2,1.77,9,9,0,0,1,.59,3.93l-.05,5.13a17.83,17.83,0,0,0,.21,3.22,9.68,9.68,0,0,0,.79,2.23h-4.34a12.66,12.66,0,0,1-.42-1.3c-.08-.26-.13-.43-.16-.51a7.94,7.94,0,0,1-2.41,1.64,6.93,6.93,0,0,1-2.73.54,5.65,5.65,0,0,1-4-1.39,4.63,4.63,0,0,1-1.48-3.51,4.7,4.7,0,0,1,.68-2.51,4.29,4.29,0,0,1,1.88-1.69,14.72,14.72,0,0,1,3.49-1A24.69,24.69,0,0,0,485,30v-.44a2.26,2.26,0,0,0-.63-1.8A3.72,3.72,0,0,0,482,27.2a3.14,3.14,0,0,0-1.83.46A3.27,3.27,0,0,0,479.07,29.28ZM485,32.84c-.57.19-1.46.41-2.67.67a8.13,8.13,0,0,0-2.4.77,1.82,1.82,0,0,0-.85,1.54,2.15,2.15,0,0,0,.68,1.6,2.39,2.39,0,0,0,1.75.67,3.83,3.83,0,0,0,2.27-.78,2.8,2.8,0,0,0,1-1.45,9,9,0,0,0,.17-2.15Z" style="fill:#fff"/><path d="M501.2,24.21v3.5h-3V34.4a18.47,18.47,0,0,0,.08,2.37,1,1,0,0,0,.39.55,1.23,1.23,0,0,0,.75.22,5.71,5.71,0,0,0,1.76-.42l.38,3.41a8.91,8.91,0,0,1-3.47.65,5.41,5.41,0,0,1-2.14-.4,3,3,0,0,1-1.4-1,4.08,4.08,0,0,1-.62-1.71,21.85,21.85,0,0,1-.14-3.09V27.71h-2v-3.5h2V20.92l4.41-2.56v5.85Z" style="fill:#fff"/><path d="M513.13,22V17.9h4.4V22Zm0,18.85V24.21h4.4v16.6Z" style="fill:#fff"/><path d="M520.48,36.07l4.4-.67a3.23,3.23,0,0,0,1.15,2,3.85,3.85,0,0,0,2.4.66,4.37,4.37,0,0,0,2.56-.62,1.4,1.4,0,0,0,.58-1.18,1.13,1.13,0,0,0-.31-.82,3.53,3.53,0,0,0-1.47-.58c-3.54-.78-5.79-1.5-6.73-2.14a4.27,4.27,0,0,1-2-3.74,4.62,4.62,0,0,1,1.7-3.62q1.71-1.47,5.28-1.47A9.19,9.19,0,0,1,533.13,25a5.66,5.66,0,0,1,2.29,3.28l-4.14.77a2.62,2.62,0,0,0-1-1.49,3.73,3.73,0,0,0-2.12-.51,4.78,4.78,0,0,0-2.48.48,1,1,0,0,0-.5.89,1,1,0,0,0,.43.8,16.76,16.76,0,0,0,4.1,1.23,12,12,0,0,1,4.9,2A4,4,0,0,1,536,35.62a5,5,0,0,1-1.91,3.92,8.4,8.4,0,0,1-5.64,1.64,9.25,9.25,0,0,1-5.37-1.37A6.33,6.33,0,0,1,520.48,36.07Z" style="fill:#fff"/><path d="M548.76,40.81V17.9h4.62v9h9.07v-9h4.62V40.81h-4.62v-10h-9.07v10Z" style="fill:#fff"/><path d="M581.43,35.53l4.38.73a7.19,7.19,0,0,1-2.67,3.67,7.87,7.87,0,0,1-4.55,1.25c-2.89,0-5-.94-6.41-2.82a9.53,9.53,0,0,1-1.64-5.72,9.14,9.14,0,0,1,2.16-6.46,7.07,7.07,0,0,1,5.45-2.34A7.34,7.34,0,0,1,584,26.28c1.43,1.64,2.11,4.13,2,7.5H575a4.49,4.49,0,0,0,1.06,3,3.33,3.33,0,0,0,2.53,1.08,2.73,2.73,0,0,0,1.74-.56A3.49,3.49,0,0,0,581.43,35.53Zm.25-4.44a4.25,4.25,0,0,0-1-2.9,3.17,3.17,0,0,0-4.66.06,4,4,0,0,0-.92,2.84Z" style="fill:#fff"/><path d="M597.23,24.21v3.5h-3V34.4a18.47,18.47,0,0,0,.08,2.37,1,1,0,0,0,.39.55,1.25,1.25,0,0,0,.75.22,5.71,5.71,0,0,0,1.76-.42l.38,3.41a8.87,8.87,0,0,1-3.47.65,5.41,5.41,0,0,1-2.14-.4,3,3,0,0,1-1.4-1A4.08,4.08,0,0,1,590,38a21.85,21.85,0,0,1-.14-3.09V27.71h-2v-3.5h2V20.92l4.41-2.56v5.85Z" style="fill:#fff"/><path d="M609.88,35.53l4.38.73a7.17,7.17,0,0,1-2.66,3.67A7.93,7.93,0,0,1,607,41.18q-4.32,0-6.41-2.82A9.53,9.53,0,0,1,599,32.64a9.14,9.14,0,0,1,2.16-6.46,7.1,7.1,0,0,1,5.45-2.34,7.38,7.38,0,0,1,5.85,2.44c1.42,1.64,2.11,4.13,2,7.5h-11a4.49,4.49,0,0,0,1.07,3,3.32,3.32,0,0,0,2.53,1.08,2.7,2.7,0,0,0,1.73-.56A3.49,3.49,0,0,0,609.88,35.53Zm.25-4.44a4.2,4.2,0,0,0-1-2.9,3,3,0,0,0-2.28-1,3.06,3.06,0,0,0-2.38,1.05,4,4,0,0,0-.92,2.84Z" style="fill:#fff"/><path d="M622.28,40.81h-4.4V24.21H622v2.36a7.19,7.19,0,0,1,1.89-2.2,3.45,3.45,0,0,1,1.89-.53,5.57,5.57,0,0,1,2.89.83l-1.35,3.83a3.89,3.89,0,0,0-2.07-.72,2.49,2.49,0,0,0-1.56.5,3.53,3.53,0,0,0-1,1.84,26.61,26.61,0,0,0-.36,5.56Z" style="fill:#fff"/><path d="M629.51,32.28A9,9,0,0,1,630.59,28a7.4,7.4,0,0,1,3-3.12,9.07,9.07,0,0,1,4.42-1.08,8.29,8.29,0,0,1,6.17,2.44,8.49,8.49,0,0,1,2.4,6.18,8.55,8.55,0,0,1-2.43,6.25,8.19,8.19,0,0,1-6.11,2.47,9.6,9.6,0,0,1-4.35-1,7.08,7.08,0,0,1-3.15-3A10.07,10.07,0,0,1,629.51,32.28Zm4.5.23a5.48,5.48,0,0,0,1.17,3.78,3.72,3.72,0,0,0,2.89,1.32A3.67,3.67,0,0,0,641,36.29a5.53,5.53,0,0,0,1.17-3.81A5.47,5.47,0,0,0,641,28.73a3.69,3.69,0,0,0-2.88-1.31,3.74,3.74,0,0,0-2.89,1.31A5.52,5.52,0,0,0,634,32.51Z" style="fill:#fff"/><path d="M649.67,41.9l5,.61a1.69,1.69,0,0,0,.58,1.2,3.25,3.25,0,0,0,2,.47,5.2,5.2,0,0,0,2.58-.51,2.16,2.16,0,0,0,.87-1.11,6.6,6.6,0,0,0,.2-2V38.12a5.93,5.93,0,0,1-5,2.69,6.11,6.11,0,0,1-5.3-2.83,9.61,9.61,0,0,1-1.53-5.56q0-4.17,2-6.38a6.45,6.45,0,0,1,5-2.2,6.09,6.09,0,0,1,5.08,2.7V24.21h4.11v14.9a14.94,14.94,0,0,1-.49,4.39,5.55,5.55,0,0,1-1.36,2.28,6,6,0,0,1-2.33,1.29,12.11,12.11,0,0,1-3.7.47c-2.81,0-4.81-.48-6-1.44a4.55,4.55,0,0,1-1.77-3.67C649.65,42.29,649.66,42.11,649.67,41.9Zm3.92-9.73a6,6,0,0,0,1,3.86,3.15,3.15,0,0,0,2.52,1.23A3.48,3.48,0,0,0,659.85,36,5.46,5.46,0,0,0,661,32.28a5.8,5.8,0,0,0-1.06-3.83,3.38,3.38,0,0,0-2.69-1.25,3.23,3.23,0,0,0-2.6,1.23A5.74,5.74,0,0,0,653.59,32.17Z" style="fill:#fff"/><path d="M679.23,35.53l4.37.73a7.17,7.17,0,0,1-2.66,3.67,7.88,7.88,0,0,1-4.56,1.25c-2.88,0-5-.94-6.4-2.82a9.47,9.47,0,0,1-1.64-5.72,9.18,9.18,0,0,1,2.15-6.46A7.11,7.11,0,0,1,676,23.84a7.36,7.36,0,0,1,5.84,2.44c1.43,1.64,2.11,4.13,2.05,7.5h-11a4.44,4.44,0,0,0,1.06,3,3.33,3.33,0,0,0,2.53,1.08,2.73,2.73,0,0,0,1.74-.56A3.56,3.56,0,0,0,679.23,35.53Zm.25-4.44a4.2,4.2,0,0,0-1-2.9,3.16,3.16,0,0,0-4.65.06,4,4,0,0,0-.92,2.84Z" style="fill:#fff"/><path d="M702.51,40.81h-4.39V32.34a13.06,13.06,0,0,0-.28-3.48,2.42,2.42,0,0,0-.92-1.22,2.62,2.62,0,0,0-1.52-.44,3.59,3.59,0,0,0-2,.62,3.16,3.16,0,0,0-1.24,1.66,14.58,14.58,0,0,0-.33,3.81v7.52h-4.4V24.21h4.08v2.44a6.82,6.82,0,0,1,8.13-2.29,4.48,4.48,0,0,1,1.82,1.34,4.87,4.87,0,0,1,.86,1.84,13.87,13.87,0,0,1,.24,3Z" style="fill:#fff"/><path d="M716.57,35.53l4.38.73a7.19,7.19,0,0,1-2.67,3.67,7.87,7.87,0,0,1-4.55,1.25c-2.89,0-5-.94-6.41-2.82a9.53,9.53,0,0,1-1.64-5.72,9.14,9.14,0,0,1,2.16-6.46,7.09,7.09,0,0,1,5.45-2.34,7.34,7.34,0,0,1,5.84,2.44c1.43,1.64,2.11,4.13,2,7.5h-11a4.49,4.49,0,0,0,1.06,3,3.34,3.34,0,0,0,2.54,1.08,2.72,2.72,0,0,0,1.73-.56A3.49,3.49,0,0,0,716.57,35.53Zm.25-4.44a4.25,4.25,0,0,0-1-2.9,3.17,3.17,0,0,0-4.66.06,4,4,0,0,0-.92,2.84Z" style="fill:#fff"/><path d="M723.74,32.28A9,9,0,0,1,724.82,28a7.43,7.43,0,0,1,3.06-3.12,9,9,0,0,1,4.41-1.08,8.27,8.27,0,0,1,6.17,2.44,8.46,8.46,0,0,1,2.41,6.18,8.55,8.55,0,0,1-2.43,6.25,8.21,8.21,0,0,1-6.12,2.47,9.6,9.6,0,0,1-4.35-1,7.08,7.08,0,0,1-3.15-3A10.07,10.07,0,0,1,723.74,32.28Zm4.5.23a5.44,5.44,0,0,0,1.18,3.78,3.81,3.81,0,0,0,5.77,0,5.58,5.58,0,0,0,1.16-3.81,5.52,5.52,0,0,0-1.16-3.75,3.83,3.83,0,0,0-5.77,0A5.47,5.47,0,0,0,728.24,32.51Z" style="fill:#fff"/><path d="M755.23,40.81V38.32a6.44,6.44,0,0,1-2.38,2.1,6.72,6.72,0,0,1-3.12.76,6.06,6.06,0,0,1-3-.73,4.3,4.3,0,0,1-1.92-2.06,9.15,9.15,0,0,1-.6-3.68V24.21h4.39v7.63a20.31,20.31,0,0,0,.25,4.29,2.34,2.34,0,0,0,.88,1.25,2.7,2.7,0,0,0,1.62.46,3.47,3.47,0,0,0,2-.62,3.16,3.16,0,0,0,1.22-1.53,17.69,17.69,0,0,0,.33-4.48v-7h4.39v16.6Z" style="fill:#fff"/><path d="M762.31,36.07l4.4-.67a3.27,3.27,0,0,0,1.14,2,3.9,3.9,0,0,0,2.41.66,4.39,4.39,0,0,0,2.56-.62,1.4,1.4,0,0,0,.58-1.18,1.13,1.13,0,0,0-.31-.82,3.53,3.53,0,0,0-1.47-.58c-3.54-.78-5.79-1.5-6.74-2.14a4.28,4.28,0,0,1-2-3.74,4.59,4.59,0,0,1,1.7-3.62q1.7-1.47,5.28-1.47A9.19,9.19,0,0,1,775,25a5.61,5.61,0,0,1,2.28,3.28L773.1,29a2.56,2.56,0,0,0-1-1.49A3.75,3.75,0,0,0,770,27a4.82,4.82,0,0,0-2.49.48,1.05,1.05,0,0,0-.5.89,1,1,0,0,0,.44.8,16.6,16.6,0,0,0,4.1,1.23,12.07,12.07,0,0,1,4.9,2,4,4,0,0,1,1.38,3.26,5,5,0,0,1-1.91,3.92,8.4,8.4,0,0,1-5.64,1.64,9.25,9.25,0,0,1-5.37-1.37A6.29,6.29,0,0,1,762.31,36.07Z" style="fill:#fff"/><path d="M805.23,32.39l4.48,1.42a10,10,0,0,1-3.43,5.57,10.78,10.78,0,0,1-13.58-1.3q-2.94-3.12-2.94-8.52c0-3.81,1-6.78,3-8.88a10.14,10.14,0,0,1,7.77-3.17A9.52,9.52,0,0,1,807.31,20a9,9,0,0,1,2.34,4.21l-4.58,1.1a4.8,4.8,0,0,0-1.69-2.81,4.87,4.87,0,0,0-3.14-1,5.22,5.22,0,0,0-4.13,1.83c-1.06,1.22-1.58,3.2-1.58,5.92q0,4.35,1.56,6.19a5.06,5.06,0,0,0,4.06,1.85,4.58,4.58,0,0,0,3.17-1.18A6.81,6.81,0,0,0,805.23,32.39Z" style="fill:#fff"/><path d="M812.63,32.28A9,9,0,0,1,813.71,28a7.43,7.43,0,0,1,3.06-3.12,9,9,0,0,1,4.41-1.08,8.27,8.27,0,0,1,6.17,2.44,8.46,8.46,0,0,1,2.41,6.18,8.55,8.55,0,0,1-2.43,6.25,8.21,8.21,0,0,1-6.12,2.47,9.6,9.6,0,0,1-4.35-1,7.08,7.08,0,0,1-3.15-3A10.07,10.07,0,0,1,812.63,32.28Zm4.5.23a5.49,5.49,0,0,0,1.18,3.78,3.81,3.81,0,0,0,5.77,0,5.53,5.53,0,0,0,1.16-3.81,5.47,5.47,0,0,0-1.16-3.75,3.83,3.83,0,0,0-5.77,0A5.52,5.52,0,0,0,817.13,32.51Z" style="fill:#fff"/><path d="M832.87,24.21h4v2.27a6.5,6.5,0,0,1,5.17-2.64,5.53,5.53,0,0,1,2.76.66,5,5,0,0,1,1.93,2,7.53,7.53,0,0,1,2.35-2,5.8,5.8,0,0,1,2.71-.66,6,6,0,0,1,3.09.74,4.5,4.5,0,0,1,1.89,2.18,9.5,9.5,0,0,1,.46,3.44V40.81h-4.4V31.32a7.08,7.08,0,0,0-.45-3.18,2.06,2.06,0,0,0-1.87-.94,3,3,0,0,0-1.74.56,3.17,3.17,0,0,0-1.17,1.65,11.84,11.84,0,0,0-.36,3.43v8H842.9v-9.1a13,13,0,0,0-.23-3.12,2,2,0,0,0-.73-1.05,2.29,2.29,0,0,0-1.34-.34,3.15,3.15,0,0,0-1.82.55,3,3,0,0,0-1.17,1.57,12,12,0,0,0-.35,3.43v8.06h-4.39Z" style="fill:#fff"/><path d="M861.53,24.21h4.09v2.44a6.11,6.11,0,0,1,2.16-2,5.92,5.92,0,0,1,3-.78,6.34,6.34,0,0,1,4.91,2.27,9.18,9.18,0,0,1,2,6.31,9.47,9.47,0,0,1-2,6.46,6.3,6.3,0,0,1-4.92,2.3,5.62,5.62,0,0,1-2.49-.54,8.33,8.33,0,0,1-2.35-1.88v8.36h-4.39Zm4.34,8A6.37,6.37,0,0,0,867,36.36a3.4,3.4,0,0,0,2.7,1.34,3.18,3.18,0,0,0,2.55-1.23,6.31,6.31,0,0,0,1-4,6.07,6.07,0,0,0-1-3.88,3.26,3.26,0,0,0-2.6-1.26,3.36,3.36,0,0,0-2.67,1.24A5.53,5.53,0,0,0,865.87,32.23Z" style="fill:#fff"/><path d="M892.12,40.81V38.32a6.44,6.44,0,0,1-2.38,2.1,6.72,6.72,0,0,1-3.12.76,6.06,6.06,0,0,1-3-.73,4.3,4.3,0,0,1-1.92-2.06,9.15,9.15,0,0,1-.6-3.68V24.21h4.39v7.63a20.31,20.31,0,0,0,.25,4.29,2.34,2.34,0,0,0,.88,1.25,2.7,2.7,0,0,0,1.62.46,3.47,3.47,0,0,0,2-.62,3.16,3.16,0,0,0,1.22-1.53,17.69,17.69,0,0,0,.33-4.48v-7h4.39v16.6Z" style="fill:#fff"/><path d="M908.35,24.21v3.5h-3V34.4a15.84,15.84,0,0,0,.09,2.37,1,1,0,0,0,.39.55,1.2,1.2,0,0,0,.74.22,5.69,5.69,0,0,0,1.77-.42l.37,3.41a8.87,8.87,0,0,1-3.47.65,5.44,5.44,0,0,1-2.14-.4,3.08,3.08,0,0,1-1.4-1,4.08,4.08,0,0,1-.61-1.71A20.37,20.37,0,0,1,901,35V27.71h-2v-3.5h2V20.92l4.4-2.56v5.85Z" style="fill:#fff"/><path d="M911.4,22V17.9h4.39V22Zm0,18.85V24.21h4.39v16.6Z" style="fill:#fff"/><path d="M935.38,40.81H931V32.34a13.06,13.06,0,0,0-.28-3.48,2.4,2.4,0,0,0-.91-1.22,2.62,2.62,0,0,0-1.52-.44,3.54,3.54,0,0,0-2,.62A3.11,3.11,0,0,0,925,29.48a14,14,0,0,0-.34,3.81v7.52h-4.39V24.21h4.08v2.44a6.64,6.64,0,0,1,5.47-2.81,6.53,6.53,0,0,1,2.65.52,4.48,4.48,0,0,1,1.82,1.34,4.87,4.87,0,0,1,.86,1.84,13.87,13.87,0,0,1,.24,3Z" style="fill:#fff"/><path d="M939.43,41.9l5,.61a1.65,1.65,0,0,0,.58,1.2,3.22,3.22,0,0,0,2,.47,5.15,5.15,0,0,0,2.58-.51,2.13,2.13,0,0,0,.88-1.11,6.94,6.94,0,0,0,.2-2V38.12a6,6,0,0,1-5,2.69,6.12,6.12,0,0,1-5.3-2.83,9.61,9.61,0,0,1-1.53-5.56q0-4.17,2-6.38a6.47,6.47,0,0,1,5-2.2,6.07,6.07,0,0,1,5.08,2.7V24.21H955v14.9a15,15,0,0,1-.48,4.39,5.66,5.66,0,0,1-1.36,2.28,6.1,6.1,0,0,1-2.34,1.29,12,12,0,0,1-3.69.47c-2.82,0-4.81-.48-6-1.44a4.54,4.54,0,0,1-1.76-3.67C939.42,42.29,939.42,42.11,939.43,41.9Zm3.92-9.73a5.9,5.9,0,0,0,1,3.86,3.15,3.15,0,0,0,2.52,1.23A3.49,3.49,0,0,0,949.62,36a5.46,5.46,0,0,0,1.11-3.72,5.86,5.86,0,0,0-1.06-3.83A3.4,3.4,0,0,0,947,27.2a3.23,3.23,0,0,0-2.6,1.23A5.68,5.68,0,0,0,943.35,32.17Z" style="fill:#fff"/><path d="M968.82,34.9h-4c0-.57,0-.92,0-1a6.91,6.91,0,0,1,.64-3.19A9.57,9.57,0,0,1,968,27.86a20,20,0,0,0,2.29-2.05,2.71,2.71,0,0,0,.58-1.69,2.83,2.83,0,0,0-1-2.19,4,4,0,0,0-2.76-.92,4.2,4.2,0,0,0-2.8.95,5.09,5.09,0,0,0-1.54,2.91l-4-.5a6.7,6.7,0,0,1,2.39-4.75,8.43,8.43,0,0,1,5.8-1.95,8.8,8.8,0,0,1,6,2,6,6,0,0,1,2.23,4.61,5.07,5.07,0,0,1-.82,2.75,18.32,18.32,0,0,1-3.51,3.53,6.67,6.67,0,0,0-1.72,1.86A6.09,6.09,0,0,0,968.82,34.9Zm-4,5.91V36.42h4.39v4.39Z" style="fill:#fff"/></g><g style="isolation:isolate"><path d="M409.17,75.81V58.63h5.19l3.11,11.72,3.09-11.72h5.2V75.81h-3.22V62.28l-3.41,13.53h-3.34l-3.4-13.53V75.81Z" style="fill:#fff"/><path d="M437.37,75.81V73.94a4.85,4.85,0,0,1-1.78,1.58,5.05,5.05,0,0,1-2.34.57,4.52,4.52,0,0,1-2.25-.55A3.18,3.18,0,0,1,429.56,74a6.81,6.81,0,0,1-.45-2.75V63.36h3.29v5.72a15,15,0,0,0,.19,3.22,1.77,1.77,0,0,0,.66.94,2,2,0,0,0,1.22.34,2.59,2.59,0,0,0,1.51-.46,2.35,2.35,0,0,0,.91-1.15,13,13,0,0,0,.25-3.36V63.36h3.29V75.81Z" style="fill:#fff"/><path d="M443.84,75.81V58.63h3.29V75.81Z" style="fill:#fff"/><path d="M456.22,63.36V66H454v5a13.46,13.46,0,0,0,.06,1.78.67.67,0,0,0,.29.41,1,1,0,0,0,.56.17A4.21,4.21,0,0,0,456.2,73l.29,2.56a6.57,6.57,0,0,1-2.61.49,4.11,4.11,0,0,1-1.6-.3,2.36,2.36,0,0,1-1-.77,3.05,3.05,0,0,1-.46-1.29,15.7,15.7,0,0,1-.11-2.32V66h-1.51V63.36h1.51V60.89L454,59v4.39Z" style="fill:#fff"/><path d="M458.5,61.68v-3h3.29v3Zm0,14.13V63.36h3.29V75.81Z" style="fill:#fff"/><path d="M465.08,63.36h3.07v1.83A4.59,4.59,0,0,1,472,63.08a4.73,4.73,0,0,1,3.67,1.7,6.87,6.87,0,0,1,1.52,4.74,7.06,7.06,0,0,1-1.53,4.84A4.74,4.74,0,0,1,472,76.09a4.24,4.24,0,0,1-1.87-.41,6.16,6.16,0,0,1-1.76-1.41v6.27h-3.29Zm3.25,6a4.74,4.74,0,0,0,.84,3.1,2.54,2.54,0,0,0,2,1,2.37,2.37,0,0,0,1.91-.92,4.74,4.74,0,0,0,.77-3,4.53,4.53,0,0,0-.79-2.91,2.43,2.43,0,0,0-1.95-.95,2.53,2.53,0,0,0-2,.93A4.19,4.19,0,0,0,468.33,69.37Z" style="fill:#fff"/><path d="M479.83,75.81V58.63h3.29V75.81Z" style="fill:#fff"/><path d="M493.7,71.85l3.29.55a5.46,5.46,0,0,1-2,2.75,5.94,5.94,0,0,1-3.42.94,5.57,5.57,0,0,1-4.8-2.12,7.12,7.12,0,0,1-1.23-4.29,6.93,6.93,0,0,1,1.61-4.85,5.37,5.37,0,0,1,4.09-1.75,5.51,5.51,0,0,1,4.39,1.84q1.61,1.83,1.53,5.61h-8.25a3.34,3.34,0,0,0,.8,2.28,2.48,2.48,0,0,0,1.9.82,2,2,0,0,0,1.3-.42A2.56,2.56,0,0,0,493.7,71.85Zm.19-3.33a3.13,3.13,0,0,0-.74-2.17,2.23,2.23,0,0,0-1.71-.75,2.27,2.27,0,0,0-1.78.79,3,3,0,0,0-.69,2.13Z" style="fill:#fff"/><path d="M517.37,67l-3.25.59a2.36,2.36,0,0,0-.75-1.47,2.26,2.26,0,0,0-1.5-.49,2.43,2.43,0,0,0-2,.85,4.34,4.34,0,0,0-.74,2.84,5,5,0,0,0,.75,3.13,2.44,2.44,0,0,0,2,.92,2.2,2.2,0,0,0,1.53-.54,3.13,3.13,0,0,0,.84-1.83l3.24.55A5.78,5.78,0,0,1,515.6,75a6,6,0,0,1-3.84,1.14,5.68,5.68,0,0,1-4.35-1.72,6.69,6.69,0,0,1-1.62-4.77,6.66,6.66,0,0,1,1.63-4.8,5.75,5.75,0,0,1,4.4-1.72,6,6,0,0,1,3.62,1A5.51,5.51,0,0,1,517.37,67Z" style="fill:#fff"/><path d="M519.1,69.41a6.77,6.77,0,0,1,.81-3.18,5.56,5.56,0,0,1,2.29-2.34,6.79,6.79,0,0,1,3.31-.81,6.19,6.19,0,0,1,4.63,1.84,6.33,6.33,0,0,1,1.8,4.63,6.39,6.39,0,0,1-1.82,4.68,6.14,6.14,0,0,1-4.59,1.86,7.27,7.27,0,0,1-3.26-.77,5.34,5.34,0,0,1-2.36-2.27A7.56,7.56,0,0,1,519.1,69.41Zm3.37.18a4.13,4.13,0,0,0,.88,2.83,2.79,2.79,0,0,0,2.17,1,2.76,2.76,0,0,0,2.16-1,4.13,4.13,0,0,0,.88-2.86,4.06,4.06,0,0,0-.88-2.81,2.75,2.75,0,0,0-2.16-1,2.79,2.79,0,0,0-2.17,1A4.16,4.16,0,0,0,522.47,69.59Z" style="fill:#fff"/><path d="M537.67,75.81h-3.29V63.36h3.06v1.77a5.36,5.36,0,0,1,1.41-1.65,2.57,2.57,0,0,1,1.43-.4,4.17,4.17,0,0,1,2.16.62l-1,2.87a2.87,2.87,0,0,0-1.54-.54,1.84,1.84,0,0,0-1.18.39,2.56,2.56,0,0,0-.75,1.37,19.77,19.77,0,0,0-.28,4.17Z" style="fill:#fff"/><path d="M551.07,71.85l3.28.55a5.4,5.4,0,0,1-2,2.75,5.93,5.93,0,0,1-3.41.94A5.58,5.58,0,0,1,544.13,74a7.12,7.12,0,0,1-1.23-4.29,6.88,6.88,0,0,1,1.62-4.85,5.35,5.35,0,0,1,4.09-1.75A5.5,5.5,0,0,1,553,64.92q1.6,1.83,1.54,5.61h-8.25a3.29,3.29,0,0,0,.79,2.28,2.48,2.48,0,0,0,1.9.82,2,2,0,0,0,1.3-.42A2.64,2.64,0,0,0,551.07,71.85Zm.19-3.33a3.18,3.18,0,0,0-.74-2.17,2.36,2.36,0,0,0-3.49,0,3.06,3.06,0,0,0-.7,2.13Z" style="fill:#fff"/><path d="M556.05,72.26l3.3-.51a2.42,2.42,0,0,0,.86,1.46,2.9,2.9,0,0,0,1.8.5,3.29,3.29,0,0,0,1.93-.47,1.07,1.07,0,0,0,.43-.88.86.86,0,0,0-.24-.62,2.65,2.65,0,0,0-1.1-.43,17.72,17.72,0,0,1-5-1.61,3.2,3.2,0,0,1-1.47-2.8,3.46,3.46,0,0,1,1.27-2.72,6,6,0,0,1,4-1.1,7,7,0,0,1,3.8.83,4.27,4.27,0,0,1,1.71,2.46l-3.1.58a1.91,1.91,0,0,0-.76-1.11,2.75,2.75,0,0,0-1.59-.39,3.6,3.6,0,0,0-1.86.36.79.79,0,0,0-.38.67.74.74,0,0,0,.33.6A12,12,0,0,0,563,68a9.11,9.11,0,0,1,3.67,1.47,3,3,0,0,1,1,2.45,3.74,3.74,0,0,1-1.43,2.94A6.32,6.32,0,0,1,562,76.09a6.92,6.92,0,0,1-4-1A4.73,4.73,0,0,1,556.05,72.26Z" style="fill:#fff"/><path d="M588.64,75.81h-3.06V74a5,5,0,0,1-1.8,1.59,4.58,4.58,0,0,1-2.09.52A4.73,4.73,0,0,1,578,74.36a7,7,0,0,1-1.53-4.82A7,7,0,0,1,578,64.73a4.87,4.87,0,0,1,3.77-1.65,4.66,4.66,0,0,1,3.61,1.74V58.63h3.29Zm-8.79-6.49a5.67,5.67,0,0,0,.55,2.88,2.48,2.48,0,0,0,2.23,1.29,2.41,2.41,0,0,0,1.93-1,4.47,4.47,0,0,0,.8-2.89,4.86,4.86,0,0,0-.78-3.09,2.54,2.54,0,0,0-3.94,0A4.2,4.2,0,0,0,579.85,69.32Z" style="fill:#fff"/><path d="M591.12,69.41a6.77,6.77,0,0,1,.81-3.18,5.56,5.56,0,0,1,2.29-2.34,6.79,6.79,0,0,1,3.31-.81,6.18,6.18,0,0,1,4.63,1.84A6.29,6.29,0,0,1,604,69.55a6.4,6.4,0,0,1-1.83,4.68,6.14,6.14,0,0,1-4.58,1.86,7.34,7.34,0,0,1-3.27-.77,5.4,5.4,0,0,1-2.36-2.27A7.56,7.56,0,0,1,591.12,69.41Zm3.38.18a4.08,4.08,0,0,0,.88,2.83,2.86,2.86,0,0,0,4.33,0,4.18,4.18,0,0,0,.87-2.86,4.11,4.11,0,0,0-.87-2.81,2.88,2.88,0,0,0-4.33,0A4.11,4.11,0,0,0,594.5,69.59Z" style="fill:#fff"/><path d="M606.54,61.68v-3h3.3v3Zm0,14.13V63.36h3.3V75.81Z" style="fill:#fff"/><path d="M624.53,75.81h-3.29V69.46a9.83,9.83,0,0,0-.21-2.61,1.8,1.8,0,0,0-.69-.92,1.92,1.92,0,0,0-1.14-.33,2.64,2.64,0,0,0-1.53.47,2.36,2.36,0,0,0-.94,1.24,11.15,11.15,0,0,0-.25,2.86v5.64h-3.29V63.36h3.06v1.83a5.1,5.1,0,0,1,6.09-1.72,3.43,3.43,0,0,1,1.37,1,3.5,3.5,0,0,1,.64,1.38,10.3,10.3,0,0,1,.18,2.21Z" style="fill:#fff"/><path d="M627.57,76.63l3.76.46a1.32,1.32,0,0,0,.43.9,2.54,2.54,0,0,0,1.48.35,3.79,3.79,0,0,0,1.93-.39,1.6,1.6,0,0,0,.66-.83,5.06,5.06,0,0,0,.15-1.51V73.79a4.43,4.43,0,0,1-3.72,2,4.6,4.6,0,0,1-4-2.12,7.26,7.26,0,0,1-1.15-4.17,6.91,6.91,0,0,1,1.51-4.79,4.85,4.85,0,0,1,3.74-1.65,4.57,4.57,0,0,1,3.81,2V63.36h3.09V74.53a11.1,11.1,0,0,1-.37,3.29,4,4,0,0,1-1,1.71,4.53,4.53,0,0,1-1.75,1,9.34,9.34,0,0,1-2.77.35c-2.11,0-3.61-.36-4.49-1.09A3.39,3.39,0,0,1,627.56,77C627.56,76.92,627.56,76.78,627.57,76.63Zm2.94-7.3a4.51,4.51,0,0,0,.77,2.9,2.38,2.38,0,0,0,1.89.92,2.64,2.64,0,0,0,2-1,4.11,4.11,0,0,0,.83-2.79,4.29,4.29,0,0,0-.8-2.87,2.51,2.51,0,0,0-2-.94,2.43,2.43,0,0,0-2,.92A4.32,4.32,0,0,0,630.51,69.33Z" style="fill:#fff"/><path d="M660.62,75.81h-3.06V74a5,5,0,0,1-1.8,1.59,4.58,4.58,0,0,1-2.09.52A4.76,4.76,0,0,1,650,74.36a7,7,0,0,1-1.53-4.82A7,7,0,0,1,650,64.73a4.85,4.85,0,0,1,3.76-1.65,4.65,4.65,0,0,1,3.61,1.74V58.63h3.3Zm-8.79-6.49a5.67,5.67,0,0,0,.55,2.88,2.48,2.48,0,0,0,2.22,1.29,2.42,2.42,0,0,0,1.94-1,4.47,4.47,0,0,0,.79-2.89,4.87,4.87,0,0,0-.77-3.09,2.54,2.54,0,0,0-3.94,0A4.2,4.2,0,0,0,651.83,69.32Z" style="fill:#fff"/><path d="M663.86,61.68v-3h3.29v3Zm0,14.13V63.36h3.29V75.81Z" style="fill:#fff"/><path d="M669.09,63.36h1.83v-.93a6.34,6.34,0,0,1,.33-2.35,2.67,2.67,0,0,1,1.23-1.26,4.77,4.77,0,0,1,2.27-.48,9.17,9.17,0,0,1,2.75.42l-.44,2.29a6.84,6.84,0,0,0-1.52-.18,1.36,1.36,0,0,0-1,.33,1.91,1.91,0,0,0-.31,1.28v.88h2.46V66h-2.46v9.86h-3.29V66h-1.83Z" style="fill:#fff"/><path d="M677.08,63.36h1.83v-.93a6.34,6.34,0,0,1,.33-2.35,2.67,2.67,0,0,1,1.23-1.26,4.8,4.8,0,0,1,2.27-.48,9.13,9.13,0,0,1,2.75.42l-.44,2.29a6.75,6.75,0,0,0-1.51-.18,1.37,1.37,0,0,0-1,.33,1.91,1.91,0,0,0-.31,1.28v.88h2.46V66H682.2v9.86h-3.29V66h-1.83Z" style="fill:#fff"/><path d="M693.72,71.85l3.28.55a5.4,5.4,0,0,1-2,2.75,5.93,5.93,0,0,1-3.41.94A5.58,5.58,0,0,1,686.78,74a7.12,7.12,0,0,1-1.23-4.29,6.88,6.88,0,0,1,1.62-4.85,5.35,5.35,0,0,1,4.09-1.75,5.5,5.5,0,0,1,4.38,1.84q1.61,1.83,1.54,5.61h-8.25a3.34,3.34,0,0,0,.79,2.28,2.49,2.49,0,0,0,1.9.82,2,2,0,0,0,1.3-.42A2.57,2.57,0,0,0,693.72,71.85Zm.19-3.33a3.18,3.18,0,0,0-.74-2.17,2.36,2.36,0,0,0-3.49,0,3,3,0,0,0-.69,2.13Z" style="fill:#fff"/><path d="M703,75.81h-3.29V63.36h3.06v1.77a5.36,5.36,0,0,1,1.41-1.65,2.57,2.57,0,0,1,1.43-.4,4.17,4.17,0,0,1,2.16.62l-1,2.87a2.87,2.87,0,0,0-1.54-.54,1.84,1.84,0,0,0-1.18.39,2.56,2.56,0,0,0-.75,1.37A19.77,19.77,0,0,0,703,72Z" style="fill:#fff"/><path d="M716.41,71.85l3.28.55a5.4,5.4,0,0,1-2,2.75,5.93,5.93,0,0,1-3.41.94A5.58,5.58,0,0,1,709.47,74a7.12,7.12,0,0,1-1.23-4.29,6.88,6.88,0,0,1,1.62-4.85A5.35,5.35,0,0,1,714,63.08a5.5,5.5,0,0,1,4.38,1.84q1.6,1.83,1.54,5.61h-8.25a3.29,3.29,0,0,0,.79,2.28,2.48,2.48,0,0,0,1.9.82,2,2,0,0,0,1.3-.42A2.64,2.64,0,0,0,716.41,71.85Zm.19-3.33a3.18,3.18,0,0,0-.74-2.17,2.36,2.36,0,0,0-3.49,0,3.06,3.06,0,0,0-.7,2.13Z" style="fill:#fff"/><path d="M733.87,75.81h-3.29V69.46a9.83,9.83,0,0,0-.21-2.61,1.85,1.85,0,0,0-.69-.92,2,2,0,0,0-1.14-.33,2.67,2.67,0,0,0-1.54.47,2.39,2.39,0,0,0-.93,1.24,10.7,10.7,0,0,0-.25,2.86v5.64h-3.29V63.36h3.05v1.83a5.12,5.12,0,0,1,6.1-1.72,3.39,3.39,0,0,1,1.36,1,3.52,3.52,0,0,1,.65,1.38,10.3,10.3,0,0,1,.18,2.21Z" style="fill:#fff"/><path d="M742.92,63.36V66h-2.25v5a13.46,13.46,0,0,0,.06,1.78.67.67,0,0,0,.29.41,1,1,0,0,0,.56.17A4.28,4.28,0,0,0,742.9,73l.29,2.56a6.57,6.57,0,0,1-2.61.49,4.07,4.07,0,0,1-1.6-.3,2.36,2.36,0,0,1-1.05-.77,3.05,3.05,0,0,1-.46-1.29,15.7,15.7,0,0,1-.11-2.32V66h-1.51V63.36h1.51V60.89L740.67,59v4.39Z" style="fill:#fff"/><path d="M757.58,63.36V66h-2.25v5a13.46,13.46,0,0,0,.06,1.78.67.67,0,0,0,.29.41,1,1,0,0,0,.56.17,4.28,4.28,0,0,0,1.32-.32l.29,2.56a6.57,6.57,0,0,1-2.61.49,4.11,4.11,0,0,1-1.6-.3,2.36,2.36,0,0,1-1-.77,3.05,3.05,0,0,1-.46-1.29,15.7,15.7,0,0,1-.11-2.32V66h-1.51V63.36H752V60.89L755.33,59v4.39Z" style="fill:#fff"/><path d="M762.32,67.16l-3-.54A4.69,4.69,0,0,1,761.07,64a6.32,6.32,0,0,1,3.65-.87,8.06,8.06,0,0,1,3.29.52,3.28,3.28,0,0,1,1.51,1.33,6.63,6.63,0,0,1,.44,2.94l0,3.85a12.93,12.93,0,0,0,.16,2.42,6.86,6.86,0,0,0,.59,1.67h-3.26c-.09-.22-.19-.54-.32-1-.05-.2-.09-.33-.11-.39a5.94,5.94,0,0,1-1.81,1.23,5.21,5.21,0,0,1-2,.41,4.27,4.27,0,0,1-3-1,3.7,3.7,0,0,1-.6-4.52,3.29,3.29,0,0,1,1.41-1.27,10.9,10.9,0,0,1,2.62-.76,18.14,18.14,0,0,0,3.2-.81v-.33a1.7,1.7,0,0,0-.47-1.35,2.79,2.79,0,0,0-1.77-.41,2.35,2.35,0,0,0-1.37.35A2.42,2.42,0,0,0,762.32,67.16Zm4.41,2.67q-.63.21-2,.51a5.84,5.84,0,0,0-1.79.57,1.36,1.36,0,0,0-.64,1.16,1.64,1.64,0,0,0,.51,1.2,1.84,1.84,0,0,0,1.32.5,2.82,2.82,0,0,0,1.69-.59,2.06,2.06,0,0,0,.79-1.09,6.22,6.22,0,0,0,.13-1.6Z" style="fill:#fff"/><path d="M772.05,72.26l3.3-.51a2.42,2.42,0,0,0,.86,1.46,2.9,2.9,0,0,0,1.8.5,3.29,3.29,0,0,0,1.93-.47,1.07,1.07,0,0,0,.43-.88.86.86,0,0,0-.24-.62,2.65,2.65,0,0,0-1.1-.43,17.72,17.72,0,0,1-5-1.61,3.2,3.2,0,0,1-1.47-2.8,3.46,3.46,0,0,1,1.27-2.72,6,6,0,0,1,4-1.1,7,7,0,0,1,3.8.83,4.27,4.27,0,0,1,1.71,2.46l-3.1.58a1.91,1.91,0,0,0-.76-1.11,2.75,2.75,0,0,0-1.59-.39,3.6,3.6,0,0,0-1.86.36.79.79,0,0,0-.38.67.74.74,0,0,0,.33.6A12,12,0,0,0,779,68a9.11,9.11,0,0,1,3.67,1.47,3,3,0,0,1,1,2.45,3.74,3.74,0,0,1-1.43,2.94A6.32,6.32,0,0,1,778,76.09a6.92,6.92,0,0,1-4-1A4.73,4.73,0,0,1,772.05,72.26Z" style="fill:#fff"/><path d="M786.44,75.81V58.63h3.29v9.12l3.86-4.39h4l-4.25,4.55,4.56,7.9H794.4l-3.13-5.59-1.54,1.6v4Z" style="fill:#fff"/><path d="M798.74,72.26l3.31-.51a2.41,2.41,0,0,0,.85,1.46,2.93,2.93,0,0,0,1.81.5,3.27,3.27,0,0,0,1.92-.47,1,1,0,0,0,.43-.88.85.85,0,0,0-.23-.62,2.65,2.65,0,0,0-1.1-.43,17.6,17.6,0,0,1-5.05-1.61,3.19,3.19,0,0,1-1.48-2.8,3.47,3.47,0,0,1,1.28-2.72,6,6,0,0,1,4-1.1,7,7,0,0,1,3.8.83A4.36,4.36,0,0,1,810,66.37l-3.11.58a1.86,1.86,0,0,0-.75-1.11,2.77,2.77,0,0,0-1.59-.39,3.64,3.64,0,0,0-1.87.36.78.78,0,0,0-.37.67.74.74,0,0,0,.33.6,11.89,11.89,0,0,0,3.07.92,9.17,9.17,0,0,1,3.68,1.47,3,3,0,0,1,1,2.45,3.77,3.77,0,0,1-1.43,2.94,6.32,6.32,0,0,1-4.23,1.23,6.93,6.93,0,0,1-4-1A4.82,4.82,0,0,1,798.74,72.26Z" style="fill:#fff"/><path d="M818.76,72.26l3.3-.51a2.42,2.42,0,0,0,.86,1.46,2.9,2.9,0,0,0,1.8.5,3.29,3.29,0,0,0,1.93-.47,1,1,0,0,0,.43-.88.9.9,0,0,0-.23-.62,2.78,2.78,0,0,0-1.11-.43,17.72,17.72,0,0,1-5-1.61,3.2,3.2,0,0,1-1.47-2.8,3.46,3.46,0,0,1,1.27-2.72,6,6,0,0,1,4-1.1,7,7,0,0,1,3.8.83A4.27,4.27,0,0,1,830,66.37l-3.1.58a1.91,1.91,0,0,0-.76-1.11,2.75,2.75,0,0,0-1.59-.39,3.62,3.62,0,0,0-1.86.36.78.78,0,0,0-.37.67.73.73,0,0,0,.32.6,12.18,12.18,0,0,0,3.08.92,9.11,9.11,0,0,1,3.67,1.47,3,3,0,0,1,1,2.45A3.74,3.74,0,0,1,829,74.86a6.32,6.32,0,0,1-4.23,1.23,6.92,6.92,0,0,1-4-1A4.73,4.73,0,0,1,818.76,72.26Z" style="fill:#fff"/><path d="M833.27,61.68v-3h3.29v3Zm0,14.13V63.36h3.29V75.81Z" style="fill:#fff"/><path d="M839.69,63.36h3v1.7a4.89,4.89,0,0,1,3.88-2,4.29,4.29,0,0,1,2.08.49,3.9,3.9,0,0,1,1.44,1.49,5.91,5.91,0,0,1,1.77-1.49,4.44,4.44,0,0,1,2-.49,4.55,4.55,0,0,1,2.32.56,3.37,3.37,0,0,1,1.41,1.63,7,7,0,0,1,.34,2.58v8H854.7V68.69a5.25,5.25,0,0,0-.34-2.39,1.57,1.57,0,0,0-1.41-.7,2.26,2.26,0,0,0-1.3.42,2.33,2.33,0,0,0-.87,1.24,8.86,8.86,0,0,0-.27,2.57v6h-3.3V69a10.08,10.08,0,0,0-.17-2.35,1.48,1.48,0,0,0-.55-.78,1.72,1.72,0,0,0-1-.26,2.43,2.43,0,0,0-1.37.41,2.2,2.2,0,0,0-.87,1.18,8.67,8.67,0,0,0-.27,2.57v6h-3.29Z" style="fill:#fff"/><path d="M869.47,75.81V73.94a4.88,4.88,0,0,1-1.79,1.58,5.05,5.05,0,0,1-2.34.57,4.57,4.57,0,0,1-2.25-.55A3.28,3.28,0,0,1,861.65,74a6.81,6.81,0,0,1-.45-2.75V63.36h3.3v5.72a16.08,16.08,0,0,0,.18,3.22,1.77,1.77,0,0,0,.66.94,2,2,0,0,0,1.22.34,2.57,2.57,0,0,0,1.51-.46A2.37,2.37,0,0,0,869,72a13.71,13.71,0,0,0,.24-3.36V63.36h3.3V75.81Z" style="fill:#fff"/><path d="M875.94,75.81V58.63h3.29V75.81Z" style="fill:#fff"/><path d="M888.31,63.36V66h-2.25v5a13.46,13.46,0,0,0,.06,1.78.73.73,0,0,0,.3.41.92.92,0,0,0,.55.17A4.32,4.32,0,0,0,888.3,73l.28,2.56a6.52,6.52,0,0,1-2.6.49,4.13,4.13,0,0,1-1.61-.3,2.48,2.48,0,0,1-1-.77,3.2,3.2,0,0,1-.46-1.29,16.2,16.2,0,0,1-.1-2.32V66h-1.52V63.36h1.52V60.89l3.3-1.92v4.39Z" style="fill:#fff"/><path d="M893.06,67.16l-3-.54A4.63,4.63,0,0,1,891.8,64a6.34,6.34,0,0,1,3.66-.87,8,8,0,0,1,3.28.52,3.3,3.3,0,0,1,1.52,1.33,6.78,6.78,0,0,1,.44,2.94l0,3.85a12.93,12.93,0,0,0,.16,2.42,7.31,7.31,0,0,0,.59,1.67h-3.26c-.08-.22-.19-.54-.31-1l-.12-.39a5.78,5.78,0,0,1-1.8,1.23,5.25,5.25,0,0,1-2,.41,4.24,4.24,0,0,1-3-1,3.48,3.48,0,0,1-1.11-2.64,3.59,3.59,0,0,1,.5-1.88,3.4,3.4,0,0,1,1.41-1.27,10.9,10.9,0,0,1,2.62-.76,17.89,17.89,0,0,0,3.2-.81v-.33A1.66,1.66,0,0,0,897,66a2.79,2.79,0,0,0-1.77-.41,2.37,2.37,0,0,0-1.37.35A2.41,2.41,0,0,0,893.06,67.16Zm4.4,2.67c-.42.14-1.09.31-2,.51a5.74,5.74,0,0,0-1.79.57,1.37,1.37,0,0,0-.65,1.16,1.61,1.61,0,0,0,.52,1.2,1.81,1.81,0,0,0,1.31.5,2.87,2.87,0,0,0,1.7-.59,2,2,0,0,0,.78-1.09,6.22,6.22,0,0,0,.13-1.6Z" style="fill:#fff"/><path d="M915.26,75.81H912V69.46a9.83,9.83,0,0,0-.21-2.61,1.8,1.8,0,0,0-.69-.92,1.92,1.92,0,0,0-1.14-.33,2.64,2.64,0,0,0-1.53.47,2.36,2.36,0,0,0-.94,1.24,11.15,11.15,0,0,0-.25,2.86v5.64h-3.29V63.36H907v1.83a5.1,5.1,0,0,1,6.09-1.72,3.43,3.43,0,0,1,1.37,1,3.5,3.5,0,0,1,.64,1.38,10.3,10.3,0,0,1,.18,2.21Z" style="fill:#fff"/><path d="M925.81,71.85l3.28.55a5.4,5.4,0,0,1-2,2.75,5.93,5.93,0,0,1-3.41.94A5.58,5.58,0,0,1,918.87,74a7.12,7.12,0,0,1-1.23-4.29,6.88,6.88,0,0,1,1.62-4.85,5.35,5.35,0,0,1,4.09-1.75,5.5,5.5,0,0,1,4.38,1.84q1.6,1.83,1.54,5.61H921a3.34,3.34,0,0,0,.79,2.28,2.48,2.48,0,0,0,1.9.82,2,2,0,0,0,1.3-.42A2.57,2.57,0,0,0,925.81,71.85Zm.19-3.33a3.18,3.18,0,0,0-.74-2.17,2.36,2.36,0,0,0-3.49,0,3,3,0,0,0-.69,2.13Z" style="fill:#fff"/><path d="M931.19,69.41a6.77,6.77,0,0,1,.81-3.18,5.56,5.56,0,0,1,2.29-2.34,6.79,6.79,0,0,1,3.31-.81,6.19,6.19,0,0,1,4.63,1.84,6.33,6.33,0,0,1,1.8,4.63,6.39,6.39,0,0,1-1.82,4.68,6.14,6.14,0,0,1-4.59,1.86,7.27,7.27,0,0,1-3.26-.77A5.34,5.34,0,0,1,932,73.05,7.56,7.56,0,0,1,931.19,69.41Zm3.37.18a4.13,4.13,0,0,0,.88,2.83,2.79,2.79,0,0,0,2.17,1,2.76,2.76,0,0,0,2.16-1,4.13,4.13,0,0,0,.88-2.86,4.06,4.06,0,0,0-.88-2.81,2.75,2.75,0,0,0-2.16-1,2.79,2.79,0,0,0-2.17,1A4.16,4.16,0,0,0,934.56,69.59Z" style="fill:#fff"/><path d="M954.8,75.81V73.94A4.85,4.85,0,0,1,953,75.52a5.05,5.05,0,0,1-2.34.57,4.52,4.52,0,0,1-2.25-.55A3.18,3.18,0,0,1,947,74a6.81,6.81,0,0,1-.45-2.75V63.36h3.29v5.72A15,15,0,0,0,950,72.3a1.77,1.77,0,0,0,.66.94,2,2,0,0,0,1.22.34,2.59,2.59,0,0,0,1.51-.46,2.35,2.35,0,0,0,.91-1.15,13,13,0,0,0,.25-3.36V63.36h3.29V75.81Z" style="fill:#fff"/><path d="M960.11,72.26l3.31-.51a2.41,2.41,0,0,0,.85,1.46,2.91,2.91,0,0,0,1.81.5,3.27,3.27,0,0,0,1.92-.47,1,1,0,0,0,.43-.88.9.9,0,0,0-.23-.62,2.71,2.71,0,0,0-1.1-.43A17.83,17.83,0,0,1,962,69.7a3.2,3.2,0,0,1-1.47-2.8,3.44,3.44,0,0,1,1.28-2.72,6,6,0,0,1,4-1.1,6.92,6.92,0,0,1,3.79.83,4.27,4.27,0,0,1,1.71,2.46l-3.1.58a1.87,1.87,0,0,0-.76-1.11,2.73,2.73,0,0,0-1.58-.39,3.64,3.64,0,0,0-1.87.36.78.78,0,0,0-.37.67.76.76,0,0,0,.32.6A12.18,12.18,0,0,0,967,68a9.11,9.11,0,0,1,3.67,1.47,3,3,0,0,1,1,2.45,3.77,3.77,0,0,1-1.43,2.94,6.35,6.35,0,0,1-4.23,1.23,6.93,6.93,0,0,1-4-1A4.77,4.77,0,0,1,960.11,72.26Z" style="fill:#fff"/><path d="M974.62,75.81V58.63h3.29V75.81Z" style="fill:#fff"/><path d="M979.73,63.36h3.5l3,8.84,2.91-8.84h3.41l-4.4,12-.78,2.17a9,9,0,0,1-.83,1.66,3.63,3.63,0,0,1-.9.93,3.85,3.85,0,0,1-1.26.56,6.56,6.56,0,0,1-1.68.2,8.9,8.9,0,0,1-1.86-.2l-.29-2.58a7.34,7.34,0,0,0,1.39.15,2.06,2.06,0,0,0,1.7-.67,4.54,4.54,0,0,0,.84-1.72Z" style="fill:#fff"/></g><g id="bfd9f4af-deda-482a-8eaa-f9f380c7429c" data-name="Single_core_sequential"><path d="M60.41,120.81H673.62a10.11,10.11,0,0,1,10.22,10v300a10.11,10.11,0,0,1-10.22,10H60.41a10.11,10.11,0,0,1-10.22-10v-300A10.11,10.11,0,0,1,60.41,120.81Z" style="fill:#3d1a1a;stroke:#f44;stroke-width:2px"/><text transform="translate(189.91 150.81)" style="isolation:isolate;font-size:18px;fill:#fff;font-family:ArialMT, Arial">❌<tspan x="13.5" y="0" xml:space="preserve" style="font-family:Arial-BoldMT, Arial;font-weight:700"> Single Core Sequential (The Problem)</tspan></text><rect x="70.19" y="170.81" width="120" height="60" rx="5" style="fill:#4a4a6a;stroke:#fff"/><text transform="translate(91.29 205.81)" style="isolation:isolate;font-size:14px;fill:#fff;font-family:Arial-BoldMT, Arial;font-weight:700">Single Core</text><text transform="translate(99.99 220.81)" style="isolation:isolate;font-size:10px;fill:#fff;font-family:ArialMT, Arial"><tspan style="letter-spacing:-0.07421875em">A</tspan><tspan x="5.93" y="0">Tmega328</tspan><tspan x="53.74" y="0" style="letter-spacing:-0.01806640625em">P</tspan></text><line x1="70.19" y1="350.81" x2="650.19" y2="350.81" style="fill:none;stroke:#666;stroke-width:2px"/><text transform="translate(58.85 370.81)" style="isolation:isolate;font-size:12px;fill:#aaa;font-family:ArialMT, Arial">0ms</text><text transform="translate(155.52 370.81)" style="isolation:isolate;font-size:12px;fill:#aaa;font-family:ArialMT, Arial">20ms</text><text transform="translate(455.52 370.81)" style="isolation:isolate;font-size:12px;fill:#aaa;font-family:ArialMT, Arial">80ms</text><text transform="translate(552.63 370.81)" style="isolation:isolate;font-size:12px;fill:#aaa;font-family:ArialMT, Arial"><tspan style="letter-spacing:-0.07421875em">1</tspan><tspan x="5.78" y="0">10ms</tspan></text><text transform="translate(632.18 370.81)" style="isolation:isolate;font-size:12px;fill:#aaa;font-family:ArialMT, Arial">130ms</text><rect x="70.19" y="290.81" width="100" height="50" rx="3" style="fill:#4caf50"/><text transform="translate(99.85 315.81)" style="isolation:isolate;font-size:12px;fill:#fff;font-family:Arial-BoldMT, Arial;font-weight:700">Sensor</text><text transform="translate(107.96 328.81)" style="isolation:isolate;font-size:10px;fill:#fff;font-family:ArialMT, Arial">20ms</text><path d="M169.19,306.81v18l21-9Z" style="fill:#f44"/><text transform="translate(156.97 285.81)" style="isolation:isolate;font-size:11px;fill:#f44;font-family:Arial-BoldMT, Arial;font-weight:700">BLOCKS</text><rect x="190.19" y="290.81" width="280" height="50" rx="3" style="fill:#ff9800"/><text transform="translate(283.17 315.81)" style="isolation:isolate;font-size:12px;fill:#fff;font-family:Arial-BoldMT, Arial;font-weight:700">Data Processing</text><text transform="translate(317.96 328.81)" style="isolation:isolate;font-size:10px;fill:#fff;font-family:ArialMT, Arial">60ms</text><path d="M469.19,306.81v18l21-9Z" style="fill:#f44"/><text transform="translate(456.97 285.81)" style="isolation:isolate;font-size:11px;fill:#f44;font-family:Arial-BoldMT, Arial;font-weight:700">BLOCKS</text><rect x="490.19" y="290.81" width="80" height="50" rx="3" style="fill:#2196f3"/><text transform="translate(505.56 315.81)" style="isolation:isolate;font-size:12px;fill:#fff;font-family:Arial-BoldMT, Arial;font-weight:700"><tspan style="letter-spacing:-0.0087890625em">W</tspan><tspan x="11.22" y="0">ireless</tspan></text><text transform="translate(517.96 328.81)" style="isolation:isolate;font-size:10px;fill:#fff;font-family:ArialMT, Arial">30ms</text><path d="M569.19,306.81v18l21-9Z" style="fill:#f44"/><text transform="translate(556.97 285.81)" style="isolation:isolate;font-size:11px;fill:#f44;font-family:Arial-BoldMT, Arial;font-weight:700">BLOCKS</text><rect x="590.19" y="290.81" width="60" height="50" rx="3" style="fill:#9c27b0"/><text transform="translate(598.85 315.81)" style="isolation:isolate;font-size:12px;fill:#fff;font-family:Arial-BoldMT, Arial;font-weight:700">Display</text><text transform="translate(607.96 328.81)" style="isolation:isolate;font-size:10px;fill:#fff;font-family:ArialMT, Arial">20ms</text><text transform="translate(70.19 400.81)" style="isolation:isolate;font-size:14px;fill:#ff6b6b;font-family:Arial-BoldMT, Arial;font-weight:700">• <tspan x="8.79" y="0" style="letter-spacing:-0.07421875em">T</tspan><tspan x="16.3" y="0">asks wait in line - NO parallelism</tspan></text><text transform="translate(70.19 420.81)" style="isolation:isolate;font-size:14px;fill:#ff6b6b;font-family:Arial-BoldMT, Arial;font-weight:700">• Update Rate: 7.7 Hz (slow!)</text></g><g id="a9d5cf94-1a1e-4db1-bbfe-325625ec6ed5" data-name="heterogenous_computing"><path d="M728.14,120.81h624.1a10.21,10.21,0,0,1,10.4,10v300a10.21,10.21,0,0,1-10.4,10H728.14a10.21,10.21,0,0,1-10.4-10v-300A10.21,10.21,0,0,1,728.14,120.81Z" style="fill:#1a3d1a;stroke:#4caf50;stroke-width:2px"/><text transform="translate(852.45 150.81)" style="isolation:isolate;font-size:18px;fill:#fff;font-family:ArialMT, Arial">✅<tspan x="13.5" y="0" xml:space="preserve" style="font-family:Arial-BoldMT, Arial;font-weight:700"> Heterogeneous Computing (The Solution)</tspan></text><rect x="750.19" y="170.81" width="120" height="30" rx="3" style="fill:#4caf50"/><text transform="translate(774.51 190.81)" style="isolation:isolate;font-size:12px;fill:#fff;font-family:Arial-BoldMT, Arial;font-weight:700">Sensor Core</text><rect x="890.19" y="170.81" width="120" height="30" rx="3" style="fill:#ff9800"/><text transform="translate(902.51 190.81)" style="isolation:isolate;font-size:12px;fill:#fff;font-family:Arial-BoldMT, Arial;font-weight:700">Processing Core</text><rect x="1030.19" y="170.81" width="120" height="30" rx="3" style="fill:#2196f3"/><text transform="translate(1056.18 190.81)" style="isolation:isolate;font-size:12px;fill:#fff;font-family:Arial-BoldMT, Arial;font-weight:700">Comm Core</text><rect x="1170.19" y="170.81" width="120" height="30" rx="3" style="fill:#9c27b0"/><text transform="translate(1193.51 190.81)" style="isolation:isolate;font-size:12px;fill:#fff;font-family:Arial-BoldMT, Arial;font-weight:700">Display Core</text><line x1="750.19" y1="370.81" x2="1330.19" y2="370.81" style="fill:none;stroke:#666;stroke-width:2px"/><text transform="translate(738.85 390.81)" style="isolation:isolate;font-size:12px;fill:#aaa;font-family:ArialMT, Arial">0ms</text><text transform="translate(835.52 390.81)" style="isolation:isolate;font-size:12px;fill:#aaa;font-family:ArialMT, Arial">20ms</text><text transform="translate(935.52 390.81)" style="isolation:isolate;font-size:12px;fill:#aaa;font-family:ArialMT, Arial">40ms</text><text transform="translate(1035.52 390.81)" style="isolation:isolate;font-size:12px;fill:#aaa;font-family:ArialMT, Arial">60ms</text><text transform="translate(1135.52 390.81)" style="isolation:isolate;font-size:12px;fill:#aaa;font-family:ArialMT, Arial">80ms</text><rect x="750.19" y="260.81" width="40" height="25" rx="2" style="fill:#4caf50"/><text transform="translate(764.07 275.81)" style="isolation:isolate;font-size:10px;fill:#fff;font-family:ArialMT, Arial">S1</text><rect x="850.19" y="260.81" width="40" height="25" rx="2" style="fill:#4caf50"/><text transform="translate(864.07 275.81)" style="isolation:isolate;font-size:10px;fill:#fff;font-family:ArialMT, Arial">S2</text><rect x="950.19" y="260.81" width="40" height="25" rx="2" style="fill:#4caf50"/><text transform="translate(964.07 275.81)" style="isolation:isolate;font-size:10px;fill:#fff;font-family:ArialMT, Arial">S3</text><rect x="1050.19" y="260.81" width="40" height="25" rx="2" style="fill:#4caf50"/><text transform="translate(1064.07 275.81)" style="isolation:isolate;font-size:10px;fill:#fff;font-family:ArialMT, Arial">S4</text><rect x="800.19" y="290.81" width="120" height="25" rx="2" style="fill:#ff9800"/><text transform="translate(842.13 305.81)" style="isolation:isolate;font-size:10px;fill:#fff;font-family:ArialMT, Arial">Process</text><rect x="1000.19" y="290.81" width="120" height="25" rx="2" style="fill:#ff9800"/><text transform="translate(1042.13 305.81)" style="isolation:isolate;font-size:10px;fill:#fff;font-family:ArialMT, Arial">Process</text><rect x="830.19" y="320.81" width="60" height="25" rx="2" style="fill:#2196f3"/><text transform="translate(845.47 335.81)" style="isolation:isolate;font-size:10px;fill:#fff;font-family:ArialMT, Arial">Comm</text><rect x="1030.19" y="320.81" width="60" height="25" rx="2" style="fill:#2196f3"/><text transform="translate(1045.47 335.81)" style="isolation:isolate;font-size:10px;fill:#fff;font-family:ArialMT, Arial">Comm</text><rect x="910.19" y="350.81" width="40" height="25" rx="2" style="fill:#9c27b0"/><text transform="translate(920.19 365.81)" style="isolation:isolate;font-size:10px;fill:#fff;font-family:ArialMT, Arial">Disp</text><rect x="1110.19" y="350.81" width="40" height="25" rx="2" style="fill:#9c27b0"/><text transform="translate(1120.19 365.81)" style="isolation:isolate;font-size:10px;fill:#fff;font-family:ArialMT, Arial">Disp</text><path d="M1216.19,268.81v12l14-6Z" style="fill:#4caf50"/><path d="M1216.19,293.81v12l14-6Z" style="fill:#4caf50"/><path d="M1216.19,323.81v12l14-6Z" style="fill:#4caf50"/><path d="M1216.19,353.81v12l14-6Z" style="fill:#4caf50"/><text transform="translate(1270.19 325.81)" style="isolation:isolate;font-size:14px;fill:#4caf50;font-family:Arial-BoldMT, Arial;font-weight:700"><tspan style="letter-spacing:-0.07421875em">P</tspan><tspan x="8.3" y="0">ARALLEL!</tspan></text><text transform="translate(750.19 411.02)" style="isolation:isolate;font-size:14px;fill:#4caf50;font-family:Arial-BoldMT, Arial;font-weight:700">•<tspan x="4.9" y="0" style="letter-spacing:-0.037109375em"> </tspan><tspan x="8.27" y="0">All cores work simultaneously</tspan></text><text transform="translate(750.19 431.02)" style="isolation:isolate;font-size:14px;fill:#4caf50;font-family:Arial-BoldMT, Arial;font-weight:700">• Update Rate: 50+ Hz (fast!)</text></g><g id="ef448f4a-3219-4d56-9ea5-3765a795bf67" data-name="performance_impact"><path d="M210.19,460.81h980c5.52,0,10,5.09,10,11.38V654.25c0,6.29-4.48,11.38-10,11.38h-980c-5.52,0-10-5.09-10-11.38V472.19C200.19,465.9,204.67,460.81,210.19,460.81Z" style="fill:#2d2d44;stroke:#4a4a6a;stroke-width:2px"/><text transform="translate(477.62 490.81)" style="isolation:isolate;font-size:18px;fill:#fff;font-family:Arial-BoldMT, Arial;font-weight:700">Performance Impact: Single Core vs Heterogeneous</text><text transform="translate(300.19 540.81)" style="isolation:isolate;font-size:18px;fill:#fff;font-family:Arial-BoldMT, Arial;font-weight:700">Single Core:</text><rect x="450.19" y="520.81" width="120" height="30" rx="5" style="fill:#f44"/><text transform="translate(487.07 540.81)" style="isolation:isolate;font-size:16px;fill:#fff;font-family:Arial-BoldMT, Arial;font-weight:700">7.7 Hz</text><text transform="translate(590.19 540.81)" style="isolation:isolate;font-size:14px;fill:#ff6b6b;font-family:Arial-BoldMT, Arial;font-weight:700">Sequential Blocking</text><text transform="translate(300.19 590.81)" style="isolation:isolate;font-size:18px;fill:#fff;font-family:Arial-BoldMT, Arial;font-weight:700">Heterogeneous:</text><rect x="450.19" y="570.81" width="120" height="30" rx="5" style="fill:#4caf50"/><text transform="translate(484.62 590.81)" style="isolation:isolate;font-size:16px;fill:#fff;font-family:Arial-BoldMT, Arial;font-weight:700">50+ Hz</text><text transform="translate(590.19 590.81)" style="isolation:isolate;font-size:14px;fill:#4caf50;font-family:Arial-BoldMT, Arial;font-weight:700">Parallel Processing</text><text transform="translate(864.4 601.04)" style="isolation:isolate;font-size:14px;fill:#4caf50;font-family:Arial-BoldMT, Arial;font-weight:700">6.5x Performance Improvement!</text><text transform="translate(850.19 540.81)" style="isolation:isolate;font-size:18px;fill:#fff;font-family:Arial-BoldMT, Arial;font-weight:700">Real-time Capability:</text><text transform="translate(850.19 560.81)" style="isolation:isolate;font-size:14px;fill:#ff6b6b;font-family:ArialMT, Arial">❌<tspan x="10.5" y="0" xml:space="preserve" style="font-family:Arial-BoldMT, Arial;font-weight:700"> Single: Missed deadlines</tspan></text><text transform="translate(850.19 580.81)" style="isolation:isolate;font-size:14px;fill:#4caf50;font-family:ArialMT, Arial">✅<tspan x="10.5" y="0" xml:space="preserve" style="font-family:Arial-BoldMT, Arial;font-weight:700"> Hetero: Deterministic timing</tspan></text><text transform="translate(250.19 630.47)" style="isolation:isolate;font-size:14px;fill:#4caf50;font-family:Arial-BoldMT, Arial;font-weight:700">Benefits: <tspan x="63.79" y="0" style="letter-spacing:-0.05517578125em">T</tspan><tspan x="71.57" y="0">rue parallelism • Better resource utilization • Improved responsiveness • Deterministic behavior</tspan></text><text transform="translate(250.19 650.47)" style="isolation:isolate;font-size:14px;fill:#ff6b6b;font-family:Arial-BoldMT, Arial;font-weight:700"><tspan style="letter-spacing:-0.05517578125em">T</tspan><tspan x="7.78" y="0">rade-offs: Increased complexity • Higher cost • More challenging programming • Power considerations</tspan></text></g><g id="ba2bed60-c8fd-4c75-9f19-92a9ac35fbf3" data-name="conclusion"><rect x="200.19" y="680.81" width="1000" height="120" rx="10" style="fill:#2d2d44;stroke:#4a4a6a;stroke-width:2px"/><text transform="translate(540.69 715.81)" style="isolation:isolate;font-size:18px;fill:#fff;font-family:Arial-BoldMT, Arial;font-weight:700">Heterogeneous Computing Definition</text><text transform="translate(360.1 745.81)" style="isolation:isolate;font-size:24px;fill:#fff;font-family:Arial-BoldMT, Arial;font-weight:700">&quot;Multiple cores with different capabilities working together&quot;</text><text transform="translate(416.99 775.81)" style="isolation:isolate;font-size:14px;fill:#fff;font-family:Arial-BoldMT, Arial;font-weight:700">Each core optimized for specific tasks: sensors, processing, communication, display</text></g></svg>