<svg xmlns="http://www.w3.org/2000/svg" viewBox="0 0 853 734.1"><defs><style>.cls-1,.cls-10,.cls-23,.cls-6,.cls-7,.cls-8{fill:none;stroke-miterlimit:10;}.cls-1{stroke:#f2f2f2;stroke-width:15px;}.cls-12,.cls-17,.cls-2,.cls-24,.cls-4{fill:#f2f2f2;}.cls-3{fill:#ff931e;}.cls-4{font-size:60px;}.cls-12,.cls-17,.cls-4{font-family:MyriadPro-Regular, Myriad Pro;}.cls-5{letter-spacing:-0.02em;}.cls-6,.cls-7{stroke:#39b54a;}.cls-10,.cls-6,.cls-7,.cls-8{stroke-width:8px;}.cls-7{stroke-dasharray:12.09 12.09;}.cls-8{stroke:#29abe2;}.cls-9{fill:#29abe2;}.cls-10{stroke:#a67c52;}.cls-11{fill:#a67c52;}.cls-12{font-size:36.26px;}.cls-13{letter-spacing:0em;}.cls-14{letter-spacing:0em;}.cls-15{letter-spacing:-0.01em;}.cls-16{letter-spacing:-0.01em;}.cls-17{font-size:38.22px;}.cls-18{letter-spacing:0.01em;}.cls-19{letter-spacing:0em;}.cls-20{letter-spacing:0em;}.cls-21{letter-spacing:-0.01em;}.cls-22{letter-spacing:0.01em;}.cls-23{stroke:#fff;stroke-width:2px;}.cls-24{font-size:71px;font-family:MyriadPro-Bold, Myriad Pro;font-weight:700;}</style></defs><g id="Layer_2" data-name="Layer 2"><g id="Layer_1-2" data-name="Layer 1"><line class="cls-1" x1="417.51" y1="356.6" x2="417.12" y2="224.31"/><path class="cls-2" d="M417,188.1c6.38,17,17.23,38.13,28.69,51.2l-28.56-10.24-28.5,10.41C400,226.33,410.75,205.16,417,188.1Z"/><rect class="cls-3" x="165" y="303.1" width="523" height="20"/><text class="cls-4" transform="translate(6.19 328.64)">2</text><text class="cls-4" transform="translate(6.19 90.64)">1</text><text class="cls-4" transform="translate(98.19 331.64)">A</text><text class="cls-4" transform="translate(431.19 550.64)">w</text><text class="cls-4" transform="translate(454.19 277.64)"><tspan class="cls-5">V</tspan><tspan x="32.52" y="0">i</tspan></text><text class="cls-4" transform="translate(148.19 167.64)">p</text><text class="cls-4" transform="translate(114.19 612.64)">A</text><text class="cls-4" transform="translate(6.19 585.64)">3</text><path class="cls-6" d="M657,734.1q0-3,0-6"/><path class="cls-7" d="M657.07,716c2.73-344.31,83.06-623.15,184-643.69"/><path class="cls-6" d="M847,71.41a57.08,57.08,0,0,1,6-.31"/><path class="cls-6" d="M196,734.1q0-3,0-6"/><path class="cls-7" d="M195.93,716C193.2,371.69,112.87,92.85,12,72.31"/><path class="cls-6" d="M6,71.41a57.08,57.08,0,0,0-6-.31"/><line class="cls-8" x1="223" y1="542.1" x2="223" y2="603.13"/><path class="cls-9" d="M223,632.1c-5.06-13.63-13.69-30.54-22.83-41L223,599.33l22.82-8.26C236.68,601.56,228.05,618.47,223,632.1Z"/><line class="cls-8" x1="323" y1="542.1" x2="323" y2="603.13"/><path class="cls-9" d="M323,632.1c-5.06-13.63-13.69-30.54-22.83-41L323,599.33l22.82-8.26C336.68,601.56,328.05,618.47,323,632.1Z"/><line class="cls-8" x1="423" y1="542.1" x2="423" y2="603.13"/><path class="cls-9" d="M423,632.1c-5.06-13.63-13.69-30.54-22.83-41L423,599.33l22.82-8.26C436.68,601.56,428.05,618.47,423,632.1Z"/><line class="cls-8" x1="523" y1="542.1" x2="523" y2="603.13"/><path class="cls-9" d="M523,632.1c-5.06-13.63-13.69-30.54-22.83-41L523,599.33l22.82-8.26C536.68,601.56,528.05,618.47,523,632.1Z"/><line class="cls-8" x1="623" y1="542.1" x2="623" y2="603.13"/><path class="cls-9" d="M623,632.1c-5.06-13.63-13.69-30.54-22.83-41L623,599.33l22.82-8.26C636.68,601.56,628.05,618.47,623,632.1Z"/><line class="cls-10" x1="217" y1="278.1" x2="217" y2="339.13"/><path class="cls-11" d="M217,368.1c-5.06-13.63-13.69-30.54-22.83-41L217,335.33l22.82-8.26C230.68,337.56,222.05,354.47,217,368.1Z"/><line class="cls-10" x1="317" y1="278.1" x2="317" y2="339.13"/><path class="cls-11" d="M317,368.1c-5.06-13.63-13.69-30.54-22.83-41L317,335.33l22.82-8.26C330.68,337.56,322.05,354.47,317,368.1Z"/><line class="cls-10" x1="417" y1="278.1" x2="417" y2="339.13"/><path class="cls-11" d="M417,368.1c-5.06-13.63-13.69-30.54-22.83-41L417,335.33l22.82-8.26C430.68,337.56,422.05,354.47,417,368.1Z"/><line class="cls-10" x1="517" y1="278.1" x2="517" y2="339.13"/><path class="cls-11" d="M517,368.1c-5.06-13.63-13.69-30.54-22.83-41L517,335.33l22.82-8.26C530.68,337.56,522.05,354.47,517,368.1Z"/><line class="cls-10" x1="617" y1="278.1" x2="617" y2="339.13"/><path class="cls-11" d="M617,368.1c-5.06-13.63-13.69-30.54-22.83-41L617,335.33l22.82-8.26C630.68,337.56,622.05,354.47,617,368.1Z"/><text class="cls-12" transform="translate(151.65 596.19) rotate(90)">8</text><text class="cls-4" transform="translate(324.3 160.79)"><tspan class="cls-13">A</tspan><tspan class="cls-14" x="36.54" y="0">b</tspan><tspan class="cls-15" x="70.68" y="0">o</tspan><tspan class="cls-16" x="103.2" y="0">v</tspan><tspan x="131.46" y="0">e</tspan></text><text class="cls-4" transform="translate(365.3 462.79)">bel<tspan class="cls-15" x="78.36" y="0">o</tspan><tspan x="110.88" y="0">w</tspan></text><text class="cls-17" transform="translate(195.3 50.82)"><tspan class="cls-18">M</tspan><tspan class="cls-19" x="30.96" y="0">ome</tspan><tspan class="cls-20" x="102.96" y="0">n</tspan><tspan x="124.02" y="0">tum = mass X </tspan><tspan class="cls-21" x="347.19" y="0">v</tspan><tspan x="365.19" y="0">eloci</tspan><tspan class="cls-22" x="440.4" y="0">t</tspan><tspan x="453.4" y="0">y</tspan></text><rect class="cls-23" x="139" y="1" width="584" height="77.2"/><text class="cls-24" transform="translate(345.89 246.96)">T</text></g></g></svg>