<svg xmlns="http://www.w3.org/2000/svg" viewBox="0 0 853 565"><defs><style>.cls-1{fill:#ff931e;}.cls-2,.cls-3,.cls-4,.cls-5,.cls-7{fill:none;stroke-miterlimit:10;stroke-width:8px;}.cls-2,.cls-3{stroke:#39b54a;}.cls-3{stroke-dasharray:11.92 11.92;}.cls-4{stroke:#f2f2f2;stroke-dasharray:12;}.cls-5{stroke:#29abe2;}.cls-6{fill:#29abe2;}.cls-7{stroke:#a67c52;}.cls-8{fill:#a67c52;}</style></defs><g id="Layer_2" data-name="Layer 2"><g id="Layer_1-2" data-name="Layer 1"><rect class="cls-1" x="165" y="236" width="523" height="20"/><path class="cls-2" d="M657,529c0-2,0-4,0-6"/><path class="cls-3" d="M657.11,511.07c3.4-271,83.49-490,184-506.12"/><path class="cls-2" d="M847,4.24Q850,4,853,4"/><path class="cls-2" d="M196,529c0-2,0-4,0-6"/><path class="cls-3" d="M195.89,511.07c-3.4-271-83.49-490-184-506.12"/><path class="cls-2" d="M6,4.24Q3,4,0,4"/><line class="cls-4" x1="84" y1="54" x2="769" y2="54"/><line class="cls-4" x1="196" y1="504" x2="664" y2="504"/><line class="cls-5" x1="223" y1="475" x2="223" y2="536.03"/><path class="cls-6" d="M223,565c-5.06-13.63-13.69-30.54-22.83-41L223,532.23,245.82,524C236.68,534.46,228.05,551.37,223,565Z"/><line class="cls-5" x1="323" y1="475" x2="323" y2="536.03"/><path class="cls-6" d="M323,565c-5.06-13.63-13.69-30.54-22.83-41L323,532.23,345.82,524C336.68,534.46,328.05,551.37,323,565Z"/><line class="cls-5" x1="423" y1="475" x2="423" y2="536.03"/><path class="cls-6" d="M423,565c-5.06-13.63-13.69-30.54-22.83-41L423,532.23,445.82,524C436.68,534.46,428.05,551.37,423,565Z"/><line class="cls-5" x1="523" y1="475" x2="523" y2="536.03"/><path class="cls-6" d="M523,565c-5.06-13.63-13.69-30.54-22.83-41L523,532.23,545.82,524C536.68,534.46,528.05,551.37,523,565Z"/><line class="cls-5" x1="623" y1="475" x2="623" y2="536.03"/><path class="cls-6" d="M623,565c-5.06-13.63-13.69-30.54-22.83-41L623,532.23,645.82,524C636.68,534.46,628.05,551.37,623,565Z"/><line class="cls-7" x1="223" y1="21" x2="223" y2="82.03"/><path class="cls-8" d="M223,111c-5.06-13.63-13.69-30.54-22.83-41L223,78.23,245.82,70C236.68,80.46,228.05,97.37,223,111Z"/><line class="cls-7" x1="126" y1="21" x2="126" y2="82.03"/><path class="cls-8" d="M126,111c-5.06-13.63-13.69-30.54-22.83-41L126,78.23,148.82,70C139.68,80.46,131.05,97.37,126,111Z"/><line class="cls-7" x1="323" y1="21" x2="323" y2="82.03"/><path class="cls-8" d="M323,111c-5.06-13.63-13.69-30.54-22.83-41L323,78.23,345.82,70C336.68,80.46,328.05,97.37,323,111Z"/><line class="cls-7" x1="423" y1="21" x2="423" y2="82.03"/><path class="cls-8" d="M423,111c-5.06-13.63-13.69-30.54-22.83-41L423,78.23,445.82,70C436.68,80.46,428.05,97.37,423,111Z"/><line class="cls-7" x1="523" y1="21" x2="523" y2="82.03"/><path class="cls-8" d="M523,111c-5.06-13.63-13.69-30.54-22.83-41L523,78.23,545.82,70C536.68,80.46,528.05,97.37,523,111Z"/><line class="cls-7" x1="623" y1="21" x2="623" y2="82.03"/><path class="cls-8" d="M623,111c-5.06-13.63-13.69-30.54-22.83-41L623,78.23,645.82,70C636.68,80.46,628.05,97.37,623,111Z"/><line class="cls-7" x1="719" y1="21" x2="719" y2="82.03"/><path class="cls-8" d="M719,111c-5.06-13.63-13.69-30.54-22.83-41L719,78.23,741.82,70C732.68,80.46,724.05,97.37,719,111Z"/></g></g></svg>