<svg xmlns="http://www.w3.org/2000/svg" viewBox="0 0 853 746"><defs><style>.cls-1,.cls-10,.cls-22,.cls-6,.cls-7,.cls-8{fill:none;stroke-miterlimit:10;}.cls-1{stroke:#f2f2f2;stroke-width:15px;}.cls-12,.cls-17,.cls-2,.cls-23,.cls-4{fill:#f2f2f2;}.cls-3{fill:#ff931e;}.cls-4{font-size:60px;}.cls-12,.cls-17,.cls-4{font-family:MyriadPro-Regular, Myriad Pro;}.cls-5{letter-spacing:-0.02em;}.cls-6,.cls-7{stroke:#39b54a;}.cls-10,.cls-6,.cls-7,.cls-8{stroke-width:8px;}.cls-7{stroke-dasharray:12.09 12.09;}.cls-8{stroke:#29abe2;}.cls-9{fill:#29abe2;}.cls-10{stroke:#a67c52;}.cls-11{fill:#a67c52;}.cls-12{font-size:36.26px;}.cls-13{letter-spacing:0em;}.cls-14{letter-spacing:0em;}.cls-15{letter-spacing:-0.01em;}.cls-16{letter-spacing:-0.01em;}.cls-17{font-size:50px;}.cls-18{letter-spacing:0.01em;}.cls-19{letter-spacing:0em;}.cls-20{letter-spacing:-0.01em;}.cls-21{letter-spacing:0.01em;}.cls-22{stroke:#fff;stroke-width:2px;}.cls-23{font-size:71px;font-family:MyriadPro-Bold, Myriad Pro;font-weight:700;}</style></defs><g id="Layer_2" data-name="Layer 2"><g id="Layer_1-2" data-name="Layer 1"><line class="cls-1" x1="417.51" y1="368.5" x2="417.12" y2="236.21"/><path class="cls-2" d="M417,200c6.38,17,17.23,38.13,28.69,51.2L417.14,241l-28.5,10.41C400,238.23,410.75,217.06,417,200Z"/><rect class="cls-3" x="165" y="315" width="523" height="20"/><text class="cls-4" transform="translate(6.19 340.54)">2</text><text class="cls-4" transform="translate(6.19 102.54)">1</text><text class="cls-4" transform="translate(98.19 343.54)">A</text><text class="cls-4" transform="translate(431.19 562.54)">w</text><text class="cls-4" transform="translate(454.19 289.54)"><tspan class="cls-5">V</tspan><tspan x="32.52" y="0">i</tspan></text><text class="cls-4" transform="translate(148.19 179.54)">p</text><text class="cls-4" transform="translate(114.19 624.54)">A</text><text class="cls-4" transform="translate(6.19 597.54)">3</text><path class="cls-6" d="M657,746q0-3,0-6"/><path class="cls-7" d="M657.07,727.9c2.73-344.31,83.06-623.16,184-643.69"/><path class="cls-6" d="M847,83.3a59.91,59.91,0,0,1,6-.3"/><path class="cls-6" d="M196,746q0-3,0-6"/><path class="cls-7" d="M195.93,727.9C193.2,383.59,112.87,104.74,12,84.21"/><path class="cls-6" d="M6,83.3A59.91,59.91,0,0,0,0,83"/><line class="cls-8" x1="223" y1="554" x2="223" y2="615.03"/><path class="cls-9" d="M223,644c-5.06-13.63-13.69-30.54-22.83-41L223,611.23,245.82,603C236.68,613.46,228.05,630.37,223,644Z"/><line class="cls-8" x1="323" y1="554" x2="323" y2="615.03"/><path class="cls-9" d="M323,644c-5.06-13.63-13.69-30.54-22.83-41L323,611.23,345.82,603C336.68,613.46,328.05,630.37,323,644Z"/><line class="cls-8" x1="423" y1="554" x2="423" y2="615.03"/><path class="cls-9" d="M423,644c-5.06-13.63-13.69-30.54-22.83-41L423,611.23,445.82,603C436.68,613.46,428.05,630.37,423,644Z"/><line class="cls-8" x1="523" y1="554" x2="523" y2="615.03"/><path class="cls-9" d="M523,644c-5.06-13.63-13.69-30.54-22.83-41L523,611.23,545.82,603C536.68,613.46,528.05,630.37,523,644Z"/><line class="cls-8" x1="623" y1="554" x2="623" y2="615.03"/><path class="cls-9" d="M623,644c-5.06-13.63-13.69-30.54-22.83-41L623,611.23,645.82,603C636.68,613.46,628.05,630.37,623,644Z"/><line class="cls-10" x1="217" y1="290" x2="217" y2="351.03"/><path class="cls-11" d="M217,380c-5.06-13.63-13.69-30.54-22.83-41L217,347.23,239.82,339C230.68,349.46,222.05,366.37,217,380Z"/><line class="cls-10" x1="317" y1="290" x2="317" y2="351.03"/><path class="cls-11" d="M317,380c-5.06-13.63-13.69-30.54-22.83-41L317,347.23,339.82,339C330.68,349.46,322.05,366.37,317,380Z"/><line class="cls-10" x1="417" y1="290" x2="417" y2="351.03"/><path class="cls-11" d="M417,380c-5.06-13.63-13.69-30.54-22.83-41L417,347.23,439.82,339C430.68,349.46,422.05,366.37,417,380Z"/><line class="cls-10" x1="517" y1="290" x2="517" y2="351.03"/><path class="cls-11" d="M517,380c-5.06-13.63-13.69-30.54-22.83-41L517,347.23,539.82,339C530.68,349.46,522.05,366.37,517,380Z"/><line class="cls-10" x1="617" y1="290" x2="617" y2="351.03"/><path class="cls-11" d="M617,380c-5.06-13.63-13.69-30.54-22.83-41L617,347.23,639.82,339C630.68,349.46,622.05,366.37,617,380Z"/><text class="cls-12" transform="translate(151.65 608.09) rotate(90)">8</text><text class="cls-4" transform="translate(324.3 172.68)"><tspan class="cls-13">A</tspan><tspan class="cls-14" x="36.54" y="0">b</tspan><tspan class="cls-15" x="70.68" y="0">o</tspan><tspan class="cls-16" x="103.2" y="0">v</tspan><tspan x="131.46" y="0">e</tspan></text><text class="cls-4" transform="translate(365.3 474.68)">bel<tspan class="cls-15" x="78.36" y="0">o</tspan><tspan x="110.88" y="0">w</tspan></text><text class="cls-17" transform="translate(127.5 66.17)"><tspan class="cls-18">M</tspan><tspan x="40.5" y="0">ome</tspan><tspan class="cls-19" x="134.7" y="0">n</tspan><tspan x="162.25" y="0">tum = mass X </tspan><tspan class="cls-20" x="454.19" y="0">v</tspan><tspan x="477.74" y="0">eloci</tspan><tspan class="cls-21" x="576.14" y="0">t</tspan><tspan x="593.14" y="0">y</tspan></text><rect class="cls-22" x="74" y="1" width="764" height="101"/><text class="cls-23" transform="translate(345.89 258.86)">T</text></g></g></svg>