<svg xmlns="http://www.w3.org/2000/svg" viewBox="0 0 853 693.68"><defs><style>.cls-1{fill:#ff931e;}.cls-2{font-size:60px;}.cls-10,.cls-2{fill:#f2f2f2;font-family:MyriadPro-Regular, Myriad Pro;}.cls-3{letter-spacing:-0.02em;}.cls-4,.cls-5,.cls-6,.cls-8{fill:none;stroke-miterlimit:10;stroke-width:8px;}.cls-4,.cls-5{stroke:#39b54a;}.cls-5{stroke-dasharray:12.09 12.09;}.cls-6{stroke:#29abe2;}.cls-7{fill:#29abe2;}.cls-8{stroke:#a67c52;}.cls-9{fill:#a67c52;}.cls-10{font-size:36.26px;}</style></defs><g id="Layer_2" data-name="Layer 2"><g id="Layer_1-2" data-name="Layer 1"><rect class="cls-1" x="165" y="262.68" width="523" height="20"/><text class="cls-2" transform="translate(6.19 288.22)">2</text><text class="cls-2" transform="translate(6.19 50.22)">1</text><text class="cls-2" transform="translate(98.19 291.22)">A</text><text class="cls-2" transform="translate(431.19 510.22)">w</text><text class="cls-2" transform="translate(454.19 237.22)"><tspan class="cls-3">V</tspan><tspan x="32.52" y="0">i</tspan></text><text class="cls-2" transform="translate(148.19 127.22)">p</text><text class="cls-2" transform="translate(114.19 572.22)">A</text><text class="cls-2" transform="translate(6.19 545.22)">3</text><path class="cls-4" d="M657,693.68q0-3,0-6"/><path class="cls-5" d="M657.07,675.59c2.73-344.31,83.06-623.16,184-643.69"/><path class="cls-4" d="M847,31a59.92,59.92,0,0,1,6-.31"/><path class="cls-4" d="M196,693.68q0-3,0-6"/><path class="cls-5" d="M195.93,675.59C193.2,331.28,112.87,52.43,12,31.9"/><path class="cls-4" d="M6,31a59.92,59.92,0,0,0-6-.31"/><line class="cls-6" x1="223" y1="501.68" x2="223" y2="562.72"/><path class="cls-7" d="M223,591.68c-5.06-13.63-13.69-30.54-22.83-41L223,558.91l22.82-8.25C236.68,561.14,228.05,578.05,223,591.68Z"/><line class="cls-6" x1="323" y1="501.68" x2="323" y2="562.72"/><path class="cls-7" d="M323,591.68c-5.06-13.63-13.69-30.54-22.83-41L323,558.91l22.82-8.25C336.68,561.14,328.05,578.05,323,591.68Z"/><line class="cls-6" x1="423" y1="501.68" x2="423" y2="562.72"/><path class="cls-7" d="M423,591.68c-5.06-13.63-13.69-30.54-22.83-41L423,558.91l22.82-8.25C436.68,561.14,428.05,578.05,423,591.68Z"/><line class="cls-6" x1="523" y1="501.68" x2="523" y2="562.72"/><path class="cls-7" d="M523,591.68c-5.06-13.63-13.69-30.54-22.83-41L523,558.91l22.82-8.25C536.68,561.14,528.05,578.05,523,591.68Z"/><line class="cls-6" x1="623" y1="501.68" x2="623" y2="562.72"/><path class="cls-7" d="M623,591.68c-5.06-13.63-13.69-30.54-22.83-41L623,558.91l22.82-8.25C636.68,561.14,628.05,578.05,623,591.68Z"/><line class="cls-8" x1="217" y1="237.68" x2="217" y2="298.72"/><path class="cls-9" d="M217,327.68c-5.06-13.63-13.69-30.54-22.83-41L217,294.91l22.82-8.25C230.68,297.14,222.05,314.05,217,327.68Z"/><line class="cls-8" x1="317" y1="237.68" x2="317" y2="298.72"/><path class="cls-9" d="M317,327.68c-5.06-13.63-13.69-30.54-22.83-41L317,294.91l22.82-8.25C330.68,297.14,322.05,314.05,317,327.68Z"/><line class="cls-8" x1="417" y1="237.68" x2="417" y2="298.72"/><path class="cls-9" d="M417,327.68c-5.06-13.63-13.69-30.54-22.83-41L417,294.91l22.82-8.25C430.68,297.14,422.05,314.05,417,327.68Z"/><line class="cls-8" x1="517" y1="237.68" x2="517" y2="298.72"/><path class="cls-9" d="M517,327.68c-5.06-13.63-13.69-30.54-22.83-41L517,294.91l22.82-8.25C530.68,297.14,522.05,314.05,517,327.68Z"/><line class="cls-8" x1="617" y1="237.68" x2="617" y2="298.72"/><path class="cls-9" d="M617,327.68c-5.06-13.63-13.69-30.54-22.83-41L617,294.91l22.82-8.25C630.68,297.14,622.05,314.05,617,327.68Z"/><text class="cls-10" transform="translate(151.65 555.77) rotate(90)">8</text></g></g></svg>