<svg id="Layer_1" data-name="Layer 1" xmlns="http://www.w3.org/2000/svg" viewBox="0 0 1200 800"><defs><style>.cls-1,.cls-11,.cls-12,.cls-14,.cls-15,.cls-18,.cls-20,.cls-21,.cls-22,.cls-23,.cls-25,.cls-28,.cls-4,.cls-6,.cls-8,.cls-9{isolation:isolate;}.cls-11,.cls-15,.cls-18,.cls-2,.cls-28,.cls-4,.cls-8{fill:#fff;}.cls-3{fill:#2d2d44;stroke:#4a4a6a;}.cls-24,.cls-3{stroke-width:2px;}.cls-4{font-size:18px;}.cls-11,.cls-14,.cls-18,.cls-20,.cls-21,.cls-22,.cls-4,.cls-6{font-family:Arial-BoldMT, Arial;font-weight:700;}.cls-5{letter-spacing:-0.07em;}.cls-15,.cls-20,.cls-21,.cls-22,.cls-23,.cls-6{font-size:14px;}.cls-6{fill:#ff6b6b;}.cls-21,.cls-7{fill:#4caf50;}.cls-12,.cls-8{font-size:10px;}.cls-12,.cls-15,.cls-23,.cls-25,.cls-28,.cls-8{font-family:ArialMT, Arial;}.cls-19,.cls-20,.cls-9{fill:#f44;}.cls-9{opacity:0.7;}.cls-10,.cls-23{fill:#ff9800;}.cls-11,.cls-28{font-size:11px;}.cls-12,.cls-25{fill:#aaa;}.cls-13{letter-spacing:-0.04em;}.cls-14,.cls-18{font-size:16px;}.cls-14,.cls-22{fill:#ffeb3b;}.cls-16{letter-spacing:-0.11em;}.cls-17{letter-spacing:-0.02em;}.cls-24{fill:none;stroke:#666;}.cls-25{font-size:12px;}.cls-26{fill:#9c27b0;}.cls-27{fill:#2196f3;}</style></defs><g class="cls-1"><path class="cls-2" d="M249.83,50h-4.4l-1.75-4.55h-8L234,50h-4.29l7.8-20h4.28Zm-7.45-7.93-2.76-7.44-2.71,7.44Z"/><path class="cls-2" d="M255.63,50h-3.85V35.48h3.57v2.06A6.18,6.18,0,0,1,257,35.62a3,3,0,0,1,1.66-.47,4.81,4.81,0,0,1,2.53.73L260,39.23a3.38,3.38,0,0,0-1.8-.63,2.16,2.16,0,0,0-1.37.44,3,3,0,0,0-.88,1.61,22.46,22.46,0,0,0-.32,4.87Z"/><path class="cls-2" d="M276.16,50h-3.57V47.87a5.75,5.75,0,0,1-2.1,1.85,5.44,5.44,0,0,1-2.44.61,5.52,5.52,0,0,1-4.28-2A8.19,8.19,0,0,1,262,42.69a8.1,8.1,0,0,1,1.74-5.62,5.67,5.67,0,0,1,4.39-1.92,5.45,5.45,0,0,1,4.21,2V30h3.84Zm-10.25-7.57a6.61,6.61,0,0,0,.64,3.36,2.91,2.91,0,0,0,2.6,1.5,2.82,2.82,0,0,0,2.25-1.12,5.24,5.24,0,0,0,.93-3.38,5.73,5.73,0,0,0-.9-3.6,3,3,0,0,0-4.6,0A4.89,4.89,0,0,0,265.91,42.43Z"/><path class="cls-2" d="M289.5,50V47.83a5.59,5.59,0,0,1-2.08,1.83,5.92,5.92,0,0,1-2.73.67,5.41,5.41,0,0,1-2.62-.64,3.73,3.73,0,0,1-1.68-1.81,8,8,0,0,1-.52-3.21V35.48h3.84v6.67a18.77,18.77,0,0,0,.21,3.76,2.05,2.05,0,0,0,.77,1.09,2.38,2.38,0,0,0,1.42.4,3,3,0,0,0,1.77-.54,2.69,2.69,0,0,0,1.06-1.34,15,15,0,0,0,.29-3.91V35.48h3.84V50Z"/><path class="cls-2" d="M297.05,33.51V30h3.84v3.55Zm0,16.49V35.48h3.84V50Z"/><path class="cls-2" d="M318,50H314.2V42.59a11.54,11.54,0,0,0-.25-3,2.15,2.15,0,0,0-.8-1.08,2.31,2.31,0,0,0-1.33-.38,3,3,0,0,0-1.79.55,2.76,2.76,0,0,0-1.09,1.45,12.35,12.35,0,0,0-.29,3.33V50H304.8V35.48h3.57v2.13a5.82,5.82,0,0,1,4.79-2.46,5.69,5.69,0,0,1,2.32.46,4,4,0,0,1,1.59,1.17,4.35,4.35,0,0,1,.76,1.61A12.17,12.17,0,0,1,318,41Z"/><path class="cls-2" d="M321.05,42.54a7.83,7.83,0,0,1,.94-3.71,6.45,6.45,0,0,1,2.67-2.73,7.91,7.91,0,0,1,3.86-1,7.26,7.26,0,0,1,5.4,2.14A7.38,7.38,0,0,1,336,42.7a7.46,7.46,0,0,1-2.13,5.46,7.15,7.15,0,0,1-5.35,2.17,8.47,8.47,0,0,1-3.81-.9A6.29,6.29,0,0,1,322,46.78,8.8,8.8,0,0,1,321.05,42.54Zm3.93.2a4.84,4.84,0,0,0,1,3.31,3.35,3.35,0,0,0,5.05,0,4.89,4.89,0,0,0,1-3.34,4.79,4.79,0,0,0-1-3.28,3.35,3.35,0,0,0-5.05,0A4.84,4.84,0,0,0,325,42.74Z"/><path class="cls-2" d="M345.82,43.48l3.94-.38A4.74,4.74,0,0,0,351.2,46a4.35,4.35,0,0,0,2.93.93,4.51,4.51,0,0,0,2.95-.83,2.46,2.46,0,0,0,1-1.93,1.8,1.8,0,0,0-.42-1.21,3.21,3.21,0,0,0-1.45-.87c-.48-.17-1.56-.46-3.24-.88a11.06,11.06,0,0,1-4.57-2,5.26,5.26,0,0,1-1-6.9,5.46,5.46,0,0,1,2.5-2,10.15,10.15,0,0,1,3.95-.69,8.48,8.48,0,0,1,5.68,1.65,5.82,5.82,0,0,1,2,4.42l-4,.17a3.46,3.46,0,0,0-1.12-2.22,4.07,4.07,0,0,0-2.56-.68,4.62,4.62,0,0,0-2.76.73,1.46,1.46,0,0,0-.65,1.24,1.54,1.54,0,0,0,.6,1.22,10.5,10.5,0,0,0,3.72,1.34,20.22,20.22,0,0,1,4.37,1.44,5.76,5.76,0,0,1,2.22,2,6,6,0,0,1,.8,3.19,5.89,5.89,0,0,1-1,3.23,5.7,5.7,0,0,1-2.71,2.23,11.27,11.27,0,0,1-4.36.74,8.71,8.71,0,0,1-5.84-1.76A7.61,7.61,0,0,1,345.82,43.48Z"/><path class="cls-2" d="M365.49,33.51V30h3.84v3.55Zm0,16.49V35.48h3.84V50Z"/><path class="cls-2" d="M386.48,50h-3.84V42.59a11.11,11.11,0,0,0-.25-3,2.15,2.15,0,0,0-.8-1.08,2.31,2.31,0,0,0-1.33-.38,3,3,0,0,0-1.79.55,2.76,2.76,0,0,0-1.09,1.45,12.35,12.35,0,0,0-.29,3.33V50h-3.84V35.48h3.56v2.13a5.83,5.83,0,0,1,4.79-2.46,5.65,5.65,0,0,1,2.32.46,4,4,0,0,1,1.6,1.17,4.18,4.18,0,0,1,.75,1.61,12.17,12.17,0,0,1,.21,2.59Z"/><path class="cls-2" d="M390,51l4.39.53a1.46,1.46,0,0,0,.51,1,2.81,2.81,0,0,0,1.72.41,4.46,4.46,0,0,0,2.25-.45,1.82,1.82,0,0,0,.77-1,5.77,5.77,0,0,0,.18-1.76V47.65A5.2,5.2,0,0,1,395.49,50a5.38,5.38,0,0,1-4.64-2.47,8.46,8.46,0,0,1-1.34-4.87,8,8,0,0,1,1.76-5.58,5.66,5.66,0,0,1,4.37-1.93,5.3,5.3,0,0,1,4.44,2.37v-2h3.6v13a12.71,12.71,0,0,1-.43,3.84,4.77,4.77,0,0,1-1.18,2A5.37,5.37,0,0,1,400,55.48a10.54,10.54,0,0,1-3.23.41q-3.69,0-5.24-1.26A4,4,0,0,1,390,51.42C390,51.29,390,51.14,390,51Zm3.43-8.52a5.2,5.2,0,0,0,.9,3.38,2.75,2.75,0,0,0,2.21,1.08,3,3,0,0,0,2.37-1.1,4.79,4.79,0,0,0,1-3.26,5.07,5.07,0,0,0-.93-3.35,3,3,0,0,0-2.36-1.1,2.81,2.81,0,0,0-2.27,1.08A5,5,0,0,0,393.45,42.44Z"/><path class="cls-2" d="M407.48,50V30h3.84V50Z"/><path class="cls-2" d="M423.67,45.38l3.83.64a6.34,6.34,0,0,1-2.34,3.21,6.86,6.86,0,0,1-4,1.1,6.51,6.51,0,0,1-5.61-2.48,8.35,8.35,0,0,1-1.43-5A8,8,0,0,1,416,37.2a6.2,6.2,0,0,1,4.78-2.05,6.46,6.46,0,0,1,5.11,2.14c1.25,1.43,1.84,3.61,1.79,6.56h-9.62a3.87,3.87,0,0,0,.92,2.66,3,3,0,0,0,2.22,1,2.36,2.36,0,0,0,1.52-.5A3,3,0,0,0,423.67,45.38Zm.22-3.88A3.7,3.7,0,0,0,423,39a2.62,2.62,0,0,0-2-.87A2.68,2.68,0,0,0,419,39a3.53,3.53,0,0,0-.81,2.49Z"/><path class="cls-2" d="M451.46,42.63l3.93,1.25a8.86,8.86,0,0,1-3,4.87,9.43,9.43,0,0,1-11.88-1.14,10.38,10.38,0,0,1-2.57-7.45q0-5,2.58-7.78a8.88,8.88,0,0,1,6.8-2.76,8.32,8.32,0,0,1,6,2.17,7.9,7.9,0,0,1,2.05,3.69l-4,1a4.17,4.17,0,0,0-4.23-3.37,4.59,4.59,0,0,0-3.62,1.6q-1.38,1.61-1.38,5.19,0,3.8,1.36,5.41A4.47,4.47,0,0,0,447,46.88a4.05,4.05,0,0,0,2.77-1A6,6,0,0,0,451.46,42.63Z"/><path class="cls-2" d="M457.94,42.54a7.85,7.85,0,0,1,.95-3.71,6.4,6.4,0,0,1,2.67-2.73,7.91,7.91,0,0,1,3.86-1,7.26,7.26,0,0,1,5.4,2.14,7.42,7.42,0,0,1,2.11,5.41,7.46,7.46,0,0,1-2.13,5.46,7.17,7.17,0,0,1-5.35,2.17,8.47,8.47,0,0,1-3.81-.9,6.19,6.19,0,0,1-2.75-2.65A8.8,8.8,0,0,1,457.94,42.54Zm3.94.2a4.79,4.79,0,0,0,1,3.31,3.35,3.35,0,0,0,5,0,4.89,4.89,0,0,0,1-3.34,4.79,4.79,0,0,0-1-3.28,3.35,3.35,0,0,0-5,0A4.79,4.79,0,0,0,461.88,42.74Z"/><path class="cls-2" d="M479.61,50h-3.84V35.48h3.57v2.06A6.18,6.18,0,0,1,481,35.62a3,3,0,0,1,1.66-.47,4.83,4.83,0,0,1,2.53.73L484,39.23a3.38,3.38,0,0,0-1.81-.63,2.13,2.13,0,0,0-1.36.44,3,3,0,0,0-.89,1.61,23.15,23.15,0,0,0-.32,4.87Z"/><path class="cls-2" d="M495.24,45.38l3.83.64a6.33,6.33,0,0,1-2.33,3.21,6.9,6.9,0,0,1-4,1.1,6.49,6.49,0,0,1-5.6-2.48,8.29,8.29,0,0,1-1.44-5,8,8,0,0,1,1.89-5.65,6.17,6.17,0,0,1,4.77-2.05,6.46,6.46,0,0,1,5.11,2.14c1.25,1.43,1.85,3.61,1.79,6.56h-9.62a3.83,3.83,0,0,0,.93,2.66,2.91,2.91,0,0,0,2.21,1,2.36,2.36,0,0,0,1.52-.5A3,3,0,0,0,495.24,45.38Zm.22-3.88A3.74,3.74,0,0,0,494.6,39a2.77,2.77,0,0,0-4.08,0,3.57,3.57,0,0,0-.8,2.49Z"/><path class="cls-2" d="M503.14,39.32V35.48H507v3.84Zm0,10.68V46.16H507V50Z"/><path class="cls-2" d="M519.55,30h8a22.13,22.13,0,0,1,3.55.2,5,5,0,0,1,3.63,2.5,4.51,4.51,0,0,1,.61,2.34,4.75,4.75,0,0,1-2.81,4.35,5.25,5.25,0,0,1,2.81,1.82,4.79,4.79,0,0,1,1,3,6,6,0,0,1-.64,2.66A5.24,5.24,0,0,1,534,48.91a5.55,5.55,0,0,1-2.71,1c-.67.08-2.3.12-4.88.14h-6.82Zm4,3.33v4.64h2.66c1.57,0,2.55,0,2.94-.07a2.65,2.65,0,0,0,1.63-.72,2.09,2.09,0,0,0,.6-1.56,2.2,2.2,0,0,0-.52-1.51,2.3,2.3,0,0,0-1.52-.71c-.4,0-1.56-.07-3.46-.07Zm0,8v5.36h3.75a18.91,18.91,0,0,0,2.78-.12,2.54,2.54,0,0,0,1.47-.8,2.49,2.49,0,0,0,.56-1.7,2.62,2.62,0,0,0-.43-1.53,2.52,2.52,0,0,0-1.27-.92,13.78,13.78,0,0,0-3.59-.29Z"/><path class="cls-2" d="M539.73,50V30h3.84V50Z"/><path class="cls-2" d="M546.62,42.54a7.83,7.83,0,0,1,.94-3.71,6.45,6.45,0,0,1,2.67-2.73,8,8,0,0,1,3.87-1,7.29,7.29,0,0,1,5.4,2.14,7.41,7.41,0,0,1,2.1,5.41,7.49,7.49,0,0,1-2.12,5.46,7.19,7.19,0,0,1-5.36,2.17,8.4,8.4,0,0,1-3.8-.9,6.26,6.26,0,0,1-2.76-2.65A8.8,8.8,0,0,1,546.62,42.54Zm3.94.2a4.84,4.84,0,0,0,1,3.31,3.35,3.35,0,0,0,5,0,4.89,4.89,0,0,0,1-3.34,4.79,4.79,0,0,0-1-3.28,3.35,3.35,0,0,0-5,0A4.84,4.84,0,0,0,550.56,42.74Z"/><path class="cls-2" d="M577.27,39.77l-3.79.69a2.7,2.7,0,0,0-.86-1.71,2.66,2.66,0,0,0-1.76-.58,2.85,2.85,0,0,0-2.29,1,5.06,5.06,0,0,0-.86,3.31,5.87,5.87,0,0,0,.87,3.65,2.86,2.86,0,0,0,2.33,1.07,2.6,2.6,0,0,0,1.79-.62,3.72,3.72,0,0,0,1-2.14l3.77.64A6.67,6.67,0,0,1,575.21,49a7,7,0,0,1-4.47,1.33,6.64,6.64,0,0,1-5.08-2,7.78,7.78,0,0,1-1.9-5.57,7.82,7.82,0,0,1,1.9-5.59,6.74,6.74,0,0,1,5.14-2A7,7,0,0,1,575,36.29,6.36,6.36,0,0,1,577.27,39.77Z"/><path class="cls-2" d="M580.05,50V30h3.84V40.59l4.5-5.11h4.73l-5,5.31L593.47,50h-4.14l-3.65-6.52-1.79,1.87V50Z"/><path class="cls-2" d="M595.75,33.51V30h3.85v3.55Zm0,16.49V35.48h3.85V50Z"/><path class="cls-2" d="M616.74,50H612.9V42.59a11.11,11.11,0,0,0-.25-3,2.15,2.15,0,0,0-.8-1.08,2.31,2.31,0,0,0-1.33-.38,3.06,3.06,0,0,0-1.79.55,2.76,2.76,0,0,0-1.09,1.45,12.79,12.79,0,0,0-.29,3.33V50h-3.84V35.48h3.57v2.13a5.8,5.8,0,0,1,4.78-2.46,5.65,5.65,0,0,1,2.32.46,3.94,3.94,0,0,1,1.6,1.17,4.18,4.18,0,0,1,.75,1.61,12.17,12.17,0,0,1,.21,2.59Z"/><path class="cls-2" d="M620.28,51l4.39.53a1.46,1.46,0,0,0,.51,1,2.83,2.83,0,0,0,1.72.41,4.53,4.53,0,0,0,2.26-.45,1.85,1.85,0,0,0,.76-1,5.77,5.77,0,0,0,.18-1.76V47.65A5.2,5.2,0,0,1,625.75,50a5.36,5.36,0,0,1-4.63-2.47,8.39,8.39,0,0,1-1.34-4.87,8,8,0,0,1,1.75-5.58,5.66,5.66,0,0,1,4.37-1.93,5.3,5.3,0,0,1,4.44,2.37v-2h3.6v13a13.11,13.11,0,0,1-.42,3.84,4.89,4.89,0,0,1-1.19,2,5.29,5.29,0,0,1-2.05,1.13,10.54,10.54,0,0,1-3.23.41q-3.69,0-5.24-1.26a4,4,0,0,1-1.54-3.21C620.27,51.29,620.27,51.14,620.28,51Zm3.43-8.52a5.2,5.2,0,0,0,.9,3.38,2.76,2.76,0,0,0,2.21,1.08,3.07,3.07,0,0,0,2.38-1.1,4.84,4.84,0,0,0,1-3.26,5.07,5.07,0,0,0-.93-3.35,3,3,0,0,0-2.35-1.1,2.83,2.83,0,0,0-2.28,1.08A5,5,0,0,0,623.71,42.44Z"/><path class="cls-2" d="M648.39,39.91l-3.48-.63a5.44,5.44,0,0,1,2-3.12,7.44,7.44,0,0,1,4.26-1,9.28,9.28,0,0,1,3.83.61,3.8,3.8,0,0,1,1.77,1.55,7.89,7.89,0,0,1,.52,3.43l0,4.49a15.7,15.7,0,0,0,.19,2.82,7.9,7.9,0,0,0,.69,2h-3.8c-.1-.25-.22-.63-.37-1.13-.06-.23-.11-.38-.14-.46a6.92,6.92,0,0,1-2.1,1.44,6.05,6.05,0,0,1-2.4.48,5,5,0,0,1-3.53-1.22A4,4,0,0,1,644.51,46a4.14,4.14,0,0,1,.59-2.2,3.92,3.92,0,0,1,1.64-1.48,12.86,12.86,0,0,1,3.06-.89,21.19,21.19,0,0,0,3.73-.94v-.39a2,2,0,0,0-.54-1.58,3.34,3.34,0,0,0-2.07-.47,2.74,2.74,0,0,0-1.6.41A2.8,2.8,0,0,0,648.39,39.91ZM653.53,43c-.49.16-1.27.36-2.34.59a6.85,6.85,0,0,0-2.09.67,1.59,1.59,0,0,0-.75,1.35A1.87,1.87,0,0,0,649,47a2.1,2.1,0,0,0,1.53.59,3.37,3.37,0,0,0,2-.68,2.4,2.4,0,0,0,.91-1.27,7.69,7.69,0,0,0,.15-1.88Z"/><path class="cls-2" d="M674.3,50h-3.84V42.59a11.11,11.11,0,0,0-.25-3,2.15,2.15,0,0,0-.8-1.08,2.31,2.31,0,0,0-1.33-.38,3,3,0,0,0-1.79.55,2.76,2.76,0,0,0-1.09,1.45,12.35,12.35,0,0,0-.29,3.33V50h-3.84V35.48h3.56v2.13a5.83,5.83,0,0,1,4.79-2.46,5.65,5.65,0,0,1,2.32.46,3.94,3.94,0,0,1,1.6,1.17,4.18,4.18,0,0,1,.75,1.61A12.17,12.17,0,0,1,674.3,41Z"/><path class="cls-2" d="M691.51,50h-3.57V47.87a5.8,5.8,0,0,1-2.09,1.85,5.43,5.43,0,0,1-6.73-1.41,8.19,8.19,0,0,1-1.79-5.62,8.1,8.1,0,0,1,1.74-5.62,5.67,5.67,0,0,1,4.39-1.92,5.43,5.43,0,0,1,4.21,2V30h3.84Zm-10.25-7.57a6.61,6.61,0,0,0,.64,3.36,2.91,2.91,0,0,0,2.6,1.5,2.82,2.82,0,0,0,2.25-1.12,5.18,5.18,0,0,0,.93-3.38,5.73,5.73,0,0,0-.9-3.6,3,3,0,0,0-4.6,0A4.94,4.94,0,0,0,681.26,42.43Z"/><path class="cls-2" d="M703.11,50V30h6.49a23.54,23.54,0,0,1,4.81.3,5.26,5.26,0,0,1,2.89,2,6.26,6.26,0,0,1,1.16,3.9,6.53,6.53,0,0,1-.67,3.11,5.49,5.49,0,0,1-1.7,2,5.78,5.78,0,0,1-2.1.95,23.26,23.26,0,0,1-4.2.29h-2.64V50Zm4-16.65V39h2.22a10.44,10.44,0,0,0,3.2-.32,2.64,2.64,0,0,0,1.26-1,2.68,2.68,0,0,0,.46-1.56,2.6,2.6,0,0,0-.64-1.81,2.83,2.83,0,0,0-1.63-.89,19.86,19.86,0,0,0-2.91-.13Z"/><path class="cls-2" d="M730.16,45.38,734,46a6.33,6.33,0,0,1-2.33,3.21,6.88,6.88,0,0,1-4,1.1,6.49,6.49,0,0,1-5.6-2.48,8.29,8.29,0,0,1-1.44-5,8,8,0,0,1,1.89-5.65,6.2,6.2,0,0,1,4.77-2.05,6.48,6.48,0,0,1,5.12,2.14c1.24,1.43,1.84,3.61,1.79,6.56h-9.63a3.93,3.93,0,0,0,.93,2.66,2.92,2.92,0,0,0,2.22,1,2.33,2.33,0,0,0,1.51-.5A3,3,0,0,0,730.16,45.38Zm.22-3.88a3.69,3.69,0,0,0-.86-2.54,2.76,2.76,0,0,0-4.07,0,3.53,3.53,0,0,0-.81,2.49Z"/><path class="cls-2" d="M741,50h-3.84V35.48h3.57v2.06a6.18,6.18,0,0,1,1.65-1.92,3,3,0,0,1,1.66-.47,4.81,4.81,0,0,1,2.53.73l-1.19,3.35a3.38,3.38,0,0,0-1.8-.63,2.16,2.16,0,0,0-1.37.44,3,3,0,0,0-.88,1.61,22.23,22.23,0,0,0-.33,4.87Z"/><path class="cls-2" d="M746.54,35.48h2.13V34.39a7.29,7.29,0,0,1,.39-2.74,3.09,3.09,0,0,1,1.44-1.47,5.51,5.51,0,0,1,2.65-.56,10.64,10.64,0,0,1,3.21.49l-.52,2.68a7.37,7.37,0,0,0-1.76-.22,1.57,1.57,0,0,0-1.2.39,2.27,2.27,0,0,0-.36,1.5v1h2.87v3h-2.87V50h-3.85V38.5h-2.13Z"/><path class="cls-2" d="M756.66,42.54a7.83,7.83,0,0,1,.94-3.71,6.42,6.42,0,0,1,2.68-2.73,7.91,7.91,0,0,1,3.86-1,7.29,7.29,0,0,1,5.4,2.14,7.41,7.41,0,0,1,2.1,5.41,7.49,7.49,0,0,1-2.12,5.46,7.17,7.17,0,0,1-5.35,2.17,8.44,8.44,0,0,1-3.81-.9,6.26,6.26,0,0,1-2.76-2.65A8.8,8.8,0,0,1,756.66,42.54Zm3.94.2a4.84,4.84,0,0,0,1,3.31,3.29,3.29,0,0,0,2.53,1.15,3.24,3.24,0,0,0,2.52-1.15,4.89,4.89,0,0,0,1-3.34,4.79,4.79,0,0,0-1-3.28,3.24,3.24,0,0,0-2.52-1.15,3.29,3.29,0,0,0-2.53,1.15A4.84,4.84,0,0,0,760.6,42.74Z"/><path class="cls-2" d="M778.33,50h-3.84V35.48h3.57v2.06a6.31,6.31,0,0,1,1.64-1.92,3,3,0,0,1,1.66-.47,4.81,4.81,0,0,1,2.53.73l-1.19,3.35a3.32,3.32,0,0,0-1.8-.63,2.18,2.18,0,0,0-1.37.44,3,3,0,0,0-.88,1.61,23.15,23.15,0,0,0-.32,4.87Z"/><path class="cls-2" d="M785.26,35.48h3.54v2a5.71,5.71,0,0,1,4.53-2.31,4.82,4.82,0,0,1,2.42.58,4.45,4.45,0,0,1,1.68,1.73,6.7,6.7,0,0,1,2.06-1.73,5,5,0,0,1,2.37-.58,5.33,5.33,0,0,1,2.71.65,4,4,0,0,1,1.65,1.91,8.35,8.35,0,0,1,.4,3V50h-3.85V41.7a6.27,6.27,0,0,0-.39-2.79,1.84,1.84,0,0,0-1.64-.82,2.67,2.67,0,0,0-1.52.49,2.76,2.76,0,0,0-1,1.45,10.36,10.36,0,0,0-.31,3v7H794V42a10.76,10.76,0,0,0-.21-2.73,1.75,1.75,0,0,0-.63-.92,2,2,0,0,0-1.17-.3,2.79,2.79,0,0,0-1.6.48,2.68,2.68,0,0,0-1,1.38,10.44,10.44,0,0,0-.31,3v7h-3.84Z"/><path class="cls-2" d="M813.32,39.91l-3.49-.63a5.49,5.49,0,0,1,2-3.12,7.46,7.46,0,0,1,4.27-1,9.31,9.31,0,0,1,3.83.61,3.8,3.8,0,0,1,1.77,1.55,7.93,7.93,0,0,1,.51,3.43l0,4.49a15.91,15.91,0,0,0,.18,2.82,8.82,8.82,0,0,0,.69,2h-3.8c-.1-.25-.22-.63-.37-1.13-.06-.23-.11-.38-.13-.46a7,7,0,0,1-2.11,1.44,6,6,0,0,1-2.39.48,5,5,0,0,1-3.54-1.22A4,4,0,0,1,809.43,46a4.14,4.14,0,0,1,.59-2.2,3.89,3.89,0,0,1,1.65-1.48,12.61,12.61,0,0,1,3.05-.89,21.62,21.62,0,0,0,3.74-.94v-.39a2,2,0,0,0-.55-1.58,3.32,3.32,0,0,0-2.07-.47,2.32,2.32,0,0,0-2.52,1.82ZM818.46,43c-.5.16-1.28.36-2.34.59a6.64,6.64,0,0,0-2.09.67,1.6,1.6,0,0,0-.76,1.35,1.84,1.84,0,0,0,.61,1.39,2.1,2.1,0,0,0,1.53.59,3.36,3.36,0,0,0,2-.68,2.48,2.48,0,0,0,.92-1.27,7.69,7.69,0,0,0,.15-1.88Z"/><path class="cls-2" d="M839.22,50h-3.84V42.59a11.7,11.7,0,0,0-.24-3,2.2,2.2,0,0,0-.8-1.08,2.35,2.35,0,0,0-1.34-.38,3.06,3.06,0,0,0-1.79.55,2.76,2.76,0,0,0-1.09,1.45,12.79,12.79,0,0,0-.29,3.33V50H826V35.48h3.57v2.13a5.8,5.8,0,0,1,4.78-2.46,5.73,5.73,0,0,1,2.33.46,4,4,0,0,1,1.59,1.17,4.18,4.18,0,0,1,.75,1.61,12.17,12.17,0,0,1,.21,2.59Z"/><path class="cls-2" d="M855.78,39.77l-3.79.69a2.66,2.66,0,0,0-.87-1.71,2.62,2.62,0,0,0-1.75-.58,2.85,2.85,0,0,0-2.29,1,5.06,5.06,0,0,0-.86,3.31,5.87,5.87,0,0,0,.87,3.65,2.86,2.86,0,0,0,2.33,1.07,2.6,2.6,0,0,0,1.79-.62,3.72,3.72,0,0,0,1-2.14l3.77.64A6.67,6.67,0,0,1,853.72,49a7,7,0,0,1-4.47,1.33,6.64,6.64,0,0,1-5.08-2,7.78,7.78,0,0,1-1.9-5.57,7.82,7.82,0,0,1,1.9-5.59,6.74,6.74,0,0,1,5.14-2,7,7,0,0,1,4.22,1.14A6.31,6.31,0,0,1,855.78,39.77Z"/><path class="cls-2" d="M867.1,45.38l3.83.64a6.33,6.33,0,0,1-2.33,3.21,6.88,6.88,0,0,1-4,1.1,6.49,6.49,0,0,1-5.6-2.48,8.29,8.29,0,0,1-1.44-5,8,8,0,0,1,1.89-5.65,6.2,6.2,0,0,1,4.77-2.05,6.46,6.46,0,0,1,5.11,2.14c1.25,1.43,1.85,3.61,1.79,6.56h-9.62a3.93,3.93,0,0,0,.93,2.66,2.91,2.91,0,0,0,2.21,1,2.36,2.36,0,0,0,1.52-.5A3,3,0,0,0,867.1,45.38Zm.22-3.88a3.74,3.74,0,0,0-.86-2.54,2.64,2.64,0,0,0-2-.87,2.68,2.68,0,0,0-2.08.92,3.57,3.57,0,0,0-.8,2.49Z"/><path class="cls-2" d="M882,50V30h4V50Z"/><path class="cls-2" d="M889.54,35.48h3.54v2a5.68,5.68,0,0,1,4.52-2.31,4.79,4.79,0,0,1,2.42.58,4.31,4.31,0,0,1,1.68,1.73,6.73,6.73,0,0,1,2.07-1.73,5,5,0,0,1,2.36-.58,5.3,5.3,0,0,1,2.71.65,4,4,0,0,1,1.66,1.91,8.4,8.4,0,0,1,.39,3V50h-3.84V41.7a6.09,6.09,0,0,0-.4-2.79,1.83,1.83,0,0,0-1.64-.82,2.64,2.64,0,0,0-1.51.49,2.71,2.71,0,0,0-1,1.45,10.36,10.36,0,0,0-.31,3v7h-3.85V42a10.93,10.93,0,0,0-.2-2.73,1.76,1.76,0,0,0-.64-.92,2,2,0,0,0-1.17-.3,2.81,2.81,0,0,0-1.6.48,2.61,2.61,0,0,0-1,1.38,10.09,10.09,0,0,0-.31,3v7h-3.84Z"/><path class="cls-2" d="M914.61,35.48h3.58v2.13a5.36,5.36,0,0,1,1.89-1.77,5.15,5.15,0,0,1,2.64-.69,5.55,5.55,0,0,1,4.29,2,8,8,0,0,1,1.76,5.53A8.28,8.28,0,0,1,927,48.31a5.53,5.53,0,0,1-4.31,2,4.88,4.88,0,0,1-2.18-.48,7.48,7.48,0,0,1-2.06-1.64v7.31h-3.84Zm3.8,7a5.57,5.57,0,0,0,1,3.62,3,3,0,0,0,2.37,1.17A2.81,2.81,0,0,0,924,46.21a5.56,5.56,0,0,0,.88-3.52,5.27,5.27,0,0,0-.91-3.4,2.85,2.85,0,0,0-2.27-1.1,3,3,0,0,0-2.34,1.08A4.85,4.85,0,0,0,918.41,42.49Z"/><path class="cls-2" d="M934.69,39.91l-3.48-.63a5.44,5.44,0,0,1,2-3.12,7.46,7.46,0,0,1,4.27-1,9.31,9.31,0,0,1,3.83.61,3.9,3.9,0,0,1,1.77,1.55,7.93,7.93,0,0,1,.51,3.43l0,4.49a15.91,15.91,0,0,0,.18,2.82,8.82,8.82,0,0,0,.69,2h-3.8c-.1-.25-.22-.63-.37-1.13-.06-.23-.11-.38-.13-.46A7,7,0,0,1,938,49.85a6,6,0,0,1-2.39.48,5,5,0,0,1-3.54-1.22A4,4,0,0,1,930.81,46a4.14,4.14,0,0,1,.59-2.2,3.89,3.89,0,0,1,1.65-1.48,12.61,12.61,0,0,1,3.05-.89,21.19,21.19,0,0,0,3.73-.94v-.39a2,2,0,0,0-.54-1.58,3.32,3.32,0,0,0-2.07-.47,2.76,2.76,0,0,0-1.6.41A2.8,2.8,0,0,0,934.69,39.91ZM939.83,43c-.49.16-1.27.36-2.33.59a6.64,6.64,0,0,0-2.09.67,1.57,1.57,0,0,0-.76,1.35,1.87,1.87,0,0,0,.6,1.39,2.14,2.14,0,0,0,1.54.59,3.36,3.36,0,0,0,2-.68,2.4,2.4,0,0,0,.91-1.27,7.2,7.2,0,0,0,.15-1.88Z"/><path class="cls-2" d="M960.06,39.77l-3.79.69a2.75,2.75,0,0,0-.87-1.71,2.65,2.65,0,0,0-1.76-.58,2.86,2.86,0,0,0-2.29,1,5.06,5.06,0,0,0-.85,3.31,5.87,5.87,0,0,0,.87,3.65,2.85,2.85,0,0,0,2.33,1.07,2.62,2.62,0,0,0,1.79-.62,3.79,3.79,0,0,0,1-2.14l3.78.64A6.68,6.68,0,0,1,958,49a6.94,6.94,0,0,1-4.47,1.33,6.65,6.65,0,0,1-5.08-2,7.82,7.82,0,0,1-1.89-5.57,7.78,7.78,0,0,1,1.9-5.59,6.73,6.73,0,0,1,5.14-2,7,7,0,0,1,4.22,1.14A6.36,6.36,0,0,1,960.06,39.77Z"/><path class="cls-2" d="M969.63,35.48v3.06H967v5.85a14.35,14.35,0,0,0,.08,2.08.84.84,0,0,0,.34.48,1.06,1.06,0,0,0,.65.19,4.85,4.85,0,0,0,1.54-.37l.33,3a7.48,7.48,0,0,1-3,.58A4.88,4.88,0,0,1,965,50a2.73,2.73,0,0,1-1.22-.9,3.57,3.57,0,0,1-.54-1.5,19.16,19.16,0,0,1-.12-2.71V38.54h-1.77V35.48h1.77V32.6L967,30.35v5.13Z"/></g><g id="block_effect"><rect class="cls-3" x="100" y="650" width="1000" height="120" rx="10"/><text class="cls-4" transform="translate(438.12 680)">Blocking Effect: Missed Critical <tspan class="cls-5" x="274.06" y="0">T</tspan><tspan x="283.72" y="0">asks</tspan></text><text class="cls-6" transform="translate(150 715)">Sensor readings needed every 20ms:</text><rect class="cls-7" x="150" y="720" width="40" height="20" rx="2"/><text class="cls-8" transform="translate(162.78 734)">OK</text><rect class="cls-9" x="230" y="720" width="40" height="20" rx="2"/><text class="cls-8" transform="translate(246.67 734)">X</text><rect class="cls-9" x="310" y="720" width="40" height="20" rx="2"/><text class="cls-8" transform="translate(326.67 734)">X</text><rect class="cls-9" x="390" y="720" width="40" height="20" rx="2"/><text class="cls-8" transform="translate(406.67 734)">X</text><rect class="cls-7" x="470" y="720" width="40" height="20" rx="2"/><text class="cls-8" transform="translate(482.78 734)">OK</text><path class="cls-10" d="M229.49,685h229c1.62,0,2.94.94,2.94,2.1v11.55c0,1.16-1.32,2.1-2.94,2.1h-229c-1.62,0-2.94-.94-2.94-2.1V687.14C226.55,686,227.87,685,229.49,685Z"/><text class="cls-11" transform="translate(230 696.78)">60ms Data Processing BLOCKS Everything</text><text class="cls-12" transform="translate(160.55 755)">0ms</text><text class="cls-12" transform="translate(237.77 755)">20ms</text><text class="cls-12" transform="translate(317.77 755)">40ms</text><text class="cls-12" transform="translate(397.77 755)">60ms</text><text class="cls-12" transform="translate(477.77 755)">80ms</text><text class="cls-6" transform="translate(600 734)">Result: 3 missed readings = Poor real-time performance!</text></g><g id="performance_impact"><path class="cls-3" d="M110,350h980c5.52,0,10,5,10,11.08V615.82c0,6.11-4.48,11.07-10,11.07H110c-5.52,0-10-5-10-11.07V361.08C100,355,104.48,350,110,350Z"/><text class="cls-4" transform="translate(474.28 380)">Performance Impact<tspan class="cls-13" x="173.07" y="0"> </tspan><tspan x="177.4" y="0">Analysis</tspan></text><text class="cls-14" transform="translate(150 420)">The Math:</text><text class="cls-15" transform="translate(150 440)"><tspan class="cls-16">T</tspan><tspan x="7" y="0">otal Cycle</tspan><tspan class="cls-17" x="68.47" y="0"> </tspan><tspan class="cls-13" x="72.11" y="0">T</tspan><tspan x="80.14" y="0">ime = 20ms + 60ms + 30ms + 20ms = 130ms</tspan></text><text class="cls-15" transform="translate(150 460)">Update Rate = 1000ms ÷ 130ms = 7.69 Hz ≈ 7.7 Hz</text><text class="cls-6" transform="translate(150 480)">Problem: <tspan class="cls-5" x="64.57" y="0">T</tspan><tspan x="72.08" y="0">asks wait in line - no parallelism!</tspan></text><text class="cls-18" transform="translate(150 500)">Performance Comparison:</text><rect class="cls-19" x="150" y="510" width="150" height="35" rx="5"/><text class="cls-18" transform="translate(201.88 532)">7.7 Hz</text><text class="cls-20" transform="translate(310 527)">Current (Sequential)</text><rect class="cls-7" x="500" y="510" width="150" height="35" rx="5"/><text class="cls-18" transform="translate(549.43 532)">50+ Hz</text><text class="cls-21" transform="translate(660 527)"><tspan class="cls-5">T</tspan><tspan x="7.51" y="0">arget (Parallel)</tspan></text><text class="cls-22" transform="translate(750 527)">6.5x Performance Gap!</text><text class="cls-18" transform="translate(150 570)">Why CPU is &quot;Busy&quot; but Inefficient:</text><text class="cls-23" transform="translate(150 590)">• 60ms data processing blocks 3 sensor readings (20ms, 40ms, 60ms)</text><text class="cls-23" transform="translate(150 610)">• Critical tasks delayed by non-critical tasks</text></g><g id="execution_time"><rect class="cls-3" x="100" y="100" width="1000" height="200" rx="10"/><g class="cls-1"><path class="cls-2" d="M362.41,130V117.12H372v2.17h-7v2.86h6.46v2.17H365v3.51h7.19V130Z"/><path class="cls-2" d="M373.22,130l3.36-4.81-3.22-4.52h3l1.65,2.56,1.74-2.56h2.9l-3.16,4.42L383,130h-3l-1.9-2.89L376.11,130Z"/><path class="cls-2" d="M389.82,127l2.46.41a4.07,4.07,0,0,1-1.5,2.06,4.34,4.34,0,0,1-2.56.71,4.16,4.16,0,0,1-3.6-1.59,5.32,5.32,0,0,1-.93-3.22,5.16,5.16,0,0,1,1.22-3.63,4,4,0,0,1,3.06-1.31,4.13,4.13,0,0,1,3.29,1.37,6.07,6.07,0,0,1,1.15,4.21h-6.19a2.49,2.49,0,0,0,.6,1.71,1.88,1.88,0,0,0,1.43.62,1.51,1.51,0,0,0,1-.32A2,2,0,0,0,389.82,127Zm.14-2.5a2.42,2.42,0,0,0-.55-1.63,1.73,1.73,0,0,0-1.29-.56,1.71,1.71,0,0,0-1.33.59,2.24,2.24,0,0,0-.52,1.6Z"/><path class="cls-2" d="M402.56,123.43l-2.43.44a1.74,1.74,0,0,0-.56-1.1,1.67,1.67,0,0,0-1.13-.37A1.83,1.83,0,0,0,397,123a3.22,3.22,0,0,0-.55,2.13,3.7,3.7,0,0,0,.56,2.34,1.82,1.82,0,0,0,1.5.69,1.66,1.66,0,0,0,1.15-.4,2.41,2.41,0,0,0,.63-1.38l2.43.42a4.38,4.38,0,0,1-1.45,2.52,4.51,4.51,0,0,1-2.88.85,4.27,4.27,0,0,1-3.26-1.29,5,5,0,0,1-1.22-3.58,5,5,0,0,1,1.22-3.6,4.35,4.35,0,0,1,3.31-1.28,4.51,4.51,0,0,1,2.71.73A4,4,0,0,1,402.56,123.43Z"/><path class="cls-2" d="M410.58,130v-1.4a3.64,3.64,0,0,1-1.34,1.18,3.75,3.75,0,0,1-1.76.43,3.45,3.45,0,0,1-1.68-.41,2.43,2.43,0,0,1-1.08-1.16,5.07,5.07,0,0,1-.34-2.07v-5.9h2.47V125a11.85,11.85,0,0,0,.14,2.41,1.31,1.31,0,0,0,.49.7,1.56,1.56,0,0,0,.92.26,1.94,1.94,0,0,0,1.13-.35,1.78,1.78,0,0,0,.69-.86,10.22,10.22,0,0,0,.18-2.52v-3.93h2.47V130Z"/><path class="cls-2" d="M419.71,120.67v2H418v3.77a9.64,9.64,0,0,0,.05,1.33.56.56,0,0,0,.22.31.7.7,0,0,0,.42.12,3.34,3.34,0,0,0,1-.23l.21,1.91a4.81,4.81,0,0,1-2,.37,3.06,3.06,0,0,1-1.2-.22,1.83,1.83,0,0,1-.79-.58,2.34,2.34,0,0,1-.35-1,12.2,12.2,0,0,1-.08-1.74v-4.07h-1.13v-2h1.13v-1.86l2.48-1.44v3.3Z"/><path class="cls-2" d="M421.42,119.4v-2.28h2.47v2.28Zm0,10.6v-9.33h2.47V130Z"/><path class="cls-2" d="M425.85,125.2a5.11,5.11,0,0,1,.61-2.38,4.17,4.17,0,0,1,1.72-1.76,5.14,5.14,0,0,1,2.48-.6,4.64,4.64,0,0,1,3.47,1.37,4.74,4.74,0,0,1,1.36,3.48,4.82,4.82,0,0,1-1.37,3.51,4.61,4.61,0,0,1-3.44,1.39,5.38,5.38,0,0,1-2.45-.58,3.94,3.94,0,0,1-1.77-1.7A5.73,5.73,0,0,1,425.85,125.2Zm2.53.13a3.09,3.09,0,0,0,.66,2.13,2.15,2.15,0,0,0,3.25,0,3.12,3.12,0,0,0,.66-2.14,3,3,0,0,0-.66-2.11,2.15,2.15,0,0,0-3.25,0A3.08,3.08,0,0,0,428.38,125.33Z"/><path class="cls-2" d="M445.91,130h-2.47v-4.76a7.19,7.19,0,0,0-.16-2,1.33,1.33,0,0,0-.51-.69,1.5,1.5,0,0,0-.86-.25,1.94,1.94,0,0,0-1.15.36,1.76,1.76,0,0,0-.7.93,8.24,8.24,0,0,0-.19,2.14V130H437.4v-9.33h2.3V122a3.71,3.71,0,0,1,3.07-1.58,3.65,3.65,0,0,1,1.5.29,2.56,2.56,0,0,1,1,.75,2.75,2.75,0,0,1,.48,1,7.67,7.67,0,0,1,.14,1.66Z"/><path class="cls-2" d="M456.33,130V119.29h-3.82v-2.17h10.24v2.17h-3.81V130Z"/><path class="cls-2" d="M464.09,119.4v-2.28h2.47v2.28Zm0,10.6v-9.33h2.47V130Z"/><path class="cls-2" d="M468.9,120.67h2.28v1.27a3.65,3.65,0,0,1,2.91-1.48,3.17,3.17,0,0,1,1.55.36,2.85,2.85,0,0,1,1.08,1.12,4.42,4.42,0,0,1,1.33-1.12,3.64,3.64,0,0,1,3.26.05,2.58,2.58,0,0,1,1.07,1.23,5.32,5.32,0,0,1,.25,1.93v6h-2.47v-5.33a4,4,0,0,0-.25-1.8,1.18,1.18,0,0,0-1.06-.53,1.68,1.68,0,0,0-1,.32,1.7,1.7,0,0,0-.66.93,6.45,6.45,0,0,0-.21,1.93V130h-2.47v-5.12a7,7,0,0,0-.13-1.75,1,1,0,0,0-.41-.59,1.26,1.26,0,0,0-.75-.2,1.86,1.86,0,0,0-1,.31,1.71,1.71,0,0,0-.65.89,6.65,6.65,0,0,0-.2,1.92V130H468.9Z"/><path class="cls-2" d="M490.5,127l2.46.41a4.07,4.07,0,0,1-1.5,2.06,4.34,4.34,0,0,1-2.56.71,4.18,4.18,0,0,1-3.61-1.59,5.38,5.38,0,0,1-.92-3.22,5.2,5.2,0,0,1,1.21-3.63,4,4,0,0,1,3.07-1.31,4.13,4.13,0,0,1,3.29,1.37,6.12,6.12,0,0,1,1.15,4.21H486.9a2.49,2.49,0,0,0,.6,1.71,1.87,1.87,0,0,0,1.42.62,1.52,1.52,0,0,0,1-.32A2,2,0,0,0,490.5,127Zm.14-2.5a2.37,2.37,0,0,0-.56-1.63,1.71,1.71,0,0,0-1.28-.56,1.74,1.74,0,0,0-1.34.59,2.28,2.28,0,0,0-.51,1.6Z"/><path class="cls-2" d="M495.1,130V117.12h2.47V130Z"/><path class="cls-2" d="M500.1,119.4v-2.28h2.47v2.28Zm0,10.6v-9.33h2.47V130Z"/><path class="cls-2" d="M513.59,130h-2.47v-4.76a7.81,7.81,0,0,0-.15-2,1.4,1.4,0,0,0-.52-.69,1.47,1.47,0,0,0-.85-.25,2,2,0,0,0-1.16.36,1.69,1.69,0,0,0-.69.93,7.81,7.81,0,0,0-.19,2.14V130h-2.47v-9.33h2.29V122a3.73,3.73,0,0,1,3.08-1.58,3.64,3.64,0,0,1,1.49.29,2.67,2.67,0,0,1,1,.75,2.75,2.75,0,0,1,.48,1,7.79,7.79,0,0,1,.13,1.66Z"/><path class="cls-2" d="M521.5,127l2.47.41a4.07,4.07,0,0,1-1.5,2.06,4.36,4.36,0,0,1-2.56.71,4.18,4.18,0,0,1-3.61-1.59,5.38,5.38,0,0,1-.92-3.22,5.15,5.15,0,0,1,1.21-3.63,4,4,0,0,1,3.07-1.31,4.14,4.14,0,0,1,3.29,1.37A6.12,6.12,0,0,1,524.1,126h-6.19a2.49,2.49,0,0,0,.6,1.71,1.86,1.86,0,0,0,1.42.62,1.54,1.54,0,0,0,1-.32A1.93,1.93,0,0,0,521.5,127Zm.15-2.5a2.42,2.42,0,0,0-.56-1.63,1.71,1.71,0,0,0-1.28-.56,1.73,1.73,0,0,0-1.34.59,2.34,2.34,0,0,0-.52,1.6Z"/><path class="cls-2" d="M530.83,126.56v-2.47h4.85v2.47Z"/><path class="cls-2" d="M541.46,125.81l2.54-.25a3.07,3.07,0,0,0,.92,1.87,2.82,2.82,0,0,0,1.89.6,2.9,2.9,0,0,0,1.89-.53,1.56,1.56,0,0,0,.64-1.24,1.16,1.16,0,0,0-.27-.78,2.12,2.12,0,0,0-.93-.56c-.31-.11-1-.29-2.09-.56a7,7,0,0,1-2.93-1.28,3.35,3.35,0,0,1-1.19-2.59,3.31,3.31,0,0,1,.56-1.84,3.51,3.51,0,0,1,1.61-1.31,6.4,6.4,0,0,1,2.53-.44,5.41,5.41,0,0,1,3.65,1.06,3.74,3.74,0,0,1,1.29,2.84l-2.6.11a2.2,2.2,0,0,0-.72-1.43,2.59,2.59,0,0,0-1.64-.43,3,3,0,0,0-1.78.46,1,1,0,0,0-.41.8,1,1,0,0,0,.38.79,7,7,0,0,0,2.4.86,13.14,13.14,0,0,1,2.8.92,3.72,3.72,0,0,1,1.43,1.32,3.82,3.82,0,0,1,.51,2,3.76,3.76,0,0,1-.61,2.07,3.64,3.64,0,0,1-1.74,1.44,7.4,7.4,0,0,1-2.81.47A5.58,5.58,0,0,1,543,129.1,4.92,4.92,0,0,1,541.46,125.81Z"/><path class="cls-2" d="M554.11,119.4v-2.28h2.47v2.28Zm0,10.6v-9.33h2.47V130Z"/><path class="cls-2" d="M567.6,130h-2.47v-4.76a7.81,7.81,0,0,0-.15-2,1.4,1.4,0,0,0-.52-.69,1.5,1.5,0,0,0-.86-.25,2,2,0,0,0-1.15.36,1.76,1.76,0,0,0-.7.93,8.38,8.38,0,0,0-.18,2.14V130H559.1v-9.33h2.29V122a3.72,3.72,0,0,1,3.08-1.58,3.64,3.64,0,0,1,1.49.29,2.56,2.56,0,0,1,1,.75,2.63,2.63,0,0,1,.49,1,7.79,7.79,0,0,1,.13,1.66Z"/><path class="cls-2" d="M569.88,130.62l2.82.34a1,1,0,0,0,.33.67,1.8,1.8,0,0,0,1.1.27,2.89,2.89,0,0,0,1.45-.29,1.24,1.24,0,0,0,.5-.63,4,4,0,0,0,.11-1.13v-1.36A3.33,3.33,0,0,1,573.4,130a3.43,3.43,0,0,1-3-1.59,5.37,5.37,0,0,1-.87-3.13,5.19,5.19,0,0,1,1.13-3.59,3.67,3.67,0,0,1,2.81-1.23,3.4,3.4,0,0,1,2.86,1.52v-1.31h2.31V129a8.4,8.4,0,0,1-.27,2.47,3,3,0,0,1-.77,1.28,3.18,3.18,0,0,1-1.31.73,6.77,6.77,0,0,1-2.08.27,5.36,5.36,0,0,1-3.37-.82,2.54,2.54,0,0,1-1-2.06C569.87,130.83,569.87,130.73,569.88,130.62Zm2.21-5.48a3.36,3.36,0,0,0,.57,2.17,1.76,1.76,0,0,0,1.42.69,2,2,0,0,0,1.53-.7,3.06,3.06,0,0,0,.62-2.1,3.25,3.25,0,0,0-.59-2.15,1.92,1.92,0,0,0-1.52-.71,1.84,1.84,0,0,0-1.46.7A3.25,3.25,0,0,0,572.09,125.14Z"/><path class="cls-2" d="M581.1,130V117.12h2.47V130Z"/><path class="cls-2" d="M591.51,127l2.46.41a4.07,4.07,0,0,1-1.5,2.06,4.32,4.32,0,0,1-2.56.71,4.17,4.17,0,0,1-3.6-1.59,5.32,5.32,0,0,1-.93-3.22,5.16,5.16,0,0,1,1.22-3.63,4,4,0,0,1,3.06-1.31,4.13,4.13,0,0,1,3.29,1.37A6.07,6.07,0,0,1,594.1,126h-6.18a2.44,2.44,0,0,0,.59,1.71,1.88,1.88,0,0,0,1.43.62,1.51,1.51,0,0,0,1-.32A1.88,1.88,0,0,0,591.51,127Zm.14-2.5a2.42,2.42,0,0,0-.55-1.63,1.78,1.78,0,0,0-2.62,0,2.29,2.29,0,0,0-.52,1.6Z"/><path class="cls-2" d="M609.38,125.26l2.52.8A5.71,5.71,0,0,1,610,129.2a5.51,5.51,0,0,1-3.42,1,5.57,5.57,0,0,1-4.22-1.75,6.73,6.73,0,0,1-1.65-4.8,7,7,0,0,1,1.66-5,5.68,5.68,0,0,1,4.37-1.78,5.38,5.38,0,0,1,3.84,1.39,5.18,5.18,0,0,1,1.32,2.38l-2.58.61a2.66,2.66,0,0,0-2.72-2.16,2.91,2.91,0,0,0-2.32,1,5,5,0,0,0-.89,3.33,5.37,5.37,0,0,0,.88,3.48,2.84,2.84,0,0,0,2.28,1,2.62,2.62,0,0,0,1.79-.66A3.9,3.9,0,0,0,609.38,125.26Z"/><path class="cls-2" d="M613.54,125.2a5.11,5.11,0,0,1,.61-2.38,4.17,4.17,0,0,1,1.72-1.76,5.14,5.14,0,0,1,2.48-.6,4.64,4.64,0,0,1,3.47,1.37,4.74,4.74,0,0,1,1.36,3.48,4.82,4.82,0,0,1-1.37,3.51,4.61,4.61,0,0,1-3.44,1.39,5.38,5.38,0,0,1-2.45-.58,3.94,3.94,0,0,1-1.77-1.7A5.73,5.73,0,0,1,613.54,125.2Zm2.54.13a3.09,3.09,0,0,0,.65,2.13,2.15,2.15,0,0,0,3.25,0,3.12,3.12,0,0,0,.66-2.14,3,3,0,0,0-.66-2.11,2.15,2.15,0,0,0-3.25,0A3.07,3.07,0,0,0,616.08,125.33Z"/><path class="cls-2" d="M627.47,130H625v-9.33h2.3V122a4,4,0,0,1,1.06-1.24,1.93,1.93,0,0,1,1.07-.29,3.11,3.11,0,0,1,1.62.46l-.76,2.15a2.18,2.18,0,0,0-1.16-.4,1.37,1.37,0,0,0-.88.29,2,2,0,0,0-.57,1,14.45,14.45,0,0,0-.21,3.13Z"/><path class="cls-2" d="M637.52,127l2.46.41a4,4,0,0,1-1.5,2.06,4.32,4.32,0,0,1-2.56.71,4.17,4.17,0,0,1-3.6-1.59,5.32,5.32,0,0,1-.93-3.22,5.16,5.16,0,0,1,1.22-3.63,4,4,0,0,1,3.06-1.31,4.13,4.13,0,0,1,3.29,1.37,6.07,6.07,0,0,1,1.15,4.21h-6.18a2.44,2.44,0,0,0,.59,1.71,1.88,1.88,0,0,0,1.43.62,1.51,1.51,0,0,0,1-.32A1.88,1.88,0,0,0,637.52,127Zm.14-2.5a2.42,2.42,0,0,0-.55-1.63,1.78,1.78,0,0,0-2.62,0,2.29,2.29,0,0,0-.52,1.6Z"/><path class="cls-2" d="M646.49,125.81l2.53-.25a3.07,3.07,0,0,0,.92,1.87,2.82,2.82,0,0,0,1.89.6,2.9,2.9,0,0,0,1.89-.53,1.56,1.56,0,0,0,.64-1.24,1.16,1.16,0,0,0-.27-.78,2.12,2.12,0,0,0-.93-.56c-.31-.11-1-.29-2.09-.56a7,7,0,0,1-2.93-1.28,3.35,3.35,0,0,1-1.19-2.59,3.31,3.31,0,0,1,.56-1.84,3.51,3.51,0,0,1,1.61-1.31,6.4,6.4,0,0,1,2.53-.44A5.41,5.41,0,0,1,655.3,118a3.74,3.74,0,0,1,1.29,2.84l-2.6.11a2.24,2.24,0,0,0-.71-1.43,2.64,2.64,0,0,0-1.65-.43,3,3,0,0,0-1.78.46,1,1,0,0,0-.41.8,1,1,0,0,0,.39.79,6.87,6.87,0,0,0,2.39.86,13.14,13.14,0,0,1,2.8.92,3.65,3.65,0,0,1,1.43,1.32,3.82,3.82,0,0,1,.51,2,3.76,3.76,0,0,1-.61,2.07,3.64,3.64,0,0,1-1.74,1.44,7.4,7.4,0,0,1-2.81.47,5.58,5.58,0,0,1-3.75-1.13A4.92,4.92,0,0,1,646.49,125.81Z"/><path class="cls-2" d="M664.54,127l2.46.41a4.07,4.07,0,0,1-1.5,2.06,4.34,4.34,0,0,1-2.56.71,4.19,4.19,0,0,1-3.61-1.59,5.38,5.38,0,0,1-.92-3.22,5.2,5.2,0,0,1,1.21-3.63,4,4,0,0,1,3.07-1.31,4.13,4.13,0,0,1,3.29,1.37,6.07,6.07,0,0,1,1.15,4.21h-6.19a2.49,2.49,0,0,0,.6,1.71,1.87,1.87,0,0,0,1.42.62,1.52,1.52,0,0,0,1-.32A2,2,0,0,0,664.54,127Zm.14-2.5a2.37,2.37,0,0,0-.56-1.63,1.69,1.69,0,0,0-1.28-.56,1.71,1.71,0,0,0-1.33.59,2.24,2.24,0,0,0-.52,1.6Z"/><path class="cls-2" d="M675.24,133.55v-4.69a3.62,3.62,0,0,1-1.2,1,3.44,3.44,0,0,1-1.56.36,3.33,3.33,0,0,1-2.62-1.19,5.65,5.65,0,0,1-1.21-3.79,5,5,0,0,1,1.14-3.51,3.66,3.66,0,0,1,2.83-1.26,3.2,3.2,0,0,1,1.61.39,3.73,3.73,0,0,1,1.21,1.2v-1.38h2.27v12.88Zm.08-8.33a3.24,3.24,0,0,0-.58-2.13,1.83,1.83,0,0,0-1.47-.7,1.89,1.89,0,0,0-1.49.71,4.51,4.51,0,0,0,0,4.48,1.84,1.84,0,0,0,1.44.68,1.94,1.94,0,0,0,1.49-.76A3.46,3.46,0,0,0,675.32,125.22Z"/><path class="cls-2" d="M686.28,130v-1.4a3.56,3.56,0,0,1-1.34,1.18,3.71,3.71,0,0,1-1.75.43,3.49,3.49,0,0,1-1.69-.41,2.43,2.43,0,0,1-1.08-1.16,5.26,5.26,0,0,1-.33-2.07v-5.9h2.47V125a12.18,12.18,0,0,0,.13,2.41,1.32,1.32,0,0,0,.5.7,1.53,1.53,0,0,0,.91.26,2,2,0,0,0,1.14-.35,1.76,1.76,0,0,0,.68-.86,10,10,0,0,0,.19-2.52v-3.93h2.47V130Z"/><path class="cls-2" d="M696.54,127l2.46.41a4.07,4.07,0,0,1-1.5,2.06,4.34,4.34,0,0,1-2.56.71,4.17,4.17,0,0,1-3.6-1.59,5.32,5.32,0,0,1-.93-3.22,5.16,5.16,0,0,1,1.22-3.63,4,4,0,0,1,3.06-1.31,4.13,4.13,0,0,1,3.29,1.37,6.07,6.07,0,0,1,1.15,4.21h-6.19a2.49,2.49,0,0,0,.6,1.71,1.88,1.88,0,0,0,1.43.62,1.51,1.51,0,0,0,1-.32A1.94,1.94,0,0,0,696.54,127Zm.14-2.5a2.42,2.42,0,0,0-.55-1.63,1.73,1.73,0,0,0-1.29-.56,1.71,1.71,0,0,0-1.33.59,2.29,2.29,0,0,0-.52,1.6Z"/><path class="cls-2" d="M709.63,130h-2.46v-4.76a7.64,7.64,0,0,0-.16-2,1.4,1.4,0,0,0-.52-.69,1.47,1.47,0,0,0-.85-.25,2,2,0,0,0-1.16.36,1.69,1.69,0,0,0-.69.93,7.81,7.81,0,0,0-.19,2.14V130h-2.47v-9.33h2.29V122a3.73,3.73,0,0,1,3.08-1.58,3.64,3.64,0,0,1,1.49.29,2.67,2.67,0,0,1,1,.75,2.75,2.75,0,0,1,.48,1,7.79,7.79,0,0,1,.13,1.66Z"/><path class="cls-2" d="M716.42,120.67v2h-1.69v3.77a9.64,9.64,0,0,0,0,1.33.56.56,0,0,0,.22.31.72.72,0,0,0,.42.12,3.34,3.34,0,0,0,1-.23l.21,1.91a4.81,4.81,0,0,1-2,.37,3.06,3.06,0,0,1-1.2-.22,1.83,1.83,0,0,1-.79-.58,2.34,2.34,0,0,1-.35-1,12.2,12.2,0,0,1-.08-1.74v-4.07h-1.13v-2h1.13v-1.86l2.48-1.44v3.3Z"/><path class="cls-2" d="M718.13,119.4v-2.28h2.47v2.28Zm0,10.6v-9.33h2.47V130Z"/><path class="cls-2" d="M725,123.51l-2.24-.4a3.44,3.44,0,0,1,1.3-2,4.72,4.72,0,0,1,2.74-.65,5.93,5.93,0,0,1,2.46.39,2.45,2.45,0,0,1,1.14,1,5.09,5.09,0,0,1,.33,2.21l0,2.88a10,10,0,0,0,.12,1.82,5.28,5.28,0,0,0,.45,1.25H728.8c-.06-.16-.14-.41-.23-.73a2.74,2.74,0,0,0-.09-.29,4.25,4.25,0,0,1-1.36.92,3.77,3.77,0,0,1-1.53.31,3.22,3.22,0,0,1-2.28-.78,2.61,2.61,0,0,1-.83-2,2.66,2.66,0,0,1,.38-1.41,2.51,2.51,0,0,1,1.06-1,8.19,8.19,0,0,1,2-.57,13.67,13.67,0,0,0,2.4-.61v-.25a1.25,1.25,0,0,0-.36-1,2.08,2.08,0,0,0-1.32-.31,1.78,1.78,0,0,0-1,.26A1.81,1.81,0,0,0,725,123.51Zm3.31,2c-.32.1-.82.23-1.51.38a4.37,4.37,0,0,0-1.34.43,1,1,0,0,0-.49.87,1.2,1.2,0,0,0,.39.89,1.37,1.37,0,0,0,1,.38,2.15,2.15,0,0,0,1.27-.44,1.54,1.54,0,0,0,.59-.82,5,5,0,0,0,.1-1.2Z"/><path class="cls-2" d="M733.15,130V117.12h2.47V130Z"/><path class="cls-2" d="M743.17,130V117.12h4.17a15.11,15.11,0,0,1,3.09.19,3.36,3.36,0,0,1,1.86,1.26,4,4,0,0,1,.75,2.51,4.12,4.12,0,0,1-.44,2,3.41,3.41,0,0,1-1.09,1.27,3.73,3.73,0,0,1-1.35.62,15.22,15.22,0,0,1-2.7.18h-1.69V130Zm2.6-10.71V123h1.42a6.94,6.94,0,0,0,2.06-.2,1.82,1.82,0,0,0,.81-.63,1.71,1.71,0,0,0,.29-1,1.66,1.66,0,0,0-.41-1.16,1.82,1.82,0,0,0-1-.57,12.41,12.41,0,0,0-1.88-.09Z"/><path class="cls-2" d="M757.52,130h-2.47v-9.33h2.29V122a4.1,4.1,0,0,1,1.06-1.24,1.93,1.93,0,0,1,1.07-.29,3.11,3.11,0,0,1,1.62.46l-.76,2.15a2.16,2.16,0,0,0-1.16-.4,1.37,1.37,0,0,0-.88.29,2,2,0,0,0-.57,1,15.4,15.4,0,0,0-.2,3.13Z"/><path class="cls-2" d="M761.59,125.2a5.09,5.09,0,0,1,.6-2.38,4.23,4.23,0,0,1,1.72-1.76,5.14,5.14,0,0,1,2.48-.6,4.66,4.66,0,0,1,3.48,1.37,5.17,5.17,0,0,1,0,7,4.61,4.61,0,0,1-3.44,1.39,5.41,5.41,0,0,1-2.45-.58,4,4,0,0,1-1.77-1.7A5.74,5.74,0,0,1,761.59,125.2Zm2.53.13a3.09,3.09,0,0,0,.66,2.13,2.15,2.15,0,0,0,3.25,0,3.16,3.16,0,0,0,.65-2.14,3.1,3.1,0,0,0-.65-2.11,2.15,2.15,0,0,0-3.25,0A3.08,3.08,0,0,0,764.12,125.33Z"/><path class="cls-2" d="M781.29,123.43l-2.43.44a1.74,1.74,0,0,0-.56-1.1,1.67,1.67,0,0,0-1.13-.37,1.81,1.81,0,0,0-1.47.64,3.22,3.22,0,0,0-.55,2.13,3.7,3.7,0,0,0,.56,2.34,1.82,1.82,0,0,0,1.5.69,1.66,1.66,0,0,0,1.15-.4,2.41,2.41,0,0,0,.63-1.38l2.43.42a4.34,4.34,0,0,1-1.46,2.52,4.46,4.46,0,0,1-2.87.85,4.27,4.27,0,0,1-3.26-1.29,5,5,0,0,1-1.22-3.58,5,5,0,0,1,1.22-3.6,4.32,4.32,0,0,1,3.3-1.28,4.52,4.52,0,0,1,2.72.73A4,4,0,0,1,781.29,123.43Z"/><path class="cls-2" d="M788.57,127l2.46.41a4.07,4.07,0,0,1-1.5,2.06,4.32,4.32,0,0,1-2.56.71,4.17,4.17,0,0,1-3.6-1.59,5.32,5.32,0,0,1-.93-3.22,5.16,5.16,0,0,1,1.22-3.63,4,4,0,0,1,3.06-1.31,4.13,4.13,0,0,1,3.29,1.37,6.07,6.07,0,0,1,1.15,4.21H785a2.49,2.49,0,0,0,.6,1.71,1.88,1.88,0,0,0,1.43.62,1.51,1.51,0,0,0,1-.32A1.94,1.94,0,0,0,788.57,127Zm.14-2.5a2.42,2.42,0,0,0-.55-1.63,1.73,1.73,0,0,0-1.29-.56,1.71,1.71,0,0,0-1.33.59,2.29,2.29,0,0,0-.52,1.6Z"/><path class="cls-2" d="M792.3,127.34l2.48-.38a1.84,1.84,0,0,0,.64,1.09,2.2,2.2,0,0,0,1.36.38,2.46,2.46,0,0,0,1.44-.35.79.79,0,0,0,.32-.66.63.63,0,0,0-.17-.47,1.91,1.91,0,0,0-.83-.33,13.29,13.29,0,0,1-3.79-1.2,2.41,2.41,0,0,1-1.1-2.1,2.59,2.59,0,0,1,1-2,4.45,4.45,0,0,1,3-.82,5.14,5.14,0,0,1,2.84.62,3.24,3.24,0,0,1,1.29,1.84l-2.33.44a1.42,1.42,0,0,0-.57-.84,2.09,2.09,0,0,0-1.19-.29,2.71,2.71,0,0,0-1.4.27.61.61,0,0,0-.28.5.53.53,0,0,0,.25.45,8.89,8.89,0,0,0,2.3.7,6.78,6.78,0,0,1,2.76,1.1,2.25,2.25,0,0,1,.77,1.83,2.81,2.81,0,0,1-1.07,2.21,4.76,4.76,0,0,1-3.17.92,5.25,5.25,0,0,1-3-.77A3.61,3.61,0,0,1,792.3,127.34Z"/><path class="cls-2" d="M802.32,127.34l2.47-.38a1.8,1.8,0,0,0,.65,1.09,2.15,2.15,0,0,0,1.35.38,2.46,2.46,0,0,0,1.44-.35.8.8,0,0,0,.33-.66.64.64,0,0,0-.18-.47,1.91,1.91,0,0,0-.83-.33,13.06,13.06,0,0,1-3.78-1.2,2.39,2.39,0,0,1-1.11-2.1,2.59,2.59,0,0,1,1-2,4.46,4.46,0,0,1,3-.82,5.14,5.14,0,0,1,2.84.62,3.2,3.2,0,0,1,1.29,1.84l-2.33.44a1.42,1.42,0,0,0-.57-.84,2.09,2.09,0,0,0-1.19-.29,2.71,2.71,0,0,0-1.4.27.61.61,0,0,0-.28.5.53.53,0,0,0,.25.45,8.88,8.88,0,0,0,2.31.7,6.79,6.79,0,0,1,2.75,1.1,2.25,2.25,0,0,1,.77,1.83,2.81,2.81,0,0,1-1.07,2.21,4.76,4.76,0,0,1-3.17.92,5.25,5.25,0,0,1-3-.77A3.55,3.55,0,0,1,802.32,127.34Z"/><path class="cls-2" d="M813.2,119.4v-2.28h2.47v2.28Zm0,10.6v-9.33h2.47V130Z"/><path class="cls-2" d="M826.69,130h-2.47v-4.76a7.19,7.19,0,0,0-.16-2,1.4,1.4,0,0,0-.52-.69,1.47,1.47,0,0,0-.85-.25,1.94,1.94,0,0,0-1.15.36,1.71,1.71,0,0,0-.7.93,7.81,7.81,0,0,0-.19,2.14V130h-2.47v-9.33h2.29V122a3.73,3.73,0,0,1,3.08-1.58,3.64,3.64,0,0,1,1.49.29,2.53,2.53,0,0,1,1,.75,2.75,2.75,0,0,1,.48,1,7.67,7.67,0,0,1,.14,1.66Z"/><path class="cls-2" d="M829,130.62l2.83.34a.91.91,0,0,0,.32.67,1.81,1.81,0,0,0,1.11.27,2.92,2.92,0,0,0,1.45-.29,1.23,1.23,0,0,0,.49-.63,3.62,3.62,0,0,0,.11-1.13v-1.36a3.32,3.32,0,0,1-2.79,1.51,3.44,3.44,0,0,1-3-1.59,5.44,5.44,0,0,1-.86-3.13,5.19,5.19,0,0,1,1.13-3.59,3.66,3.66,0,0,1,2.81-1.23,3.4,3.4,0,0,1,2.85,1.52v-1.31h2.31V129a8.4,8.4,0,0,1-.27,2.47,3,3,0,0,1-.76,1.28,3.22,3.22,0,0,1-1.32.73,6.73,6.73,0,0,1-2.08.27A5.3,5.3,0,0,1,830,133a2.54,2.54,0,0,1-1-2.06Zm2.21-5.48a3.29,3.29,0,0,0,.58,2.17,1.74,1.74,0,0,0,1.42.69,1.94,1.94,0,0,0,1.52-.7,3.06,3.06,0,0,0,.63-2.1,3.25,3.25,0,0,0-.6-2.15,1.9,1.9,0,0,0-1.51-.71,1.82,1.82,0,0,0-1.46.7A3.19,3.19,0,0,0,831.17,125.14Z"/></g><line class="cls-24" x1="150" y1="270" x2="1050" y2="270"/><text class="cls-25" transform="translate(138.67 290)">0ms</text><text class="cls-25" transform="translate(315.33 290)">20ms</text><text class="cls-25" transform="translate(675.33 290)">80ms</text><text class="cls-25" transform="translate(852.44 290)"><tspan class="cls-5">1</tspan><tspan x="5.78" y="0">10ms</tspan></text><text class="cls-25" transform="translate(1031.99 290)">130ms</text><g id="display"><rect class="cls-26" x="890" y="210" width="160" height="50" rx="5"/><g class="cls-1"><path class="cls-2" d="M920.44,225h3.7a7.19,7.19,0,0,1,1.91.19,3.33,3.33,0,0,1,1.51.92,4.49,4.49,0,0,1,1,1.63,7.65,7.65,0,0,1,.32,2.36,6.78,6.78,0,0,1-.3,2.14,4.35,4.35,0,0,1-1.08,1.77,3.53,3.53,0,0,1-1.42.8,6.17,6.17,0,0,1-1.79.21h-3.81Zm2,1.69v6.64H924a5.84,5.84,0,0,0,1.22-.09,1.94,1.94,0,0,0,.82-.42,2.25,2.25,0,0,0,.53-1,6.81,6.81,0,0,0,.2-1.83,6.29,6.29,0,0,0-.2-1.79,2.31,2.31,0,0,0-.58-1,1.87,1.87,0,0,0-.93-.47,9.5,9.5,0,0,0-1.66-.1Z"/><path class="cls-2" d="M930.55,226.76V225h1.92v1.78Zm0,8.24v-7.26h1.92V235Z"/><path class="cls-2" d="M933.76,232.93l1.93-.3a1.43,1.43,0,0,0,.5.86,1.7,1.7,0,0,0,1,.29,1.83,1.83,0,0,0,1.12-.28.6.6,0,0,0,.25-.51.48.48,0,0,0-.13-.36,1.48,1.48,0,0,0-.65-.25,10.56,10.56,0,0,1-2.94-.94,1.86,1.86,0,0,1-.86-1.64,2,2,0,0,1,.74-1.58,3.48,3.48,0,0,1,2.31-.64,4.09,4.09,0,0,1,2.22.48,2.45,2.45,0,0,1,1,1.44l-1.81.33a1.08,1.08,0,0,0-.44-.65,1.58,1.58,0,0,0-.92-.22,2.11,2.11,0,0,0-1.09.21.45.45,0,0,0-.22.39.42.42,0,0,0,.19.35,7.37,7.37,0,0,0,1.8.54,5.3,5.3,0,0,1,2.14.85,1.78,1.78,0,0,1,.6,1.43,2.21,2.21,0,0,1-.83,1.72,3.75,3.75,0,0,1-2.47.71,4.07,4.07,0,0,1-2.35-.6A2.75,2.75,0,0,1,933.76,232.93Z"/><path class="cls-2" d="M942.17,227.74H944v1.07a2.68,2.68,0,0,1,.94-.89,2.6,2.6,0,0,1,1.32-.34,2.78,2.78,0,0,1,2.15,1,4,4,0,0,1,.88,2.76,4.17,4.17,0,0,1-.89,2.83,2.76,2.76,0,0,1-2.15,1,2.42,2.42,0,0,1-1.09-.24,3.42,3.42,0,0,1-1-.82v3.66h-1.92Zm1.9,3.51a2.79,2.79,0,0,0,.48,1.8,1.48,1.48,0,0,0,1.19.59,1.39,1.39,0,0,0,1.11-.54,2.72,2.72,0,0,0,.44-1.76,2.64,2.64,0,0,0-.45-1.69,1.44,1.44,0,0,0-1.14-.56,1.49,1.49,0,0,0-1.17.55A2.42,2.42,0,0,0,944.07,231.25Z"/><path class="cls-2" d="M950.77,235V225h1.93v10Z"/><path class="cls-2" d="M956.1,230l-1.74-.32a2.7,2.7,0,0,1,1-1.56,3.76,3.76,0,0,1,2.13-.5,4.59,4.59,0,0,1,1.91.3,1.91,1.91,0,0,1,.89.77,4,4,0,0,1,.26,1.72l0,2.24a8.13,8.13,0,0,0,.09,1.42,4,4,0,0,0,.34,1h-1.9q-.08-.19-.18-.57c0-.11-.06-.19-.07-.22a3.31,3.31,0,0,1-1.05.71,3.06,3.06,0,0,1-1.2.24,2.5,2.5,0,0,1-1.77-.6,2,2,0,0,1-.64-1.54,2.12,2.12,0,0,1,.29-1.1,1.93,1.93,0,0,1,.83-.74,6.53,6.53,0,0,1,1.52-.45,9.56,9.56,0,0,0,1.87-.47v-.19a1,1,0,0,0-.27-.79,1.66,1.66,0,0,0-1-.23,1.36,1.36,0,0,0-.8.2A1.39,1.39,0,0,0,956.1,230Zm2.57,1.55a11.66,11.66,0,0,1-1.17.3,3.36,3.36,0,0,0-1,.33.8.8,0,0,0-.38.68,1,1,0,0,0,.3.7,1.06,1.06,0,0,0,.76.29,1.68,1.68,0,0,0,1-.34,1.19,1.19,0,0,0,.45-.64,3.65,3.65,0,0,0,.08-.93Z"/><path class="cls-2" d="M961.54,227.74h2l1.74,5.15,1.7-5.15h2l-2.57,7L966,236a4.57,4.57,0,0,1-.48,1,2.12,2.12,0,0,1-.52.55,2.66,2.66,0,0,1-.74.32,3.6,3.6,0,0,1-1,.12,4.83,4.83,0,0,1-1.08-.12l-.17-1.5a4.17,4.17,0,0,0,.81.09,1.2,1.2,0,0,0,1-.4,2.67,2.67,0,0,0,.49-1Z"/><path class="cls-2" d="M974.12,225h2v5.43a11.43,11.43,0,0,0,.07,1.67,1.68,1.68,0,0,0,.62,1,2.15,2.15,0,0,0,1.34.37,2.08,2.08,0,0,0,1.3-.35,1.35,1.35,0,0,0,.52-.87,11,11,0,0,0,.09-1.7V225h2v5.26a13.31,13.31,0,0,1-.17,2.55,2.85,2.85,0,0,1-.6,1.26,3.23,3.23,0,0,1-1.18.82,5.21,5.21,0,0,1-1.93.3,5.6,5.6,0,0,1-2.18-.33,3.18,3.18,0,0,1-1.17-.86,2.94,2.94,0,0,1-.57-1.11,12.35,12.35,0,0,1-.2-2.55Z"/><path class="cls-2" d="M984.18,227.74H986v1.07a2.71,2.71,0,0,1,.95-.89,2.54,2.54,0,0,1,1.31-.34,2.77,2.77,0,0,1,2.15,1,4,4,0,0,1,.88,2.76,4.17,4.17,0,0,1-.88,2.83,2.8,2.8,0,0,1-2.16,1,2.45,2.45,0,0,1-1.09-.24,3.42,3.42,0,0,1-1-.82v3.66h-1.92Zm1.9,3.51a2.73,2.73,0,0,0,.49,1.8,1.46,1.46,0,0,0,1.18.59,1.36,1.36,0,0,0,1.11-.54,2.72,2.72,0,0,0,.45-1.76,2.58,2.58,0,0,0-.46-1.69,1.42,1.42,0,0,0-1.14-.56,1.48,1.48,0,0,0-1.16.55A2.42,2.42,0,0,0,986.08,231.25Z"/><path class="cls-2" d="M999.45,235h-1.79v-1.07a2.78,2.78,0,0,1-2.27,1.23,2.76,2.76,0,0,1-2.14-1,4.95,4.95,0,0,1,0-5.62,2.85,2.85,0,0,1,2.2-1,2.72,2.72,0,0,1,2.11,1V225h1.92Zm-5.13-3.79a3.33,3.33,0,0,0,.32,1.68,1.44,1.44,0,0,0,1.3.76,1.42,1.42,0,0,0,1.13-.57,2.59,2.59,0,0,0,.46-1.68,2.83,2.83,0,0,0-.45-1.8,1.42,1.42,0,0,0-1.15-.55,1.45,1.45,0,0,0-1.15.54A2.43,2.43,0,0,0,994.32,231.21Z"/><path class="cls-2" d="M1002.78,230l-1.75-.32a2.74,2.74,0,0,1,1-1.56,3.78,3.78,0,0,1,2.14-.5,4.66,4.66,0,0,1,1.91.3,2,2,0,0,1,.89.77,4,4,0,0,1,.25,1.72l0,2.24a8.13,8.13,0,0,0,.09,1.42,4.6,4.6,0,0,0,.35,1h-1.9c0-.13-.11-.32-.19-.57l-.06-.22a3.24,3.24,0,0,1-1.06.71,3,3,0,0,1-1.19.24,2.5,2.5,0,0,1-1.77-.6,2.16,2.16,0,0,1-.35-2.64,1.9,1.9,0,0,1,.82-.74,6.49,6.49,0,0,1,1.53-.45,9.56,9.56,0,0,0,1.87-.47v-.19a1,1,0,0,0-.28-.79,1.63,1.63,0,0,0-1-.23,1.14,1.14,0,0,0-1.26.91Zm2.57,1.55a11.66,11.66,0,0,1-1.17.3,3.35,3.35,0,0,0-1,.33.82.82,0,0,0-.38.68,1,1,0,0,0,.3.7,1.1,1.1,0,0,0,.77.29,1.63,1.63,0,0,0,1-.34,1.2,1.2,0,0,0,.46-.64,3.65,3.65,0,0,0,.08-.93Z"/><path class="cls-2" d="M1012.46,227.74v1.53h-1.32v2.93a6.33,6.33,0,0,0,0,1,.47.47,0,0,0,.17.25.58.58,0,0,0,.33.09,2.59,2.59,0,0,0,.77-.18l.16,1.49a3.82,3.82,0,0,1-1.52.28,2.33,2.33,0,0,1-.93-.17,1.41,1.41,0,0,1-.61-.45,1.84,1.84,0,0,1-.27-.75,7.74,7.74,0,0,1-.07-1.35v-3.17h-.88v-1.53h.88V226.3l1.93-1.12v2.56Z"/><path class="cls-2" d="M1018,232.69l1.92.32a3.14,3.14,0,0,1-1.17,1.6,3.41,3.41,0,0,1-2,.55,3.25,3.25,0,0,1-2.8-1.23,4.17,4.17,0,0,1-.72-2.51,4,4,0,0,1,.94-2.82,3.11,3.11,0,0,1,2.39-1,3.18,3.18,0,0,1,2.55,1.07,4.67,4.67,0,0,1,.9,3.27h-4.81a1.89,1.89,0,0,0,.46,1.33,1.46,1.46,0,0,0,1.11.48,1.16,1.16,0,0,0,.76-.25A1.51,1.51,0,0,0,1018,232.69Zm.11-1.94a1.85,1.85,0,0,0-.43-1.27,1.32,1.32,0,0,0-1-.43,1.36,1.36,0,0,0-1,.45,1.82,1.82,0,0,0-.4,1.25Z"/></g><g class="cls-1"><path class="cls-2" d="M962.09,249.07V250h-5.21a1.69,1.69,0,0,1,.12-.67,3.41,3.41,0,0,1,.63-1.05,10.24,10.24,0,0,1,1.27-1.19,10.77,10.77,0,0,0,1.73-1.67,2,2,0,0,0,.45-1.16,1.27,1.27,0,0,0-.41-1,1.49,1.49,0,0,0-1.07-.4,1.52,1.52,0,0,0-1.12.42,1.61,1.61,0,0,0-.42,1.16l-1-.1a2.42,2.42,0,0,1,.76-1.69,2.65,2.65,0,0,1,1.79-.59,2.5,2.5,0,0,1,1.8.63,2.07,2.07,0,0,1,.66,1.56,2.4,2.4,0,0,1-.2.93,3.48,3.48,0,0,1-.64,1,14.94,14.94,0,0,1-1.49,1.39,14.91,14.91,0,0,0-1.12,1,3,3,0,0,0-.4.52Z"/><path class="cls-2" d="M963.12,246.12a7.27,7.27,0,0,1,.29-2.25,2.72,2.72,0,0,1,.86-1.31,2.15,2.15,0,0,1,1.42-.47,2.28,2.28,0,0,1,1.11.26,2,2,0,0,1,.79.73,4.11,4.11,0,0,1,.49,1.18,7.66,7.66,0,0,1,.18,1.86,6.85,6.85,0,0,1-.29,2.23,2.71,2.71,0,0,1-.85,1.32,2.15,2.15,0,0,1-1.43.46,2.18,2.18,0,0,1-1.79-.81A5.19,5.19,0,0,1,963.12,246.12Zm1,0a5,5,0,0,0,.45,2.58,1.37,1.37,0,0,0,1.12.64,1.34,1.34,0,0,0,1.12-.64,7.49,7.49,0,0,0,0-5.17,1.36,1.36,0,0,0-1.13-.64,1.23,1.23,0,0,0-1.06.57A5,5,0,0,0,964.12,246.12Z"/><path class="cls-2" d="M969.51,250v-5.7h.87v.8a1.93,1.93,0,0,1,.71-.68,2,2,0,0,1,1-.25,1.79,1.79,0,0,1,1,.26,1.38,1.38,0,0,1,.58.74,2,2,0,0,1,1.76-1,1.7,1.7,0,0,1,1.3.47,2,2,0,0,1,.46,1.44V250h-1v-3.59a2.43,2.43,0,0,0-.1-.84.75.75,0,0,0-.34-.41,1.07,1.07,0,0,0-.58-.16,1.36,1.36,0,0,0-1,.41,1.77,1.77,0,0,0-.39,1.28V250h-1v-3.71a1.58,1.58,0,0,0-.24-1,.87.87,0,0,0-.77-.33,1.43,1.43,0,0,0-.75.22,1.24,1.24,0,0,0-.51.63,3.62,3.62,0,0,0-.15,1.19v3Z"/><path class="cls-2" d="M978.29,248.3l1-.15a1.41,1.41,0,0,0,.45.88,1.6,1.6,0,0,0,1,.3,1.54,1.54,0,0,0,1-.27.82.82,0,0,0,.32-.63.59.59,0,0,0-.28-.52,4.43,4.43,0,0,0-1-.33,9.61,9.61,0,0,1-1.48-.46,1.43,1.43,0,0,1-.62-.54,1.49,1.49,0,0,1-.21-.77,1.58,1.58,0,0,1,.17-.71,1.76,1.76,0,0,1,.48-.54,2,2,0,0,1,.61-.28,3.22,3.22,0,0,1,.84-.11,3.28,3.28,0,0,1,1.18.19,1.6,1.6,0,0,1,.75.52,2.07,2.07,0,0,1,.33.89l-.94.13a1,1,0,0,0-.38-.69,1.33,1.33,0,0,0-.87-.25,1.62,1.62,0,0,0-1,.22.65.65,0,0,0-.29.52.54.54,0,0,0,.12.34.81.81,0,0,0,.37.25c.1,0,.38.12.86.25a10.92,10.92,0,0,1,1.43.45,1.46,1.46,0,0,1,.63.51,1.37,1.37,0,0,1,.24.82,1.59,1.59,0,0,1-.29.91,1.86,1.86,0,0,1-.81.67,3.09,3.09,0,0,1-1.2.23,2.73,2.73,0,0,1-1.7-.46A2.12,2.12,0,0,1,978.29,248.3Z"/></g></g><g id="wireless"><rect class="cls-27" x="710" y="210" width="160" height="50" rx="5"/><g class="cls-1"><path class="cls-2" d="M740,235l-2.39-10h2.07l1.51,6.88L743,225h2.4l1.76,7,1.54-7h2l-2.43,10h-2.15l-2-7.49-2,7.49Z"/><path class="cls-2" d="M751.64,226.76V225h1.92v1.78Zm0,8.24v-7.26h1.92V235Z"/><path class="cls-2" d="M757.37,235h-1.92v-7.26h1.78v1a3.09,3.09,0,0,1,.83-1,1.46,1.46,0,0,1,.83-.23,2.44,2.44,0,0,1,1.26.36l-.59,1.67a1.71,1.71,0,0,0-.91-.31,1,1,0,0,0-.68.22,1.54,1.54,0,0,0-.44.8,11.28,11.28,0,0,0-.16,2.44Z"/><path class="cls-2" d="M765.18,232.69l1.92.32a3.14,3.14,0,0,1-1.17,1.6,3.38,3.38,0,0,1-2,.55,3.28,3.28,0,0,1-2.81-1.23,4.23,4.23,0,0,1-.71-2.51,4,4,0,0,1,.94-2.82,3.12,3.12,0,0,1,2.39-1,3.18,3.18,0,0,1,2.55,1.07,4.67,4.67,0,0,1,.9,3.27h-4.81a1.89,1.89,0,0,0,.46,1.33,1.46,1.46,0,0,0,1.11.48,1.16,1.16,0,0,0,.76-.25A1.51,1.51,0,0,0,765.18,232.69Zm.11-1.94a1.85,1.85,0,0,0-.43-1.27,1.32,1.32,0,0,0-1-.43,1.36,1.36,0,0,0-1,.45,1.82,1.82,0,0,0-.4,1.25Z"/><path class="cls-2" d="M768.76,235V225h1.93v10Z"/><path class="cls-2" d="M776.86,232.69l1.91.32a3.07,3.07,0,0,1-1.16,1.6,3.42,3.42,0,0,1-2,.55,3.26,3.26,0,0,1-2.8-1.23,4.17,4.17,0,0,1-.72-2.51,4,4,0,0,1,.95-2.82,3.1,3.1,0,0,1,2.38-1,3.22,3.22,0,0,1,2.56,1.07,4.77,4.77,0,0,1,.9,3.27h-4.82a2,2,0,0,0,.47,1.33,1.43,1.43,0,0,0,1.1.48,1.12,1.12,0,0,0,.76-.25A1.52,1.52,0,0,0,776.86,232.69Zm.11-1.94a1.9,1.9,0,0,0-.43-1.27,1.4,1.4,0,0,0-2,0,1.77,1.77,0,0,0-.4,1.25Z"/><path class="cls-2" d="M779.76,232.93l1.93-.3a1.43,1.43,0,0,0,.5.86,1.7,1.7,0,0,0,1,.29,1.83,1.83,0,0,0,1.12-.28.6.6,0,0,0,.26-.51.49.49,0,0,0-.14-.36,1.48,1.48,0,0,0-.64-.25,10.8,10.8,0,0,1-3-.94,1.88,1.88,0,0,1-.86-1.64,2,2,0,0,1,.75-1.58,3.45,3.45,0,0,1,2.31-.64,4,4,0,0,1,2.21.48,2.47,2.47,0,0,1,1,1.44l-1.81.33a1.17,1.17,0,0,0-.44-.65,1.64,1.64,0,0,0-.93-.22,2.11,2.11,0,0,0-1.09.21.47.47,0,0,0-.22.39.43.43,0,0,0,.2.35,7.39,7.39,0,0,0,1.79.54,5.24,5.24,0,0,1,2.14.85,1.78,1.78,0,0,1,.6,1.43,2.18,2.18,0,0,1-.83,1.72,3.75,3.75,0,0,1-2.47.71,4.07,4.07,0,0,1-2.35-.6A2.79,2.79,0,0,1,779.76,232.93Z"/><path class="cls-2" d="M787.55,232.93l1.93-.3a1.43,1.43,0,0,0,.5.86,1.7,1.7,0,0,0,1,.29,1.83,1.83,0,0,0,1.12-.28.6.6,0,0,0,.25-.51.48.48,0,0,0-.13-.36,1.48,1.48,0,0,0-.65-.25,10.56,10.56,0,0,1-2.94-.94,1.86,1.86,0,0,1-.86-1.64,2,2,0,0,1,.74-1.58,3.48,3.48,0,0,1,2.31-.64,4.09,4.09,0,0,1,2.22.48,2.45,2.45,0,0,1,1,1.44l-1.81.33a1.08,1.08,0,0,0-.44-.65,1.58,1.58,0,0,0-.92-.22,2.11,2.11,0,0,0-1.09.21.45.45,0,0,0-.22.39.42.42,0,0,0,.19.35,7.37,7.37,0,0,0,1.8.54,5.3,5.3,0,0,1,2.14.85,1.78,1.78,0,0,1,.6,1.43,2.21,2.21,0,0,1-.83,1.72,3.75,3.75,0,0,1-2.47.71,4.07,4.07,0,0,1-2.35-.6A2.75,2.75,0,0,1,787.55,232.93Z"/><path class="cls-2" d="M806.33,231.32l2,.62a4.45,4.45,0,0,1-1.5,2.44,4.73,4.73,0,0,1-5.94-.57,5.21,5.21,0,0,1-1.29-3.73,5.5,5.5,0,0,1,1.29-3.89,4.45,4.45,0,0,1,3.4-1.38,4.19,4.19,0,0,1,3,1.08,4.05,4.05,0,0,1,1,1.85l-2,.48a2.06,2.06,0,0,0-2.11-1.68,2.25,2.25,0,0,0-1.81.8,3.91,3.91,0,0,0-.7,2.59,4.15,4.15,0,0,0,.69,2.7,2.21,2.21,0,0,0,1.78.81,2,2,0,0,0,1.38-.51A3,3,0,0,0,806.33,231.32Z"/><path class="cls-2" d="M809.57,231.27a3.83,3.83,0,0,1,.47-1.85,3.17,3.17,0,0,1,1.34-1.37,3.89,3.89,0,0,1,1.93-.47,3.59,3.59,0,0,1,2.7,1.07,3.69,3.69,0,0,1,1,2.7,3.72,3.72,0,0,1-1.06,2.73,3.6,3.6,0,0,1-2.68,1.08,4.21,4.21,0,0,1-1.9-.45,3,3,0,0,1-1.38-1.32A4.34,4.34,0,0,1,809.57,231.27Zm2,.1a2.4,2.4,0,0,0,.51,1.65,1.67,1.67,0,0,0,2.53,0,3,3,0,0,0,0-3.3,1.67,1.67,0,0,0-2.53,0A2.4,2.4,0,0,0,811.54,231.37Z"/><path class="cls-2" d="M818.42,227.74h1.77v1a2.84,2.84,0,0,1,2.26-1.15,2.43,2.43,0,0,1,1.21.28,2.08,2.08,0,0,1,.84.87,3.33,3.33,0,0,1,1-.87,2.53,2.53,0,0,1,1.18-.28,2.6,2.6,0,0,1,1.35.32,2,2,0,0,1,.83.95,4.23,4.23,0,0,1,.2,1.51V235h-1.92v-4.15a3.09,3.09,0,0,0-.2-1.39.9.9,0,0,0-.82-.41,1.34,1.34,0,0,0-.76.24,1.37,1.37,0,0,0-.51.72,5,5,0,0,0-.16,1.5V235h-1.92v-4a5.57,5.57,0,0,0-.1-1.37.9.9,0,0,0-.32-.45,1,1,0,0,0-.59-.15,1.42,1.42,0,0,0-.8.24,1.25,1.25,0,0,0-.5.69,4.81,4.81,0,0,0-.16,1.49V235h-1.92Z"/><path class="cls-2" d="M830.87,227.74h1.77v1a2.84,2.84,0,0,1,2.26-1.15,2.43,2.43,0,0,1,1.21.28,2.2,2.2,0,0,1,.84.87,3.42,3.42,0,0,1,1-.87,2.84,2.84,0,0,1,2.54,0,2,2,0,0,1,.83.95,4.23,4.23,0,0,1,.2,1.51V235h-1.93v-4.15a3.13,3.13,0,0,0-.19-1.39.9.9,0,0,0-.82-.41,1.32,1.32,0,0,0-.76.24,1.37,1.37,0,0,0-.51.72,5,5,0,0,0-.16,1.5V235h-1.92v-4a5.4,5.4,0,0,0-.11-1.37.83.83,0,0,0-.31-.45,1,1,0,0,0-.59-.15,1.42,1.42,0,0,0-.8.24,1.31,1.31,0,0,0-.51.69,5.23,5.23,0,0,0-.15,1.49V235h-1.92Z"/></g><text class="cls-28" transform="translate(776.55 250)">30ms</text></g><g id="data_processing"><rect class="cls-10" x="350" y="210" width="340" height="50" rx="5"/><g class="cls-1"><path class="cls-2" d="M466.16,225h3.69a7.14,7.14,0,0,1,1.91.19,3.33,3.33,0,0,1,1.51.92,4.49,4.49,0,0,1,1,1.63,7.34,7.34,0,0,1,.33,2.36,6.49,6.49,0,0,1-.31,2.14,4.44,4.44,0,0,1-1.07,1.77,3.6,3.6,0,0,1-1.42.8,6.25,6.25,0,0,1-1.8.21h-3.8Zm2,1.69v6.64h1.51a5.78,5.78,0,0,0,1.22-.09,1.88,1.88,0,0,0,.82-.42,2.15,2.15,0,0,0,.53-1,6.38,6.38,0,0,0,.21-1.83,5.9,5.9,0,0,0-.21-1.79,2.4,2.4,0,0,0-.57-1,2,2,0,0,0-.94-.47,9.42,9.42,0,0,0-1.66-.1Z"/><path class="cls-2" d="M477.7,230l-1.75-.32a2.8,2.8,0,0,1,1-1.56,3.78,3.78,0,0,1,2.14-.5,4.66,4.66,0,0,1,1.91.3,1.91,1.91,0,0,1,.89.77,4,4,0,0,1,.25,1.72l0,2.24a8.13,8.13,0,0,0,.09,1.42,4.6,4.6,0,0,0,.35,1h-1.9c-.05-.13-.11-.32-.19-.57l-.06-.22a3.24,3.24,0,0,1-1.06.71,3,3,0,0,1-1.19.24,2.5,2.5,0,0,1-1.77-.6,2.16,2.16,0,0,1-.35-2.64,1.9,1.9,0,0,1,.82-.74,6.64,6.64,0,0,1,1.53-.45,9.56,9.56,0,0,0,1.87-.47v-.19a1,1,0,0,0-.28-.79,1.61,1.61,0,0,0-1-.23,1.14,1.14,0,0,0-1.26.91Zm2.57,1.55a11.66,11.66,0,0,1-1.17.3,3.45,3.45,0,0,0-1.05.33.81.81,0,0,0-.37.68,1,1,0,0,0,.3.7,1.06,1.06,0,0,0,.76.29,1.63,1.63,0,0,0,1-.34,1.15,1.15,0,0,0,.46-.64,3.65,3.65,0,0,0,.08-.93Z"/><path class="cls-2" d="M487.38,227.74v1.53h-1.32v2.93a7.94,7.94,0,0,0,0,1,.47.47,0,0,0,.17.25.58.58,0,0,0,.33.09,2.59,2.59,0,0,0,.77-.18l.16,1.49a3.8,3.8,0,0,1-1.51.28,2.35,2.35,0,0,1-.94-.17,1.41,1.41,0,0,1-.61-.45,1.84,1.84,0,0,1-.27-.75,9.44,9.44,0,0,1-.06-1.35v-3.17h-.89v-1.53h.89V226.3l1.92-1.12v2.56Z"/><path class="cls-2" d="M490.14,230l-1.74-.32a2.74,2.74,0,0,1,1-1.56,3.78,3.78,0,0,1,2.14-.5,4.66,4.66,0,0,1,1.91.3,1.88,1.88,0,0,1,.88.77,3.82,3.82,0,0,1,.26,1.72l0,2.24a8.13,8.13,0,0,0,.09,1.42,4.1,4.1,0,0,0,.35,1h-1.9c-.05-.13-.11-.32-.19-.57a1.13,1.13,0,0,0-.07-.22,3.1,3.1,0,0,1-1.05.71,3,3,0,0,1-1.19.24,2.5,2.5,0,0,1-1.77-.6,2.16,2.16,0,0,1-.35-2.64,1.9,1.9,0,0,1,.82-.74,6.49,6.49,0,0,1,1.53-.45,9.21,9.21,0,0,0,1.86-.47v-.19a1,1,0,0,0-.27-.79,1.63,1.63,0,0,0-1-.23,1.34,1.34,0,0,0-.8.2A1.4,1.4,0,0,0,490.14,230Zm2.57,1.55a10.64,10.64,0,0,1-1.16.3,3.35,3.35,0,0,0-1.05.33.82.82,0,0,0-.38.68,1,1,0,0,0,.3.7,1.08,1.08,0,0,0,.77.29,1.63,1.63,0,0,0,1-.34,1.2,1.2,0,0,0,.46-.64,3.8,3.8,0,0,0,.07-.93Z"/><path class="cls-2" d="M500.4,235V225h3.25a11.71,11.71,0,0,1,2.4.15,2.59,2.59,0,0,1,1.44,1,3.08,3.08,0,0,1,.58,1.95,3.29,3.29,0,0,1-.33,1.55,2.76,2.76,0,0,1-.85,1,3.07,3.07,0,0,1-1.05.48,12.13,12.13,0,0,1-2.1.14h-1.32V235Zm2-8.33v2.85h1.11a5.36,5.36,0,0,0,1.6-.16,1.29,1.29,0,0,0,.63-.49,1.4,1.4,0,0,0,.23-.78,1.29,1.29,0,0,0-.32-.9,1.42,1.42,0,0,0-.82-.45,10.36,10.36,0,0,0-1.45-.07Z"/><path class="cls-2" d="M511.56,235h-1.92v-7.26h1.78v1a3.09,3.09,0,0,1,.83-1,1.46,1.46,0,0,1,.83-.23,2.41,2.41,0,0,1,1.26.36l-.59,1.67a1.71,1.71,0,0,0-.9-.31,1.08,1.08,0,0,0-.69.22,1.62,1.62,0,0,0-.44.8,11.28,11.28,0,0,0-.16,2.44Z"/><path class="cls-2" d="M514.73,231.27a3.83,3.83,0,0,1,.47-1.85,3.2,3.2,0,0,1,1.33-1.37,3.92,3.92,0,0,1,1.94-.47,3.62,3.62,0,0,1,2.7,1.07,3.69,3.69,0,0,1,1.05,2.7,3.76,3.76,0,0,1-1.06,2.73,3.62,3.62,0,0,1-2.68,1.08,4.18,4.18,0,0,1-1.9-.45,3,3,0,0,1-1.38-1.32A4.34,4.34,0,0,1,514.73,231.27Zm2,.1a2.4,2.4,0,0,0,.52,1.65,1.66,1.66,0,0,0,2.52,0,2.92,2.92,0,0,0,0-3.3,1.66,1.66,0,0,0-2.52,0A2.4,2.4,0,0,0,516.69,231.37Z"/><path class="cls-2" d="M530.05,229.89l-1.89.34a1.42,1.42,0,0,0-.44-.86,1.28,1.28,0,0,0-.87-.28,1.45,1.45,0,0,0-1.15.49,2.58,2.58,0,0,0-.43,1.66,3,3,0,0,0,.44,1.83,1.44,1.44,0,0,0,1.16.53,1.28,1.28,0,0,0,.9-.31,1.88,1.88,0,0,0,.49-1.07l1.89.32a3.33,3.33,0,0,1-1.13,2,3.51,3.51,0,0,1-2.24.66,3.3,3.3,0,0,1-2.53-1,3.86,3.86,0,0,1-1-2.78,3.92,3.92,0,0,1,1-2.8,3.36,3.36,0,0,1,2.57-1,3.52,3.52,0,0,1,2.11.57A3.17,3.17,0,0,1,530.05,229.89Z"/><path class="cls-2" d="M535.71,232.69l1.92.32a3.14,3.14,0,0,1-1.17,1.6,3.38,3.38,0,0,1-2,.55,3.25,3.25,0,0,1-2.8-1.23,4.17,4.17,0,0,1-.72-2.51,4,4,0,0,1,.94-2.82,3.12,3.12,0,0,1,2.39-1,3.18,3.18,0,0,1,2.55,1.07,4.67,4.67,0,0,1,.9,3.27h-4.81a1.89,1.89,0,0,0,.46,1.33,1.46,1.46,0,0,0,1.11.48,1.16,1.16,0,0,0,.76-.25A1.51,1.51,0,0,0,535.71,232.69Zm.11-1.94a1.85,1.85,0,0,0-.43-1.27,1.3,1.3,0,0,0-1-.43,1.36,1.36,0,0,0-1,.45,1.82,1.82,0,0,0-.4,1.25Z"/><path class="cls-2" d="M538.62,232.93l1.93-.3a1.42,1.42,0,0,0,.49.86,1.73,1.73,0,0,0,1.06.29,1.85,1.85,0,0,0,1.12-.28.6.6,0,0,0,.25-.51.45.45,0,0,0-.14-.36,1.42,1.42,0,0,0-.64-.25,10.56,10.56,0,0,1-2.94-.94,1.87,1.87,0,0,1-.87-1.64,2,2,0,0,1,.75-1.58,3.48,3.48,0,0,1,2.31-.64,4,4,0,0,1,2.21.48,2.42,2.42,0,0,1,1,1.44l-1.81.33a1.12,1.12,0,0,0-.44-.65A1.62,1.62,0,0,0,542,229a2.09,2.09,0,0,0-1.08.21.45.45,0,0,0-.22.39.42.42,0,0,0,.19.35,7.39,7.39,0,0,0,1.79.54,5.3,5.3,0,0,1,2.15.85,1.78,1.78,0,0,1,.6,1.43,2.19,2.19,0,0,1-.84,1.72,3.7,3.7,0,0,1-2.46.71,4.07,4.07,0,0,1-2.35-.6A2.75,2.75,0,0,1,538.62,232.93Z"/><path class="cls-2" d="M546.4,232.93l1.93-.3a1.43,1.43,0,0,0,.5.86,1.7,1.7,0,0,0,1,.29,1.83,1.83,0,0,0,1.12-.28.6.6,0,0,0,.26-.51.49.49,0,0,0-.14-.36,1.48,1.48,0,0,0-.64-.25,10.8,10.8,0,0,1-3-.94,1.88,1.88,0,0,1-.86-1.64,2,2,0,0,1,.75-1.58,3.45,3.45,0,0,1,2.31-.64,4,4,0,0,1,2.21.48,2.47,2.47,0,0,1,1,1.44l-1.81.33a1.17,1.17,0,0,0-.44-.65,1.64,1.64,0,0,0-.93-.22,2.11,2.11,0,0,0-1.09.21.47.47,0,0,0-.22.39.43.43,0,0,0,.2.35,7.39,7.39,0,0,0,1.79.54,5.24,5.24,0,0,1,2.14.85,1.79,1.79,0,0,1,.61,1.43,2.19,2.19,0,0,1-.84,1.72,3.75,3.75,0,0,1-2.47.71,4,4,0,0,1-2.34-.6A2.76,2.76,0,0,1,546.4,232.93Z"/><path class="cls-2" d="M554.87,226.76V225h1.92v1.78Zm0,8.24v-7.26h1.92V235Z"/><path class="cls-2" d="M565.36,235h-1.92v-3.71a5.88,5.88,0,0,0-.12-1.52,1.07,1.07,0,0,0-1.07-.72,1.59,1.59,0,0,0-.9.27,1.39,1.39,0,0,0-.54.72,6.16,6.16,0,0,0-.15,1.67V235h-1.92v-7.26h1.79v1.07a3,3,0,0,1,3.55-1,2,2,0,0,1,.8.59,2.14,2.14,0,0,1,.37.81,6,6,0,0,1,.11,1.29Z"/><path class="cls-2" d="M567.13,235.48l2.19.27a.76.76,0,0,0,.26.52,1.41,1.41,0,0,0,.86.21,2.25,2.25,0,0,0,1.13-.23.93.93,0,0,0,.38-.48,2.94,2.94,0,0,0,.09-.89v-1.06a2.6,2.6,0,0,1-2.18,1.18,2.66,2.66,0,0,1-2.31-1.24,4.17,4.17,0,0,1-.67-2.43,4,4,0,0,1,.88-2.79,2.82,2.82,0,0,1,2.18-1,2.64,2.64,0,0,1,2.22,1.18v-1H574v6.51a6.63,6.63,0,0,1-.21,1.93,2.31,2.31,0,0,1-.6,1,2.5,2.5,0,0,1-1,.57,5.26,5.26,0,0,1-1.62.21,4.09,4.09,0,0,1-2.61-.64,2,2,0,0,1-.78-1.6C567.12,235.65,567.13,235.57,567.13,235.48Zm1.72-4.26a2.67,2.67,0,0,0,.44,1.69,1.39,1.39,0,0,0,1.11.54,1.56,1.56,0,0,0,1.19-.55,2.42,2.42,0,0,0,.48-1.63,2.57,2.57,0,0,0-.46-1.68,1.48,1.48,0,0,0-1.18-.54,1.41,1.41,0,0,0-1.14.53A2.59,2.59,0,0,0,568.85,231.22Z"/></g><g class="cls-1"><path class="cls-2" d="M470.45,244.05l-1,.08a1.74,1.74,0,0,0-.36-.83,1.29,1.29,0,0,0-1-.41,1.27,1.27,0,0,0-.81.26,2.23,2.23,0,0,0-.72,1,5.25,5.25,0,0,0-.27,1.82,2.2,2.2,0,0,1,.85-.79,2.34,2.34,0,0,1,1.06-.26,2.23,2.23,0,0,1,1.65.71,2.58,2.58,0,0,1,.68,1.84,3,3,0,0,1-.32,1.38,2.4,2.4,0,0,1-.88,1,2.63,2.63,0,0,1-3.24-.55,4.5,4.5,0,0,1-.76-2.93,5.25,5.25,0,0,1,.84-3.32,2.4,2.4,0,0,1,2-.91,2.2,2.2,0,0,1,1.52.53A2.17,2.17,0,0,1,470.45,244.05Zm-3.95,3.4a2.23,2.23,0,0,0,.21,1,1.58,1.58,0,0,0,.59.7,1.52,1.52,0,0,0,.8.24,1.41,1.41,0,0,0,1.06-.49,2,2,0,0,0,.44-1.35,1.81,1.81,0,0,0-.44-1.28,1.4,1.4,0,0,0-1.09-.47,1.45,1.45,0,0,0-1.11.47A1.66,1.66,0,0,0,466.5,247.45Z"/><path class="cls-2" d="M471.55,246.12a7.31,7.31,0,0,1,.28-2.25,2.79,2.79,0,0,1,.86-1.31,2.17,2.17,0,0,1,1.42-.47,2.34,2.34,0,0,1,1.12.26,2.12,2.12,0,0,1,.79.73,4.1,4.1,0,0,1,.48,1.18,7.66,7.66,0,0,1,.18,1.86,7.17,7.17,0,0,1-.28,2.23,2.86,2.86,0,0,1-.85,1.32,2.2,2.2,0,0,1-1.44.46,2.16,2.16,0,0,1-1.78-.81A5.19,5.19,0,0,1,471.55,246.12Zm1,0a4.86,4.86,0,0,0,.46,2.58,1.29,1.29,0,0,0,2.23,0,7.49,7.49,0,0,0,0-5.17,1.35,1.35,0,0,0-1.13-.64,1.24,1.24,0,0,0-1.06.57A5,5,0,0,0,472.54,246.12Z"/><path class="cls-2" d="M477.93,250v-5.7h.87v.8a2.1,2.1,0,0,1,.71-.68,2,2,0,0,1,1-.25,1.85,1.85,0,0,1,1,.26,1.41,1.41,0,0,1,.57.74,2,2,0,0,1,1.76-1,1.72,1.72,0,0,1,1.31.47,2,2,0,0,1,.45,1.44V250h-1v-3.59a2.78,2.78,0,0,0-.09-.84.85.85,0,0,0-.34-.41,1.12,1.12,0,0,0-.58-.16,1.34,1.34,0,0,0-1,.41,1.72,1.72,0,0,0-.4,1.28V250h-1v-3.71a1.66,1.66,0,0,0-.23-1,.9.9,0,0,0-.78-.33,1.43,1.43,0,0,0-.75.22,1.18,1.18,0,0,0-.5.63,3.33,3.33,0,0,0-.16,1.19v3Z"/><path class="cls-2" d="M486.71,248.3l1-.15a1.35,1.35,0,0,0,.44.88,1.6,1.6,0,0,0,1,.3,1.5,1.5,0,0,0,1-.27.79.79,0,0,0,.32-.63.59.59,0,0,0-.28-.52,4.24,4.24,0,0,0-1-.33,9,9,0,0,1-1.47-.46,1.4,1.4,0,0,1-.63-.54,1.49,1.49,0,0,1-.21-.77,1.47,1.47,0,0,1,.18-.71,1.61,1.61,0,0,1,.47-.54,2.12,2.12,0,0,1,.62-.28,3.14,3.14,0,0,1,.83-.11,3.28,3.28,0,0,1,1.18.19,1.6,1.6,0,0,1,.75.52,2.07,2.07,0,0,1,.33.89l-.94.13a1,1,0,0,0-.38-.69A1.31,1.31,0,0,0,489,245a1.64,1.64,0,0,0-1,.22.64.64,0,0,0-.28.52.6.6,0,0,0,.11.34.86.86,0,0,0,.37.25c.1,0,.39.12.86.25a10.92,10.92,0,0,1,1.43.45,1.55,1.55,0,0,1,.64.51,1.44,1.44,0,0,1,.23.82,1.65,1.65,0,0,1-.28.91,1.83,1.83,0,0,1-.82.67,3,3,0,0,1-1.2.23,2.75,2.75,0,0,1-1.7-.46A2.22,2.22,0,0,1,486.71,248.3Z"/><path class="cls-2" d="M495.28,247.64v-1h3v1Z"/><path class="cls-2" d="M502.45,250v-7.87h1v6.94h3.88V250Z"/><path class="cls-2" d="M508.13,247.15a2.93,2.93,0,0,1,.88-2.35,2.66,2.66,0,0,1,1.79-.63,2.55,2.55,0,0,1,1.93.77,2.91,2.91,0,0,1,.74,2.13,3.78,3.78,0,0,1-.33,1.73,2.33,2.33,0,0,1-1,1,2.83,2.83,0,0,1-1.38.35,2.57,2.57,0,0,1-1.93-.77A3.07,3.07,0,0,1,508.13,247.15Zm1,0a2.41,2.41,0,0,0,.48,1.64,1.6,1.6,0,0,0,2.4,0,2.5,2.5,0,0,0,.48-1.67,2.38,2.38,0,0,0-.48-1.61,1.6,1.6,0,0,0-2.4,0A2.41,2.41,0,0,0,509.12,247.15Z"/><path class="cls-2" d="M514.61,250v-5.7h.87v.81a2,2,0,0,1,1.81-.94,2.44,2.44,0,0,1,1,.18,1.53,1.53,0,0,1,.65.49,2,2,0,0,1,.3.71,6.37,6.37,0,0,1,0,.94V250h-1v-3.47a2.43,2.43,0,0,0-.12-.88.91.91,0,0,0-.4-.47,1.22,1.22,0,0,0-.67-.18,1.59,1.59,0,0,0-1.07.4,1.91,1.91,0,0,0-.45,1.48V250Z"/><path class="cls-2" d="M520.55,250.47l.94.14a.93.93,0,0,0,.33.64,1.65,1.65,0,0,0,1,.26,1.76,1.76,0,0,0,1-.26,1.32,1.32,0,0,0,.5-.76,6.42,6.42,0,0,0,.07-1.24,2,2,0,0,1-1.58.75,2.15,2.15,0,0,1-1.82-.85,3.24,3.24,0,0,1-.65-2,3.73,3.73,0,0,1,.3-1.51,2.36,2.36,0,0,1,.86-1.07,2.3,2.3,0,0,1,1.32-.37,2,2,0,0,1,1.66.81v-.68h.89v4.93a4.68,4.68,0,0,1-.27,1.88,1.93,1.93,0,0,1-.86.88,2.91,2.91,0,0,1-1.45.32,2.78,2.78,0,0,1-1.65-.45A1.57,1.57,0,0,1,520.55,250.47Zm.8-3.42a2.5,2.5,0,0,0,.44,1.63,1.41,1.41,0,0,0,1.12.52,1.44,1.44,0,0,0,1.12-.51,2.42,2.42,0,0,0,.45-1.61,2.33,2.33,0,0,0-.47-1.58,1.43,1.43,0,0,0-2.21,0A2.34,2.34,0,0,0,521.35,247.05Z"/><path class="cls-2" d="M528.55,250l3-7.87h1.13l3.22,7.87h-1.19l-.92-2.38h-3.29l-.86,2.38Zm2.27-3.23h2.67l-.82-2.18c-.25-.67-.44-1.21-.56-1.64a10.28,10.28,0,0,1-.42,1.51Z"/><path class="cls-2" d="M536.61,250v-7.87h1V250Z"/><path class="cls-2" d="M538.9,250.47l.94.14a.92.92,0,0,0,.32.64,1.69,1.69,0,0,0,1,.26,1.78,1.78,0,0,0,1-.26,1.32,1.32,0,0,0,.5-.76,6.42,6.42,0,0,0,.07-1.24,2,2,0,0,1-1.58.75,2.13,2.13,0,0,1-1.82-.85,3.24,3.24,0,0,1-.65-2,3.73,3.73,0,0,1,.3-1.51,2.22,2.22,0,0,1,2.17-1.44,2.05,2.05,0,0,1,1.67.81v-.68h.89v4.93a4.68,4.68,0,0,1-.27,1.88,1.93,1.93,0,0,1-.86.88,2.93,2.93,0,0,1-1.45.32,2.78,2.78,0,0,1-1.65-.45A1.55,1.55,0,0,1,538.9,250.47Zm.8-3.42a2.44,2.44,0,0,0,.44,1.63,1.41,1.41,0,0,0,1.12.52,1.44,1.44,0,0,0,1.12-.51,2.42,2.42,0,0,0,.45-1.61,2.33,2.33,0,0,0-.47-1.58,1.41,1.41,0,0,0-1.12-.53,1.38,1.38,0,0,0-1.09.52A2.34,2.34,0,0,0,539.7,247.05Z"/><path class="cls-2" d="M544.83,247.15a2.93,2.93,0,0,1,.88-2.35,2.67,2.67,0,0,1,1.8-.63,2.54,2.54,0,0,1,1.92.77,2.91,2.91,0,0,1,.74,2.13,3.78,3.78,0,0,1-.33,1.73,2.33,2.33,0,0,1-1,1,2.82,2.82,0,0,1-1.37.35,2.58,2.58,0,0,1-1.94-.77A3.07,3.07,0,0,1,544.83,247.15Zm1,0a2.41,2.41,0,0,0,.48,1.64,1.54,1.54,0,0,0,1.21.54,1.52,1.52,0,0,0,1.19-.54,2.5,2.5,0,0,0,.48-1.67,2.38,2.38,0,0,0-.48-1.61,1.6,1.6,0,0,0-2.4,0A2.41,2.41,0,0,0,545.82,247.15Z"/><path class="cls-2" d="M551.3,250v-5.7h.87v.86a2.37,2.37,0,0,1,.61-.8,1.08,1.08,0,0,1,.62-.19,1.88,1.88,0,0,1,1,.31l-.34.9a1.36,1.36,0,0,0-.71-.21.86.86,0,0,0-.56.19,1,1,0,0,0-.36.53,3.65,3.65,0,0,0-.17,1.12v3Z"/><path class="cls-2" d="M555,243.24v-1.11h1v1.11Zm0,6.76v-5.7h1V250Z"/><path class="cls-2" d="M559.53,249.13l.14.86a3.53,3.53,0,0,1-.73.09,1.64,1.64,0,0,1-.82-.17,1,1,0,0,1-.41-.44,3.4,3.4,0,0,1-.12-1.14v-3.28h-.71v-.75h.71v-1.42l1-.58v2h1v.75h-1v3.33a1.89,1.89,0,0,0,.05.54.42.42,0,0,0,.17.18.62.62,0,0,0,.33.07A2.62,2.62,0,0,0,559.53,249.13Z"/><path class="cls-2" d="M560.47,250v-7.87h1V245a2.16,2.16,0,0,1,1.71-.78,2.26,2.26,0,0,1,1.1.25,1.45,1.45,0,0,1,.67.69,3.23,3.23,0,0,1,.2,1.27V250h-1v-3.62a1.48,1.48,0,0,0-.31-1A1.18,1.18,0,0,0,563,245a1.54,1.54,0,0,0-.81.22,1.28,1.28,0,0,0-.54.61,2.69,2.69,0,0,0-.16,1V250Z"/><path class="cls-2" d="M566.59,250v-5.7h.86v.8a2,2,0,0,1,.72-.68,2,2,0,0,1,1-.25,1.82,1.82,0,0,1,1,.26,1.41,1.41,0,0,1,.57.74,2.06,2.06,0,0,1,1.77-1,1.7,1.7,0,0,1,1.3.47,2,2,0,0,1,.46,1.44V250h-1v-3.59a2.43,2.43,0,0,0-.1-.84.75.75,0,0,0-.34-.41,1.09,1.09,0,0,0-.58-.16,1.36,1.36,0,0,0-1,.41,1.77,1.77,0,0,0-.4,1.28V250h-1v-3.71a1.58,1.58,0,0,0-.24-1A.88.88,0,0,0,569,245a1.46,1.46,0,0,0-.76.22,1.22,1.22,0,0,0-.5.63,3.62,3.62,0,0,0-.15,1.19v3Z"/></g></g><g id="sensor_reading"><rect class="cls-7" x="150" y="210" width="180" height="50" rx="5"/><g class="cls-1"><path class="cls-2" d="M187.22,231.74l2-.19a2.3,2.3,0,0,0,.72,1.45,2.17,2.17,0,0,0,1.46.47,2.25,2.25,0,0,0,1.48-.42,1.2,1.2,0,0,0,.49-1,.92.92,0,0,0-.21-.61,1.69,1.69,0,0,0-.73-.43c-.23-.08-.77-.23-1.62-.44a5.57,5.57,0,0,1-2.28-1,2.62,2.62,0,0,1-.92-2,2.57,2.57,0,0,1,.43-1.43,2.74,2.74,0,0,1,1.25-1,4.94,4.94,0,0,1,2-.35,4.26,4.26,0,0,1,2.84.82,3,3,0,0,1,1,2.21l-2,.09a1.73,1.73,0,0,0-.55-1.11,2.08,2.08,0,0,0-1.28-.34,2.36,2.36,0,0,0-1.39.36.76.76,0,0,0-.32.63.79.79,0,0,0,.3.61,5.67,5.67,0,0,0,1.86.67,9.56,9.56,0,0,1,2.19.72,2.69,2.69,0,0,1,1.1,1,3,3,0,0,1,.4,1.6,2.91,2.91,0,0,1-.47,1.61,2.79,2.79,0,0,1-1.36,1.12,5.54,5.54,0,0,1-2.18.37,4.37,4.37,0,0,1-2.92-.88A3.81,3.81,0,0,1,187.22,231.74Z"/><path class="cls-2" d="M201.26,232.69l1.91.32a3.07,3.07,0,0,1-1.16,1.6,3.42,3.42,0,0,1-2,.55,3.26,3.26,0,0,1-2.8-1.23,4.17,4.17,0,0,1-.72-2.51,4,4,0,0,1,.95-2.82,3.09,3.09,0,0,1,2.38-1,3.22,3.22,0,0,1,2.56,1.07,4.72,4.72,0,0,1,.89,3.27h-4.81a2,2,0,0,0,.47,1.33,1.43,1.43,0,0,0,1.1.48,1.14,1.14,0,0,0,.76-.25A1.52,1.52,0,0,0,201.26,232.69Zm.11-1.94a1.9,1.9,0,0,0-.43-1.27,1.4,1.4,0,0,0-2,0,1.77,1.77,0,0,0-.4,1.25Z"/><path class="cls-2" d="M211.44,235h-1.92v-3.71a5.88,5.88,0,0,0-.12-1.52,1.08,1.08,0,0,0-.4-.53,1.15,1.15,0,0,0-.67-.19,1.53,1.53,0,0,0-.89.27,1.35,1.35,0,0,0-.55.72,6.75,6.75,0,0,0-.14,1.67V235h-1.92v-7.26h1.78v1.07a3,3,0,0,1,3.55-1,2,2,0,0,1,.8.59,2.16,2.16,0,0,1,.38.81,6.09,6.09,0,0,1,.1,1.29Z"/><path class="cls-2" d="M212.71,232.93l1.93-.3a1.43,1.43,0,0,0,.5.86,1.7,1.7,0,0,0,1.05.29,1.83,1.83,0,0,0,1.12-.28.6.6,0,0,0,.26-.51.49.49,0,0,0-.14-.36,1.42,1.42,0,0,0-.64-.25,10.8,10.8,0,0,1-2.95-.94,1.88,1.88,0,0,1-.86-1.64,2,2,0,0,1,.75-1.58,3.45,3.45,0,0,1,2.31-.64,4,4,0,0,1,2.21.48,2.47,2.47,0,0,1,1,1.44l-1.81.33a1.17,1.17,0,0,0-.44-.65,1.64,1.64,0,0,0-.93-.22,2.11,2.11,0,0,0-1.09.21.46.46,0,0,0-.21.39.42.42,0,0,0,.19.35,7.39,7.39,0,0,0,1.79.54,5.24,5.24,0,0,1,2.14.85,1.79,1.79,0,0,1,.61,1.43,2.19,2.19,0,0,1-.84,1.72,3.73,3.73,0,0,1-2.47.71,4,4,0,0,1-2.34-.6A2.76,2.76,0,0,1,212.71,232.93Z"/><path class="cls-2" d="M220.73,231.27a3.94,3.94,0,0,1,.47-1.85,3.22,3.22,0,0,1,1.34-1.37,3.91,3.91,0,0,1,1.93-.47,3.59,3.59,0,0,1,2.7,1.07,3.69,3.69,0,0,1,1.06,2.7,3.73,3.73,0,0,1-1.07,2.73,3.6,3.6,0,0,1-2.67,1.08,4.26,4.26,0,0,1-1.91-.45,3.14,3.14,0,0,1-1.38-1.32A4.46,4.46,0,0,1,220.73,231.27Zm2,.1a2.4,2.4,0,0,0,.51,1.65,1.64,1.64,0,0,0,1.27.58,1.6,1.6,0,0,0,1.26-.58,2.92,2.92,0,0,0,0-3.3,1.6,1.6,0,0,0-1.26-.58,1.64,1.64,0,0,0-1.27.58A2.4,2.4,0,0,0,222.7,231.37Z"/><path class="cls-2" d="M231.57,235h-1.92v-7.26h1.78v1a3.23,3.23,0,0,1,.82-1,1.52,1.52,0,0,1,.84-.23,2.47,2.47,0,0,1,1.26.36l-.59,1.67a1.71,1.71,0,0,0-.91-.31,1,1,0,0,0-.68.22,1.54,1.54,0,0,0-.44.8,11.28,11.28,0,0,0-.16,2.44Z"/><path class="cls-2" d="M239.09,235V225h4.26a7.24,7.24,0,0,1,2.33.27,2.33,2.33,0,0,1,1.17,1,2.9,2.9,0,0,1,.43,1.58,2.68,2.68,0,0,1-.66,1.86,3.19,3.19,0,0,1-2,.93,4.3,4.3,0,0,1,1.08.84,10.87,10.87,0,0,1,1.15,1.62l1.23,2h-2.42l-1.47-2.18a14.16,14.16,0,0,0-1.06-1.47,1.46,1.46,0,0,0-.61-.42,3.18,3.18,0,0,0-1-.11h-.41V235Zm2-5.78h1.5a7.22,7.22,0,0,0,1.82-.13,1,1,0,0,0,.56-.42,1.28,1.28,0,0,0,.21-.75,1.13,1.13,0,0,0-1-1.21c-.17,0-.66,0-1.48,0h-1.58Z"/><path class="cls-2" d="M253.38,232.69l1.92.32a3.14,3.14,0,0,1-1.17,1.6,3.41,3.41,0,0,1-2,.55,3.28,3.28,0,0,1-2.81-1.23,4.23,4.23,0,0,1-.71-2.51,4,4,0,0,1,.94-2.82,3.11,3.11,0,0,1,2.39-1,3.18,3.18,0,0,1,2.55,1.07,4.67,4.67,0,0,1,.9,3.27h-4.81a1.89,1.89,0,0,0,.46,1.33,1.46,1.46,0,0,0,1.11.48,1.16,1.16,0,0,0,.76-.25A1.51,1.51,0,0,0,253.38,232.69Zm.11-1.94a1.85,1.85,0,0,0-.43-1.27,1.32,1.32,0,0,0-1-.43,1.36,1.36,0,0,0-1,.45,1.82,1.82,0,0,0-.4,1.25Z"/><path class="cls-2" d="M258.4,230l-1.74-.32a2.7,2.7,0,0,1,1-1.56,3.76,3.76,0,0,1,2.13-.5,4.62,4.62,0,0,1,1.91.3,1.91,1.91,0,0,1,.89.77,4,4,0,0,1,.26,1.72l0,2.24a8.13,8.13,0,0,0,.09,1.42,4,4,0,0,0,.34,1h-1.9q-.08-.19-.18-.57c0-.11-.06-.19-.07-.22a3.31,3.31,0,0,1-1.05.71,3.06,3.06,0,0,1-1.2.24,2.5,2.5,0,0,1-1.77-.6,2,2,0,0,1-.64-1.54,2.12,2.12,0,0,1,.29-1.1,1.93,1.93,0,0,1,.83-.74,6.53,6.53,0,0,1,1.52-.45,9.56,9.56,0,0,0,1.87-.47v-.19a1,1,0,0,0-.27-.79,1.66,1.66,0,0,0-1-.23,1.36,1.36,0,0,0-.8.2A1.39,1.39,0,0,0,258.4,230Zm2.57,1.55a11.66,11.66,0,0,1-1.17.3,3.56,3.56,0,0,0-1.05.33.81.81,0,0,0-.37.68,1,1,0,0,0,.3.7,1.06,1.06,0,0,0,.76.29,1.68,1.68,0,0,0,1-.34,1.19,1.19,0,0,0,.45-.64,3.65,3.65,0,0,0,.08-.93Z"/><path class="cls-2" d="M271.41,235h-1.79v-1.07a2.78,2.78,0,0,1-2.27,1.23,2.77,2.77,0,0,1-2.14-1,4.15,4.15,0,0,1-.89-2.82,4,4,0,0,1,.87-2.8,2.83,2.83,0,0,1,2.19-1,2.72,2.72,0,0,1,2.11,1V225h1.92Zm-5.13-3.79a3.33,3.33,0,0,0,.32,1.68,1.44,1.44,0,0,0,1.3.76,1.42,1.42,0,0,0,1.13-.57,2.59,2.59,0,0,0,.46-1.68,2.83,2.83,0,0,0-.45-1.8,1.41,1.41,0,0,0-1.15-.55,1.45,1.45,0,0,0-1.15.54A2.43,2.43,0,0,0,266.28,231.21Z"/><path class="cls-2" d="M273.3,226.76V225h1.92v1.78Zm0,8.24v-7.26h1.92V235Z"/><path class="cls-2" d="M283.79,235h-1.92v-3.71a5.88,5.88,0,0,0-.12-1.52,1,1,0,0,0-.4-.53,1.13,1.13,0,0,0-.67-.19,1.53,1.53,0,0,0-.89.27,1.29,1.29,0,0,0-.54.72,6.16,6.16,0,0,0-.15,1.67V235h-1.92v-7.26H279v1.07a2.9,2.9,0,0,1,2.39-1.23,2.94,2.94,0,0,1,1.17.22,2,2,0,0,1,.79.59,2.16,2.16,0,0,1,.38.81,6.09,6.09,0,0,1,.1,1.29Z"/><path class="cls-2" d="M285.56,235.48l2.2.27a.75.75,0,0,0,.25.52,1.41,1.41,0,0,0,.86.21,2.22,2.22,0,0,0,1.13-.23.89.89,0,0,0,.38-.48,2.94,2.94,0,0,0,.09-.89v-1.06A2.58,2.58,0,0,1,288.3,235a2.67,2.67,0,0,1-2.32-1.24,4.24,4.24,0,0,1-.67-2.43,4,4,0,0,1,.88-2.79,2.84,2.84,0,0,1,2.18-1,2.67,2.67,0,0,1,2.23,1.18v-1h1.79v6.51a6.63,6.63,0,0,1-.21,1.93,2.4,2.4,0,0,1-.59,1,2.64,2.64,0,0,1-1,.57A5.31,5.31,0,0,1,289,238a4.14,4.14,0,0,1-2.62-.64,2,2,0,0,1-.77-1.6Zm1.72-4.26a2.61,2.61,0,0,0,.45,1.69,1.39,1.39,0,0,0,1.1.54,1.54,1.54,0,0,0,1.19-.55,2.37,2.37,0,0,0,.49-1.63,2.57,2.57,0,0,0-.47-1.68,1.48,1.48,0,0,0-1.17-.54,1.41,1.41,0,0,0-1.14.53A2.53,2.53,0,0,0,287.28,231.22Z"/></g><g class="cls-1"><path class="cls-2" d="M232.09,249.07V250h-5.21a1.69,1.69,0,0,1,.12-.67,3.41,3.41,0,0,1,.63-1.05,10.24,10.24,0,0,1,1.27-1.19,10.77,10.77,0,0,0,1.73-1.67,2,2,0,0,0,.45-1.16,1.27,1.27,0,0,0-.41-1,1.49,1.49,0,0,0-1.07-.4,1.52,1.52,0,0,0-1.12.42,1.61,1.61,0,0,0-.42,1.16l-1-.1a2.42,2.42,0,0,1,.76-1.69,2.63,2.63,0,0,1,1.79-.59,2.5,2.5,0,0,1,1.8.63,2.07,2.07,0,0,1,.66,1.56,2.4,2.4,0,0,1-.2.93,3.48,3.48,0,0,1-.64,1,14.94,14.94,0,0,1-1.49,1.39,14.91,14.91,0,0,0-1.12,1,3,3,0,0,0-.4.52Z"/><path class="cls-2" d="M233.12,246.12a7.27,7.27,0,0,1,.29-2.25,2.72,2.72,0,0,1,.86-1.31,2.15,2.15,0,0,1,1.42-.47,2.3,2.3,0,0,1,1.11.26,2,2,0,0,1,.79.73,4.11,4.11,0,0,1,.49,1.18,7.66,7.66,0,0,1,.18,1.86,7.17,7.17,0,0,1-.28,2.23,2.8,2.8,0,0,1-.86,1.32,2.15,2.15,0,0,1-1.43.46,2.18,2.18,0,0,1-1.79-.81A5.19,5.19,0,0,1,233.12,246.12Zm1,0a5,5,0,0,0,.45,2.58,1.37,1.37,0,0,0,1.12.64,1.34,1.34,0,0,0,1.12-.64,7.49,7.49,0,0,0,0-5.17,1.36,1.36,0,0,0-1.13-.64,1.23,1.23,0,0,0-1.06.57A5,5,0,0,0,234.12,246.12Z"/><path class="cls-2" d="M239.51,250v-5.7h.87v.8a2,2,0,0,1,1.73-.93,1.81,1.81,0,0,1,1,.26,1.38,1.38,0,0,1,.58.74,2,2,0,0,1,1.76-1,1.7,1.7,0,0,1,1.3.47,2,2,0,0,1,.46,1.44V250h-1v-3.59a2.43,2.43,0,0,0-.1-.84.75.75,0,0,0-.34-.41,1.07,1.07,0,0,0-.58-.16,1.36,1.36,0,0,0-1,.41,1.77,1.77,0,0,0-.39,1.28V250h-1v-3.71a1.58,1.58,0,0,0-.24-1,.87.87,0,0,0-.77-.33,1.43,1.43,0,0,0-.75.22,1.24,1.24,0,0,0-.51.63,3.62,3.62,0,0,0-.15,1.19v3Z"/><path class="cls-2" d="M248.29,248.3l1-.15a1.41,1.41,0,0,0,.45.88,1.6,1.6,0,0,0,1,.3,1.54,1.54,0,0,0,1-.27.82.82,0,0,0,.32-.63.59.59,0,0,0-.28-.52,4.64,4.64,0,0,0-1-.33,9.61,9.61,0,0,1-1.48-.46,1.43,1.43,0,0,1-.62-.54,1.49,1.49,0,0,1-.21-.77,1.58,1.58,0,0,1,.17-.71,1.76,1.76,0,0,1,.48-.54,2,2,0,0,1,.61-.28,3.22,3.22,0,0,1,.84-.11,3.28,3.28,0,0,1,1.18.19,1.6,1.6,0,0,1,.75.52,2.07,2.07,0,0,1,.33.89l-.95.13a1,1,0,0,0-.37-.69,1.33,1.33,0,0,0-.87-.25,1.62,1.62,0,0,0-1,.22.65.65,0,0,0-.29.52.54.54,0,0,0,.12.34.81.81,0,0,0,.37.25c.1,0,.38.12.86.25a10.92,10.92,0,0,1,1.43.45,1.46,1.46,0,0,1,.63.51,1.37,1.37,0,0,1,.23.82,1.58,1.58,0,0,1-.28.91,1.86,1.86,0,0,1-.81.67,3.09,3.09,0,0,1-1.2.23,2.73,2.73,0,0,1-1.7-.46A2.17,2.17,0,0,1,248.29,248.3Z"/></g></g><path class="cls-19" d="M332.55,230.7V241L348,235.85Z"/><path class="cls-19" d="M692.55,230.7V241L708,235.85Z"/><path class="cls-19" d="M872.55,230.7V241L888,235.85Z"/><g class="cls-1"><path class="cls-19" d="M315.55,191.41H319a9.33,9.33,0,0,1,1.52.09,2.2,2.2,0,0,1,.9.35,2.3,2.3,0,0,1,.66.72,2.06,2.06,0,0,1-.95,2.87,2.25,2.25,0,0,1,1.21.77,2.09,2.09,0,0,1,.42,1.3,2.58,2.58,0,0,1-.27,1.14,2.22,2.22,0,0,1-.75.88,2.43,2.43,0,0,1-1.16.41c-.29,0-1,.05-2.09.06h-2.92Zm1.73,1.43v2h1.14q1,0,1.26,0a1.19,1.19,0,0,0,.7-.31.9.9,0,0,0,.25-.67.89.89,0,0,0-.87-.95c-.17,0-.67,0-1.48,0Zm0,3.42v2.29h1.61a7.41,7.41,0,0,0,1.19-.05,1.15,1.15,0,0,0,.63-.34,1.07,1.07,0,0,0,.24-.73,1.09,1.09,0,0,0-.19-.66,1,1,0,0,0-.54-.39,6.07,6.07,0,0,0-1.54-.12Z"/><path class="cls-19" d="M324.25,200v-8.52H326v7.07h4.31V200Z"/><path class="cls-19" d="M331.18,195.76a5.53,5.53,0,0,1,.4-2.21,3.87,3.87,0,0,1,.8-1.17,3.21,3.21,0,0,1,1.11-.78,4.81,4.81,0,0,1,1.85-.34,4.07,4.07,0,0,1,3,1.18,5.26,5.26,0,0,1,0,6.53,4.51,4.51,0,0,1-6.07,0A4.43,4.43,0,0,1,331.18,195.76Zm1.79-.06a3.21,3.21,0,0,0,.68,2.21,2.19,2.19,0,0,0,1.71.75,2.16,2.16,0,0,0,1.7-.74,3.31,3.31,0,0,0,.66-2.24,3.26,3.26,0,0,0-.64-2.21,2.41,2.41,0,0,0-3.45,0A3.24,3.24,0,0,0,333,195.7Z"/><path class="cls-19" d="M346.37,196.84l1.68.54a3.77,3.77,0,0,1-1.29,2.08,3.64,3.64,0,0,1-2.28.69,3.68,3.68,0,0,1-2.81-1.17,4.46,4.46,0,0,1-1.1-3.2,4.68,4.68,0,0,1,1.1-3.33,3.81,3.81,0,0,1,2.91-1.19,3.55,3.55,0,0,1,2.57.94,3.29,3.29,0,0,1,.87,1.58l-1.71.41a1.77,1.77,0,0,0-1.81-1.44,1.93,1.93,0,0,0-1.55.68,3.35,3.35,0,0,0-.6,2.22,3.59,3.59,0,0,0,.59,2.32,1.9,1.9,0,0,0,1.52.69,1.7,1.7,0,0,0,1.19-.44A2.58,2.58,0,0,0,346.37,196.84Z"/><path class="cls-19" d="M349.56,200v-8.59h1.73v3.81l3.51-3.81h2.33l-3.23,3.35,3.41,5.24h-2.25l-2.36-4-1.41,1.43V200Z"/><path class="cls-19" d="M357.76,197.21l1.69-.17a2.06,2.06,0,0,0,.62,1.25,1.9,1.9,0,0,0,1.26.4,1.93,1.93,0,0,0,1.26-.36,1,1,0,0,0,.42-.83.76.76,0,0,0-.18-.51,1.37,1.37,0,0,0-.62-.38c-.2-.07-.67-.19-1.39-.37a4.83,4.83,0,0,1-2-.85,2.26,2.26,0,0,1-.79-1.73,2.2,2.2,0,0,1,.38-1.23,2.28,2.28,0,0,1,1.07-.87,4.26,4.26,0,0,1,1.69-.3,3.61,3.61,0,0,1,2.43.71,2.52,2.52,0,0,1,.86,1.9l-1.73.07a1.51,1.51,0,0,0-.48-.95,1.78,1.78,0,0,0-1.1-.29A2,2,0,0,0,360,193a.61.61,0,0,0-.28.53.65.65,0,0,0,.26.52,4.43,4.43,0,0,0,1.59.58,8.16,8.16,0,0,1,1.88.62,2.33,2.33,0,0,1,.94.87,2.68,2.68,0,0,1-.06,2.75,2.5,2.5,0,0,1-1.16,1,4.88,4.88,0,0,1-1.87.31,3.71,3.71,0,0,1-2.5-.75A3.26,3.26,0,0,1,357.76,197.21Z"/></g><g class="cls-1"><path class="cls-19" d="M675.55,191.41H679a9.33,9.33,0,0,1,1.52.09,2.2,2.2,0,0,1,.9.35,2.3,2.3,0,0,1,.66.72,2.06,2.06,0,0,1-.95,2.87,2.25,2.25,0,0,1,1.21.77,2.09,2.09,0,0,1,.42,1.3,2.58,2.58,0,0,1-.27,1.14,2.22,2.22,0,0,1-.75.88,2.43,2.43,0,0,1-1.16.41c-.29,0-1,.05-2.09.06h-2.92Zm1.73,1.43v2h1.14q1,0,1.26,0a1.19,1.19,0,0,0,.7-.31.9.9,0,0,0,.25-.67.89.89,0,0,0-.87-.95c-.17,0-.67,0-1.48,0Zm0,3.42v2.29h1.61a7.41,7.41,0,0,0,1.19-.05,1.15,1.15,0,0,0,.63-.34,1.07,1.07,0,0,0,.24-.73,1.09,1.09,0,0,0-.19-.66,1,1,0,0,0-.54-.39,6.07,6.07,0,0,0-1.54-.12Z"/><path class="cls-19" d="M684.25,200v-8.52H686v7.07h4.31V200Z"/><path class="cls-19" d="M691.18,195.76a5.53,5.53,0,0,1,.4-2.21,3.87,3.87,0,0,1,.8-1.17,3.21,3.21,0,0,1,1.11-.78,4.81,4.81,0,0,1,1.85-.34,4.07,4.07,0,0,1,3,1.18,5.26,5.26,0,0,1,0,6.53,4.51,4.51,0,0,1-6.07,0A4.43,4.43,0,0,1,691.18,195.76Zm1.79-.06a3.21,3.21,0,0,0,.68,2.21,2.19,2.19,0,0,0,1.71.75,2.16,2.16,0,0,0,1.7-.74,3.31,3.31,0,0,0,.66-2.24,3.26,3.26,0,0,0-.64-2.21,2.41,2.41,0,0,0-3.45,0A3.24,3.24,0,0,0,693,195.7Z"/><path class="cls-19" d="M706.37,196.84l1.68.54a3.77,3.77,0,0,1-1.29,2.08,3.64,3.64,0,0,1-2.28.69,3.68,3.68,0,0,1-2.81-1.17,4.46,4.46,0,0,1-1.1-3.2,4.68,4.68,0,0,1,1.1-3.33,3.81,3.81,0,0,1,2.91-1.19,3.55,3.55,0,0,1,2.57.94,3.29,3.29,0,0,1,.87,1.58l-1.71.41a1.77,1.77,0,0,0-1.81-1.44,1.93,1.93,0,0,0-1.55.68,3.35,3.35,0,0,0-.6,2.22,3.59,3.59,0,0,0,.59,2.32,1.9,1.9,0,0,0,1.52.69,1.7,1.7,0,0,0,1.19-.44A2.58,2.58,0,0,0,706.37,196.84Z"/><path class="cls-19" d="M709.56,200v-8.59h1.73v3.81l3.51-3.81h2.33l-3.23,3.35,3.41,5.24h-2.25l-2.36-4-1.41,1.43V200Z"/><path class="cls-19" d="M717.76,197.21l1.69-.17a2.06,2.06,0,0,0,.62,1.25,1.9,1.9,0,0,0,1.26.4,1.93,1.93,0,0,0,1.26-.36,1,1,0,0,0,.42-.83.76.76,0,0,0-.18-.51,1.37,1.37,0,0,0-.62-.38c-.2-.07-.67-.19-1.39-.37a4.83,4.83,0,0,1-2-.85,2.26,2.26,0,0,1-.79-1.73,2.2,2.2,0,0,1,.38-1.23,2.28,2.28,0,0,1,1.07-.87,4.26,4.26,0,0,1,1.69-.3,3.61,3.61,0,0,1,2.43.71,2.52,2.52,0,0,1,.86,1.9l-1.73.07a1.51,1.51,0,0,0-.48-.95,1.78,1.78,0,0,0-1.1-.29A2,2,0,0,0,720,193a.61.61,0,0,0-.28.53.65.65,0,0,0,.26.52,4.43,4.43,0,0,0,1.59.58,8.16,8.16,0,0,1,1.88.62,2.33,2.33,0,0,1,.94.87,2.68,2.68,0,0,1-.06,2.75,2.5,2.5,0,0,1-1.16,1,4.88,4.88,0,0,1-1.87.31,3.71,3.71,0,0,1-2.5-.75A3.26,3.26,0,0,1,717.76,197.21Z"/></g><g class="cls-1"><path class="cls-19" d="M855.55,191.41H859a9.33,9.33,0,0,1,1.52.09,2.2,2.2,0,0,1,.9.35,2.3,2.3,0,0,1,.66.72,2.06,2.06,0,0,1-.95,2.87,2.25,2.25,0,0,1,1.21.77,2.09,2.09,0,0,1,.42,1.3,2.58,2.58,0,0,1-.27,1.14,2.22,2.22,0,0,1-.75.88,2.43,2.43,0,0,1-1.16.41c-.29,0-1,.05-2.09.06h-2.92Zm1.73,1.43v2h1.14q1,0,1.26,0a1.19,1.19,0,0,0,.7-.31.9.9,0,0,0,.25-.67.89.89,0,0,0-.87-.95c-.17,0-.67,0-1.48,0Zm0,3.42v2.29h1.61a7.41,7.41,0,0,0,1.19-.05,1.15,1.15,0,0,0,.63-.34,1.07,1.07,0,0,0,.24-.73,1.09,1.09,0,0,0-.19-.66,1,1,0,0,0-.54-.39,6.07,6.07,0,0,0-1.54-.12Z"/><path class="cls-19" d="M864.25,200v-8.52H866v7.07h4.31V200Z"/><path class="cls-19" d="M871.18,195.76a5.53,5.53,0,0,1,.4-2.21,3.87,3.87,0,0,1,.8-1.17,3.21,3.21,0,0,1,1.11-.78,4.81,4.81,0,0,1,1.85-.34,4.07,4.07,0,0,1,3,1.18,5.26,5.26,0,0,1,0,6.53,4.51,4.51,0,0,1-6.07,0A4.43,4.43,0,0,1,871.18,195.76Zm1.79-.06a3.21,3.21,0,0,0,.68,2.21,2.19,2.19,0,0,0,1.71.75,2.16,2.16,0,0,0,1.7-.74,3.31,3.31,0,0,0,.66-2.24,3.26,3.26,0,0,0-.64-2.21,2.41,2.41,0,0,0-3.45,0A3.24,3.24,0,0,0,873,195.7Z"/><path class="cls-19" d="M886.37,196.84l1.68.54a3.77,3.77,0,0,1-1.29,2.08,3.64,3.64,0,0,1-2.28.69,3.68,3.68,0,0,1-2.81-1.17,4.46,4.46,0,0,1-1.1-3.2,4.68,4.68,0,0,1,1.1-3.33,3.81,3.81,0,0,1,2.91-1.19,3.55,3.55,0,0,1,2.57.94,3.29,3.29,0,0,1,.87,1.58l-1.71.41a1.77,1.77,0,0,0-1.81-1.44,1.93,1.93,0,0,0-1.55.68,3.35,3.35,0,0,0-.6,2.22,3.59,3.59,0,0,0,.59,2.32,1.9,1.9,0,0,0,1.52.69,1.7,1.7,0,0,0,1.19-.44A2.58,2.58,0,0,0,886.37,196.84Z"/><path class="cls-19" d="M889.56,200v-8.59h1.73v3.81l3.51-3.81h2.33l-3.23,3.35,3.41,5.24h-2.25l-2.36-4-1.41,1.43V200Z"/><path class="cls-19" d="M897.76,197.21l1.69-.17a2.06,2.06,0,0,0,.62,1.25,1.9,1.9,0,0,0,1.26.4,1.93,1.93,0,0,0,1.26-.36,1,1,0,0,0,.42-.83.76.76,0,0,0-.18-.51,1.37,1.37,0,0,0-.62-.38c-.2-.07-.67-.19-1.39-.37a4.83,4.83,0,0,1-2-.85,2.26,2.26,0,0,1-.79-1.73,2.2,2.2,0,0,1,.38-1.23,2.28,2.28,0,0,1,1.07-.87,4.26,4.26,0,0,1,1.69-.3,3.61,3.61,0,0,1,2.43.71,2.52,2.52,0,0,1,.86,1.9l-1.73.07a1.51,1.51,0,0,0-.48-.95,1.78,1.78,0,0,0-1.1-.29A2,2,0,0,0,900,193a.61.61,0,0,0-.28.53.65.65,0,0,0,.26.52,4.43,4.43,0,0,0,1.59.58,8.16,8.16,0,0,1,1.88.62,2.33,2.33,0,0,1,.94.87,2.68,2.68,0,0,1-.06,2.75,2.5,2.5,0,0,1-1.16,1,4.88,4.88,0,0,1-1.87.31,3.71,3.71,0,0,1-2.5-.75A3.26,3.26,0,0,1,897.76,197.21Z"/></g></g></svg>