<svg id="Layer_1" data-name="Layer 1" xmlns="http://www.w3.org/2000/svg" viewBox="0 0 1920 859"><g id="pre-training"><text transform="translate(542.7 128.42)" style="isolation:isolate;font-size:39.68083190917969px;fill:#fff;font-family:Arial-BoldMT, Arial;font-weight:700">Large Language Model <tspan x="443.15" y="0" style="letter-spacing:-0.055176593323727575em">T</tspan><tspan x="465.2" y="0">raining Pipeline</tspan></text><text transform="translate(696.21 159.42)" style="isolation:isolate;font-size:22.32046890258789px;fill:#aaa;font-family:ArialMT, Arial">From Raw Internet<tspan x="184.82" y="0" style="letter-spacing:-0.01804765092561719em"> </tspan><tspan x="190.62" y="0" style="letter-spacing:-0.11084539059406338em">T</tspan><tspan x="201.78" y="0">ext to Helpful</tspan><tspan x="332.05" y="0" style="letter-spacing:-0.055171121981098845em"> </tspan><tspan x="337.02" y="0">AI</tspan><tspan x="358.11" y="0" style="letter-spacing:-0.055171121981098845em"> </tspan><tspan x="363.08" y="0">Assistant</tspan></text><g id="timeline"><line id="timeline-2" data-name="timeline" x1="146.92" y1="232.22" x2="1689.49" y2="232.22" style="fill:none;stroke:#ffeb3b;stroke-width:3px"/><text transform="translate(259.74 211.19)" style="isolation:isolate;font-size:15.425686836242676px;fill:#ffeb3b;font-family:Arial-BoldMT, Arial;font-weight:700">Months</text><text transform="translate(689.42 211.19)" style="isolation:isolate;font-size:15.425686836242676px;fill:#ffeb3b;font-family:Arial-BoldMT, Arial;font-weight:700">Days</text><text transform="translate(1106.27 211.19)" style="isolation:isolate;font-size:15.425686836242676px;fill:#ffeb3b;font-family:Arial-BoldMT, Arial;font-weight:700">Hours</text><text transform="translate(1526.97 211.19)" style="isolation:isolate;font-size:15.425686836242676px;fill:#ffeb3b;font-family:Arial-BoldMT, Arial;font-weight:700">Hours</text></g><g id="pre-training-2" data-name="pre-training"><rect x="6.69" y="250.88" width="420.7" height="280.47" rx="14.02" style="fill:#2d2d44;stroke:#4a4a6a;stroke-width:2px"/><rect x="20.71" y="264.9" width="392.65" height="42.07" rx="7.01" style="fill:#ff6b6b"/><text transform="translate(136.02 292.95)" style="isolation:isolate;font-size:22.437362670898438px;fill:#fff;font-family:Arial-BoldMT, Arial;font-weight:700">PRE-TRAINING</text><text transform="translate(34.74 356.06)" style="isolation:isolate;font-size:16.828022003173828px;fill:#fff;font-family:ArialMT, Arial">Data Sources:</text><text transform="translate(34.74 377.09)" style="isolation:isolate;font-size:15.425686836242676px;fill:#aaa;font-family:ArialMT, Arial">• CommonCrawl (web pages)</text><text transform="translate(34.74 398.13)" style="isolation:isolate;font-size:15.425686836242676px;fill:#aaa;font-family:ArialMT, Arial">• Books, Wikipedia</text><text transform="translate(34.74 419.16)" style="isolation:isolate;font-size:15.425686836242676px;fill:#aaa;font-family:ArialMT, Arial">• Code repositories</text><text transform="translate(34.74 440.2)" style="isolation:isolate;font-size:15.425686836242676px;fill:#aaa;font-family:ArialMT, Arial">•<tspan x="5.4" y="0" style="letter-spacing:-0.018042652846166043em"> </tspan><tspan x="9.41" y="0" style="letter-spacing:-0.03712988033079433em">T</tspan><tspan x="18.26" y="0">rillions of tokens</tspan></text><text transform="translate(34.74 475.25)" style="isolation:isolate;font-size:16.828022003173828px;fill:#fff;font-family:ArialMT, Arial">Process: Next-token prediction</text><text transform="translate(34.74 496.29)" style="isolation:isolate;font-size:16.828022003173828px;fill:#f44;font-family:Arial-BoldMT, Arial;font-weight:700">Cost: $4-10M, thousands of GPUs</text><path d="M459.64,378.49v25.24l37.87-12.62Z" style="fill:#ffeb3b"/></g><g id="pretraining_output"><path d="M50.41,578.12H401a7.22,7.22,0,0,1,7,7.42V748.77a7.22,7.22,0,0,1-7,7.42H50.41a7.23,7.23,0,0,1-7-7.42V585.54A7.23,7.23,0,0,1,50.41,578.12Z" style="fill:#3d3d5c;stroke:#6a6a8a"/><text transform="translate(123.48 608.95)" style="isolation:isolate;font-size:22.437362670898438px;fill:#fff;font-family:Arial-BoldMT, Arial;font-weight:700">Base Model Output</text><text transform="translate(57.42 636.99)" style="isolation:isolate;font-size:15.425686836242676px;fill:#4caf50;font-family:MyriadPro-Regular, Myriad Pro">✓<tspan x="7.71" y="0" xml:space="preserve" style="font-family:ArialMT, Arial"> Knows language patterns</tspan></text><text transform="translate(57.42 658.03)" style="isolation:isolate;font-size:15.425686836242676px;fill:#4caf50;font-family:MyriadPro-Regular, Myriad Pro">✓<tspan x="7.71" y="0" xml:space="preserve" style="font-family:ArialMT, Arial"> Has factual knowledge</tspan></text><text transform="translate(57.42 679.06)" style="isolation:isolate;font-size:15.425686836242676px;fill:#4caf50;font-family:MyriadPro-Regular, Myriad Pro">✓<tspan x="7.71" y="0" xml:space="preserve" style="font-family:ArialMT, Arial"> Can complete text</tspan></text><text transform="translate(57.42 707.11)" style="isolation:isolate;font-size:15.425686836242676px;fill:#ff6b6b;font-family:MyriadPro-Regular, Myriad Pro">✗<tspan x="7.71" y="0" xml:space="preserve" style="font-family:ArialMT, Arial"> Doesn&apos;t follow instructions</tspan></text><text transform="translate(57.42 728.15)" style="isolation:isolate;font-size:15.425686836242676px;fill:#ff6b6b;font-family:MyriadPro-Regular, Myriad Pro">✗<tspan x="7.71" y="0" xml:space="preserve" style="font-family:ArialMT, Arial"> May be unhelpful/harmful</tspan></text></g><g id="sftt"><rect x="538.52" y="276.16" width="392.65" height="252.42" rx="14.02" style="fill:#2d2d44;stroke:#4a4a6a;stroke-width:2px"/><rect x="552.55" y="290.19" width="364.61" height="42.07" rx="7.01" style="fill:#4ecdc4"/><text transform="translate(587.33 318.23)" style="isolation:isolate;font-size:22.437362670898438px;fill:#fff;font-family:Arial-BoldMT, Arial;font-weight:700">SUPE<tspan x="61.1" y="0" style="letter-spacing:-0.01806243645674298em">R</tspan><tspan x="76.9" y="0">VISED FINE-TUNING</tspan></text><text transform="translate(566.57 381.34)" style="isolation:isolate;font-size:16.828022003173828px;fill:#fff;font-family:ArialMT, Arial">Data: Instruction-response pairs</text><text transform="translate(566.57 402.37)" style="isolation:isolate;font-size:15.425686836242676px;fill:#aaa;font-family:ArialMT, Arial">• Human-written examples</text><text transform="translate(566.57 423.41)" style="isolation:isolate;font-size:15.425686836242676px;fill:#aaa;font-family:ArialMT, Arial">•<tspan x="5.4" y="0" style="letter-spacing:-0.018042652846166043em"> </tspan><tspan x="9.41" y="0" style="letter-spacing:-0.00003165377692309832em">Thousands of samples</tspan></text><text transform="translate(566.57 444.44)" style="isolation:isolate;font-size:15.425686836242676px;fill:#aaa;font-family:ArialMT, Arial">• High-quality curation</text><text transform="translate(566.57 479.5)" style="isolation:isolate;font-size:16.828022003173828px;fill:#fff;font-family:ArialMT, Arial">Process: Supervised learning</text><text transform="translate(566.57 507.55)" style="isolation:isolate;font-size:16.828022003173828px;fill:#ff9800;font-family:Arial-BoldMT, Arial;font-weight:700">Cost: $1-10K, days of training</text><path d="M963.43,403.77V429l37.86-12.62Z" style="fill:#ffeb3b"/></g><g id="sft_output"><path d="M569.41,601.53H892c3.87,0,7,3.56,7,7.94v143c0,4.39-3.14,8-7,8H569.41c-3.87,0-7-3.56-7-8v-143C562.4,605.09,565.54,601.53,569.41,601.53Z" style="fill:#3d3d5c;stroke:#6a6a8a"/><text transform="translate(634.09 641.25)" style="isolation:isolate;font-size:22.437362670898438px;fill:#fff;font-family:Arial-BoldMT, Arial;font-weight:700">SFT Model Output</text><text transform="translate(576.42 669.3)" style="isolation:isolate;font-size:15.425686836242676px;fill:#4caf50;font-family:MyriadPro-Regular, Myriad Pro">✓<tspan x="7.71" y="0" xml:space="preserve" style="font-family:ArialMT, Arial"> Follows instructions</tspan></text><text transform="translate(576.42 690.33)" style="isolation:isolate;font-size:15.425686836242676px;fill:#4caf50;font-family:MyriadPro-Regular, Myriad Pro">✓<tspan x="7.71" y="0" xml:space="preserve" style="font-family:ArialMT, Arial"> Structured responses</tspan></text><text transform="translate(576.42 718.38)" style="isolation:isolate;font-size:15.425686836242676px;fill:#ff6b6b;font-family:MyriadPro-Regular, Myriad Pro">✗<tspan x="7.71" y="0" xml:space="preserve" style="font-family:ArialMT, Arial"> May not align with preferences</tspan></text><text transform="translate(576.42 739.42)" style="isolation:isolate;font-size:15.425686836242676px;fill:#ff6b6b;font-family:MyriadPro-Regular, Myriad Pro">✗<tspan x="7.71" y="0" xml:space="preserve" style="font-family:ArialMT, Arial"> Can be unhelpful despite following</tspan></text></g><g id="rlhf"><rect x="1029.41" y="264.93" width="420.7" height="280.47" rx="14.02" style="fill:#2d2d44;stroke:#4a4a6a;stroke-width:2px"/><rect x="1043.43" y="278.95" width="392.65" height="42.07" rx="7.01" style="fill:#45b7d1"/><text transform="translate(1209.85 307)" style="isolation:isolate;font-size:22.437362670898438px;fill:#fff;font-family:Arial-BoldMT, Arial;font-weight:700">RLHF</text><text transform="translate(1057.46 370.1)" style="isolation:isolate;font-size:16.828022003173828px;fill:#fff;font-family:ArialMT, Arial">1. Collect preference data</text><text transform="translate(1057.46 391.14)" style="isolation:isolate;font-size:15.425686836242676px;fill:#aaa;font-family:ArialMT, Arial">Human ranking:<tspan x="108.89" y="0" xml:space="preserve" style="letter-spacing:-0.055204186953883475em"> A</tspan><tspan x="121.76" y="0" xml:space="preserve" style="letter-spacing:-0.00006330755384619664em"> vs B</tspan></text><text transform="translate(1057.46 419.18)" style="isolation:isolate;font-size:16.828022003173828px;fill:#fff;font-family:ArialMT, Arial">2.<tspan x="14.03" y="0" style="letter-spacing:-0.01810596040001224em"> </tspan><tspan x="18.41" y="0" style="letter-spacing:-0.03708239966540969em">T</tspan><tspan x="28.06" y="0">rain reward model</tspan></text><text transform="translate(1057.46 440.22)" style="isolation:isolate;font-size:15.425686836242676px;fill:#aaa;font-family:ArialMT, Arial">Predict human preferences</text><text transform="translate(1057.46 468.27)" style="isolation:isolate;font-size:16.828022003173828px;fill:#fff;font-family:ArialMT, Arial">3. R<tspan x="30.86" y="0" style="letter-spacing:-0.0371404315897687em">L</tspan><tspan x="39.6" y="0" xml:space="preserve"> optimization (PPO)</tspan></text><text transform="translate(1057.46 489.3)" style="isolation:isolate;font-size:15.425686836242676px;fill:#aaa;font-family:ArialMT, Arial">Optimize against reward</text><text transform="translate(1057.46 524.36)" style="isolation:isolate;font-size:16.828022003173828px;fill:#ff9800;font-family:Arial-BoldMT, Arial;font-weight:700">Cost: $1-5K, hours of training</text><path d="M1482.37,392.54v25.24l37.86-12.62Z" style="fill:#ffeb3b"/></g><g id="model_aligned"><path d="M1555.4,286H1906c3.87,0,7,3.4,7,7.59V460.64c0,4.19-3.14,7.59-7,7.59H1555.4c-3.87,0-7-3.4-7-7.59v-167C1548.39,289.4,1551.53,286,1555.4,286Z" style="fill:#3d3d5c;stroke:#6a6a8a"/><text transform="translate(1614.17 320.99)" style="isolation:isolate;font-size:22.437362670898438px;fill:#fff;font-family:Arial-BoldMT, Arial;font-weight:700">Aligned Model Output</text><text transform="translate(1562.42 349.03)" style="isolation:isolate;font-size:15.425686836242676px;fill:#4caf50;font-family:MyriadPro-Regular, Myriad Pro">✓<tspan x="7.71" y="0" xml:space="preserve" style="font-family:ArialMT, Arial"> Follows instructions</tspan></text><text transform="translate(1562.42 370.07)" style="isolation:isolate;font-size:15.425686836242676px;fill:#4caf50;font-family:MyriadPro-Regular, Myriad Pro">✓<tspan x="7.71" y="0" xml:space="preserve" style="font-family:ArialMT, Arial"> Helpful and harmless</tspan></text><text transform="translate(1562.42 391.1)" style="isolation:isolate;font-size:15.425686836242676px;fill:#4caf50;font-family:MyriadPro-Regular, Myriad Pro">✓<tspan x="7.71" y="0" style="font-family:ArialMT, Arial;letter-spacing:-0.055204186953883475em"> </tspan><tspan x="11.15" y="0" style="font-family:ArialMT, Arial">Aligned with human values</tspan></text><text transform="translate(1562.42 412.14)" style="isolation:isolate;font-size:15.425686836242676px;fill:#4caf50;font-family:MyriadPro-Regular, Myriad Pro">✓<tspan x="7.71" y="0" xml:space="preserve" style="font-family:ArialMT, Arial"> Refuses harmful requests</tspan></text><text transform="translate(1562.42 440.18)" style="isolation:isolate;font-size:15.425686836242676px;fill:#4caf50;font-family:MyriadPro-Regular, Myriad Pro">✓<tspan x="7.71" y="0" xml:space="preserve" style="font-family:ArialMT, Arial"> ChatGP</tspan><tspan x="66.87" y="0" style="font-family:ArialMT, Arial;letter-spacing:-0.055204186953883475em">T</tspan><tspan x="75.44" y="0" style="font-family:ArialMT, Arial">-like behavior</tspan></text></g><g id="rlhf_alternatives"><path d="M1043.43,609.68h392.66c7.74,0,14,8.21,14,18.34V811.45c0,10.13-6.28,18.34-14,18.34H1043.43c-7.74,0-14-8.21-14-18.34V628C1029.41,617.89,1035.69,609.68,1043.43,609.68Z" style="fill:#2d2d44;stroke:#4a4a6a;stroke-width:2px"/><rect x="1043.43" y="623.7" width="392.65" height="42.07" rx="7.01" style="fill:#96ceb4"/><text transform="translate(1155.41 651.75)" style="isolation:isolate;font-size:22.437362670898438px;fill:#fff;font-family:Arial-BoldMT, Arial;font-weight:700">A<tspan x="16.2" y="0" style="letter-spacing:-0.07420832327408863em">L</tspan><tspan x="28.24" y="0" style="letter-spacing:-0.000043523943269260196em">TERN</tspan><tspan x="89.32" y="0" style="letter-spacing:-0.07420832327408863em">A</tspan><tspan x="103.86" y="0">TIVES</tspan></text><text transform="translate(1057.46 714.86)" style="isolation:isolate;font-size:16.828022003173828px;fill:#fff;font-family:ArialMT, Arial">DPO: Direct Preference Optimization</text><text transform="translate(1057.46 735.89)" style="isolation:isolate;font-size:15.425686836242676px;fill:#aaa;font-family:ArialMT, Arial">• Skip reward model, optimize directly</text><text transform="translate(1057.46 763.94)" style="isolation:isolate;font-size:16.828022003173828px;fill:#fff;font-family:ArialMT, Arial">GRPO: Group Relative Policy Optimization</text><text transform="translate(1057.46 784.97)" style="isolation:isolate;font-size:15.425686836242676px;fill:#aaa;font-family:ArialMT, Arial">• Improved stability and performance</text><text transform="translate(1057.46 813.02)" style="isolation:isolate;font-size:16.828022003173828px;fill:#4caf50;font-family:Arial-BoldMT, Arial;font-weight:700">Cost: Lower complexity than RLHF</text></g></g></svg>