<svg viewBox="0 0 1400 2400" xmlns="http://www.w3.org/2000/svg">
  <!-- Background -->
  <rect width="1400" height="2400" fill="#f8f9fa"/>
  
  <!-- Title -->
  <text x="700" y="40" font-size="32" font-weight="bold" text-anchor="middle" fill="#2c3e50">
    Electromagnetic Soil Sensor: Corrected Design
  </text>
  <text x="700" y="70" font-size="18" text-anchor="middle" fill="#e74c3c">
    Critical Design Issues &amp; Solutions
  </text>
  
  <!-- Section 1: Ground Plane Requirement -->
  <g transform="translate(50, 100)">
    <rect x="0" y="0" width="1300" height="350" fill="white" stroke="#e74c3c" stroke-width="3" rx="10"/>
    <text x="20" y="35" font-size="24" font-weight="bold" fill="#e74c3c">⚠️ CRITICAL: Ground Plane Required</text>
    
    <!-- Without ground plane -->
    <g transform="translate(100, 80)">
      <text x="0" y="-10" font-size="16" font-weight="bold" fill="#e74c3c">WITHOUT Ground Plane (Wrong):</text>
      <!-- Probe -->
      <rect x="50" y="20" width="20" height="150" fill="#95a5a6"/>
      <rect x="59" y="30" width="2" height="130" fill="#e74c3c"/>
      
      <!-- Radiation pattern - omnidirectional -->
      <g stroke="#e74c3c" stroke-width="2" fill="none" opacity="0.5">
        <ellipse cx="60" cy="90" rx="100" ry="30"/>
        <ellipse cx="60" cy="90" rx="150" ry="45"/>
        <ellipse cx="60" cy="90" rx="200" ry="60"/>
      </g>
      
      <text x="0" y="200" font-size="12" fill="#e74c3c">• Energy radiates sideways</text>
      <text x="0" y="220" font-size="12" fill="#e74c3c">• Poor penetration</text>
      <text x="0" y="240" font-size="12" fill="#e74c3c">• FCC violations possible</text>
    </g>
    
    <!-- With ground plane -->
    <g transform="translate(600, 80)">
      <text x="0" y="-10" font-size="16" font-weight="bold" fill="#27ae60">WITH Ground Plane (Correct):</text>
      
      <!-- Ground plane -->
      <ellipse cx="60" cy="20" rx="80" ry="15" fill="#f39c12" stroke="#d68910" stroke-width="2"/>
      <text x="150" y="25" font-size="12" fill="#7f8c8d">Metal ground plane</text>
      
      <!-- Probe -->
      <rect x="50" y="20" width="20" height="150" fill="#95a5a6"/>
      <rect x="59" y="30" width="2" height="130" fill="#e74c3c"/>
      
      <!-- Radiation pattern - downward -->
      <g stroke="#27ae60" stroke-width="2" fill="none" opacity="0.5">
        <path d="M 30 40 L 20 170 L 100 170 L 90 40" fill="#27ae60" fill-opacity="0.1"/>
        <path d="M 40 40 L 35 140 L 85 140 L 80 40"/>
        <path d="M 50 40 L 47 110 L 73 110 L 70 40"/>
      </g>
      
      <text x="0" y="200" font-size="12" fill="#27ae60">• Energy directed downward</text>
      <text x="0" y="220" font-size="12" fill="#27ae60">• Maximum penetration</text>
      <text x="0" y="240" font-size="12" fill="#27ae60">• Minimal interference</text>
    </g>
    
    <!-- Implementation -->
    <g transform="translate(100, 300)">
      <text x="0" y="0" font-size="14" font-weight="bold" fill="#2c3e50">Ground Plane Options:</text>
      <text x="200" y="0" font-size="12" fill="#34495e">• Copper disc: 10-20cm diameter, 1mm thick</text>
      <text x="500" y="0" font-size="12" fill="#34495e">• Aluminum plate: Cheaper, adequate</text>
      <text x="750" y="0" font-size="12" fill="#34495e">• Radial wires: 4-8 wires, λ/4 length</text>
    </g>
  </g>
  
  <!-- Section 2: Coaxial Structure Explanation -->
  <g transform="translate(50, 480)">
    <rect x="0" y="0" width="600" height="400" fill="white" stroke="#dee2e6" stroke-width="2" rx="10"/>
    <text x="20" y="35" font-size="24" font-weight="bold" fill="#2c3e50">2. What the Spiral Actually Does</text>
    
    <!-- Cross-section view -->
    <g transform="translate(200, 100)">
      <text x="0" y="-20" font-size="14" font-weight="bold" fill="#2c3e50">Cross-Section View:</text>
      
      <!-- Outer circle (PVC) -->
      <circle cx="100" cy="100" r="80" fill="#ecf0f1" stroke="#95a5a6" stroke-width="3"/>
      
      <!-- Spiral conductors -->
      <g fill="#f39c12" stroke="#d68910" stroke-width="1">
        <circle cx="100" cy="25" r="8"/>
        <circle cx="175" cy="100" r="8"/>
        <circle cx="100" cy="175" r="8"/>
        <circle cx="25" cy="100" r="8"/>
      </g>
      
      <!-- Center conductor -->
      <circle cx="100" cy="100" r="5" fill="#e74c3c" stroke="#c0392b" stroke-width="2"/>
      
      <!-- Field lines -->
      <g stroke="#3498db" stroke-width="1" fill="none" stroke-dasharray="2,2">
        <line x1="100" y1="100" x2="100" y2="33"/>
        <line x1="100" y1="100" x2="167" y2="100"/>
        <line x1="100" y1="100" x2="100" y2="167"/>
        <line x1="100" y1="100" x2="33" y2="100"/>
      </g>
      
      <!-- Labels -->
      <text x="220" y="30" font-size="11" fill="#34495e">Spiral acts as</text>
      <text x="220" y="45" font-size="11" fill="#34495e">return path</text>
      
      <text x="220" y="100" font-size="11" fill="#34495e">Electric field</text>
      <text x="220" y="115" font-size="11" fill="#34495e">through soil</text>
      
      <text x="220" y="170" font-size="11" fill="#34495e">Center conductor</text>
      <text x="220" y="185" font-size="11" fill="#34495e">(signal)</text>
    </g>
    
    <!-- Explanation -->
    <g transform="translate(50, 320)">
      <text x="0" y="0" font-size="13" font-weight="bold" fill="#2c3e50">This is NOT a waveguide!</text>
      <text x="0" y="25" font-size="12" fill="#34495e">• It's a "leaky coaxial transmission line"</text>
      <text x="0" y="45" font-size="12" fill="#34495e">• Energy leaks through gaps in spiral</text>
      <text x="0" y="65" font-size="12" fill="#34495e">• Soil becomes the dielectric medium</text>
    </g>
  </g>
  
  <!-- Section 3: Environmental Concerns -->
  <g transform="translate(700, 480)">
    <rect x="0" y="0" width="650" height="400" fill="#fff5f5" stroke="#e74c3c" stroke-width="2" rx="10"/>
    <text x="20" y="35" font-size="24" font-weight="bold" fill="#e74c3c">3. Environmental Hazards</text>
    
    <!-- Copper leaching -->
    <g transform="translate(50, 80)">
      <text x="0" y="0" font-size="14" font-weight="bold" fill="#e74c3c">Copper Leaching Problem:</text>
      <text x="0" y="30" font-size="12" fill="#34495e">• Bog pH (3.5-4.5) dissolves copper</text>
      <text x="0" y="50" font-size="12" fill="#34495e">• Cu²⁺ toxic to microorganisms at &gt;100 ppm</text>
      <text x="0" y="70" font-size="12" fill="#34495e">• Creates "dead zone" around probe</text>
      <text x="0" y="90" font-size="12" fill="#34495e">• Violates environmental regulations</text>
    </g>
    
    <!-- Safe alternatives -->
    <g transform="translate(50, 200)">
      <text x="0" y="0" font-size="14" font-weight="bold" fill="#27ae60">Safe Alternatives:</text>
      
      <rect x="0" y="15" width="250" height="60" fill="#d5f4e6" stroke="#27ae60" rx="5"/>
      <text x="10" y="35" font-size="12" font-weight="bold" fill="#27ae60">316 Stainless Steel</text>
      <text x="10" y="50" font-size="11" fill="#34495e">• Corrosion resistant</text>
      <text x="10" y="65" font-size="11" fill="#34495e">• Non-toxic, +$15 cost</text>
      
      <rect x="270" y="15" width="250" height="60" fill="#d5f4e6" stroke="#27ae60" rx="5"/>
      <text x="280" y="35" font-size="12" font-weight="bold" fill="#27ae60">Graphite Electrodes</text>
      <text x="280" y="50" font-size="11" fill="#34495e">• Inert, conductive</text>
      <text x="280" y="65" font-size="11" fill="#34495e">• Eco-friendly, +$10</text>
    </g>
    
    <!-- RF emissions -->
    <g transform="translate(50, 300)">
      <text x="0" y="0" font-size="14" font-weight="bold" fill="#2c3e50">RF Emissions:</text>
      <text x="0" y="25" font-size="12" fill="#34495e">With proper ground plane:</text>
      <text x="0" y="45" font-size="11" fill="#27ae60">• Surface radiation: &lt;-60 dBm (negligible)</text>
      <text x="0" y="65" font-size="11" fill="#27ae60">• FCC Part 15 compliant</text>
    </g>
  </g>
  
  <!-- Section 4: Proper Circuit with Directional Coupler -->
  <g transform="translate(50, 910)">
    <rect x="0" y="0" width="1300" height="350" fill="white" stroke="#dee2e6" stroke-width="2" rx="10"/>
    <text x="20" y="35" font-size="24" font-weight="bold" fill="#2c3e50">4. Complete Circuit (with Directional Coupler)</text>
    
    <!-- Circuit diagram -->
    <g transform="translate(100, 80)">
      <!-- Si5351 -->
      <rect x="0" y="0" width="100" height="60" fill="#9b59b6" rx="5"/>
      <text x="50" y="35" font-size="12" text-anchor="middle" fill="white">Si5351</text>
      
      <!-- Directional coupler box -->
      <g transform="translate(150, -20)">
        <rect x="0" y="0" width="200" height="100" fill="none" stroke="#34495e" stroke-width="2" stroke-dasharray="5,5" rx="5"/>
        <text x="100" y="-10" font-size="12" text-anchor="middle" fill="#34495e">Directional Coupler</text>
        
        <!-- Resistor bridge inside -->
        <g stroke="#34495e" stroke-width="1" fill="none">
          <!-- Horizontal resistors -->
          <rect x="20" y="35" width="40" height="10" fill="white" stroke="#34495e"/>
          <text x="40" y="25" font-size="10" text-anchor="middle" fill="#34495e">50Ω</text>
          
          <rect x="140" y="35" width="40" height="10" fill="white" stroke="#34495e"/>
          <text x="160" y="25" font-size="10" text-anchor="middle" fill="#34495e">50Ω</text>
          
          <!-- Vertical resistors -->
          <rect x="75" y="15" width="10" height="30" fill="white" stroke="#34495e"/>
          <text x="95" y="30" font-size="10" fill="#34495e">50Ω</text>
          
          <rect x="115" y="15" width="10" height="30" fill="white" stroke="#34495e"/>
          <text x="135" y="30" font-size="10" fill="#34495e">50Ω</text>
          
          <rect x="75" y="45" width="10" height="30" fill="white" stroke="#34495e"/>
          <text x="95" y="65" font-size="10" fill="#34495e">50Ω</text>
          
          <rect x="115" y="45" width="10" height="30" fill="white" stroke="#34495e"/>
          <text x="135" y="65" font-size="10" fill="#34495e">50Ω</text>
        </g>
        
        <!-- Connection points -->
        <circle cx="20" cy="40" r="3" fill="#34495e"/>
        <text x="5" y="40" font-size="10" fill="#34495e">IN</text>
        
        <circle cx="180" cy="40" r="3" fill="#34495e"/>
        <text x="190" y="40" font-size="10" fill="#34495e">OUT</text>
        
        <circle cx="80" cy="80" r="3" fill="#e74c3c"/>
        <text x="65" y="95" font-size="10" fill="#e74c3c">FWD</text>
        
        <circle cx="120" cy="80" r="3" fill="#3498db"/>
        <text x="105" y="95" font-size="10" fill="#3498db">REV</text>
      </g>
      
      <!-- Probe -->
      <g transform="translate(400, -10)">
        <rect x="0" y="20" width="30" height="80" fill="#95a5a6" rx="5"/>
        <text x="15" y="60" font-size="12" text-anchor="middle" fill="white">Probe</text>
        
        <!-- Ground plane -->
        <ellipse cx="15" cy="15" rx="40" ry="8" fill="#f39c12" stroke="#d68910" stroke-width="2"/>
      </g>
      
      <!-- AD8307 detectors -->
      <rect x="200" y="150" width="80" height="40" fill="#16a085" rx="5"/>
      <text x="240" y="175" font-size="11" text-anchor="middle" fill="white">AD8307</text>
      
      <rect x="300" y="150" width="80" height="40" fill="#16a085" rx="5"/>
      <text x="340" y="175" font-size="11" text-anchor="middle" fill="white">AD8307</text>
      
      <!-- nRF5340 -->
      <rect x="450" y="135" width="100" height="60" fill="#3498db" rx="5"/>
      <text x="500" y="165" font-size="12" text-anchor="middle" fill="white">nRF5340</text>
      <text x="500" y="180" font-size="10" text-anchor="middle" fill="white">ADC</text>
      
      <!-- Connections -->
      <g stroke="#34495e" stroke-width="2" fill="none">
        <path d="M 100 30 L 170 30"/>
        <path d="M 330 30 L 400 30"/>
        <path d="M 230 60 L 230 150" stroke="#e74c3c"/>
        <path d="M 270 60 L 300 120 L 340 150" stroke="#3498db"/>
        <path d="M 280 170 L 450 170"/>
        <path d="M 380 170 L 450 170"/>
      </g>
    </g>
    
    <!-- Explanation -->
    <g transform="translate(700, 100)">
      <text x="0" y="0" font-size="14" font-weight="bold" fill="#2c3e50">How it works:</text>
      <text x="0" y="30" font-size="12" fill="#34495e">1. Si5351 generates frequency (8kHz-200MHz)</text>
      <text x="0" y="50" font-size="12" fill="#34495e">2. Signal enters directional coupler</text>
      <text x="0" y="70" font-size="12" fill="#34495e">3. Most power goes to probe</text>
      <text x="0" y="90" font-size="12" fill="#34495e">4. Small sample to FWD detector</text>
      <text x="0" y="110" font-size="12" fill="#34495e">5. Reflections from soil to REV detector</text>
      <text x="0" y="130" font-size="12" fill="#34495e">6. nRF5340 calculates S11 = REV/FWD</text>
      
      <text x="0" y="170" font-size="13" font-weight="bold" fill="#2c3e50">Key measurements:</text>
      <text x="0" y="195" font-size="12" fill="#34495e">• Return Loss = -20 log(|S11|) dB</text>
      <text x="0" y="215" font-size="12" fill="#34495e">• Phase = atan2(Q,I) degrees</text>
    </g>
  </g>
  
  <!-- Section 5: Actual Field Pattern -->
  <g transform="translate(50, 1290)">
    <rect x="0" y="0" width="1300" height="400" fill="white" stroke="#dee2e6" stroke-width="2" rx="10"/>
    <text x="20" y="35" font-size="24" font-weight="bold" fill="#2c3e50">5. How Energy Propagates in Soil</text>
    
    <!-- Side view of probe in soil -->
    <g transform="translate(150, 80)">
      <text x="0" y="-10" font-size="14" font-weight="bold" fill="#2c3e50">Side View - Energy Distribution:</text>
      
      <!-- Soil layers -->
      <rect x="-50" y="30" width="400" height="40" fill="#8B7355" opacity="0.3"/>
      <rect x="-50" y="70" width="400" height="50" fill="#8B6914" opacity="0.3"/>
      <rect x="-50" y="120" width="400" height="60" fill="#654321" opacity="0.3"/>
      <rect x="-50" y="180" width="400" height="80" fill="#3E2723" opacity="0.3"/>
      
      <!-- Ground plane -->
      <ellipse cx="150" cy="30" rx="100" ry="15" fill="#f39c12" stroke="#d68910" stroke-width="2"/>
      
      <!-- Probe -->
      <rect x="140" y="30" width="20" height="200" fill="#95a5a6" stroke="#7f8c8d" stroke-width="2"/>
      <rect x="148" y="40" width="4" height="180" fill="#e74c3c"/>
      
      <!-- Spiral indicators -->
      <g stroke="#f39c12" stroke-width="2" fill="none">
        <ellipse cx="150" cy="60" rx="15" ry="3"/>
        <ellipse cx="150" cy="80" rx="15" ry="3"/>
        <ellipse cx="150" cy="100" rx="15" ry="3"/>
        <ellipse cx="150" cy="120" rx="15" ry="3"/>
        <ellipse cx="150" cy="140" rx="15" ry="3"/>
      </g>
      
      <!-- Field pattern -->
      <g fill="none" stroke-width="2" opacity="0.6">
        <!-- High frequency (shallow) -->
        <path d="M 150 40 Q 100 60 120 100 T 150 140" stroke="#e74c3c"/>
        <path d="M 150 40 Q 200 60 180 100 T 150 140" stroke="#e74c3c"/>
        <text x="250" y="90" font-size="11" fill="#e74c3c">100+ MHz (shallow)</text>
        
        <!-- Mid frequency -->
        <path d="M 150 40 Q 80 80 100 140 T 150 180" stroke="#f39c12"/>
        <path d="M 150 40 Q 220 80 200 140 T 150 180" stroke="#f39c12"/>
        <text x="250" y="140" font-size="11" fill="#f39c12">1-10 MHz (medium)</text>
        
        <!-- Low frequency (deep) -->
        <path d="M 150 40 Q 50 100 80 180 T 150 230" stroke="#27ae60"/>
        <path d="M 150 40 Q 250 100 220 180 T 150 230" stroke="#27ae60"/>
        <text x="250" y="190" font-size="11" fill="#27ae60">10-100 kHz (deep)</text>
      </g>
      
      <!-- Labels -->
      <text x="-40" y="50" font-size="11" fill="#34495e">Topsoil</text>
      <text x="-40" y="95" font-size="11" fill="#34495e">Organic</text>
      <text x="-40" y="150" font-size="11" fill="#34495e">Mineral</text>
      <text x="-40" y="210" font-size="11" fill="#34495e">Clay</text>
    </g>
    
    <!-- Key points -->
    <g transform="translate(700, 100)">
      <text x="0" y="0" font-size="14" font-weight="bold" fill="#2c3e50">Critical Design Elements:</text>
      
      <text x="0" y="30" font-size="12" fill="#34495e">✓ Ground plane focuses energy downward</text>
      <text x="0" y="50" font-size="12" fill="#34495e">✓ Lower frequencies penetrate deeper</text>
      <text x="0" y="70" font-size="12" fill="#34495e">✓ Field couples between center and spiral</text>
      <text x="0" y="90" font-size="12" fill="#34495e">✓ Soil properties affect propagation</text>
      
      <text x="0" y="130" font-size="14" font-weight="bold" fill="#e74c3c">Common Mistakes:</text>
      <text x="0" y="160" font-size="12" fill="#e74c3c">✗ No ground plane = omnidirectional radiation</text>
      <text x="0" y="180" font-size="12" fill="#e74c3c">✗ Copper materials = environmental damage</text>
      <text x="0" y="200" font-size="12" fill="#e74c3c">✗ Missing directional coupler = can't measure S11</text>
      <text x="0" y="220" font-size="12" fill="#e74c3c">✗ Poor probe spacing = weak coupling</text>
    </g>
  </g>
  
  <!-- Section 6: Complete Assembly -->
  <g transform="translate(50, 1720)">
    <rect x="0" y="0" width="1300" height="600" fill="white" stroke="#dee2e6" stroke-width="2" rx="10"/>
    <text x="20" y="35" font-size="24" font-weight="bold" fill="#2c3e50">6. Complete Physical Construction</text>
    
    <!-- Exploded view -->
    <g transform="translate(200, 100)">
      <text x="0" y="-20" font-size="14" font-weight="bold" fill="#2c3e50">Exploded View:</text>
      
      <!-- Weatherproof box -->
      <g transform="translate(0, 0)">
        <rect x="-40" y="-20" width="80" height="40" fill="#7f8c8d" rx="5"/>
        <text x="0" y="5" font-size="11" text-anchor="middle" fill="white">Electronics</text>
        <text x="100" y="0" font-size="11" fill="#34495e">Weatherproof box with</text>
        <text x="100" y="15" font-size="11" fill="#34495e">cable gland seal</text>
      </g>
      
      <!-- Ground plane -->
      <g transform="translate(0, 50)">
        <ellipse cx="0" cy="0" rx="60" ry="10" fill="#f39c12" stroke="#d68910" stroke-width="2"/>
        <text x="80" y="5" font-size="11" fill="#34495e">Aluminum disc 15cm dia.</text>
      </g>
      
      <!-- PVC pipe -->
      <g transform="translate(0, 100)">
        <rect x="-15" y="0" width="30" height="200" fill="none" stroke="#95a5a6" stroke-width="2"/>
        <text x="50" y="100" font-size="11" fill="#34495e">1/2" PVC pipe</text>
      </g>
      
      <!-- Stainless steel spiral -->
      <g transform="translate(0, 100)">
        <g stroke="#95a5a6" stroke-width="3" fill="none">
          <ellipse cx="0" cy="20" rx="20" ry="4"/>
          <ellipse cx="0" cy="40" rx="20" ry="4"/>
          <ellipse cx="0" cy="60" rx="20" ry="4"/>
          <ellipse cx="0" cy="80" rx="20" ry="4"/>
          <ellipse cx="0" cy="100" rx="20" ry="4"/>
        </g>
        <text x="50" y="20" font-size="11" fill="#27ae60">316 Stainless steel wire</text>
        <text x="50" y="35" font-size="11" fill="#27ae60">(not copper!)</text>
      </g>
      
      <!-- Center rod -->
      <g transform="translate(0, 110)">
        <rect x="-2" y="0" width="4" height="180" fill="#34495e"/>
        <text x="50" y="150" font-size="11" fill="#34495e">Stainless steel rod</text>
      </g>
      
      <!-- Steel tip -->
      <g transform="translate(0, 300)">
        <polygon points="0,0 -10,20 10,20" fill="#2c3e50"/>
        <text x="50" y="10" font-size="11" fill="#34495e">Hardened steel tip</text>
      </g>
    </g>
    
    <!-- Bill of materials - updated -->
    <g transform="translate(700, 100)">
      <text x="0" y="0" font-size="14" font-weight="bold" fill="#2c3e50">Updated Bill of Materials:</text>
      
      <g transform="translate(0, 30)">
        <rect x="0" y="0" width="400" height="300" fill="#f8f9fa" stroke="#dee2e6" rx="5"/>
        
        <text x="10" y="25" font-size="12" font-weight="bold" fill="#34495e">Component</text>
        <text x="250" y="25" font-size="12" font-weight="bold" fill="#34495e">Cost</text>
        <text x="320" y="25" font-size="12" font-weight="bold" fill="#34495e">Note</text>
        
        <line x1="10" y1="35" x2="390" y2="35" stroke="#dee2e6" stroke-width="1"/>
        
        <text x="10" y="55" font-size="11" fill="#34495e">Si5351 Module</text>
        <text x="250" y="55" font-size="11" fill="#34495e">$8</text>
        
        <text x="10" y="75" font-size="11" fill="#34495e">AD8307 Log Detector</text>
        <text x="250" y="75" font-size="11" fill="#34495e">$15</text>
        
        <text x="10" y="95" font-size="11" fill="#34495e">Resistors (6x 50Ω)</text>
        <text x="250" y="95" font-size="11" fill="#34495e">$2</text>
        
        <text x="10" y="115" font-size="11" fill="#34495e">PVC Pipe (1m)</text>
        <text x="250" y="115" font-size="11" fill="#34495e">$3</text>
        
        <text x="10" y="135" font-size="11" fill="#27ae60">Stainless Steel Wire</text>
        <text x="250" y="135" font-size="11" fill="#27ae60">$15</text>
        <text x="320" y="135" font-size="11" fill="#27ae60">Safe!</text>
        
        <text x="10" y="155" font-size="11" fill="#27ae60">Stainless Steel Rod</text>
        <text x="250" y="155" font-size="11" fill="#27ae60">$10</text>
        <text x="320" y="155" font-size="11" fill="#27ae60">Safe!</text>
        
        <text x="10" y="175" font-size="11" fill="#34495e">Aluminum Ground Plane</text>
        <text x="250" y="175" font-size="11" fill="#34495e">$5</text>
        <text x="320" y="175" font-size="11" fill="#e74c3c">Required!</text>
        
        <text x="10" y="195" font-size="11" fill="#34495e">Weatherproof Box</text>
        <text x="250" y="195" font-size="11" fill="#34495e">$10</text>
        
        <text x="10" y="215" font-size="11" fill="#34495e">Cable Gland</text>
        <text x="250" y="215" font-size="11" fill="#34495e">$3</text>
        
        <line x1="10" y1="235" x2="390" y2="235" stroke="#34495e" stroke-width="2"/>
        
        <text x="10" y="260" font-size="13" font-weight="bold" fill="#34495e">TOTAL:</text>
        <text x="250" y="260" font-size="13" font-weight="bold" fill="#27ae60">$71</text>
        <text x="320" y="260" font-size="11" fill="#34495e">(was $33)</text>
        
        <text x="10" y="285" font-size="11" fill="#e74c3c">Price increased but environmentally safe</text>
      </g>
    </g>
    
    <!-- Installation steps -->
    <g transform="translate(100, 420)">
      <text x="0" y="0" font-size="14" font-weight="bold" fill="#2c3e50">Installation Procedure:</text>
      <text x="0" y="30" font-size="12" fill="#34495e">1. Assemble probe with stainless steel (not copper)</text>
      <text x="0" y="50" font-size="12" fill="#34495e">2. Attach ground plane at surface level</text>
      <text x="0" y="70" font-size="12" fill="#34495e">3. Connect directional coupler between Si5351 and probe</text>
      <text x="0" y="90" font-size="12" fill="#34495e">4. Seal all connections with silicone (not epoxy)</text>
      <text x="0" y="110" font-size="12" fill="#34495e">5. Push probe into soil until ground plane touches surface</text>
      <text x="0" y="130" font-size="12" fill="#34495e">6. Begin frequency sweep 8kHz → 200MHz</text>
    </g>
  </g>
  
  <!-- Arrow marker -->
  <defs>
    <marker id="arrowhead" markerWidth="10" markerHeight="10" refX="9" refY="3" orient="auto">
      <polygon points="0 0, 10 3, 0 6" fill="#34495e"/>
    </marker>
  </defs>
</svg>